<?xml version="1.0" encoding="UTF-8"?>
<svg id="Layer_1" data-name="Layer 1" xmlns="http://www.w3.org/2000/svg" version="1.1" viewBox="0 0 311.8 141.7">
  <defs>
    <style>
      .cls-1 {
        fill: #e10098;
      }

      .cls-1, .cls-2 {
        stroke-width: 0px;
      }

      .cls-2 {
        fill: #003b5c;
      }
    </style>
  </defs>
  <polygon class="cls-1" points="117.8 85.7 88.2 85.7 58.6 26.5 88.2 26.5 117.8 85.7"/>
  <polygon class="cls-1" points="14.2 115.3 43.8 115.3 73.4 56.1 43.8 56.1 14.2 115.3"/>
  <g>
    <path class="cls-2" d="M153.4,63.9c0-2.9-.9-5-2.6-6.4-1.7-1.3-4-2-7-2s-3.3.2-5.2.5c-1.9.4-3.9.9-6,1.6l.4,7h3l.5-4.6c1-.3,2.1-.6,3-.8,1.1-.2,2.2-.3,3.2-.3,1.9,0,3.4.4,4.5,1.3,1.1.9,1.6,2.3,1.6,4.4v4.8h-6.8c-2.2,0-4.1.2-5.7.7-1.6.5-2.9,1.3-3.9,2.5-.9,1.2-1.4,2.9-1.4,5.1s.7,4.9,2.2,6.3c1.5,1.4,3.3,2.1,5.5,2.1s3.6-.5,5.6-1.4c1.8-.9,3.4-2.1,5-3.7l.6,4.9,7.9-.3v-2.5l-4.4-.9v-18.4ZM144.6,81.5c-1.6.8-3,1.2-4.3,1.2s-2.5-.4-3.3-1.3c-.9-.9-1.3-2.2-1.3-4s.5-3,1.6-3.8c1-.8,2.9-1.2,5.6-1.2h6.2v6.1c-1.4,1.2-2.8,2.2-4.3,3Z"/>
    <path class="cls-2" d="M189.1,42.7l-4,.2c-1-.2-2.1-.4-3.1-.6-1.5-.2-2.9-.3-4.2-.3-2.4,0-4.6.3-6.5,1-1.9.7-3.3,1.8-4.4,3.3-1.1,1.5-1.6,3.6-1.6,6.1v3.7l-4.5.6v2.5h4.5v22.9l-4.4.9v2.4h14.2v-2.4l-5.3-1v-22.9h7.7v-3.1c.1,0-7.7,0-7.7,0v-3.9c0-.5,0-1.1.1-1.9,0-.8.4-1.6.9-2.4.5-.8,1.3-1.5,2.5-2,1.1-.5,2.8-.8,4.9-.8s2.1,0,3.4.2c1,.1,2,.3,3,.5v36.3l-4.4.9v2.4h13.3v-2.4l-4.4-.9v-39.6Z"/>
    <path class="cls-2" d="M203.3,49.8c.9,0,1.6-.3,2.2-.8.6-.5.9-1.3.9-2.3s-.3-1.8-.8-2.4c-.6-.5-1.3-.8-2.2-.8s-1.6.3-2.2.8c-.6.5-.9,1.3-.9,2.3s.3,1.7.8,2.3c.6.6,1.3.8,2.1.8Z"/>
    <polygon class="cls-2" points="205.9 55.9 197.1 56.2 197.1 58.6 201.4 59.5 201.4 82.3 197.1 83.3 197.1 85.7 210.3 85.7 210.3 83.3 205.9 82.3 205.9 55.9"/>
    <path class="cls-2" d="M236.1,63.9c0-2.9-.9-5-2.6-6.4-1.7-1.3-4-2-7-2s-3.3.2-5.2.5c-1.9.4-3.9.9-6,1.6l.4,7h3l.5-4.6c1-.3,2.1-.6,3-.8,1.1-.2,2.2-.3,3.2-.3,1.9,0,3.4.4,4.5,1.3,1.1.9,1.6,2.3,1.6,4.4v4.8h-6.8c-2.2,0-4.1.2-5.7.7-1.6.5-2.9,1.3-3.9,2.5-.9,1.2-1.4,2.9-1.4,5.1s.7,4.9,2.2,6.3c1.5,1.4,3.3,2.1,5.5,2.1s3.6-.5,5.6-1.4c1.8-.9,3.4-2.1,5-3.7l.6,4.9,7.9-.3v-2.5l-4.4-.9v-18.4ZM227.3,81.5c-1.6.8-3,1.2-4.3,1.2s-2.5-.4-3.3-1.3c-.9-.9-1.3-2.2-1.3-4s.5-3,1.6-3.8c1-.8,2.9-1.2,5.6-1.2h6.2v6.1c-1.4,1.2-2.8,2.2-4.3,3Z"/>
    <path class="cls-2" d="M271.8,64.9c0-3.2-.8-5.5-2.4-7-1.6-1.5-3.7-2.3-6.1-2.3s-3.8.4-5.8,1.3c-1.8.8-3.6,2.1-5.3,3.7l-.5-4.8-7.9.4v2.4l4.4.9v22.7l-4.4,1v2.4h13.1v-2.4l-4.2-.9v-19.1c1.4-1.4,2.9-2.4,4.4-3.1,1.6-.7,3.1-1.1,4.5-1.1s3.2.5,4.2,1.6c1,1.1,1.6,2.8,1.6,5.1v16.5l-4.2.9v2.4h13.1v-2.4l-4.4-.9v-17.5Z"/>
    <path class="cls-2" d="M295.6,81.4c-.9.4-1.7.7-2.5,1-.8.2-1.5.3-2.2.3-1.1,0-2-.4-2.6-1.1-.6-.7-.9-1.9-.9-3.4v-19h8l.2-3.1h-8.2v-7.4l-4.5.7v6.6l-5,.7v2.5h5v19.6c0,2.5.6,4.3,1.7,5.5,1.1,1.2,2.7,1.8,4.6,1.8s4.7-.7,7.4-2.2l-1-2.6Z"/>
  </g>
</svg>