<svg xmlns="http://www.w3.org/2000/svg" width="166" height="65" viewBox="0 0 166 65" fill="none"><g clip-path="url(#clip0_601_4)"><path d="M3.28766 65H6.79091L9.10844 58.3538H9.16234L11.4799 65H14.9831L18.3247 54.8977H15.3065L13.1506 62.3415L10.5636 54.8977H7.76104L5.17403 62.3415L3.01818 54.8977H0L3.28766 65ZM22.7442 53.7812H25.5468V51.7076H22.7442V53.7812ZM26.7325 53.7812H29.5351V51.7076H26.7325V53.7812ZM19.4026 61.2781L19.4565 62.182L19.5643 62.5542L19.6721 62.9264L19.7799 63.2454L19.9416 63.5112L20.1571 63.7771L20.3727 64.0429L20.6422 64.2556L21.0195 64.4151L21.3429 64.5746L21.774 64.681L22.2052 64.7873L22.6903 64.8405L23.7682 64.8937H28.4571L29.5351 64.8405L30.0201 64.7873L30.4513 64.681L30.8825 64.5746L31.2597 64.4151L31.5831 64.2556L31.9065 64.0429L32.1221 63.7771L32.3377 63.5112L32.4994 63.2454L32.6071 62.9264L32.7149 62.5542L32.8227 62.182L32.8766 61.2781V54.7914H29.589V60.6401L29.5351 61.0654L29.4812 61.4376L29.3734 61.7566L29.2117 61.9693L28.9961 62.1288L28.6188 62.3415L28.2416 62.3947H24.0377L23.6604 62.3415L23.2831 62.182L23.0675 62.0225L22.9058 61.8098L22.798 61.4908L22.6903 61.1186V54.7914H19.4026L19.4026 61.2781ZM36.811 57.3967H41.2844L41.8234 57.4499L42.039 57.5031L42.2545 57.6094L42.4162 57.7157L42.524 57.9284L42.5779 58.1411V59.045L42.524 59.2577L42.4701 59.4172L42.3623 59.5767L42.2007 59.683L41.9851 59.7362L41.7695 59.7894L41.5 59.8957H36.811L36.811 57.3967ZM33.9545 65H36.811V62.3947H41.5539L41.8234 62.4479L42.039 62.5542L42.2007 62.6605L42.3084 62.8732L42.4162 63.0859L42.4701 63.4049V65H45.3266V63.2986L45.2727 62.7669L45.1649 62.3415L45.0571 61.9693L44.8416 61.7035L44.5721 61.4908L44.3026 61.3313L43.9792 61.2249L43.6558 61.0654V61.0123L44.087 60.9059L44.4643 60.6933L44.7877 60.4806L45.0032 60.2147L45.1649 59.8957L45.2188 59.5235L45.2727 59.0982L45.3266 58.6728V57.9816L45.2727 57.2904L45.1649 56.7587L45.0032 56.2802L44.8416 55.9611L44.6799 55.7485L44.5182 55.5358L44.3026 55.3763L44.087 55.2699L43.8175 55.1636L43.4942 55.0572L43.1708 55.0041L42.4701 54.8977H33.9545V65ZM46.3507 57.3967H50.5546V65H53.4649V57.3967H57.6688V54.8977H46.3506L46.3507 57.3967ZM60.3636 65H63.1123V61.1718H68.9331V65H71.6818V54.8977H68.9331V58.5133H63.1123V54.8977H60.3636V65Z" fill="#E30613"></path><path d="M74.9156 65H77.826V62.4478H83.9701L84.3474 62.3947L84.6169 62.2883L84.9403 62.182L85.1558 62.0225L85.4253 61.863L85.587 61.6503L85.8026 61.4376L86.0721 60.9591L86.2338 60.4806L86.3416 59.8957V57.7157L86.2338 57.1309L86.126 56.8118L86.0182 56.546L85.8565 56.2802L85.6409 56.0675L85.4253 55.8548L85.1558 55.4294L84.8325 55.2699L84.5091 55.1636L84.1318 55.0572L83.7545 54.9509L83.2695 54.8977H74.9156L74.9156 65ZM77.826 57.3967H82.0838L82.4072 57.4499L82.6766 57.5031L82.8922 57.5562L83.0539 57.6626L83.1617 57.8221L83.2695 57.9816L83.3234 58.1943V58.8855L83.2695 59.2577L83.2156 59.4703L83.1078 59.5767L82.9461 59.7362L82.7844 59.8425L82.5688 59.8957H77.826L77.826 57.3967ZM88.9286 65H91.6234V61.1718H97.4442V65H100.193V54.8977H97.4442V58.5133H91.6234V54.8977H88.9286V65ZM102.403 61.4376V61.9693L102.457 62.3947L102.564 62.82L102.672 63.1922L102.834 63.5112L103.049 63.8303L103.265 64.0429L103.534 64.2556L103.804 64.4683L104.127 64.5746L104.505 64.7342L104.882 64.7873L105.744 64.9468H112.481L113.344 64.7873L113.721 64.7342L114.098 64.5746L114.421 64.4683L114.745 64.2556L114.96 64.0429L115.23 63.8303L115.392 63.5112L115.553 63.1922L115.715 62.82L115.769 62.3947L115.823 61.9693L115.877 61.4376V58.5133L115.823 57.9816L115.769 57.5562L115.715 57.1309L115.553 56.7587L115.392 56.4397L115.23 56.1738L114.96 55.908L114.745 55.6953L114.421 55.5358L114.098 55.3763L113.721 55.2699L113.344 55.1636L112.481 55.0572L111.565 54.8977H106.714L105.744 54.9509L104.882 55.0572L104.505 55.1636L104.127 55.2699L103.804 55.4294L103.534 55.5889L103.265 55.8016L103.049 56.0675L102.834 56.3333L102.672 56.6523L102.564 57.0245L102.457 57.4499L102.403 57.8752V61.4376ZM105.475 59.4172V58.9918L105.529 58.6196L105.636 58.3006L105.852 58.0348L106.068 57.7689L106.391 57.6094L106.822 57.5031H111.403L111.834 57.6094L112.158 57.7689L112.427 58.0348L112.589 58.3006L112.697 58.6196L112.751 58.9918V61.0123L112.697 61.4376L112.589 61.7566L112.427 62.0225L112.212 62.2352L111.942 62.3415L111.511 62.4478H106.714L106.337 62.3415L106.014 62.2352L105.798 62.0225L105.636 61.7566L105.529 61.4376L105.475 61.0123V59.4172ZM116.955 65H127.195V62.5542H119.757V60.9591H126.656V58.8323H119.757V57.2372H127.087V54.8977H116.955L116.955 65ZM130.968 65H133.986V57.6626L139.699 65H144.442V54.8977H141.423V62.2352H141.369L135.656 54.8977H130.968V65ZM146.597 65H149.831V54.8977H146.597V65ZM151.448 65H155.49L158.724 61.3313L161.958 65H166L161.203 59.9489L165.677 54.8977H161.796L158.724 58.4601L155.652 54.8977H151.771L156.245 59.9489L151.448 65Z" fill="black"></path><path d="M153.604 46.6032H144.442V42.6687H148.268V44.2106H149.777V42.6687H153.604V46.6032ZM149.777 51.1758V52.7709L150.208 52.6646L150.586 52.5583L150.963 52.3987L151.286 52.1861L151.61 51.9734L151.987 51.7075L152.256 51.4417L152.526 51.1758L152.795 50.8568L153.011 50.5378L153.173 50.2188L153.334 49.8466L153.442 49.4744L153.55 49.1022L153.604 48.73V48.2515H144.442V48.3578L144.495 48.73L144.549 49.1022L144.603 49.4744L144.765 49.8466L144.873 50.2188L145.088 50.5378L145.304 50.8568L145.519 51.1758L145.789 51.4417L146.058 51.7075L146.382 51.9202L146.705 52.1329L147.082 52.3456L147.46 52.5051L147.837 52.6114L148.214 52.7178V51.1227L149.777 51.1758Z" fill="#E30613"></path><path fill-rule="evenodd" clip-rule="evenodd" d="M29.0498 23.6563L30.0868 21.9591L31.2299 20.3109L32.4237 18.6142L33.6757 17.0319L34.9277 15.4953L36.2929 14.0204L37.5993 12.5933L39.0125 11.28L40.4251 10.0204L41.8949 8.81662L43.3662 7.66709L44.836 6.62443L46.3575 5.64291L47.8833 4.70978L49.4592 3.89044L50.9855 3.18009L52.5593 2.46283L54.1438 1.86094L55.6653 1.37178L57.2418 0.932067L58.822 0.547649L60.3435 0.276483L61.9264 0.10953L63.4479 0H64.915L66.4408 0.0531698L67.9089 0.222782L69.3221 0.439183L70.7411 0.771494L72.1559 1.2043L73.5168 1.7546L74.8232 2.35755L76.0752 3.0679L77.3256 3.83727L78.0338 4.38598L78.6881 4.87142L79.3403 5.4749L79.9946 6.02308L80.5928 6.67919L81.1355 7.28427L81.6815 7.9441L82.2269 8.60235L82.712 9.31269L83.203 10.0225L84.0184 11.5591L84.7838 13.0888L85.4375 14.7328L85.6531 13.9672L85.8148 13.1436L86.0907 12.379L86.3063 11.6665L86.6367 10.9562L86.9601 10.2416L87.2889 9.58333L87.6661 8.92774L88.0488 8.27003L88.5403 7.66922L88.9715 7.1205L89.4609 6.57179L90.0063 6.0252L90.5523 5.53604L91.15 5.09633L91.7498 4.65714L92.5647 4.1632L93.4346 3.73039L94.3083 3.34385L95.176 3.06843L96.0998 2.8499L97.0279 2.6335L98.0034 2.52397L98.9865 2.46548H99.969L100.945 2.52397L101.928 2.6335L102.958 2.8499L103.995 3.06843L104.971 3.34385L106.008 3.66872L107.043 4.10843L108.073 4.54762L109.11 5.04156L110.086 5.58974L111.123 6.19322L112.106 6.8488L113.081 7.55915L114.064 8.32427L115.04 9.08885L115.969 9.96775L116.892 10.8419L117.82 11.775L118.688 12.7608L119.558 13.7965L120.377 14.8392L121.192 15.9345L121.953 17.084L122.659 18.2878L123.368 19.4405L122.444 18.4526L121.462 17.5237L120.54 16.5906L119.558 15.7728L118.527 14.9466L117.547 14.1272L116.517 13.4169L115.48 12.7023L114.445 12.0446L113.415 11.4437L112.373 10.895L111.336 10.4053L110.251 9.91351L109.216 9.52697L108.126 9.1484L107.095 8.81662L106.058 8.54545L104.969 8.26791L103.939 8.1084L102.902 7.99887L101.872 7.88508H99.8542L98.876 7.99887L97.8956 8.1084L96.9174 8.26791L95.9893 8.54545L95.0677 8.81662L94.1396 9.1484L93.2697 9.5812L92.4004 10.0204L91.5267 10.5149L90.7113 11.1178L89.8985 11.7734L89.1375 12.4837L88.4245 13.1941L87.7702 13.9651L87.118 14.8397L86.5726 15.6569L86.0336 16.5906L85.5421 17.5779L85.1055 18.6142L85.0516 18.7822L84.5628 20.0982L84.1316 21.6826L83.8012 23.3841L83.5857 25.1387L83.424 26.9465V28.7542L83.5318 30.6683L83.6934 32.5899L84.0168 34.504L84.4539 36.4713L84.9454 38.4386L85.5987 40.4091L86.3592 42.4338L87.2333 44.4011L88.2116 46.3758L89.2464 48.3431L90.4439 50.2572L91.3133 51.5162L81.7877 51.5747L81.5182 49.936L81.3511 48.292L81.2433 46.6486L81.1355 44.9503L81.0816 43.3658V41.7224L81.1355 40.1326L81.1894 38.6029L81.405 35.5914L81.681 32.7436L81.9504 30.0574L82.1725 27.5952L82.3342 25.2934V23.2166L82.2803 22.2835L82.2264 21.4094L82.0593 20.6443L81.8437 19.8733L81.5743 19.2172L81.246 18.6142L80.8095 18.0677L80.3244 17.6327L79.7262 17.2483L79.0724 16.9771L78.3071 16.7538L77.4377 16.6448H76.4579L75.3121 16.698L74.3861 16.8075L73.4623 17.0303L72.593 17.2467L71.7188 17.5764L70.7972 17.9023L69.9758 18.3415L69.1081 18.7807L68.2932 19.3294L67.4712 19.8717L66.6585 20.5353L65.8975 21.193L65.1365 21.906L64.4283 22.6711L63.7217 23.4904L63.0103 24.3146L62.3576 25.186L61.7647 26.1192L61.1665 27.1049L60.5666 28.0886L60.0212 29.1286L59.5302 30.226L59.0387 31.3213L58.5498 32.466L58.1726 33.6156L57.736 34.8199L57.4126 36.0263L57.0758 37.2854L56.8063 38.5481L56.5848 39.8614L56.3692 41.1731L56.2075 42.487L56.0997 43.8545L55.8782 42.4327L55.6626 41.0115L55.5548 39.0974L55.5009 37.2306L55.5548 35.3696L55.6626 33.5619L55.8782 31.8073L56.1542 30.0527L56.5368 28.4182L56.9734 26.7753L57.5172 25.2387L58.117 23.7632L58.7692 22.3425L59.4779 20.9702L60.2907 19.7111L61.167 18.5068L62.0342 17.4099L63.0108 16.3763L61.9264 16.6996L60.8356 17.0319L59.7986 17.3552L58.7137 17.7423L57.6789 18.1814L56.7034 18.669L55.7203 19.163L54.7378 19.7111L53.7617 20.2577L52.8331 20.8585L51.9093 21.462L51.0394 22.1187L50.1652 22.829L49.3503 23.5457L48.537 24.2561L47.7156 25.0212L46.9552 25.8405L46.1942 26.6647L45.4881 27.4851L44.836 28.364L44.1817 29.2381L43.5295 30.1712L42.9836 31.1001L42.3859 32.0859L41.8404 33.0148L41.3489 34.0548L40.9177 35.0426L40.4806 36.0789L40.098 37.1211L39.7207 38.2164L39.3925 39.3133L39.1208 40.4091L39.013 39.0362L38.9591 37.6703L39.013 36.3022L39.1208 34.9358L39.2825 33.564L39.5056 32.2496L39.829 30.9363L40.1572 29.6773L40.5884 28.4182L41.0794 27.1597L41.6254 26.0102L42.2231 24.8059L42.8752 23.7084L43.5295 22.6137L44.29 21.5184L45.1054 20.5347L45.9247 19.5474L46.8484 18.6142L47.7771 17.6875L48.7526 16.8634L49.7357 16.044L50.8201 15.2789L51.9093 14.5664L53.0007 13.9656L54.1983 13.3621L55.3958 12.8139L56.5869 12.3195L57.8395 11.8808L59.0915 11.5549L60.3979 11.2226L61.7044 11.0062L63.0696 10.8382L64.4277 10.7286L65.843 10.6755L67.0951 10.7286L68.3476 10.7818L69.5996 10.953L70.7972 11.1694L71.9948 11.3874L73.1859 11.7176L74.3861 12.0983L75.4748 12.4827L76.3447 12.7012L77.2184 12.9766L78.0861 13.302L78.9037 13.6881L77.5455 12.6475L76.293 11.8282L74.9865 11.0631L73.6219 10.4054L72.2637 9.85876L70.8516 9.31058L69.4363 8.92563L67.9628 8.54547L66.4952 8.32216L64.9737 8.10629L63.4479 7.99676H60.2891L58.7676 8.16052L57.1329 8.32003L55.557 8.59758L53.9223 8.92298L52.3464 9.36216L50.7117 9.85664L49.1358 10.4054L47.5006 11.0062L45.8708 11.7186L44.29 12.4838L42.7141 13.3031L41.0794 14.182L39.5595 15.1699L37.9772 16.2056L36.4551 17.2478L34.9293 18.4526L33.4062 19.6569L31.9386 20.9154L30.4651 22.2835L29.0498 23.6563Z" fill="#9D9D9C"></path></g><defs><clipPath id="clip0_601_4"><rect width="166" height="65" fill="white"></rect></clipPath></defs></svg>