<svg width="143" height="41" viewBox="0 0 143 41" fill="none">
  <path
    d="M142.148 10.0065C142.148 10.4269 141.766 10.7326 141.345 10.7326H135.154V32.9749C135.154 33.3953 134.81 33.7393 134.39 33.7393H129.383C128.963 33.7393 128.619 33.3953 128.619 32.9749V10.7326H122.389C121.969 10.7326 121.625 10.4269 121.625 10.0065V6.07012C121.625 5.64973 121.969 5.34399 122.389 5.34399H141.345C141.766 5.34399 142.148 5.64973 142.148 6.07012V10.0065Z"
    fill="#E7424F" />
  <path
    d="M124.064 33.2806C124.064 33.5481 123.873 33.7392 123.605 33.7392H118.178C117.873 33.7392 117.796 33.701 117.529 33.4335L116.382 32.2105C114.471 33.3953 112.102 34.0832 109.274 34.0832C103.274 34.0832 98.6877 32.0195 98.6877 26.5926V26.2487C98.6877 22.962 100.637 20.7836 103.771 18.8346L103.465 18.4906C100.675 15.3568 100.064 13.6753 100.064 11.9555V11.6115C100.064 7.86628 102.815 5 109.121 5C114.777 5 117.834 7.71341 117.834 11.6115V11.9555C117.834 15.4715 115.503 17.3441 112.79 19.1021L111.605 19.8664L116.573 25.1022C116.994 24.1085 117.223 22.7327 117.223 20.3633V20.0575C117.223 19.6371 117.491 19.2932 117.911 19.2932H121.465C121.885 19.2932 122.191 19.6371 122.191 20.0575V20.3633C122.191 23.1913 121.771 25.9429 119.975 28.6946L123.873 32.822C124.026 32.9749 124.064 33.1277 124.064 33.2806ZM112.14 11.9555V11.6115C112.14 10.1975 111.147 9.28031 109.121 9.28031C106.904 9.28031 105.72 10.1975 105.72 11.6115V11.9555C105.72 13.0256 105.873 13.9046 107.86 15.8919L108.166 16.1976L109.159 15.5861C111.49 14.1339 112.14 13.4078 112.14 11.9555ZM113.096 28.771L107.248 22.5416C105.414 23.6499 105.032 24.7964 105.032 26.2487V26.5926C105.032 28.6181 106.713 29.65 109.274 29.65C110.841 29.65 112.064 29.3443 113.096 28.771Z"
    fill="#E7424F" />
  <path
    d="M95.2614 25.7136C95.2614 29.7646 92.5862 34.0832 84.8281 34.0832C81.809 34.0832 79.5542 33.7392 77.6051 33.2424C77.2229 33.1277 76.8408 32.8984 76.8408 32.4781V28.7328C76.8408 28.1977 77.1465 28.0067 77.5287 28.0067C77.5669 28.0067 77.6051 28.0067 77.6433 28.0067C79.2102 28.1595 83.4141 28.4653 84.9046 28.4653C87.5415 28.4653 88.3059 27.6245 88.3059 25.7901C88.3059 24.6818 87.7709 24.0703 85.7836 22.8856L80.5096 19.7518C76.9554 17.6498 76 15.2422 76 12.4523C76 8.24845 78.3695 5 85.7836 5C88.5734 5 92.4333 5.45861 93.8856 5.84078C94.1913 5.91721 94.4588 6.10829 94.4588 6.52868V10.3886C94.4588 10.7326 94.306 11.0383 93.8091 11.0383C93.8091 11.0383 93.7709 11.0383 93.7327 11.0383C92.6626 10.9619 88.2295 10.6179 85.6307 10.6179C83.4523 10.6179 82.6498 11.2676 82.6498 12.6434C82.6498 13.7135 83.1466 14.2103 85.2103 15.3186L90.1021 17.9556C94.0767 20.0957 95.2614 22.6181 95.2614 25.7136Z"
    fill="#E7424F" />
  <path
    d="M62.7464 9.79935C62.0841 9.07573 61.2651 8.51312 60.352 8.15453C60.3292 8.14475 60.3085 8.12954 60.2857 8.12085L42.9075 1.2417C42.7382 1.17615 42.5664 1.11708 42.3925 1.06462C42.2106 1.01272 42.0269 0.967428 41.8417 0.928818L41.7983 0.917954C41.718 0.898715 41.6372 0.881688 41.556 0.866893C41.3805 0.837058 41.2041 0.813504 41.0269 0.796276C40.9304 0.781376 40.8333 0.771224 40.7358 0.765857C40.4866 0.749048 40.2368 0.743972 39.9872 0.750647L9.59492 1.59261C9.38184 1.5996 9.1691 1.61482 8.9572 1.63824L8.78446 1.65889C8.3604 1.71304 7.94123 1.80022 7.53074 1.91962C7.31062 1.9824 7.09315 2.05416 6.8789 2.13473L6.84631 2.1456C6.45321 2.29754 6.07224 2.47913 5.70666 2.6888C5.4764 2.81952 5.25235 2.96091 5.03526 3.1125C4.82668 3.25863 4.6251 3.41452 4.43122 3.57966C4.3401 3.64909 4.25472 3.72575 4.17591 3.80889C4.11642 3.86562 4.0581 3.92358 4.001 3.98272L3.95754 4.02617L3.91735 4.06637C3.86168 4.11932 3.80734 4.17366 3.75438 4.22933C3.68375 4.29764 3.61736 4.37021 3.55557 4.44661C3.39144 4.63795 3.23697 4.83737 3.09276 5.04414C3.06249 5.08338 3.0335 5.1236 3.00585 5.16473C2.95913 5.23426 2.91785 5.3027 2.87657 5.37115L2.83963 5.43199C2.72229 5.61729 2.61705 5.80999 2.52457 6.00887C2.49136 6.07285 2.45984 6.13769 2.43005 6.20334C2.15576 6.82458 1.97772 7.48399 1.90206 8.15887C1.89445 8.22406 1.89119 8.28924 1.89119 8.3566L1.8749 12.5219C1.79638 13.4162 1.92588 14.3165 2.25326 15.1524C2.58064 15.9883 3.09702 16.737 3.76199 17.3401C4.12485 17.6736 4.52791 17.9626 4.96356 18.2071C4.9765 18.2524 4.99865 18.2945 5.02863 18.3309C5.05862 18.3672 5.09578 18.397 5.1378 18.4183C5.17982 18.4396 5.22579 18.452 5.27283 18.4547C5.31986 18.4575 5.36696 18.4505 5.41116 18.4341C5.54805 18.4971 5.68602 18.558 5.82834 18.6134L23.6302 25.4914L23.6335 25.4828C24.5585 25.8395 25.5455 26.0076 26.5364 25.9771L32.0488 25.8228L34.0543 25.7663L56.5093 25.1362C60.453 25.0265 63.8317 22.142 64.2011 18.5699C64.2081 18.5043 64.2117 18.4383 64.212 18.3722L64.2283 14.2069C64.3004 13.4097 64.206 12.6063 63.9511 11.8475C63.6962 11.0887 63.2852 10.3913 62.7464 9.79935Z"
    fill="white" />
  <path
    d="M64.5075 9.58862C63.8058 8.82193 62.9381 8.22586 61.9707 7.84602C61.9468 7.83516 61.9262 7.81995 61.9012 7.81017L43.4909 0.522539C43.3116 0.45294 43.1296 0.390244 42.9455 0.33459C42.7528 0.279526 42.5582 0.231332 42.3621 0.190097L42.3176 0.18032C42.2326 0.159922 42.1471 0.141808 42.0612 0.125999C41.8753 0.0942434 41.6883 0.0692396 41.5006 0.0510369C41.3983 0.0350772 41.2954 0.0241998 41.192 0.0184446C40.9281 0.00100252 40.6634 -0.00407294 40.399 0.00323489L8.20431 0.894091C7.97852 0.901174 7.75309 0.91712 7.52856 0.941893L7.34604 0.963621C6.65487 1.05154 5.97656 1.22112 5.32532 1.4688L5.29273 1.47967C4.87651 1.64059 4.47303 1.83271 4.08573 2.05438C3.84164 2.19273 3.60418 2.34246 3.37413 2.50306C3.15317 2.65845 2.93964 2.82413 2.73423 2.99955C2.63737 3.07291 2.54654 3.15393 2.46263 3.24182C2.3998 3.3021 2.33822 3.36367 2.27794 3.42651L2.23123 3.47323L2.18994 3.51451C2.13073 3.5708 2.07277 3.62839 2.01612 3.68725C1.94166 3.75974 1.87165 3.83665 1.80644 3.91757C1.63261 4.11964 1.46965 4.3304 1.31647 4.55094C1.28388 4.59223 1.25237 4.63568 1.22413 4.67805C1.17685 4.74958 1.13157 4.82239 1.08832 4.89642L1.04813 4.96161C0.923799 5.15747 0.812737 5.36145 0.715685 5.57217C0.68014 5.64005 0.646449 5.70888 0.614649 5.77859C0.323378 6.43615 0.134684 7.13451 0.0551486 7.84928C0.048028 7.91895 0.0444021 7.98893 0.0442845 8.05896L0.0236427 12.4709C-0.0595782 13.4182 0.0775784 14.3719 0.424376 15.2574C0.771173 16.1428 1.3182 16.936 2.02264 17.5748C2.40831 17.9279 3.13946 18.4874 4.21284 18.9231L23.0686 26.2107L23.0729 26.1998C24.0525 26.5781 25.0979 26.7565 26.1474 26.7246L31.9869 26.5605L34.1119 26.5008L57.8978 25.8326C62.0761 25.7164 65.6547 22.6614 66.0458 18.8774C66.0523 18.8079 66.0567 18.7384 66.0567 18.6677L66.0741 14.2548C66.1505 13.4106 66.0506 12.5598 65.7808 11.7564C65.5109 10.9529 65.0769 10.2143 64.5064 9.58754L64.5075 9.58862ZM4.63111 4.21633L4.65175 4.20003C4.77994 4.11312 4.91248 4.02838 5.04829 3.94907L5.11564 3.91214C5.22428 3.85021 5.33293 3.78828 5.44591 3.73288C5.46004 3.72527 5.47525 3.71984 5.48937 3.71332C5.67406 3.62315 5.86092 3.5395 6.05321 3.46453L6.06082 3.46236C6.25094 3.38957 6.44541 3.32656 6.64205 3.27007L6.68985 3.25486C6.82674 3.21683 6.9658 3.18424 7.10595 3.15599C7.13528 3.14948 7.1657 3.14513 7.19503 3.1397C7.37918 3.10395 7.56476 3.07604 7.75127 3.05605C7.92075 3.03758 8.09023 3.02345 8.26188 3.01911L40.4565 2.12717C40.6645 2.12172 40.8726 2.12644 41.0801 2.14129H41.0997C41.154 2.14563 41.204 2.1565 41.2561 2.16302C41.4017 2.17714 41.5462 2.19344 41.6874 2.21734C41.7635 2.23146 41.8352 2.24993 41.9091 2.26623C42.0286 2.29339 42.1481 2.31946 42.2643 2.35314C42.286 2.35857 42.31 2.36292 42.3317 2.36943C42.461 2.40855 42.587 2.452 42.7097 2.4998L55.0753 7.39408L27.0568 8.18172C24.8844 8.2423 22.8104 9.10045 21.2304 10.5925L4.36928 4.41949C4.45728 4.35213 4.53985 4.28043 4.63002 4.21742L4.63111 4.21633ZM18.8967 15.7062L18.8805 19.7574C18.8011 20.695 18.9348 21.6076 19.252 22.455L15.2214 20.8971C15.2456 20.8102 15.2367 20.7175 15.1963 20.637C15.1559 20.5564 15.0869 20.4938 15.0029 20.4612C14.9188 20.4287 14.8257 20.4286 14.7416 20.461C14.6575 20.4933 14.5884 20.5558 14.5478 20.6363L10.1555 18.9393V18.885C10.1477 18.8142 10.1193 18.7472 10.0737 18.6924C10.0282 18.6377 9.96746 18.5975 9.89922 18.577C9.83098 18.5565 9.75821 18.5565 9.68999 18.5771C9.62177 18.5977 9.56112 18.6379 9.5156 18.6927L5.06567 16.9729C5.05283 16.918 5.02733 16.8669 4.99121 16.8236C4.95508 16.7803 4.90934 16.746 4.85762 16.7235C4.8059 16.7011 4.74965 16.691 4.69334 16.6941C4.63703 16.6972 4.58224 16.7135 4.53333 16.7415C4.22834 16.5892 3.9406 16.4045 3.67506 16.1907C3.72216 16.1196 3.74269 16.0342 3.73306 15.9494C3.72342 15.8647 3.68424 15.786 3.62239 15.7273C3.56054 15.6686 3.47998 15.6335 3.39484 15.6282C3.30971 15.623 3.22544 15.6479 3.15685 15.6986C2.7777 15.2785 2.4919 14.7829 2.31831 14.2443C2.14471 13.7057 2.08726 13.1365 2.14975 12.5741L2.16713 8.06657C2.18347 7.91625 2.2074 7.76686 2.23883 7.61896C2.24752 7.57659 2.25839 7.53531 2.26816 7.49294C2.29532 7.37887 2.32683 7.26697 2.3616 7.15615C2.37355 7.11922 2.38332 7.08228 2.39636 7.04751C2.44199 6.9128 2.49305 6.78134 2.54954 6.65206L2.5615 6.62925L2.57779 6.59557C2.61702 6.55012 2.64428 6.4956 2.6571 6.43695C2.69621 6.35656 2.73749 6.27725 2.78204 6.19794L2.82984 6.11972L5.68492 7.16485V7.19961C5.69276 7.26966 5.72082 7.3359 5.76569 7.39026C5.81056 7.44462 5.87028 7.48473 5.93757 7.5057C6.00486 7.52667 6.0768 7.52759 6.14461 7.50835C6.21241 7.4891 6.27314 7.45053 6.31938 7.39734L10.765 9.02369C10.765 9.0389 10.7628 9.05411 10.765 9.06932C10.7729 9.14023 10.8015 9.20723 10.8473 9.26195C10.8931 9.31667 10.954 9.35667 11.0224 9.37696C11.0908 9.39725 11.1637 9.39692 11.2319 9.37602C11.3001 9.35512 11.3607 9.31457 11.406 9.25944L15.8439 10.8836C15.8411 10.9603 15.8626 11.0359 15.9054 11.0995C15.9482 11.1632 16.01 11.2116 16.0821 11.238C16.1541 11.2643 16.2327 11.2671 16.3064 11.246C16.3802 11.2248 16.4453 11.1809 16.4925 11.1205L19.8354 12.3448C19.3321 13.1985 19.0166 14.1496 18.9098 15.1347L18.9065 15.1739C18.8691 15.2071 18.8389 15.2477 18.818 15.2931C18.7971 15.3386 18.7858 15.3878 18.7848 15.4379C18.7839 15.4879 18.7934 15.5376 18.8127 15.5838C18.8319 15.63 18.8606 15.6716 18.8967 15.7062ZM64.1544 14.1733L64.1381 18.6601C63.848 21.4772 61.0266 23.8228 57.8445 23.9108L25.9128 24.806C24.3016 24.806 22.8295 24.1976 21.8746 23.1383C21.4724 22.6959 21.1688 22.173 20.9839 21.6044C20.799 21.0358 20.7371 20.4344 20.8023 19.84L20.8186 15.3531C21.1087 12.5361 23.9312 10.1894 27.1122 10.1003L59.0439 9.20729C60.6551 9.20729 62.1271 9.8146 63.0821 10.8738C63.4842 11.3165 63.7878 11.8396 63.9726 12.4084C64.1575 12.9772 64.2194 13.5787 64.1544 14.1733Z"
    fill="#E7424F" />
  <path
    d="M39.9166 18.4668C36.9268 17.7421 30.9461 15.7855 23.7867 15.5443C23.3749 15.5302 22.6405 15.7095 22.6438 16.4265C22.6514 17.8551 22.6807 20.2963 22.6405 20.3093C22.6557 20.8504 22.6405 21.7716 23.4455 22.1421C27.4968 24.0086 34.7876 19.8443 39.8862 18.8014C40.2295 18.7308 40.3446 18.5711 39.9166 18.4668Z"
    fill="#E7424F" />
  <path
    d="M23.6454 14.886C32.2205 14.9686 38.2555 17.6922 42.6804 18.2484C47.7398 18.884 52.9839 16.0028 54.2572 15.074C54.5636 14.8512 54.5201 14.7774 54.1985 14.7969C45.5583 15.326 42.9325 14.8219 38.803 11.5138C38.526 11.2922 37.9426 11.3161 37.6504 11.3074C35.2277 11.2422 27.5098 11.5822 27.5098 11.5822C23.2576 11.8517 22.6872 14.5231 22.8632 14.7567C22.9871 14.9208 23.5249 14.8849 23.6454 14.886Z"
    fill="#E7424F" />
  <path
    d="M62.175 14.8556C59.8109 14.7252 55.6815 14.9066 53.6651 16.0876C46.5774 20.2376 44.9195 17.7324 35.2983 20.7928C31.7381 21.9259 30.5692 22.4909 31.5936 22.6766C33.5774 23.0351 40.7499 22.4517 46.1776 21.4012C52.4603 20.1844 55.7358 21.8575 61.3634 19.9649C62.4444 19.6021 62.64 18.4624 62.6421 18.0616L62.6563 15.2977C62.6573 14.9566 62.2695 14.8599 62.175 14.8556ZM40.4175 11.7267C45.2563 15.955 52.6124 13.9495 62.64 13.5475C62.6378 13.1858 62.6378 13.302 62.6432 13.1532L62.6356 12.9696C62.5199 12.5924 62.3235 12.245 62.0598 11.9516C61.3906 11.2063 60.327 10.7772 59.1406 10.7739L59.0005 10.7761C59.0005 10.7761 45.2661 11.2976 40.6304 11.265C40.5033 11.265 39.8069 11.1933 40.4175 11.7267Z"
    fill="#E7424F" />
  <path
    d="M18.8793 13.4019C19.0797 13.4019 19.2422 13.2394 19.2422 13.039C19.2422 12.8386 19.0797 12.6761 18.8793 12.6761C18.6789 12.6761 18.5165 12.8386 18.5165 13.039C18.5165 13.2394 18.6789 13.4019 18.8793 13.4019Z"
    fill="#E7424F" />
  <path
    d="M15.1769 12.599C15.2481 12.5908 15.3154 12.5617 15.3701 12.5154C15.4248 12.4691 15.4646 12.4075 15.4843 12.3386C15.5041 12.2697 15.503 12.1964 15.4812 12.1281C15.4594 12.0598 15.4178 11.9995 15.3618 11.9548C15.3057 11.9101 15.2376 11.883 15.1662 11.8769C15.0947 11.8709 15.0231 11.8861 14.9603 11.9208C14.8975 11.9554 14.8464 12.0079 14.8134 12.0716C14.7804 12.1352 14.767 12.2072 14.7749 12.2785C14.7966 12.4784 14.977 12.6218 15.1769 12.599ZM17.1813 12.0102C17.1862 12.0577 17.2007 12.1038 17.2239 12.1456C17.247 12.1874 17.2784 12.2241 17.316 12.2535C17.3721 12.2982 17.4401 12.3252 17.5116 12.3312C17.583 12.3372 17.6546 12.322 17.7173 12.2873C17.7801 12.2527 17.8312 12.2003 17.8642 12.1366C17.8972 12.073 17.9106 12.001 17.9027 11.9298C17.8974 11.8824 17.8829 11.8366 17.8599 11.7948C17.8368 11.7531 17.8058 11.7163 17.7686 11.6865C17.7314 11.6567 17.6887 11.6346 17.6429 11.6214C17.5971 11.6081 17.5492 11.604 17.5018 11.6093C17.4544 11.6146 17.4086 11.6291 17.3668 11.6521C17.3251 11.6751 17.2883 11.7061 17.2585 11.7434C17.2288 11.7806 17.2066 11.8233 17.1934 11.8691C17.1801 11.9149 17.176 11.9628 17.1813 12.0102Z"
    fill="#E7424F" />
  <path
    d="M13.8004 11.5322C14.0008 11.5322 14.1633 11.3698 14.1633 11.1694C14.1633 10.969 14.0008 10.8065 13.8004 10.8065C13.6 10.8065 13.4376 10.969 13.4376 11.1694C13.4376 11.3698 13.6 11.5322 13.8004 11.5322Z"
    fill="#E7424F" />
  <path
    d="M18.1189 17.1446C18.1739 17.138 18.2267 17.1189 18.2732 17.0887C18.3197 17.0584 18.3586 17.0179 18.3869 16.9703C18.4153 16.9227 18.4323 16.8691 18.4367 16.8139C18.441 16.7586 18.4326 16.7031 18.4121 16.6516C18.3916 16.6001 18.3596 16.554 18.3184 16.5168C18.2773 16.4797 18.2281 16.4525 18.1748 16.4373C18.1215 16.4222 18.0654 16.4195 18.0109 16.4295C17.9563 16.4395 17.9048 16.4619 17.8603 16.4949L17.844 16.5069C17.8204 16.5276 17.7996 16.5514 17.7821 16.5775C17.7317 16.6493 17.709 16.7368 17.718 16.8241C17.7292 16.9197 17.7777 17.0071 17.853 17.0671C17.9283 17.1271 18.0232 17.155 18.1189 17.1446Z"
    fill="#E7424F" />
  <path
    d="M15.405 15.0076C15.6054 15.0076 15.7679 14.8451 15.7679 14.6447C15.7679 14.4443 15.6054 14.2819 15.405 14.2819C15.2046 14.2819 15.0422 14.4443 15.0422 14.6447C15.0422 14.8451 15.2046 15.0076 15.405 15.0076Z"
    fill="#E7424F" />
  <path
    d="M17.6995 14.032C17.6505 14.0434 17.6043 14.0649 17.5639 14.0951C17.5236 14.1253 17.4899 14.1636 17.4652 14.2074C17.4404 14.2513 17.425 14.2999 17.4199 14.35C17.4149 14.4002 17.4203 14.4508 17.4359 14.4988C17.4514 14.5467 17.4767 14.5909 17.5103 14.6285C17.5438 14.6661 17.5848 14.6964 17.6306 14.7174C17.6764 14.7384 17.7261 14.7496 17.7765 14.7503C17.8269 14.7511 17.8769 14.7414 17.9233 14.7218C18.0098 14.688 18.08 14.6224 18.1196 14.5384C18.1593 14.4545 18.1653 14.3586 18.1366 14.2704C18.1079 14.1821 18.0465 14.1081 17.9651 14.0636C17.8836 14.0191 17.7883 14.0074 17.6985 14.0309L17.6995 14.032Z"
    fill="#E7424F" />
  <path
    d="M16.7424 16.0778C16.9428 16.0778 17.1052 15.9153 17.1052 15.7149C17.1052 15.5145 16.9428 15.3521 16.7424 15.3521C16.542 15.3521 16.3795 15.5145 16.3795 15.7149C16.3795 15.9153 16.542 16.0778 16.7424 16.0778Z"
    fill="#E7424F" />
  <path
    d="M14.336 16.3461C14.5364 16.3461 14.6989 16.1836 14.6989 15.9832C14.6989 15.7828 14.5364 15.6204 14.336 15.6204C14.1356 15.6204 13.9731 15.7828 13.9731 15.9832C13.9731 16.1836 14.1356 16.3461 14.336 16.3461Z"
    fill="#E7424F" />
  <path
    d="M16.4741 13.6703C16.6745 13.6703 16.8369 13.5078 16.8369 13.3074C16.8369 13.107 16.6745 12.9446 16.4741 12.9446C16.2737 12.9446 16.1112 13.107 16.1112 13.3074C16.1112 13.5078 16.2737 13.6703 16.4741 13.6703Z"
    fill="#E7424F" />
  <path
    d="M14.0687 13.9386C14.2691 13.9386 14.4316 13.7762 14.4316 13.5758C14.4316 13.3753 14.2691 13.2129 14.0687 13.2129C13.8683 13.2129 13.7059 13.3753 13.7059 13.5758C13.7059 13.7762 13.8683 13.9386 14.0687 13.9386Z"
    fill="#E7424F" />
  <path
    d="M18.5034 21.2523C18.4555 21.2649 18.4105 21.2871 18.3715 21.3176C18.3324 21.3482 18.2999 21.3864 18.2762 21.4299C18.2524 21.4734 18.2377 21.5213 18.2331 21.5707C18.2285 21.6201 18.2341 21.6699 18.2494 21.7171C18.2648 21.7642 18.2896 21.8078 18.3224 21.845C18.3552 21.8822 18.3952 21.9123 18.4401 21.9335C18.4849 21.9547 18.5336 21.9665 18.5832 21.9682C18.6328 21.9698 18.6821 21.9614 18.7283 21.9433C18.8147 21.9094 18.885 21.8438 18.9246 21.7599C18.9642 21.6759 18.9703 21.58 18.9416 21.4918C18.9129 21.4035 18.8515 21.3296 18.7701 21.2851C18.6886 21.2406 18.5932 21.2288 18.5034 21.2523Z"
    fill="#E7424F" />
  <path
    d="M15.9417 19.8215C16.1421 19.8215 16.3046 19.6591 16.3046 19.4587C16.3046 19.2583 16.1421 19.0958 15.9417 19.0958C15.7413 19.0958 15.5789 19.2583 15.5789 19.4587C15.5789 19.6591 15.7413 19.8215 15.9417 19.8215Z"
    fill="#E7424F" />
  <path
    d="M18.7077 19.1501C18.7025 19.1028 18.6879 19.0569 18.6649 19.0151C18.6419 18.9734 18.6109 18.9366 18.5737 18.9068C18.5364 18.8771 18.4937 18.8549 18.4479 18.8417C18.4022 18.8284 18.3542 18.8243 18.3069 18.8296C18.2595 18.8349 18.2136 18.8495 18.1719 18.8725C18.1301 18.8955 18.0933 18.9265 18.0636 18.9637C18.0338 19.0009 18.0117 19.0436 17.9984 19.0894C17.9852 19.1352 17.9811 19.1831 17.9864 19.2305C17.997 19.3262 18.0453 19.4137 18.1204 19.4738C18.1956 19.5339 18.2916 19.5617 18.3872 19.551C18.4829 19.5403 18.5704 19.4921 18.6305 19.4169C18.6906 19.3418 18.7184 19.2458 18.7077 19.1501Z"
    fill="#E7424F" />
  <path
    d="M17.2791 20.8916C17.4795 20.8916 17.6419 20.7292 17.6419 20.5288C17.6419 20.3284 17.4795 20.1659 17.2791 20.1659C17.0787 20.1659 16.9162 20.3284 16.9162 20.5288C16.9162 20.7292 17.0787 20.8916 17.2791 20.8916Z"
    fill="#E7424F" />
  <path
    d="M17.0107 18.4841C17.2112 18.4841 17.3736 18.3217 17.3736 18.1213C17.3736 17.9209 17.2112 17.7584 17.0107 17.7584C16.8103 17.7584 16.6479 17.9209 16.6479 18.1213C16.6479 18.3217 16.8103 18.4841 17.0107 18.4841Z"
    fill="#E7424F" />
  <path
    d="M14.6043 18.7525C14.8047 18.7525 14.9672 18.59 14.9672 18.3896C14.9672 18.1892 14.8047 18.0267 14.6043 18.0267C14.4039 18.0267 14.2415 18.1892 14.2415 18.3896C14.2415 18.59 14.4039 18.7525 14.6043 18.7525Z"
    fill="#E7424F" />
  <path
    d="M16.034 17.0121C16.0288 16.9647 16.0142 16.9188 15.9912 16.8771C15.9682 16.8353 15.9372 16.7985 15.9 16.7688C15.8627 16.739 15.82 16.7169 15.7742 16.7036C15.7285 16.6904 15.6805 16.6863 15.6331 16.6916C15.5858 16.6968 15.5399 16.7114 15.4982 16.7344C15.4564 16.7574 15.4196 16.7884 15.3899 16.8256C15.3601 16.8629 15.338 16.9056 15.3247 16.9514C15.3115 16.9971 15.3074 17.0451 15.3127 17.0924C15.3179 17.1398 15.3325 17.1857 15.3555 17.2274C15.3785 17.2692 15.4095 17.306 15.4467 17.3357C15.484 17.3655 15.5267 17.3876 15.5725 17.4009C15.6182 17.4141 15.6662 17.4182 15.7135 17.4129C15.7609 17.4077 15.8068 17.3931 15.8485 17.3701C15.8903 17.3471 15.9271 17.3161 15.9568 17.2789C15.9866 17.2416 16.0087 17.1989 16.022 17.1531C16.0352 17.1074 16.0393 17.0594 16.034 17.0121Z"
    fill="#E7424F" />
  <path
    d="M10.0577 10.7316C10.2581 10.7316 10.4206 10.5691 10.4206 10.3687C10.4206 10.1683 10.2581 10.0059 10.0577 10.0059C9.85734 10.0059 9.69489 10.1683 9.69489 10.3687C9.69489 10.5691 9.85734 10.7316 10.0577 10.7316Z"
    fill="#E7424F" />
  <path
    d="M12.186 10.335C12.2248 10.38 12.274 10.4149 12.3292 10.4368C12.3844 10.4588 12.4441 10.4671 12.5032 10.461C12.5837 10.452 12.6588 10.4164 12.7166 10.3598C12.7745 10.3032 12.8117 10.2288 12.8225 10.1486C12.8332 10.0684 12.8169 9.98691 12.776 9.91707C12.7351 9.84723 12.672 9.79306 12.5968 9.76318C12.5216 9.7333 12.4385 9.72943 12.3609 9.75217C12.2832 9.77491 12.2154 9.82297 12.1681 9.88869C12.1209 9.95442 12.097 10.034 12.1003 10.1149C12.1035 10.1958 12.1337 10.2732 12.186 10.335Z"
    fill="#E7424F" />
  <path
    d="M11.394 11.8006C11.5944 11.8006 11.7568 11.6381 11.7568 11.4377C11.7568 11.2373 11.5944 11.0748 11.394 11.0748C11.1936 11.0748 11.0311 11.2373 11.0311 11.4377C11.0311 11.6381 11.1936 11.8006 11.394 11.8006Z"
    fill="#E7424F" />
  <path
    d="M8.98872 12.0689C9.18912 12.0689 9.35158 11.9064 9.35158 11.706C9.35158 11.5056 9.18912 11.3431 8.98872 11.3431C8.78831 11.3431 8.62585 11.5056 8.62585 11.706C8.62585 11.9064 8.78831 12.0689 8.98872 12.0689Z"
    fill="#E7424F" />
  <path
    d="M8.72034 9.66139C8.92075 9.66139 9.0832 9.49893 9.0832 9.29853C9.0832 9.09813 8.92075 8.93567 8.72034 8.93567C8.51994 8.93567 8.35748 9.09813 8.35748 9.29853C8.35748 9.49893 8.51994 9.66139 8.72034 9.66139Z"
    fill="#E7424F" />
  <path
    d="M10.5944 15.5454C10.7948 15.5454 10.9573 15.383 10.9573 15.1826C10.9573 14.9822 10.7948 14.8197 10.5944 14.8197C10.394 14.8197 10.2316 14.9822 10.2316 15.1826C10.2316 15.383 10.394 15.5454 10.5944 15.5454Z"
    fill="#E7424F" />
  <path
    d="M13.0388 15.2749C13.0862 15.2697 13.1321 15.2552 13.1738 15.2323C13.2156 15.2094 13.2524 15.1784 13.2822 15.1413C13.3121 15.1041 13.3343 15.0614 13.3476 15.0156C13.3609 14.9699 13.3651 14.922 13.3598 14.8746C13.3546 14.8272 13.3402 14.7814 13.3172 14.7396C13.2943 14.6978 13.2633 14.661 13.2262 14.6312C13.189 14.6014 13.1463 14.5792 13.1006 14.5658C13.0548 14.5525 13.0069 14.5484 12.9595 14.5536C12.8638 14.5642 12.7763 14.6125 12.7162 14.6876C12.6561 14.7628 12.6284 14.8588 12.639 14.9545C12.6497 15.0501 12.6979 15.1376 12.7731 15.1977C12.8483 15.2578 12.9442 15.2856 13.0399 15.2749H13.0388Z"
    fill="#E7424F" />
  <path
    d="M11.9307 16.6144C12.1311 16.6144 12.2935 16.4519 12.2935 16.2515C12.2935 16.0511 12.1311 15.8887 11.9307 15.8887C11.7303 15.8887 11.5678 16.0511 11.5678 16.2515C11.5678 16.4519 11.7303 16.6144 11.9307 16.6144Z"
    fill="#E7424F" />
  <path
    d="M9.5254 16.8828C9.7258 16.8828 9.88826 16.7204 9.88826 16.52C9.88826 16.3196 9.7258 16.1571 9.5254 16.1571C9.32499 16.1571 9.16254 16.3196 9.16254 16.52C9.16254 16.7204 9.32499 16.8828 9.5254 16.8828Z"
    fill="#E7424F" />
  <path
    d="M11.6624 14.2069C11.8628 14.2069 12.0252 14.0445 12.0252 13.8441C12.0252 13.6437 11.8628 13.4812 11.6624 13.4812C11.462 13.4812 11.2995 13.6437 11.2995 13.8441C11.2995 14.0445 11.462 14.2069 11.6624 14.2069Z"
    fill="#E7424F" />
  <path
    d="M9.25703 14.4752C9.45743 14.4752 9.61989 14.3128 9.61989 14.1124C9.61989 13.912 9.45743 13.7495 9.25703 13.7495C9.05662 13.7495 8.89417 13.912 8.89417 14.1124C8.89417 14.3128 9.05662 14.4752 9.25703 14.4752Z"
    fill="#E7424F" />
  <path
    d="M10.6867 12.7349C10.6815 12.6875 10.6669 12.6417 10.6439 12.5999C10.6209 12.5582 10.5899 12.5214 10.5527 12.4916C10.5155 12.4619 10.4727 12.4397 10.4269 12.4265C10.3812 12.4132 10.3332 12.4091 10.2859 12.4144C10.2385 12.4197 10.1926 12.4343 10.1509 12.4573C10.1091 12.4803 10.0723 12.5113 10.0426 12.5485C10.0128 12.5857 9.99069 12.6284 9.97744 12.6742C9.96419 12.72 9.96009 12.7679 9.96537 12.8153C9.97065 12.8627 9.9852 12.9085 10.0082 12.9503C10.0312 12.992 10.0622 13.0288 10.0994 13.0586C10.1367 13.0883 10.1794 13.1105 10.2252 13.1237C10.2709 13.137 10.3189 13.1411 10.3663 13.1358C10.4136 13.1305 10.4595 13.116 10.5012 13.093C10.543 13.07 10.5798 13.039 10.6095 13.0017C10.6393 12.9645 10.6614 12.9218 10.6747 12.876C10.6879 12.8302 10.692 12.7823 10.6867 12.7349ZM12.3837 12.4036C12.3679 12.4554 12.3638 12.5101 12.3718 12.5636C12.3798 12.6172 12.3997 12.6683 12.4299 12.7132C12.4602 12.7582 12.5001 12.7958 12.5468 12.8233C12.5934 12.8508 12.6456 12.8676 12.6996 12.8724C12.7535 12.8772 12.8079 12.8699 12.8587 12.851C12.9094 12.8321 12.9553 12.8021 12.9931 12.7633C13.0308 12.7244 13.0593 12.6776 13.0766 12.6262C13.0939 12.5749 13.0996 12.5204 13.0931 12.4666C13.0844 12.3829 13.0468 12.3049 12.9868 12.2458C12.9268 12.1868 12.8482 12.1505 12.7644 12.143C12.6806 12.1356 12.5968 12.1575 12.5273 12.205C12.4579 12.2525 12.4071 12.3227 12.3837 12.4036ZM13.7635 19.4435C13.7264 19.413 13.6836 19.3902 13.6376 19.3764C13.5917 19.3626 13.5434 19.358 13.4957 19.363C13.4479 19.3679 13.4016 19.3823 13.3595 19.4053C13.3173 19.4283 13.2802 19.4594 13.2501 19.4968C13.2201 19.5343 13.1978 19.5773 13.1845 19.6234C13.1712 19.6695 13.1672 19.7178 13.1727 19.7655C13.1782 19.8132 13.1931 19.8593 13.2166 19.9012C13.24 19.9431 13.2716 19.9799 13.3093 20.0095C13.3848 20.0623 13.4776 20.0844 13.5687 20.0713C13.6599 20.0582 13.7427 20.011 13.8003 19.9391C13.8579 19.8673 13.8861 19.7762 13.879 19.6844C13.872 19.5925 13.8303 19.5068 13.7624 19.4446L13.7635 19.4435Z"
    fill="#E7424F" />
  <path
    d="M12.199 19.0209C12.3994 19.0209 12.5619 18.8584 12.5619 18.658C12.5619 18.4576 12.3994 18.2952 12.199 18.2952C11.9986 18.2952 11.8362 18.4576 11.8362 18.658C11.8362 18.8584 11.9986 19.0209 12.199 19.0209Z"
    fill="#E7424F" />
  <path
    d="M10.8225 17.2282C10.7513 17.2364 10.6841 17.2655 10.6294 17.3118C10.5746 17.3582 10.5349 17.4197 10.5151 17.4886C10.4953 17.5576 10.4964 17.6308 10.5182 17.6991C10.54 17.7674 10.5816 17.8277 10.6377 17.8725C10.6937 17.9172 10.7618 17.9442 10.8332 17.9503C10.9047 17.9564 10.9763 17.9411 11.0391 17.9065C11.1019 17.8718 11.153 17.8194 11.186 17.7557C11.219 17.692 11.2324 17.62 11.2245 17.5487C11.2193 17.5013 11.2036 17.4553 11.1805 17.4135C11.1574 17.3716 11.1263 17.3348 11.089 17.305C11.0516 17.2752 11.0088 17.2531 10.9629 17.24C10.917 17.2268 10.8689 17.2228 10.8215 17.2282H10.8225ZM13.3083 17.6813C13.3557 17.6765 13.4017 17.6622 13.4435 17.6392C13.4853 17.6163 13.5221 17.5851 13.5516 17.5476C13.5814 17.5104 13.6036 17.4676 13.6168 17.4217C13.63 17.3758 13.6341 17.3278 13.6287 17.2804C13.6181 17.1847 13.5699 17.0972 13.4947 17.0371C13.4195 16.977 13.3235 16.9492 13.2279 16.9599C13.1322 16.9706 13.0447 17.0188 12.9846 17.094C12.9245 17.1691 12.8967 17.2651 12.9074 17.3608C12.9123 17.4082 12.9267 17.4541 12.9497 17.4959C12.9726 17.5377 13.0037 17.5745 13.041 17.6041C13.0782 17.634 13.121 17.6562 13.1669 17.6694C13.2128 17.6827 13.2608 17.6867 13.3083 17.6813ZM4.61698 8.53805C4.62226 8.58548 4.63683 8.63142 4.65986 8.67322C4.68289 8.71503 4.71393 8.75189 4.7512 8.7817C4.78848 8.81151 4.83126 8.83369 4.87711 8.84697C4.92296 8.86024 4.97097 8.86436 5.01841 8.85908C5.06584 8.8538 5.11178 8.83923 5.15358 8.8162C5.19539 8.79317 5.23225 8.76213 5.26206 8.72485C5.29187 8.68758 5.31405 8.6448 5.32732 8.59895C5.3406 8.5531 5.34472 8.50509 5.33944 8.45765C5.32878 8.36185 5.2805 8.2742 5.20521 8.214C5.12993 8.15379 5.03382 8.12596 4.93801 8.13662C4.84221 8.14728 4.75456 8.19556 4.69436 8.27084C4.63415 8.34613 4.60632 8.44224 4.61698 8.53805ZM7.35038 8.59237C7.40409 8.59739 7.45823 8.59038 7.50889 8.57184C7.55954 8.5533 7.60542 8.5237 7.6432 8.4852C7.68097 8.4467 7.70969 8.40026 7.72725 8.34926C7.74482 8.29827 7.7508 8.24399 7.74475 8.19039C7.73954 8.14303 7.72506 8.09715 7.70212 8.05538C7.67918 8.01362 7.64824 7.97678 7.61107 7.94696C7.57389 7.91715 7.53121 7.89496 7.48546 7.88164C7.4397 7.86833 7.39177 7.86415 7.34441 7.86936C7.29704 7.87457 7.25116 7.88905 7.2094 7.91199C7.16763 7.93493 7.13079 7.96587 7.10098 8.00304C7.07117 8.04022 7.04897 8.0829 7.03565 8.12865C7.02234 8.17441 7.01817 8.22234 7.02337 8.2697C7.03208 8.35274 7.06933 8.43019 7.12877 8.48884C7.1882 8.54748 7.26615 8.58369 7.3493 8.59128L7.35038 8.59237Z"
    fill="#E7424F" />
  <path
    d="M3.64136 7.79176C3.84177 7.79176 4.00422 7.6293 4.00422 7.4289C4.00422 7.2285 3.84177 7.06604 3.64136 7.06604C3.44096 7.06604 3.2785 7.2285 3.2785 7.4289C3.2785 7.6293 3.44096 7.79176 3.64136 7.79176Z"
    fill="#E7424F" />
  <path
    d="M5.24604 11.2682C5.44644 11.2682 5.6089 11.1057 5.6089 10.9053C5.6089 10.7049 5.44644 10.5425 5.24604 10.5425C5.04564 10.5425 4.88318 10.7049 4.88318 10.9053C4.88318 11.1057 5.04564 11.2682 5.24604 11.2682Z"
    fill="#E7424F" />
  <path
    d="M7.53945 10.2915C7.49408 10.3063 7.45206 10.3298 7.4158 10.3608C7.37953 10.3919 7.34973 10.4297 7.32809 10.4722C7.30645 10.5147 7.2934 10.5611 7.28968 10.6087C7.28596 10.6562 7.29165 10.7041 7.30641 10.7494C7.32118 10.7948 7.34474 10.8368 7.37574 10.8731C7.40674 10.9094 7.44459 10.9392 7.48711 10.9608C7.52963 10.9824 7.576 10.9955 7.62357 10.9992C7.67113 11.0029 7.71897 10.9972 7.76433 10.9825C7.85596 10.9527 7.93199 10.8877 7.97569 10.8018C8.01939 10.7159 8.02719 10.6162 7.99737 10.5246C7.96755 10.4329 7.90255 10.3569 7.81667 10.3132C7.73079 10.2695 7.63107 10.2617 7.53945 10.2915Z"
    fill="#E7424F" />
  <path
    d="M6.58338 12.3373C6.78378 12.3373 6.94624 12.1748 6.94624 11.9744C6.94624 11.774 6.78378 11.6116 6.58338 11.6116C6.38298 11.6116 6.22052 11.774 6.22052 11.9744C6.22052 12.1748 6.38298 12.3373 6.58338 12.3373Z"
    fill="#E7424F" />
  <path
    d="M4.17805 12.6056C4.37845 12.6056 4.54091 12.4431 4.54091 12.2427C4.54091 12.0423 4.37845 11.8799 4.17805 11.8799C3.97764 11.8799 3.81519 12.0423 3.81519 12.2427C3.81519 12.4431 3.97764 12.6056 4.17805 12.6056Z"
    fill="#E7424F" />
  <path
    d="M6.31507 9.9297C6.51547 9.9297 6.67793 9.76724 6.67793 9.56684C6.67793 9.36644 6.51547 9.20398 6.31507 9.20398C6.11467 9.20398 5.95221 9.36644 5.95221 9.56684C5.95221 9.76724 6.11467 9.9297 6.31507 9.9297Z"
    fill="#E7424F" />
  <path
    d="M3.90974 10.1981C4.11014 10.1981 4.2726 10.0357 4.2726 9.83527C4.2726 9.63487 4.11014 9.47241 3.90974 9.47241C3.70933 9.47241 3.54688 9.63487 3.54688 9.83527C3.54688 10.0357 3.70933 10.1981 3.90974 10.1981Z"
    fill="#E7424F" />
  <path
    d="M2.84071 11.5365C3.04111 11.5365 3.20357 11.3741 3.20357 11.1737C3.20357 10.9732 3.04111 10.8108 2.84071 10.8108C2.6403 10.8108 2.47784 10.9732 2.47784 11.1737C2.47784 11.3741 2.6403 11.5365 2.84071 11.5365Z"
    fill="#E7424F" />
  <path
    d="M2.93304 8.72597C2.92716 8.67244 2.90941 8.62089 2.88107 8.5751C2.85273 8.5293 2.81452 8.49041 2.76924 8.46126C2.72395 8.43211 2.67273 8.41344 2.61931 8.40661C2.56589 8.39978 2.51162 8.40496 2.46045 8.42178C2.381 8.44749 2.31281 8.49974 2.26732 8.56976C2.22182 8.63979 2.20179 8.72333 2.21058 8.80637C2.21586 8.85381 2.23043 8.89974 2.25346 8.94154C2.27649 8.98335 2.30753 9.02021 2.34481 9.05002C2.38208 9.07983 2.42487 9.10201 2.47071 9.11529C2.51656 9.12856 2.56457 9.13268 2.61201 9.1274C2.65945 9.12212 2.70538 9.10755 2.74719 9.08452C2.78899 9.06149 2.82585 9.03045 2.85566 8.99318C2.88548 8.9559 2.90765 8.91312 2.92093 8.86727C2.93421 8.82142 2.93832 8.77341 2.93304 8.72597Z"
    fill="#E7424F" />
  <path
    d="M5.78272 16.082C5.98312 16.082 6.14558 15.9196 6.14558 15.7192C6.14558 15.5188 5.98312 15.3563 5.78272 15.3563C5.58232 15.3563 5.41986 15.5188 5.41986 15.7192C5.41986 15.9196 5.58232 16.082 5.78272 16.082Z"
    fill="#E7424F" />
  <path
    d="M8.22823 15.8116C8.27569 15.8068 8.32169 15.7925 8.3635 15.7695C8.40531 15.7465 8.44207 15.7154 8.47159 15.6779C8.52412 15.6124 8.55232 15.5308 8.55138 15.4468C8.55044 15.3629 8.52042 15.2818 8.46644 15.2175C8.41246 15.1533 8.33785 15.1097 8.25533 15.0942C8.17281 15.0788 8.08748 15.0924 8.01389 15.1328C7.9403 15.1732 7.883 15.2379 7.85175 15.3158C7.82051 15.3937 7.81725 15.4801 7.84253 15.5601C7.86781 15.6402 7.92007 15.709 7.9904 15.7549C8.06073 15.8007 8.14478 15.8207 8.22823 15.8116Z"
    fill="#E7424F" />
  <path
    d="M7.12006 17.1511C7.32047 17.1511 7.48292 16.9887 7.48292 16.7883C7.48292 16.5879 7.32047 16.4254 7.12006 16.4254C6.91966 16.4254 6.7572 16.5879 6.7572 16.7883C6.7572 16.9887 6.91966 17.1511 7.12006 17.1511Z"
    fill="#E7424F" />
  <path
    d="M6.85175 14.7437C7.05215 14.7437 7.21461 14.5812 7.21461 14.3808C7.21461 14.1804 7.05215 14.0179 6.85175 14.0179C6.65135 14.0179 6.48889 14.1804 6.48889 14.3808C6.48889 14.5812 6.65135 14.7437 6.85175 14.7437Z"
    fill="#E7424F" />
  <path
    d="M4.44642 15.0131C4.64682 15.0131 4.80928 14.8506 4.80928 14.6502C4.80928 14.4498 4.64682 14.2874 4.44642 14.2874C4.24602 14.2874 4.08356 14.4498 4.08356 14.6502C4.08356 14.8506 4.24602 15.0131 4.44642 15.0131Z"
    fill="#E7424F" />
  <path
    d="M5.87507 13.2715C5.86441 13.1759 5.81619 13.0884 5.74101 13.0283C5.66583 12.9682 5.56985 12.9404 5.47419 12.951C5.37853 12.9617 5.29102 13.0099 5.23092 13.0851C5.17081 13.1603 5.14304 13.2563 5.1537 13.3519C5.15898 13.3993 5.17353 13.4452 5.19654 13.4869C5.21954 13.5286 5.25054 13.5654 5.28776 13.5952C5.32499 13.625 5.36771 13.6471 5.41349 13.6604C5.45927 13.6736 5.50722 13.6777 5.55458 13.6724C5.60195 13.6671 5.64781 13.6526 5.68955 13.6296C5.73129 13.6066 5.76809 13.5756 5.79785 13.5384C5.82761 13.5011 5.84975 13.4584 5.863 13.4126C5.87625 13.3668 5.88035 13.3189 5.87507 13.2715ZM8.28147 13.0032C8.27081 12.9074 8.22253 12.8197 8.14724 12.7595C8.07196 12.6993 7.97585 12.6715 7.88004 12.6822C7.78424 12.6928 7.69659 12.7411 7.63639 12.8164C7.57618 12.8917 7.54835 12.9878 7.55901 13.0836C7.56429 13.131 7.57886 13.177 7.60189 13.2188C7.62492 13.2606 7.65596 13.2974 7.69323 13.3272C7.73051 13.3571 7.77329 13.3792 7.81914 13.3925C7.86499 13.4058 7.913 13.4099 7.96044 13.4046C8.00787 13.3993 8.05381 13.3848 8.09561 13.3617C8.13742 13.3387 8.17428 13.3077 8.20409 13.2704C8.2339 13.2331 8.25608 13.1903 8.26936 13.1445C8.28263 13.0986 8.28675 13.0506 8.28147 13.0032ZM8.81707 17.8171C8.80641 17.7214 8.75818 17.6339 8.683 17.5738C8.60782 17.5137 8.51185 17.4859 8.41619 17.4966C8.32052 17.5072 8.23302 17.5555 8.17291 17.6307C8.11281 17.7058 8.08503 17.8018 8.09569 17.8975C8.10068 17.9451 8.11509 17.9912 8.13807 18.0331C8.16105 18.0751 8.19215 18.1121 8.22956 18.1419C8.26697 18.1717 8.30994 18.1938 8.35597 18.2069C8.402 18.2199 8.45017 18.2237 8.49767 18.218C8.59314 18.207 8.68038 18.1587 8.74026 18.0836C8.80014 18.0084 8.82776 17.9126 8.81707 17.8171ZM3.46976 13.5399C3.46448 13.4925 3.44993 13.4467 3.42693 13.4049C3.40392 13.3632 3.37292 13.3264 3.3357 13.2966C3.29847 13.2669 3.25575 13.2447 3.20997 13.2315C3.16419 13.2182 3.11624 13.2141 3.06888 13.2194C3.02151 13.2247 2.97565 13.2392 2.93391 13.2622C2.89217 13.2852 2.85537 13.3162 2.82561 13.3535C2.79585 13.3907 2.77371 13.4334 2.76046 13.4792C2.74721 13.525 2.74311 13.5729 2.74839 13.6203C2.75322 13.6679 2.76754 13.714 2.79049 13.756C2.81344 13.798 2.84456 13.835 2.88202 13.8647C2.93814 13.9098 3.00641 13.9372 3.07815 13.9434C3.14989 13.9496 3.22185 13.9343 3.28487 13.8995C3.34789 13.8646 3.39912 13.8119 3.43204 13.7478C3.46497 13.6838 3.4781 13.6114 3.46976 13.5399Z"
    fill="#E7424F" />
  <path
    d="M55.7347 40.2015C55.5871 40.2015 55.4424 40.1605 55.3167 40.083C55.191 40.0054 55.0894 39.8945 55.0231 39.7626L51.5032 32.7574L47.4976 37.0292C47.3881 37.146 47.246 37.2272 47.0898 37.2621C46.9335 37.2969 46.7704 37.2839 46.6217 37.2247C46.473 37.1654 46.3455 37.0628 46.256 36.93C46.1666 36.7973 46.1191 36.6406 46.12 36.4806L46.1982 19.2794C46.1992 19.1316 46.2413 18.987 46.3197 18.8617C46.3982 18.7364 46.5099 18.6354 46.6424 18.5699C46.7749 18.5044 46.9231 18.4771 47.0702 18.4909C47.2174 18.5048 47.3578 18.5592 47.4758 18.6482L61.0907 28.9626C61.2176 29.0588 61.3127 29.1908 61.3639 29.3416C61.4151 29.4924 61.4199 29.6551 61.3779 29.8086C61.3358 29.9622 61.2487 30.0996 61.1278 30.2033C61.007 30.3069 60.8578 30.372 60.6996 30.3901L54.883 31.0583L58.403 38.0624C58.4978 38.2513 58.5138 38.4701 58.4473 38.6707C58.3809 38.8714 58.2376 39.0375 58.0488 39.1325L56.0932 40.1168C55.982 40.1725 55.8592 40.2016 55.7347 40.2015Z"
    fill="white" />
  <path
    d="M46.9946 19.2827L60.6094 29.5982L53.6597 30.3967L57.6903 38.4209L55.7347 39.4052L51.7041 31.3799L46.9163 36.4838L46.9946 19.2827ZM46.9946 17.689C46.5734 17.6892 46.1694 17.8562 45.871 18.1535C45.5725 18.4507 45.4039 18.8539 45.4019 19.2751L45.3226 36.4784C45.3214 36.7983 45.4166 37.1112 45.5956 37.3763C45.7747 37.6414 46.0294 37.8465 46.3266 37.9649C46.6239 38.0833 46.9498 38.1094 47.2621 38.04C47.5744 37.9706 47.8586 37.8088 48.0777 37.5757L51.3033 34.1361L54.3104 40.1222C54.5003 40.4998 54.8322 40.7865 55.2334 40.9193C55.6345 41.0521 56.072 41.0202 56.4496 40.8306L58.4051 39.8452C58.7827 39.6552 59.0694 39.323 59.2023 38.9217C59.3351 38.5204 59.3031 38.0828 59.1135 37.705L56.1063 31.721L60.7909 31.1822C61.1073 31.1462 61.4057 31.0161 61.6475 30.8087C61.8893 30.6014 62.0634 30.3263 62.1472 30.0191C62.2311 29.7118 62.2209 29.3864 62.118 29.085C62.0151 28.7836 61.8241 28.52 61.5698 28.3282L47.956 18.0127C47.6794 17.803 47.3418 17.6893 46.9946 17.689Z"
    fill="#E7424F" />
</svg>
