<svg class="logo" width="66" height="41" viewBox="0 0 66 41" fill="none">
  <path
    d="M61.7932 10.5491C61.147 9.84313 60.348 9.29424 59.4571 8.9444C59.4349 8.93486 59.4147 8.92002 59.3925 8.91154L42.4381 2.20018C42.2729 2.13622 42.1053 2.07859 41.9357 2.02741C41.7583 1.97678 41.579 1.93259 41.3984 1.89492L41.356 1.88432C41.2776 1.86555 41.1988 1.84894 41.1196 1.83451C40.9484 1.8054 40.7763 1.78242 40.6034 1.76561C40.5093 1.75108 40.4145 1.74117 40.3194 1.73594C40.0763 1.71954 39.8326 1.71459 39.5891 1.7211L9.93807 2.54253C9.73018 2.54934 9.52264 2.56419 9.3159 2.58705L9.14737 2.60718C8.73366 2.66002 8.32471 2.74507 7.92423 2.86156C7.70948 2.92281 7.49732 2.99282 7.28829 3.07142L7.25649 3.08202C6.87299 3.23026 6.5013 3.40742 6.14464 3.61198C5.91999 3.73951 5.70142 3.87745 5.48962 4.02535C5.28612 4.16791 5.08946 4.32 4.90031 4.48111C4.81141 4.54884 4.72811 4.62363 4.65123 4.70475C4.59318 4.7601 4.53629 4.81664 4.48058 4.87433L4.43819 4.91673L4.39897 4.95595C4.34466 5.00761 4.29164 5.06062 4.23998 5.11493C4.17107 5.18158 4.1063 5.25237 4.04602 5.32692C3.88589 5.51359 3.73519 5.70815 3.5945 5.90987C3.56496 5.94815 3.53668 5.98739 3.5097 6.02752C3.46413 6.09535 3.42385 6.16213 3.38357 6.2289L3.34754 6.28826C3.23306 6.46904 3.13039 6.65704 3.04016 6.85107C3.00776 6.91349 2.97702 6.97675 2.94795 7.04079C2.68035 7.64689 2.50665 8.29022 2.43283 8.94863C2.42541 9.01223 2.42223 9.07582 2.42223 9.14154L2.40633 13.2052C2.32973 14.0777 2.45607 14.9561 2.77547 15.7716C3.09487 16.5871 3.59865 17.3176 4.2474 17.9059C4.60141 18.2313 4.99464 18.5133 5.41966 18.7518C5.43229 18.796 5.4539 18.8371 5.48315 18.8725C5.5124 18.908 5.54866 18.937 5.58966 18.9578C5.63065 18.9786 5.6755 18.9907 5.72139 18.9934C5.76728 18.996 5.81323 18.9892 5.85635 18.9733C5.9899 19.0348 6.1245 19.0941 6.26335 19.1482L23.6311 25.8585L23.6342 25.85C24.5366 26.1981 25.4996 26.362 26.4663 26.3322L31.8443 26.1817L33.8009 26.1266L55.7082 25.5119C59.5557 25.4048 62.852 22.5908 63.2124 19.1058C63.2192 19.0417 63.2227 18.9773 63.223 18.9129L63.2389 14.8492C63.3093 14.0714 63.2172 13.2876 62.9685 12.5473C62.7198 11.807 62.3189 11.1266 61.7932 10.5491Z"
    fill="white" />
  <path
    d="M63.5113 10.3435C62.8267 9.59547 61.9802 9.01394 61.0364 8.64337C61.013 8.63277 60.9929 8.61793 60.9685 8.60839L43.0073 1.4985C42.8323 1.4306 42.6548 1.36943 42.4752 1.31514C42.2872 1.26142 42.0974 1.2144 41.906 1.17417L41.8626 1.16463C41.7797 1.14473 41.6963 1.12706 41.6124 1.11163C41.4311 1.08065 41.2486 1.05626 41.0655 1.0385C40.9658 1.02293 40.8653 1.01232 40.7645 1.0067C40.507 0.989687 40.2488 0.984735 39.9908 0.991864L8.58135 1.86099C8.36107 1.8679 8.14114 1.88346 7.92208 1.90763L7.74402 1.92883C7.0697 2.0146 6.40793 2.18005 5.77258 2.42169L5.74079 2.43228C5.33472 2.58929 4.94108 2.77672 4.56322 2.99298C4.32509 3.12796 4.09343 3.27403 3.86898 3.43072C3.65342 3.58232 3.44509 3.74396 3.24469 3.9151C3.15019 3.98667 3.06158 4.06571 2.97972 4.15146C2.91841 4.21027 2.85834 4.27034 2.79953 4.33165L2.75395 4.37722L2.71368 4.4175C2.65591 4.47241 2.59937 4.5286 2.54409 4.58602C2.47145 4.65675 2.40314 4.73179 2.33953 4.81073C2.16994 5.00787 2.01096 5.21349 1.86151 5.42865C1.82971 5.46893 1.79897 5.51133 1.77142 5.55266C1.7253 5.62244 1.68112 5.69348 1.63893 5.76571L1.59971 5.8293C1.47842 6.02039 1.37006 6.21939 1.27538 6.42497C1.2407 6.49119 1.20783 6.55835 1.17681 6.62635C0.892639 7.26788 0.708548 7.9492 0.630952 8.64655C0.624005 8.71451 0.620468 8.78279 0.620353 8.85111L0.600215 13.1554C0.519023 14.0796 0.652835 15.0101 0.991174 15.8739C1.32951 16.7378 1.8632 17.5116 2.55045 18.1349C2.92672 18.4793 3.64004 19.0252 4.68723 19.4502L23.0831 26.5601L23.0873 26.5495C24.043 26.9185 25.0629 27.0926 26.0868 27.0615L31.7839 26.9014L33.8571 26.8431L57.0628 26.1913C61.1392 26.0779 64.6305 23.0974 65.0121 19.4057C65.0185 19.3379 65.0227 19.27 65.0227 19.2011L65.0397 14.8958C65.1142 14.0723 65.0168 13.2422 64.7535 12.4583C64.4902 11.6745 64.0668 10.9539 63.5102 10.3424L63.5113 10.3435ZM5.0953 5.1022L5.11544 5.0863C5.24051 5.00151 5.36982 4.91884 5.50231 4.84146L5.56802 4.80543C5.67401 4.74501 5.78 4.6846 5.89023 4.63054C5.90401 4.62312 5.91885 4.61782 5.93263 4.61146C6.11281 4.52349 6.29512 4.44188 6.48272 4.36874L6.49014 4.36662C6.67563 4.29561 6.86535 4.23413 7.0572 4.17902L7.10383 4.16418C7.23738 4.12708 7.37305 4.09529 7.50978 4.06773C7.5384 4.06137 7.56807 4.05713 7.59669 4.05183C7.77635 4.01696 7.9574 3.98973 8.13936 3.97022C8.30471 3.9522 8.47006 3.93842 8.63752 3.93418L40.0469 3.06399C40.2498 3.05868 40.4529 3.06328 40.6553 3.07777H40.6744C40.7274 3.08201 40.7762 3.09261 40.827 3.09897C40.9691 3.11275 41.11 3.12865 41.2478 3.15196C41.322 3.16574 41.392 3.18376 41.464 3.19966C41.5806 3.22616 41.6972 3.2516 41.8106 3.28445C41.8318 3.28975 41.8551 3.29399 41.8763 3.30035C42.0025 3.33851 42.1254 3.38091 42.2452 3.42754L54.3091 8.20244L26.974 8.97088C24.8546 9.02998 22.8312 9.8672 21.2897 11.3228L4.83986 5.30041C4.92571 5.23469 5.00627 5.16474 5.09424 5.10326L5.0953 5.1022ZM19.013 16.3118L18.9971 20.2642C18.9197 21.1789 19.0501 22.0693 19.3596 22.896L15.4273 21.3761C15.4509 21.2914 15.4422 21.2009 15.4028 21.1223C15.3634 21.0437 15.2961 20.9826 15.2141 20.9509C15.1321 20.9191 15.0412 20.919 14.9592 20.9506C14.8771 20.9822 14.8097 21.0432 14.7702 21.1217L10.4849 19.4661V19.4131C10.4774 19.344 10.4496 19.2787 10.4052 19.2252C10.3607 19.1718 10.3015 19.1326 10.2349 19.1126C10.1683 19.0926 10.0974 19.0926 10.0308 19.1127C9.96424 19.1328 9.90507 19.172 9.86066 19.2255L5.51926 17.5477C5.50674 17.4941 5.48186 17.4442 5.44662 17.402C5.41138 17.3597 5.36675 17.3263 5.31629 17.3044C5.26583 17.2824 5.21095 17.2726 5.15602 17.2756C5.10108 17.2787 5.04763 17.2945 4.99991 17.3219C4.70236 17.1733 4.42164 16.9931 4.16258 16.7845C4.20852 16.7152 4.22855 16.6318 4.21915 16.5491C4.20976 16.4664 4.17153 16.3897 4.11119 16.3324C4.05085 16.2751 3.97225 16.2409 3.88919 16.2358C3.80613 16.2306 3.72392 16.2549 3.657 16.3044C3.2871 15.8946 3.00827 15.411 2.83891 14.8856C2.66955 14.3602 2.6135 13.8048 2.67446 13.2561L2.69142 8.85853C2.70737 8.71188 2.73071 8.56613 2.76137 8.42184C2.76985 8.38051 2.78045 8.34023 2.78999 8.2989C2.81649 8.1876 2.84723 8.07843 2.88114 7.97032C2.8928 7.93429 2.90234 7.89825 2.91506 7.86433C2.95958 7.7329 3.00939 7.60465 3.06451 7.47852L3.07617 7.45627L3.09207 7.42341C3.13033 7.37907 3.15693 7.32588 3.16944 7.26866C3.2076 7.19023 3.24787 7.11285 3.29133 7.03548L3.33797 6.95917L6.12341 7.9788V8.01272C6.13106 8.08106 6.15844 8.14569 6.20221 8.19872C6.24598 8.25175 6.30425 8.29089 6.3699 8.31135C6.43555 8.3318 6.50574 8.3327 6.57189 8.31393C6.63804 8.29515 6.69729 8.25752 6.7424 8.20562L11.0796 9.79231C11.0796 9.80715 11.0774 9.82199 11.0796 9.83683C11.0873 9.90601 11.1152 9.97137 11.1599 10.0248C11.2046 10.0781 11.264 10.1172 11.3307 10.137C11.3975 10.1568 11.4685 10.1564 11.5351 10.136C11.6017 10.1157 11.6607 10.0761 11.7049 10.0223L16.0346 11.6069C16.0319 11.6817 16.0529 11.7554 16.0946 11.8175C16.1363 11.8796 16.1967 11.9269 16.267 11.9526C16.3373 11.9782 16.4139 11.981 16.4858 11.9604C16.5578 11.9398 16.6214 11.8969 16.6674 11.8379L19.9288 13.0325C19.4378 13.8653 19.1299 14.7932 19.0257 15.7543L19.0225 15.7925C18.986 15.8249 18.9566 15.8645 18.9362 15.9088C18.9157 15.9532 18.9047 16.0012 18.9038 16.0501C18.9029 16.0989 18.9122 16.1473 18.931 16.1924C18.9498 16.2374 18.9777 16.2781 19.013 16.3118ZM63.1668 14.8163L63.1509 19.1937C62.8679 21.9421 60.1153 24.2304 57.0108 24.3163L25.8579 25.1896C24.2861 25.1896 22.8499 24.5961 21.9182 23.5627C21.5258 23.1311 21.2296 22.621 21.0493 22.0662C20.8689 21.5114 20.8085 20.9247 20.8721 20.3448L20.888 15.9674C21.171 13.219 23.9246 10.9296 27.028 10.8427L58.181 9.97144C59.7528 9.97144 61.189 10.5639 62.1207 11.5973C62.513 12.0292 62.8091 12.5395 62.9895 13.0945C63.1698 13.6494 63.2302 14.2363 63.1668 14.8163Z"
    fill="#E7424F" />
  <path
    d="M39.5202 19.0051C36.6033 18.2981 30.7685 16.3892 23.7837 16.1539C23.382 16.1402 22.6655 16.315 22.6686 17.0146C22.6761 18.4084 22.7047 20.79 22.6655 20.8027C22.6803 21.3305 22.6655 22.2293 23.4509 22.5908C27.4033 24.4117 34.5163 20.3491 39.4905 19.3316C39.8254 19.2627 39.9378 19.1069 39.5202 19.0051Z"
    fill="#E7424F" />
  <path
    d="M23.6458 15.5117C32.0117 15.5922 37.8995 18.2494 42.2165 18.7921C47.1526 19.4121 52.2688 16.6012 53.511 15.695C53.8099 15.4777 53.7675 15.4057 53.4537 15.4247C45.0243 15.9409 42.4624 15.4491 38.4337 12.2217C38.1634 12.0055 37.5943 12.0288 37.3092 12.0203C34.9456 11.9567 27.4159 12.2885 27.4159 12.2885C23.2675 12.5513 22.711 15.1576 22.8827 15.3855C23.0035 15.5456 23.5282 15.5106 23.6458 15.5117Z"
    fill="#E7424F" />
  <path
    d="M61.2356 15.482C58.9293 15.3548 54.9005 15.5318 52.9334 16.6839C46.0185 20.7328 44.4011 18.2886 35.0145 21.2744C31.5412 22.3799 30.4007 22.931 31.4002 23.1123C33.3356 23.462 40.3331 22.8929 45.6284 21.8679C51.7579 20.6808 54.9535 22.3131 60.4439 20.4667C61.4985 20.1127 61.6893 19.0009 61.6914 18.6098L61.7052 15.9134C61.7062 15.5805 61.3279 15.4862 61.2356 15.482ZM40.0088 12.4294C44.7296 16.5546 51.9063 14.598 61.6893 14.2058C61.6872 13.8529 61.6872 13.9663 61.6925 13.8211L61.685 13.642C61.5722 13.274 61.3805 12.9351 61.1233 12.6488C60.4704 11.9217 59.4327 11.5031 58.2753 11.4999L58.1386 11.502C58.1386 11.502 44.7392 12.0108 40.2165 11.979C40.0925 11.979 39.4131 11.909 40.0088 12.4294Z"
    fill="#E7424F" />
  <path
    d="M18.996 14.0637C19.1916 14.0637 19.3501 13.9052 19.3501 13.7097C19.3501 13.5142 19.1916 13.3557 18.996 13.3557C18.8005 13.3557 18.642 13.5142 18.642 13.7097C18.642 13.9052 18.8005 14.0637 18.996 14.0637Z"
    fill="#E7424F" />
  <path
    d="M15.3838 13.2805C15.4533 13.2725 15.5189 13.2442 15.5723 13.1989C15.6257 13.1537 15.6645 13.0937 15.6838 13.0265C15.7031 12.9592 15.702 12.8877 15.6807 12.8211C15.6595 12.7545 15.6189 12.6956 15.5642 12.652C15.5095 12.6084 15.4431 12.582 15.3734 12.576C15.3037 12.5701 15.2338 12.585 15.1725 12.6188C15.1113 12.6526 15.0614 12.7038 15.0292 12.7659C14.997 12.828 14.9839 12.8983 14.9917 12.9678C15.0129 13.1629 15.1888 13.3028 15.3838 13.2805ZM17.3394 12.706C17.3442 12.7524 17.3583 12.7973 17.3809 12.8381C17.4035 12.8789 17.434 12.9148 17.4708 12.9435C17.5255 12.987 17.5919 13.0134 17.6616 13.0192C17.7312 13.0251 17.8011 13.0102 17.8623 12.9764C17.9235 12.9426 17.9734 12.8915 18.0056 12.8294C18.0378 12.7673 18.0508 12.6971 18.0431 12.6276C18.038 12.5814 18.0238 12.5366 18.0014 12.4959C17.9789 12.4552 17.9487 12.4193 17.9123 12.3903C17.876 12.3612 17.8344 12.3396 17.7897 12.3267C17.745 12.3138 17.6982 12.3098 17.652 12.3149C17.6058 12.3201 17.5611 12.3343 17.5204 12.3567C17.4796 12.3792 17.4437 12.4094 17.4147 12.4457C17.3857 12.482 17.3641 12.5237 17.3511 12.5684C17.3382 12.613 17.3342 12.6598 17.3394 12.706Z"
    fill="#E7424F" />
  <path
    d="M14.041 12.2396C14.2365 12.2396 14.395 12.0811 14.395 11.8856C14.395 11.6901 14.2365 11.5316 14.041 11.5316C13.8454 11.5316 13.687 11.6901 13.687 11.8856C13.687 12.0811 13.8454 12.2396 14.041 12.2396Z"
    fill="#E7424F" />
  <path
    d="M18.2541 17.7151C18.3078 17.7087 18.3593 17.6901 18.4046 17.6606C18.45 17.6311 18.4879 17.5916 18.5156 17.5451C18.5432 17.4986 18.5598 17.4464 18.5641 17.3925C18.5684 17.3386 18.5602 17.2844 18.5402 17.2342C18.5202 17.1839 18.4889 17.1389 18.4488 17.1027C18.4086 17.0664 18.3607 17.0399 18.3087 17.0251C18.2566 17.0104 18.2019 17.0077 18.1487 17.0175C18.0955 17.0272 18.0452 17.0491 18.0018 17.0813L17.9859 17.093C17.9629 17.1132 17.9426 17.1364 17.9255 17.1619C17.8764 17.2319 17.8542 17.3173 17.863 17.4025C17.8739 17.4958 17.9212 17.581 17.9947 17.6395C18.0681 17.6981 18.1607 17.7253 18.2541 17.7151Z"
    fill="#E7424F" />
  <path
    d="M15.6065 15.6303C15.802 15.6303 15.9605 15.4718 15.9605 15.2763C15.9605 15.0807 15.802 14.9222 15.6065 14.9222C15.4109 14.9222 15.2524 15.0807 15.2524 15.2763C15.2524 15.4718 15.4109 15.6303 15.6065 15.6303Z"
    fill="#E7424F" />
  <path
    d="M17.845 14.6785C17.7971 14.6897 17.752 14.7106 17.7127 14.7401C17.6733 14.7696 17.6405 14.8069 17.6163 14.8497C17.5921 14.8925 17.5771 14.9399 17.5722 14.9888C17.5672 15.0377 17.5725 15.0871 17.5877 15.1339C17.6029 15.1807 17.6276 15.2238 17.6603 15.2605C17.693 15.2972 17.733 15.3267 17.7777 15.3472C17.8224 15.3677 17.8709 15.3786 17.92 15.3794C17.9692 15.3801 18.018 15.3706 18.0633 15.3515C18.1476 15.3185 18.2161 15.2545 18.2548 15.1726C18.2935 15.0907 18.2994 14.9972 18.2714 14.9111C18.2433 14.825 18.1835 14.7528 18.104 14.7094C18.0246 14.666 17.9315 14.6545 17.8439 14.6774L17.845 14.6785Z"
    fill="#E7424F" />
  <path
    d="M16.9112 16.6743C17.1067 16.6743 17.2652 16.5158 17.2652 16.3203C17.2652 16.1248 17.1067 15.9663 16.9112 15.9663C16.7157 15.9663 16.5572 16.1248 16.5572 16.3203C16.5572 16.5158 16.7157 16.6743 16.9112 16.6743Z"
    fill="#E7424F" />
  <path
    d="M14.5635 16.9362C14.759 16.9362 14.9175 16.7777 14.9175 16.5822C14.9175 16.3866 14.759 16.2281 14.5635 16.2281C14.368 16.2281 14.2095 16.3866 14.2095 16.5822C14.2095 16.7777 14.368 16.9362 14.5635 16.9362Z"
    fill="#E7424F" />
  <path
    d="M16.6494 14.3256C16.8449 14.3256 17.0034 14.1671 17.0034 13.9716C17.0034 13.7761 16.8449 13.6176 16.6494 13.6176C16.4539 13.6176 16.2954 13.7761 16.2954 13.9716C16.2954 14.1671 16.4539 14.3256 16.6494 14.3256Z"
    fill="#E7424F" />
  <path
    d="M14.3027 14.5874C14.4983 14.5874 14.6568 14.4289 14.6568 14.2334C14.6568 14.0379 14.4983 13.8794 14.3027 13.8794C14.1072 13.8794 13.9487 14.0379 13.9487 14.2334C13.9487 14.4289 14.1072 14.5874 14.3027 14.5874Z"
    fill="#E7424F" />
  <path
    d="M18.6293 21.7227C18.5825 21.735 18.5387 21.7567 18.5006 21.7864C18.4624 21.8162 18.4308 21.8535 18.4076 21.896C18.3844 21.9384 18.3701 21.9852 18.3656 22.0334C18.3611 22.0815 18.3665 22.1301 18.3815 22.1761C18.3965 22.2222 18.4207 22.2646 18.4527 22.3009C18.4847 22.3372 18.5237 22.3666 18.5675 22.3873C18.6112 22.408 18.6588 22.4195 18.7071 22.4211C18.7555 22.4228 18.8037 22.4145 18.8487 22.3968C18.933 22.3638 19.0015 22.2998 19.0402 22.2179C19.0789 22.136 19.0848 22.0425 19.0568 21.9564C19.0288 21.8703 18.9689 21.7981 18.8894 21.7547C18.81 21.7113 18.7169 21.6998 18.6293 21.7227Z"
    fill="#E7424F" />
  <path
    d="M16.13 20.3268C16.3255 20.3268 16.484 20.1683 16.484 19.9728C16.484 19.7773 16.3255 19.6188 16.13 19.6188C15.9345 19.6188 15.776 19.7773 15.776 19.9728C15.776 20.1683 15.9345 20.3268 16.13 20.3268Z"
    fill="#E7424F" />
  <path
    d="M18.8286 19.6718C18.8234 19.6256 18.8092 19.5808 18.7868 19.5401C18.7643 19.4994 18.7341 19.4635 18.6978 19.4344C18.6615 19.4054 18.6198 19.3838 18.5751 19.3709C18.5305 19.358 18.4837 19.354 18.4375 19.3591C18.3913 19.3643 18.3465 19.3785 18.3058 19.4009C18.2651 19.4233 18.2292 19.4536 18.2001 19.4899C18.1711 19.5262 18.1495 19.5679 18.1366 19.6126C18.1237 19.6572 18.1196 19.704 18.1248 19.7502C18.1352 19.8435 18.1822 19.9289 18.2556 19.9876C18.3289 20.0462 18.4226 20.0733 18.5159 20.0629C18.6092 20.0525 18.6946 20.0054 18.7532 19.9321C18.8119 19.8587 18.839 19.7651 18.8286 19.6718Z"
    fill="#E7424F" />
  <path
    d="M17.4348 21.3707C17.6303 21.3707 17.7888 21.2122 17.7888 21.0167C17.7888 20.8212 17.6303 20.6627 17.4348 20.6627C17.2393 20.6627 17.0808 20.8212 17.0808 21.0167C17.0808 21.2122 17.2393 21.3707 17.4348 21.3707Z"
    fill="#E7424F" />
  <path
    d="M17.173 19.022C17.3685 19.022 17.527 18.8635 17.527 18.668C17.527 18.4725 17.3685 18.314 17.173 18.314C16.9775 18.314 16.819 18.4725 16.819 18.668C16.819 18.8635 16.9775 19.022 17.173 19.022Z"
    fill="#E7424F" />
  <path
    d="M14.8253 19.2838C15.0208 19.2838 15.1793 19.1253 15.1793 18.9298C15.1793 18.7343 15.0208 18.5758 14.8253 18.5758C14.6297 18.5758 14.4713 18.7343 14.4713 18.9298C14.4713 19.1253 14.6297 19.2838 14.8253 19.2838Z"
    fill="#E7424F" />
  <path
    d="M16.2201 17.5858C16.215 17.5396 16.2008 17.4949 16.1783 17.4542C16.1559 17.4134 16.1256 17.3775 16.0893 17.3485C16.053 17.3195 16.0113 17.2979 15.9667 17.285C15.922 17.272 15.8752 17.268 15.829 17.2732C15.7828 17.2783 15.7381 17.2925 15.6973 17.315C15.6566 17.3374 15.6207 17.3677 15.5917 17.404C15.5626 17.4403 15.541 17.482 15.5281 17.5266C15.5152 17.5713 15.5112 17.6181 15.5163 17.6643C15.5215 17.7105 15.5357 17.7552 15.5581 17.796C15.5806 17.8367 15.6108 17.8726 15.6471 17.9016C15.6835 17.9307 15.7251 17.9523 15.7698 17.9652C15.8145 17.9781 15.8612 17.9821 15.9074 17.977C15.9537 17.9718 15.9984 17.9576 16.0391 17.9352C16.0798 17.9127 16.1157 17.8825 16.1448 17.8462C16.1738 17.8098 16.1954 17.7682 16.2083 17.7235C16.2213 17.6788 16.2253 17.6321 16.2201 17.5858Z"
    fill="#E7424F" />
  <path
    d="M10.3895 11.4585C10.585 11.4585 10.7435 11.3 10.7435 11.1045C10.7435 10.909 10.585 10.7505 10.3895 10.7505C10.194 10.7505 10.0355 10.909 10.0355 11.1045C10.0355 11.3 10.194 11.4585 10.3895 11.4585Z"
    fill="#E7424F" />
  <path
    d="M12.4659 11.0716C12.5038 11.1155 12.5518 11.1496 12.6056 11.171C12.6595 11.1924 12.7178 11.2005 12.7754 11.1946C12.8539 11.1858 12.9272 11.151 12.9836 11.0958C13.0401 11.0406 13.0764 10.9681 13.0869 10.8898C13.0974 10.8116 13.0814 10.7321 13.0415 10.6639C13.0016 10.5958 12.9401 10.5429 12.8667 10.5138C12.7933 10.4846 12.7123 10.4808 12.6366 10.503C12.5608 10.5252 12.4946 10.5721 12.4485 10.6362C12.4025 10.7004 12.3791 10.778 12.3823 10.8569C12.3855 10.9358 12.4149 11.0114 12.4659 11.0716Z"
    fill="#E7424F" />
  <path
    d="M11.6932 12.5015C11.8888 12.5015 12.0473 12.343 12.0473 12.1475C12.0473 11.952 11.8888 11.7935 11.6932 11.7935C11.4977 11.7935 11.3392 11.952 11.3392 12.1475C11.3392 12.343 11.4977 12.5015 11.6932 12.5015Z"
    fill="#E7424F" />
  <path
    d="M9.34663 12.7632C9.54214 12.7632 9.70064 12.6047 9.70064 12.4092C9.70064 12.2137 9.54214 12.0552 9.34663 12.0552C9.15111 12.0552 8.99261 12.2137 8.99261 12.4092C8.99261 12.6047 9.15111 12.7632 9.34663 12.7632Z"
    fill="#E7424F" />
  <path
    d="M9.08478 10.4144C9.2803 10.4144 9.4388 10.2559 9.4388 10.0604C9.4388 9.86492 9.2803 9.70642 9.08478 9.70642C8.88927 9.70642 8.73077 9.86492 8.73077 10.0604C8.73077 10.2559 8.88927 10.4144 9.08478 10.4144Z"
    fill="#E7424F" />
  <path
    d="M10.9132 16.1549C11.1087 16.1549 11.2672 15.9964 11.2672 15.8009C11.2672 15.6054 11.1087 15.4469 10.9132 15.4469C10.7176 15.4469 10.5591 15.6054 10.5591 15.8009C10.5591 15.9964 10.7176 16.1549 10.9132 16.1549Z"
    fill="#E7424F" />
  <path
    d="M13.2979 15.8911C13.3441 15.886 13.3889 15.8719 13.4296 15.8495C13.4704 15.8271 13.5063 15.7969 13.5354 15.7607C13.5645 15.7244 13.5862 15.6827 13.5992 15.6381C13.6121 15.5935 13.6162 15.5467 13.6111 15.5005C13.6061 15.4543 13.5919 15.4095 13.5695 15.3688C13.5472 15.328 13.517 15.2921 13.4807 15.263C13.4444 15.2339 13.4028 15.2123 13.3582 15.1993C13.3135 15.1863 13.2668 15.1822 13.2206 15.1873C13.1272 15.1977 13.0419 15.2448 12.9832 15.3181C12.9246 15.3914 12.8975 15.4851 12.9079 15.5784C12.9183 15.6717 12.9653 15.7571 13.0387 15.8157C13.112 15.8744 13.2057 15.9015 13.299 15.8911H13.2979Z"
    fill="#E7424F" />
  <path
    d="M12.2169 17.1979C12.4124 17.1979 12.5709 17.0394 12.5709 16.8439C12.5709 16.6484 12.4124 16.4899 12.2169 16.4899C12.0214 16.4899 11.8629 16.6484 11.8629 16.8439C11.8629 17.0394 12.0214 17.1979 12.2169 17.1979Z"
    fill="#E7424F" />
  <path
    d="M9.87018 17.4597C10.0657 17.4597 10.2242 17.3012 10.2242 17.1057C10.2242 16.9102 10.0657 16.7517 9.87018 16.7517C9.67467 16.7517 9.51617 16.9102 9.51617 17.1057C9.51617 17.3012 9.67467 17.4597 9.87018 17.4597Z"
    fill="#E7424F" />
  <path
    d="M11.955 14.8491C12.1505 14.8491 12.309 14.6906 12.309 14.4951C12.309 14.2996 12.1505 14.1411 11.955 14.1411C11.7595 14.1411 11.601 14.2996 11.601 14.4951C11.601 14.6906 11.7595 14.8491 11.955 14.8491Z"
    fill="#E7424F" />
  <path
    d="M9.6084 15.111C9.80392 15.111 9.96241 14.9525 9.96241 14.757C9.96241 14.5614 9.80392 14.403 9.6084 14.403C9.41289 14.403 9.25439 14.5614 9.25439 14.757C9.25439 14.9525 9.41289 15.111 9.6084 15.111Z"
    fill="#E7424F" />
  <path
    d="M11.0033 13.4129C10.9981 13.3667 10.9839 13.322 10.9615 13.2813C10.939 13.2405 10.9088 13.2046 10.8725 13.1756C10.8361 13.1466 10.7945 13.125 10.7498 13.1121C10.7051 13.0991 10.6584 13.0951 10.6122 13.1003C10.5659 13.1054 10.5212 13.1196 10.4805 13.1421C10.4398 13.1645 10.4039 13.1948 10.3748 13.2311C10.3458 13.2674 10.3242 13.3091 10.3113 13.3537C10.2983 13.3984 10.2943 13.4452 10.2995 13.4914C10.3046 13.5376 10.3188 13.5823 10.3413 13.6231C10.3637 13.6638 10.394 13.6997 10.4303 13.7287C10.4666 13.7578 10.5083 13.7793 10.5529 13.7923C10.5976 13.8052 10.6444 13.8092 10.6906 13.8041C10.7368 13.7989 10.7815 13.7847 10.8223 13.7623C10.863 13.7398 10.8989 13.7096 10.9279 13.6733C10.957 13.6369 10.9786 13.5953 10.9915 13.5506C11.0044 13.5059 11.0084 13.4592 11.0033 13.4129ZM12.6588 13.0897C12.6434 13.1402 12.6394 13.1936 12.6472 13.2458C12.655 13.2981 12.6744 13.348 12.7039 13.3918C12.7335 13.4356 12.7724 13.4723 12.8179 13.4992C12.8634 13.5261 12.9144 13.5424 12.967 13.5471C13.0196 13.5518 13.0727 13.5446 13.1222 13.5262C13.1717 13.5078 13.2165 13.4785 13.2533 13.4406C13.2901 13.4027 13.318 13.357 13.3349 13.3069C13.3518 13.2568 13.3573 13.2036 13.351 13.1511C13.3424 13.0695 13.3057 12.9934 13.2472 12.9358C13.1887 12.8782 13.112 12.8428 13.0302 12.8355C12.9484 12.8282 12.8667 12.8496 12.7989 12.896C12.7312 12.9423 12.6817 13.0108 12.6588 13.0897ZM14.0049 19.9579C13.9687 19.9282 13.927 19.9059 13.8822 19.8924C13.8373 19.879 13.7902 19.8745 13.7437 19.8793C13.6971 19.8842 13.6519 19.8982 13.6108 19.9206C13.5697 19.943 13.5334 19.9734 13.5041 20.0099C13.4748 20.0465 13.453 20.0884 13.4401 20.1334C13.4271 20.1784 13.4232 20.2256 13.4286 20.2721C13.4339 20.3186 13.4485 20.3636 13.4714 20.4045C13.4943 20.4453 13.525 20.4812 13.5619 20.5101C13.6355 20.5616 13.726 20.5831 13.8149 20.5704C13.9039 20.5576 13.9847 20.5115 14.0409 20.4414C14.0971 20.3713 14.1245 20.2825 14.1177 20.1929C14.1108 20.1033 14.0701 20.0197 14.0039 19.959L14.0049 19.9579Z"
    fill="#E7424F" />
  <path
    d="M12.4786 19.5457C12.6742 19.5457 12.8327 19.3872 12.8327 19.1917C12.8327 18.9961 12.6742 18.8376 12.4786 18.8376C12.2831 18.8376 12.1246 18.9961 12.1246 19.1917C12.1246 19.3872 12.2831 19.5457 12.4786 19.5457Z"
    fill="#E7424F" />
  <path
    d="M11.1357 17.7968C11.0662 17.8048 11.0006 17.8331 10.9473 17.8784C10.8939 17.9236 10.8551 17.9836 10.8358 18.0508C10.8165 18.1181 10.8175 18.1895 10.8388 18.2562C10.8601 18.3228 10.9007 18.3817 10.9554 18.4253C11.0101 18.4689 11.0765 18.4953 11.1462 18.5012C11.2159 18.5072 11.2858 18.4923 11.347 18.4585C11.4083 18.4247 11.4582 18.3735 11.4904 18.3114C11.5226 18.2493 11.5356 18.179 11.5279 18.1095C11.5228 18.0632 11.5075 18.0183 11.485 17.9775C11.4625 17.9367 11.4321 17.9007 11.3957 17.8717C11.3592 17.8426 11.3174 17.8211 11.2726 17.8082C11.2279 17.7954 11.181 17.7915 11.1347 17.7968H11.1357ZM13.5608 18.2388C13.6071 18.2341 13.652 18.2201 13.6928 18.1977C13.7336 18.1753 13.7694 18.145 13.7982 18.1084C13.8273 18.072 13.8489 18.0303 13.8618 17.9855C13.8748 17.9408 13.8787 17.8939 13.8735 17.8477C13.8631 17.7543 13.816 17.669 13.7427 17.6103C13.6693 17.5517 13.5757 17.5246 13.4824 17.535C13.3891 17.5454 13.3037 17.5924 13.245 17.6658C13.1864 17.7391 13.1593 17.8328 13.1697 17.9261C13.1746 17.9724 13.1886 18.0172 13.211 18.0579C13.2334 18.0987 13.2637 18.1346 13.3001 18.1635C13.3364 18.1926 13.3782 18.2143 13.4229 18.2272C13.4677 18.2401 13.5145 18.2441 13.5608 18.2388ZM5.08152 9.31856C5.08667 9.36484 5.10089 9.40965 5.12336 9.45044C5.14582 9.49123 5.17611 9.52719 5.21247 9.55627C5.24884 9.58535 5.29058 9.60699 5.33531 9.61994C5.38004 9.6329 5.42688 9.63691 5.47316 9.63176C5.51944 9.62661 5.56425 9.6124 5.60504 9.58993C5.64583 9.56746 5.68179 9.53718 5.71087 9.50081C5.73996 9.46444 5.76159 9.4227 5.77454 9.37798C5.7875 9.33325 5.79151 9.28641 5.78636 9.24012C5.77596 9.14666 5.72886 9.06115 5.65541 9.00241C5.58197 8.94368 5.48819 8.91652 5.39473 8.92692C5.30126 8.93732 5.21575 8.98443 5.15701 9.05787C5.09828 9.13132 5.07112 9.22509 5.08152 9.31856ZM7.74826 9.37155C7.80065 9.37645 7.85348 9.36961 7.9029 9.35153C7.95232 9.33344 7.99708 9.30457 8.03393 9.267C8.07078 9.22944 8.0988 9.18413 8.11594 9.13438C8.13308 9.08463 8.13891 9.03168 8.13301 8.97939C8.12793 8.93318 8.11379 8.88842 8.09142 8.84767C8.06904 8.80692 8.03885 8.77098 8.00259 8.74189C7.96632 8.71281 7.92468 8.69115 7.88004 8.67816C7.8354 8.66517 7.78864 8.6611 7.74243 8.66618C7.69622 8.67126 7.65146 8.6854 7.61071 8.70777C7.56996 8.73015 7.53402 8.76034 7.50494 8.7966C7.47585 8.83287 7.4542 8.87452 7.44121 8.91915C7.42822 8.96379 7.42415 9.01055 7.42923 9.05676C7.43772 9.13778 7.47406 9.21334 7.53205 9.27055C7.59004 9.32776 7.66608 9.36309 7.7472 9.37049L7.74826 9.37155Z"
    fill="#E7424F" />
  <path
    d="M4.12971 8.59035C4.32522 8.59035 4.48372 8.43185 4.48372 8.23633C4.48372 8.04082 4.32522 7.88232 4.12971 7.88232C3.93419 7.88232 3.7757 8.04082 3.7757 8.23633C3.7757 8.43185 3.93419 8.59035 4.12971 8.59035Z"
    fill="#E7424F" />
  <path
    d="M5.6952 11.9821C5.89071 11.9821 6.04921 11.8236 6.04921 11.6281C6.04921 11.4325 5.89071 11.274 5.6952 11.274C5.49968 11.274 5.34119 11.4325 5.34119 11.6281C5.34119 11.8236 5.49968 11.9821 5.6952 11.9821Z"
    fill="#E7424F" />
  <path
    d="M7.93268 11.0292C7.88842 11.0437 7.84743 11.0666 7.81205 11.0969C7.77667 11.1271 7.74759 11.1641 7.72648 11.2055C7.70537 11.247 7.69263 11.2923 7.68901 11.3387C7.68538 11.3851 7.69092 11.4317 7.70533 11.476C7.71974 11.5203 7.74272 11.5613 7.77297 11.5966C7.80322 11.632 7.84014 11.6611 7.88162 11.6822C7.92311 11.7033 7.96834 11.716 8.01475 11.7197C8.06115 11.7233 8.10782 11.7178 8.15208 11.7033C8.24147 11.6743 8.31565 11.6108 8.35828 11.5271C8.40092 11.4433 8.40853 11.346 8.37943 11.2566C8.35034 11.1672 8.28693 11.093 8.20314 11.0504C8.11936 11.0078 8.02207 11.0001 7.93268 11.0292Z"
    fill="#E7424F" />
  <path
    d="M6.99995 13.025C7.19546 13.025 7.35396 12.8665 7.35396 12.671C7.35396 12.4755 7.19546 12.317 6.99995 12.317C6.80443 12.317 6.64594 12.4755 6.64594 12.671C6.64594 12.8665 6.80443 13.025 6.99995 13.025Z"
    fill="#E7424F" />
  <path
    d="M4.65333 13.2869C4.84884 13.2869 5.00734 13.1284 5.00734 12.9329C5.00734 12.7374 4.84884 12.5789 4.65333 12.5789C4.45781 12.5789 4.29932 12.7374 4.29932 12.9329C4.29932 13.1284 4.45781 13.2869 4.65333 13.2869Z"
    fill="#E7424F" />
  <path
    d="M6.73817 10.6763C6.93368 10.6763 7.09218 10.5178 7.09218 10.3223C7.09218 10.1268 6.93368 9.96826 6.73817 9.96826C6.54265 9.96826 6.38416 10.1268 6.38416 10.3223C6.38416 10.5178 6.54265 10.6763 6.73817 10.6763Z"
    fill="#E7424F" />
  <path
    d="M4.39149 10.9381C4.587 10.9381 4.7455 10.7796 4.7455 10.5841C4.7455 10.3886 4.587 10.2301 4.39149 10.2301C4.19597 10.2301 4.03748 10.3886 4.03748 10.5841C4.03748 10.7796 4.19597 10.9381 4.39149 10.9381Z"
    fill="#E7424F" />
  <path
    d="M3.34858 12.2439C3.54409 12.2439 3.70259 12.0854 3.70259 11.8899C3.70259 11.6944 3.54409 11.5359 3.34858 11.5359C3.15306 11.5359 2.99457 11.6944 2.99457 11.8899C2.99457 12.0854 3.15306 12.2439 3.34858 12.2439Z"
    fill="#E7424F" />
  <path
    d="M3.43869 9.50193C3.43295 9.4497 3.41563 9.39941 3.38798 9.35473C3.36033 9.31005 3.32306 9.27211 3.27888 9.24367C3.2347 9.21523 3.18473 9.19701 3.13261 9.19035C3.08049 9.18369 3.02754 9.18874 2.97763 9.20515C2.90011 9.23023 2.83359 9.28121 2.7892 9.34952C2.74481 9.41784 2.72527 9.49934 2.73385 9.58036C2.739 9.62664 2.75321 9.67145 2.77568 9.71224C2.79815 9.75303 2.82843 9.78899 2.8648 9.81807C2.90117 9.84716 2.9429 9.86879 2.98763 9.88174C3.03236 9.8947 3.0792 9.89871 3.12548 9.89356C3.17176 9.88841 3.21658 9.8742 3.25736 9.85173C3.29815 9.82926 3.33411 9.79898 3.3632 9.76261C3.39228 9.72624 3.41392 9.68451 3.42687 9.63978C3.43982 9.59505 3.44384 9.54821 3.43869 9.50193Z"
    fill="#E7424F" />
  <path
    d="M6.21882 16.6786C6.41433 16.6786 6.57283 16.5201 6.57283 16.3246C6.57283 16.1291 6.41433 15.9706 6.21882 15.9706C6.0233 15.9706 5.86481 16.1291 5.86481 16.3246C5.86481 16.5201 6.0233 16.6786 6.21882 16.6786Z"
    fill="#E7424F" />
  <path
    d="M8.60464 16.4146C8.65094 16.41 8.69583 16.396 8.73662 16.3736C8.77741 16.3512 8.81327 16.3208 8.84206 16.2843C8.89332 16.2204 8.92083 16.1407 8.91991 16.0588C8.919 15.9769 8.88971 15.8978 8.83704 15.8351C8.78437 15.7724 8.71159 15.7299 8.63108 15.7148C8.55057 15.6997 8.46733 15.713 8.39553 15.7524C8.32374 15.7919 8.26784 15.855 8.23735 15.931C8.20686 16.007 8.20368 16.0913 8.22835 16.1694C8.25301 16.2475 8.30399 16.3146 8.37261 16.3593C8.44123 16.404 8.52323 16.4236 8.60464 16.4146Z"
    fill="#E7424F" />
  <path
    d="M7.52357 17.7216C7.71908 17.7216 7.87758 17.5631 7.87758 17.3676C7.87758 17.172 7.71908 17.0135 7.52357 17.0135C7.32805 17.0135 7.16956 17.172 7.16956 17.3676C7.16956 17.5631 7.32805 17.7216 7.52357 17.7216Z"
    fill="#E7424F" />
  <path
    d="M7.26173 15.3727C7.45724 15.3727 7.61574 15.2142 7.61574 15.0187C7.61574 14.8232 7.45724 14.6647 7.26173 14.6647C7.06621 14.6647 6.90771 14.8232 6.90771 15.0187C6.90771 15.2142 7.06621 15.3727 7.26173 15.3727Z"
    fill="#E7424F" />
  <path
    d="M4.91511 15.6356C5.11062 15.6356 5.26912 15.4771 5.26912 15.2816C5.26912 15.0861 5.11062 14.9276 4.91511 14.9276C4.71959 14.9276 4.5611 15.0861 4.5611 15.2816C4.5611 15.4771 4.71959 15.6356 4.91511 15.6356Z"
    fill="#E7424F" />
  <path
    d="M6.30889 13.9366C6.29849 13.8432 6.25144 13.7579 6.17809 13.6992C6.10475 13.6406 6.01111 13.6135 5.91778 13.6239C5.82446 13.6343 5.73908 13.6813 5.68044 13.7547C5.62181 13.828 5.59471 13.9217 5.60511 14.015C5.61026 14.0612 5.62446 14.1059 5.6469 14.1467C5.66934 14.1874 5.69959 14.2233 5.73591 14.2523C5.77222 14.2814 5.8139 14.303 5.85857 14.3159C5.90323 14.3288 5.95001 14.3328 5.99622 14.3277C6.04243 14.3225 6.08717 14.3083 6.12789 14.2859C6.16862 14.2634 6.20452 14.2332 6.23355 14.1969C6.26259 14.1605 6.28419 14.1189 6.29711 14.0742C6.31004 14.0295 6.31404 13.9828 6.30889 13.9366ZM8.65659 13.6748C8.64619 13.5813 8.59909 13.4958 8.52564 13.437C8.4522 13.3783 8.35842 13.3512 8.26496 13.3616C8.17149 13.372 8.08598 13.4191 8.02724 13.4925C7.96851 13.566 7.94135 13.6597 7.95175 13.7532C7.9569 13.7995 7.97112 13.8443 7.99359 13.8851C8.01606 13.9259 8.04634 13.9618 8.0827 13.9909C8.11907 14.02 8.16081 14.0416 8.20554 14.0546C8.25027 14.0675 8.29711 14.0715 8.34339 14.0664C8.38967 14.0612 8.43448 14.047 8.47527 14.0246C8.51606 14.0021 8.55202 13.9718 8.5811 13.9354C8.61019 13.8991 8.63182 13.8573 8.64478 13.8126C8.65773 13.7679 8.66174 13.721 8.65659 13.6748ZM9.17913 18.3712C9.16873 18.2779 9.12168 18.1925 9.04833 18.1339C8.97499 18.0752 8.88135 18.0481 8.78802 18.0586C8.6947 18.069 8.60932 18.116 8.55069 18.1893C8.49205 18.2627 8.46495 18.3563 8.47535 18.4497C8.48022 18.4961 8.49427 18.5411 8.51669 18.582C8.53911 18.623 8.56946 18.659 8.60595 18.6881C8.64245 18.7172 8.68437 18.7388 8.72928 18.7515C8.77418 18.7642 8.82118 18.7679 8.86752 18.7623C8.96066 18.7517 9.04577 18.7045 9.10419 18.6312C9.16261 18.5579 9.18956 18.4644 9.17913 18.3712ZM3.96225 14.1984C3.9571 14.1521 3.94289 14.1074 3.92045 14.0667C3.89801 14.026 3.86777 13.99 3.83145 13.961C3.79513 13.932 3.75345 13.9104 3.70879 13.8975C3.66412 13.8845 3.61735 13.8805 3.57114 13.8857C3.52493 13.8908 3.48018 13.905 3.43946 13.9275C3.39874 13.9499 3.36284 13.9802 3.3338 14.0165C3.30477 14.0528 3.28317 14.0945 3.27024 14.1391C3.25732 14.1838 3.25332 14.2306 3.25847 14.2768C3.26318 14.3232 3.27715 14.3682 3.29954 14.4092C3.32193 14.4502 3.35229 14.4862 3.38883 14.5153C3.44359 14.5593 3.5102 14.586 3.58018 14.592C3.65017 14.5981 3.72038 14.5832 3.78186 14.5492C3.84334 14.5152 3.89332 14.4637 3.92545 14.4012C3.95757 14.3387 3.97038 14.2681 3.96225 14.1984Z"
    fill="#E7424F" />
  <path
    d="M54.9525 40.2096C54.8085 40.2096 54.6673 40.1696 54.5447 40.094C54.4221 40.0183 54.3229 39.9101 54.2583 39.7814L50.8241 32.9471L46.9162 37.1147C46.8095 37.2287 46.6708 37.3078 46.5184 37.3419C46.366 37.3759 46.2068 37.3632 46.0617 37.3054C45.9166 37.2476 45.7923 37.1474 45.705 37.0179C45.6177 36.8884 45.5714 36.7356 45.5723 36.5794L45.6486 19.7978C45.6496 19.6536 45.6906 19.5125 45.7671 19.3903C45.8437 19.2681 45.9527 19.1695 46.082 19.1056C46.2112 19.0417 46.3558 19.0151 46.4993 19.0286C46.6429 19.0421 46.7799 19.0952 46.895 19.182L60.1779 29.2448C60.3016 29.3387 60.3944 29.4675 60.4444 29.6146C60.4943 29.7617 60.499 29.9204 60.458 30.0702C60.4169 30.22 60.332 30.3541 60.2141 30.4553C60.0961 30.5564 59.9506 30.6199 59.7963 30.6376L54.1215 31.2894L57.5556 38.1227C57.6482 38.3069 57.6637 38.5204 57.599 38.7162C57.5342 38.9119 57.3943 39.074 57.2101 39.1667L55.3023 40.1269C55.1937 40.1814 55.0739 40.2097 54.9525 40.2096Z"
    fill="white" />
  <path
    d="M46.4255 19.8011L59.7083 29.865L52.928 30.644L56.8603 38.4725L54.9525 39.4328L51.0202 31.6032L46.3492 36.5827L46.4255 19.8011ZM46.4255 18.2462C46.0145 18.2465 45.6204 18.4094 45.3293 18.6994C45.0381 18.9893 44.8736 19.3828 44.8716 19.7937L44.7943 36.5774C44.7931 36.8895 44.8859 37.1947 45.0606 37.4534C45.2354 37.712 45.4839 37.9121 45.7738 38.0276C46.0638 38.1431 46.3818 38.1686 46.6865 38.1009C46.9912 38.0332 47.2684 37.8753 47.4822 37.6479L50.6291 34.2922L53.5629 40.1323C53.7481 40.5006 54.072 40.7803 54.4633 40.9099C54.8547 41.0395 55.2815 41.0084 55.6499 40.8234L57.5577 39.8621C57.9261 39.6767 58.2058 39.3526 58.3354 38.9611C58.465 38.5695 58.4338 38.1426 58.2488 37.774L55.3149 31.936L59.8853 31.4103C60.194 31.3752 60.4851 31.2483 60.721 31.046C60.9569 30.8437 61.1267 30.5754 61.2086 30.2756C61.2904 29.9758 61.2804 29.6584 61.18 29.3643C61.0796 29.0703 60.8933 28.813 60.6452 28.6259L47.3635 18.5621C47.0936 18.3574 46.7642 18.2465 46.4255 18.2462Z"
    fill="#E7424F" />
</svg>
