<svg width="324" height="120" viewBox="0 0 324 120" fill="none" xmlns="http://www.w3.org/2000/svg">
<g id="Logo / #3">
<path id="Shape" fill-rule="evenodd" clip-rule="evenodd" d="M142.157 79.9848C146.876 78.8267 149.915 75.9958 149.915 70.7843C149.915 63.5783 144.937 59.2676 131.748 59.2676H115.521V104.305H134.269C147.199 104.305 152.372 98.7719 152.372 91.3085C152.372 85.2606 149.139 81.3359 142.157 79.9848ZM132.459 67.0526C137.179 67.0526 139.894 68.2751 139.894 72.0711C139.894 75.8671 137.114 77.3469 133.558 77.3469H125.412V67.0526H132.459ZM125.412 96.52H134.657C138.989 96.52 142.157 94.7185 142.157 90.6008C142.157 85.325 138.019 84.2955 134.528 84.2955H125.412V96.52ZM321.951 104.305H311.478L309.409 97.2277H292.341L290.272 104.305H280.187L294.862 59.2676H307.275L321.951 104.305ZM307.211 89.3784L300.875 66.7953L294.539 89.3784H307.211ZM160.906 59.2676H191.098V67.3743H170.797V77.4112H189.74V85.2606H170.797V96.1983H191.68V104.305H160.906V59.2676ZM211.463 59.2676H201.571V104.305H230.987V95.8766H211.463V59.2676ZM277.859 104.305H266.222L253.486 84.4886L247.861 90.7938V104.305H237.97V59.2676H247.861V78.9554L264.606 59.2676H276.243L260.21 77.6043L277.859 104.305Z" fill="#0B051D"/>
<path id="Path 2" fill-rule="evenodd" clip-rule="evenodd" d="M23.1743 54.7847C30.6625 46.8163 41.1537 42.2956 52.1164 42.3125C73.9184 42.3125 91.5987 59.704 91.5987 81.1537C91.5987 102.605 73.9184 120 52.1164 120C46.5666 120.005 41.0776 118.851 36.0044 116.611C44.279 110.633 48.6556 103.78 52.2122 98.2103C55.3077 93.3627 57.7821 89.488 61.6646 88.0104C62.7439 87.5995 63.7687 87.2171 64.7405 86.8544C74.1464 83.3443 78.5895 81.6863 79.4564 73.9976C79.6012 72.7154 79.7494 71.5796 79.8804 70.5751C80.6161 64.9337 80.812 63.4313 76.8556 63.377C75.3167 63.3571 73.4059 63.3555 71.428 63.3537C66.2229 63.3491 60.5536 63.3442 59.978 63.0054L59.9525 62.9902C59.0677 62.4639 53.672 59.2546 45.9295 59.3912C44.93 59.409 43.9436 59.3819 42.968 59.3552C37.4873 59.2051 32.3517 59.0644 27.2014 66.9324C22.527 74.0699 20.1577 82.6875 31.1948 82.7867C38.1777 82.8506 40.1836 72.4874 40.1836 72.4874C40.1836 72.4874 40.7042 78.8093 36.508 82.8506C31.2201 87.9465 24.8997 84.7242 23.1743 82.8927V118.843H0V29.3996L23.1743 0V54.7847ZM52.9191 66.591C53.8807 66.152 54.8828 67.6017 55.6163 68.9489C56.343 70.2926 51.4201 72.4487 50.5076 71.9038C49.595 71.374 51.5131 67.2317 52.9191 66.591Z" fill="#0B051D"/>
</g>
</svg>
