<?xml version="1.0" encoding="utf-8"?>
<!-- Generator: Adobe Illustrator 25.3.0, SVG Export Plug-In . SVG Version: 6.00 Build 0)  -->
<svg version="1.1" id="Layer_1" xmlns="http://www.w3.org/2000/svg" xmlns:xlink="http://www.w3.org/1999/xlink" x="0px" y="0px"
	 viewBox="0 0 1103.9 639.5" style="enable-background:new 0 0 1103.9 639.5;" xml:space="preserve">
<style type="text/css">
	.st0{display:none;}
	.st1{display:inline;fill:#101416;}
	.st2{font-family:'KievitOT-Regular';}
	.st3{font-size:11.7739px;}
	.st4{display:inline;}
	.st5{fill:#9EDBF5;}
	.st6{fill:#101416;}
</style>
<g id="Ebene_1">
	<path d="M235.5,377.8l57.3,57.3H425V125.8H314V183l-57.2-57.2H126.7v309.3h108.8V377.8z M297.7,431.2l82.8-90.1l39.7,90.1H297.7z
		 M421,423.1l-37.6-85.3L421,146V423.1z M420.1,129.8l-39.5,201.3L318,186.9v-57L420.1,129.8L420.1,129.8z M316,192.3L378.8,337
		l-85.5,93l-56.8-56.8L316,192.3z M252.4,129.8l-81.7,132.5l-38.9-132.5L252.4,129.8L252.4,129.8z M130.7,140.5L168,267.2
		l-37.3,149.6V140.5z M231.5,431.2H131.2l39.5-158.8L231.5,375V431.2z M233,369.7l-60.7-102.5l84-136.2l57.1,57.1l-80,182L233,369.7
		z"/>
	<path d="M686.5,435.2l81.3-59.1l30.9-95l0.2-0.6l-30.9-95l-0.2-0.6L687,126.2l-0.5-0.4H586l-81.3,59.1l-31.1,95.6l31.1,95.6
		l80.8,58.7l0.5,0.4H686.5z M682.9,431.2h-92.6L702.1,342L682.9,431.2z M687.4,429.6l19.1-88.9l56,34.3L687.4,429.6z M794.6,280.5
		L765,371.8l-57-34.9L765.9,192L794.6,280.5z M685.2,129.8l78.5,57L705.2,333L589.5,129.8H685.2z M587.2,133.9l113.9,199.9
		l-135.5-54.3L587.2,133.9z M508,187.4l75.3-54.7l-21.7,145.8h-83.2L508,187.4z M508,373.6l-29.6-91.1h82.9L584,428.8L508,373.6z
		 M565.6,283.8l135.1,54.1l-112.8,90L565.6,283.8z"/>
	<path d="M977.7,125.8h-129v309.3h129V125.8z M971.7,129.8l-33.3,84.6l-83-84.6L971.7,129.8L971.7,129.8z M852.6,132.7l84.3,85.9
		l-23.5,106l-60.8,26.6V132.7z M852.6,355.5l57.5-25.2L852.6,426V355.5z M854.2,431.2L915.1,330l57.3,101.2H854.2z M973.7,425.3
		l-56.4-99.6l22.4-100.8l34,87.1V425.3z M973.7,300.9L941.3,218l32.4-82.4V300.9z"/>
	<polygon points="165.1,497.3 177.6,497.3 177.6,493.2 165.1,493.2 165.1,482.2 179.3,482.2 179.3,478.1 160.2,478.1 160.2,514.4 
		179.7,514.4 179.7,510.3 165.1,510.3 	"/>
	<polygon points="385.6,478.1 380,478.1 365.7,495.4 365.7,478.1 360.7,478.1 360.7,514.4 365.7,514.4 365.7,495.6 380.5,514.4 
		386.6,514.4 371.2,495.1 	"/>
	<polygon points="507.7,482.2 518,482.2 518,514.4 522.9,514.4 522.9,482.2 533.2,482.2 533.2,478.1 507.7,478.1 	"/>
	<rect x="540.4" y="478.1" width="5" height="36.4"/>
	<rect x="900.3" y="478.1" width="5" height="36.4"/>
	<polygon points="745.8,482.2 756,482.2 756,514.4 761,514.4 761,482.2 771.3,482.2 771.3,478.1 745.8,478.1 	"/>
	<polygon points="127,482.2 137.2,482.2 137.2,514.4 142.2,514.4 142.2,482.2 152.5,482.2 152.5,478.1 127,478.1 	"/>
	<polygon points="247.6,493.2 227.9,493.2 227.9,478.1 223,478.1 223,514.4 227.9,514.4 227.9,497.4 247.6,497.4 247.6,514.4 
		252.6,514.4 252.6,478.1 247.6,478.1 	"/>
	<path d="M204,510.9c-8.7,0-12.8-7.2-12.8-14.9c0-7.6,4.3-14.5,12.7-14.5c3.4,0,6,0.9,8,2.4l2.4-3.7c-2.7-1.7-5.7-2.8-10.3-2.8
		c-11.4,0-18,8.9-18,18.7c0,9.8,6.4,18.9,17.9,18.9c5.1,0,9.2-2,11.1-3.7l-2.2-3.5C210.7,509.6,207.9,510.9,204,510.9"/>
	<path d="M273.8,478.1h-9.7v36.4h5v-14.4h4c8.6,0,13.7-4,13.7-11.3C286.8,481.6,281.2,478.1,273.8,478.1 M273.2,496h-4.1v-13.9h4.3
		c6.1,0,8.4,2.7,8.4,6.8C281.8,493.6,279.2,496,273.2,496"/>
	<path d="M302.1,478.1l-13.9,36.4h4.9l3.1-8.6h16.2l3.2,8.6h5.4l-14-36.4H302.1z M297.7,501.8l4.4-11.7c1-2.8,1.6-4.6,2.1-6.3h0.1
		c0.5,1.5,1,3.2,2.2,6.3l4.3,11.7H297.7z"/>
	<path d="M342.4,499.2c4.8-1.6,7.5-5.1,7.5-10.4c0-7.2-5.6-10.7-13-10.7h-9.7v36.4h5V500c0,0,3,0,3.8,0c0.9,0,1.2,0.3,1.5,0.4
		c1,0.7,2.2,2.2,4.6,5.6l5.8,8.4h5.7l-7.9-11.2C344.1,501.1,343.1,499.9,342.4,499.2 M336.3,496h-4.1v-13.9h4.3
		c6.1,0,8.4,2.7,8.4,6.8C344.8,493.6,342.3,496,336.3,496"/>
	<path d="M419.2,493.3c-3.7-1.7-6.6-3.2-6.6-6.7c0-3.2,2.6-5.1,6.1-5.1c3.7,0,6.2,1.5,7.4,2.5l2.3-3.6c-1.3-1-4.3-2.9-9.8-2.9
		c-5.7,0-10.8,3.4-10.8,9.4c0,5.8,3.9,8.2,8.3,10.4c4.2,2.1,8.3,3.8,8.3,7.9c0,3.1-2.8,5.8-7.1,5.8c-4.8,0-7.4-2.3-8.2-3.1l-2.4,3.5
		c1.4,1.3,4.9,3.7,10.5,3.7c7.3,0,12.1-4.1,12.1-10C429.3,498.1,424,495.6,419.2,493.3"/>
	<path d="M446.4,475.2c1.7,0,3.2-1.4,3.2-3.1s-1.4-3.1-3.2-3.1c-1.7,0-3.1,1.4-3.1,3.1C443.3,473.8,444.7,475.2,446.4,475.2"/>
	<path d="M456.8,475.2c1.8,0,3.2-1.4,3.2-3.1s-1.4-3.1-3.2-3.1c-1.7,0-3.1,1.4-3.1,3.1C453.7,473.8,455.2,475.2,456.8,475.2"/>
	<path d="M461.3,500.9c0,6-3,10-9.3,10c-6.6,0-9.6-3.4-9.6-10.7v-22.1h-4.9v22.7c0,8.7,4.3,14.4,14.4,14.4c9.6,0,14-5.6,14-14.7
		v-22.3h-4.6V500.9z"/>
	<path d="M484.8,478.1h-9v36.4h8.7c14.5,0,20.9-8.1,20.9-18.6C505.5,485.3,499.1,478.1,484.8,478.1 M485,510.4h-4.2v-28.3h3.9
		c10.6,0,15.6,4.3,15.6,13.8S495,510.4,485,510.4"/>
	<path d="M572.1,499.2c4.8-1.6,7.5-5.1,7.5-10.4c0-7.2-5.6-10.7-13-10.7h-9.7v36.4h5V500c0,0,3,0,3.8,0c0.9,0,1.2,0.3,1.5,0.4
		c1,0.7,2.2,2.2,4.6,5.6l5.8,8.4h5.7l-7.9-11.2C573.8,501.1,572.8,499.9,572.1,499.2 M565.9,496h-4.1v-13.9h4.3
		c6.1,0,8.4,2.7,8.4,6.8C574.5,493.6,572,496,565.9,496"/>
	<polygon points="731.2,478.1 726.3,478.1 726.3,514.4 745.4,514.4 745.4,510.3 731.2,510.3 	"/>
	<path d="M699.7,478.1l-13.9,36.4h4.9l3.1-8.6H710l3.2,8.6h5.4l-14-36.4H699.7z M695.4,501.8l4.4-11.7c1-2.8,1.6-4.6,2.1-6.3h0.1
		c0.5,1.5,1,3.2,2.2,6.3l4.3,11.7H695.4z"/>
	<path d="M603.8,477.4c-11.4,0-18,8.9-18,18.9c0,9.9,6.7,18.8,18.1,18.8c11.4,0,18-8.9,18-18.9C621.9,486.2,615.2,477.4,603.8,477.4
		 M603.8,511c-8.4,0-12.8-6.9-12.8-14.8s4.5-14.7,12.9-14.7s12.7,6.9,12.7,14.8C616.6,504.2,612.2,511,603.8,511"/>
	<polygon points="662.8,514.4 667.3,514.4 680.4,478.1 676,478.1 	"/>
	<polygon points="635.8,478.1 630.9,478.1 630.9,514.4 650,514.4 650,510.3 635.8,510.3 	"/>
	<path d="M871.4,478.1h-9v36.4h8.7c14.5,0,20.9-8.1,20.9-18.6C892,485.3,885.7,478.1,871.4,478.1 M871.6,510.4h-4.2v-28.3h3.9
		c10.6,0,15.6,4.3,15.6,13.8C886.8,505.4,881.6,510.4,871.6,510.4"/>
	<path d="M791.3,477.4c-11.4,0-18,8.9-18,18.9c0,9.9,6.7,18.8,18.1,18.8c11.4,0,18-8.9,18-18.9C809.4,486.2,802.7,477.4,791.3,477.4
		 M791.3,511c-8.4,0-12.8-6.9-12.8-14.8s4.5-14.7,12.9-14.7s12.7,6.9,12.7,14.8C804.2,504.2,799.7,511,791.3,511"/>
	<path d="M836.4,478.1l-13.9,36.4h4.9l3.1-8.6h16.2l3.2,8.6h5.4l-14-36.4H836.4z M832.1,501.8l4.4-11.7c1-2.8,1.6-4.6,2.1-6.3h0.1
		c0.5,1.5,1,3.2,2.2,6.3l4.3,11.7H832.1z"/>
	<polygon points="960.4,510.3 960.4,497.3 972.9,497.3 972.9,493.2 960.4,493.2 960.4,482.2 974.7,482.2 974.7,478.1 955.5,478.1 
		955.5,514.4 975.1,514.4 975.1,510.3 	"/>
	<path d="M932.8,499.2h7.6v9.6c-1.7,1.3-4.7,2.1-8.5,2.1c-9.1,0-13.2-7.2-13.2-14.9c0-7.6,4.2-14.5,13.3-14.5c3.8,0,6.5,0.8,9.2,2.9
		l2.5-3.7c-2.9-2.2-6.6-3.4-11.5-3.4c-11.9,0-18.6,8.8-18.6,18.7c0,9.8,6.6,18.9,18.3,18.9c6.2,0,10.8-1.5,13.5-3.7V495h-12.5
		L932.8,499.2L932.8,499.2z"/>
</g>
<g id="Schutzzone" class="st0">
	<polygon class="st1" points="1038.8,260.7 1037.3,261.2 1037.1,260.5 1039,259.9 1039.7,259.9 1039.7,267.7 1038.8,267.7 	"/>
	<text transform="matrix(1 0 0 1 1040.856 267.7285)" class="st1 st2 st3"> </text>
	<text transform="matrix(1 0 0 1 1042.3267 267.7285)" class="st1 st2 st3">i</text>
	<g class="st4">
		<rect x="978.2" y="243.5" class="st5" width="125.7" height="39.6"/>
		<rect x="0.7" y="243.5" class="st5" width="125.7" height="39.6"/>
		<polygon class="st6" points="61.3,260.7 59.8,261.2 59.6,260.5 61.5,259.9 62.2,259.9 62.2,267.7 61.3,267.7 		"/>
		<text transform="matrix(1 0 0 1 63.3613 267.7285)" class="st6 st2 st3"> </text>
		<text transform="matrix(1 0 0 1 64.8335 267.7285)" class="st6 st2 st3">i</text>
		<rect x="610.1" y="0.4" class="st5" width="39.6" height="125.7"/>
		<polygon class="st6" points="627.4,65.5 627.9,67 627.1,67.2 626.5,65.3 626.5,64.6 634.4,64.6 634.4,65.5 		"/>
		<text transform="matrix(0 -1 1 0 634.394 63.425)" class="st6 st2 st3"> </text>
		<text transform="matrix(0 -1 1 0 634.394 61.9533)" class="st6 st2 st3">i</text>
		<rect x="610.1" y="514.1" class="st5" width="39.6" height="125.7"/>
		<polygon class="st6" points="627.4,579.2 627.9,580.7 627.1,580.9 626.5,579 626.5,578.3 634.4,578.3 634.4,579.2 		"/>
		<text transform="matrix(0 -1 1 0 634.394 577.1594)" class="st6 st2 st3"> </text>
		<text transform="matrix(0 -1 1 0 634.395 575.6926)" class="st6 st2 st3">i</text>
		<rect x="297.4" y="435.8" class="st5" width="57" height="41.9"/>
		<path class="st6" d="M318.6,454.2l-1.5,0.5l-0.2-0.7l1.9-0.6h0.7v7.8h-0.9V454.2z M324.3,452.7h0.8l-3.7,10.4h-0.8L324.3,452.7z
			 M325.9,461.3l0.1-0.8c0.1,0,0.5,0.1,1,0.1c1.4,0,2.2-0.6,2.2-1.7c0-1.2-1.1-1.6-2.5-1.6v-0.6c1.2,0,2.3-0.6,2.3-1.6
			c0-0.6-0.5-1-1.3-1s-1.2,0.2-1.6,0.6l-0.4-0.6c0.4-0.4,1.1-0.8,2.1-0.8c1.4,0,2.1,0.8,2.1,1.8s-0.8,1.6-1.7,1.9l0,0
			c1,0.1,2,0.9,2,2c0,1.6-1.3,2.5-3.1,2.5C326.4,461.4,326,461.3,325.9,461.3z"/>
		<text transform="matrix(1 0 0 1 330.8476 461.2119)" class="st6 st2 st3"> </text>
		<text transform="matrix(1 0 0 1 332.3198 461.2119)" class="st6 st2 st3">i</text>
	</g>
</g>
</svg>
