<?xml version="1.0" encoding="utf-8"?>
<!-- Generator: Adobe Illustrator 21.1.0, SVG Export Plug-In . SVG Version: 6.00 Build 0)  -->
<svg version="1.1" id="Layer_1" xmlns="http://www.w3.org/2000/svg" xmlns:xlink="http://www.w3.org/1999/xlink" x="0px" y="0px"
	 viewBox="0 0 308 42" style="enable-background:new 0 0 308 42;" xml:space="preserve">
<style type="text/css">
	.st0{fill:#E30613;}
</style>
<g>
	<path class="st0" d="M6.1,42h6.5l4.3-12.5H17L21.3,42h6.5L34,23h-5.6l-4,14l-4.8-14h-5.2L9.6,37l-4-14H0L6.1,42z M42.2,20.9h5.2V17
		h-5.2V20.9z M49.6,20.9h5.2V17h-5.2V20.9z M36,35l0.1,1.7l0.2,0.7l0.2,0.7l0.2,0.6l0.3,0.5l0.4,0.5l0.4,0.5l0.5,0.4l0.7,0.3
		l0.6,0.3l0.8,0.2l0.8,0.2l0.9,0.1l2,0.1h8.7l2-0.1l0.9-0.1l0.8-0.2l0.8-0.2l0.7-0.3l0.6-0.3l0.6-0.4l0.4-0.5l0.4-0.5l0.3-0.5
		l0.2-0.6l0.2-0.7l0.2-0.7L61,35V22.8h-6.1v11l-0.1,0.8l-0.1,0.7l-0.2,0.6l-0.3,0.4l-0.4,0.3L53.1,37l-0.7,0.1h-7.8L43.9,37
		l-0.7-0.3l-0.4-0.3l-0.3-0.4l-0.2-0.6l-0.2-0.7V22.8H36V35z M68.3,27.7h8.3l1,0.1l0.4,0.1l0.4,0.2l0.3,0.2l0.2,0.4l0.1,0.4v1.7
		l-0.1,0.4l-0.1,0.3l-0.2,0.3l-0.3,0.2l-0.4,0.1l-0.4,0.1L77,32.4h-8.7C68.3,32.4,68.3,27.7,68.3,27.7z M63,42h5.3v-4.9h8.8l0.5,0.1
		l0.4,0.2l0.3,0.2l0.2,0.4l0.2,0.4l0.1,0.6V42h5.3v-3.2l-0.1-1l-0.2-0.8l-0.2-0.7l-0.4-0.5l-0.5-0.4l-0.5-0.3l-0.6-0.2L81,34.6v-0.1
		l0.8-0.2l0.7-0.4l0.6-0.4l0.4-0.5l0.3-0.6l0.1-0.7l0.1-0.8l0.1-0.8v-1.3l-0.1-1.3l-0.2-1l-0.3-0.9L83.2,25l-0.3-0.4l-0.3-0.4
		l-0.4-0.3l-0.4-0.2l-0.5-0.2l-0.6-0.2l-0.6-0.1L78.8,23H63V42z M86,27.7h7.8V42h5.4V27.7h7.8V23H86V27.7z M112,42h5.1v-7.2h10.8V42
		h5.1V23h-5.1v6.8h-10.8V23H112V42z"/>
	<path d="M139,42h5.4v-4.8h11.4l0.7-0.1l0.5-0.2l0.6-0.2l0.4-0.3l0.5-0.3l0.3-0.4l0.4-0.4l0.5-0.9l0.3-0.9l0.2-1.1v-4.1l-0.2-1.1
		l-0.2-0.6l-0.2-0.5l-0.3-0.5l-0.4-0.4l-0.4-0.4L158,24l-0.6-0.3l-0.6-0.2l-0.7-0.2l-0.7-0.2l-0.9-0.1H139V42z M144.4,27.7h7.9
		l0.6,0.1l0.5,0.1l0.4,0.1l0.3,0.2l0.2,0.3l0.2,0.3l0.1,0.4v1.3l-0.1,0.7l-0.1,0.4l-0.2,0.2l-0.3,0.3l-0.3,0.2l-0.4,0.1h-8.8
		L144.4,27.7L144.4,27.7z M165,42h5v-7.2h10.8V42h5.1V23h-5.1v6.8H170V23h-5V42z M190,35.3v1l0.1,0.8l0.2,0.8l0.2,0.7l0.3,0.6
		l0.4,0.6l0.4,0.4l0.5,0.4l0.5,0.4l0.6,0.2l0.7,0.3l0.7,0.1l1.6,0.3h12.5l1.6-0.3l0.7-0.1l0.7-0.3l0.6-0.2l0.6-0.4l0.4-0.4l0.5-0.4
		l0.3-0.6l0.3-0.6l0.3-0.7l0.1-0.8l0.1-0.8l0.1-1v-5.5l-0.1-1l-0.1-0.8l-0.1-0.8l-0.3-0.7l-0.3-0.6l-0.3-0.5l-0.5-0.5l-0.4-0.4
		l-0.6-0.3l-0.6-0.3l-0.7-0.2l-0.7-0.2l-1.6-0.2L207,23h-9l-1.8,0.1l-1.6,0.2l-0.7,0.2l-0.7,0.2l-0.6,0.3l-0.5,0.3l-0.5,0.4
		l-0.4,0.5l-0.4,0.5l-0.3,0.6l-0.2,0.7l-0.2,0.8l-0.1,0.8L190,35.3L190,35.3z M195.7,31.5v-0.8l0.1-0.7l0.2-0.6l0.4-0.5l0.4-0.5
		l0.6-0.3l0.8-0.2h8.5l0.8,0.2l0.6,0.3l0.5,0.5l0.3,0.5l0.2,0.6l0.1,0.7v3.8l-0.1,0.8l-0.2,0.6l-0.3,0.5l-0.4,0.4l-0.5,0.2l-0.8,0.2
		H198l-0.7-0.2l-0.6-0.2l-0.4-0.4l-0.3-0.5l-0.2-0.6l-0.1-0.8L195.7,31.5L195.7,31.5z M217,42h19v-4.6h-13.8v-3H235v-4h-12.8v-3
		h13.6V23H217V42z M243,42h5.6V28.2L259.2,42h8.8V23h-5.6v13.8h-0.1L251.7,23H243V42z M272,42h6V23h-6V42z M281,42h7.5l6-6.9l6,6.9
		h7.5l-8.9-9.5l8.3-9.5h-7.2l-5.7,6.7l-5.7-6.7h-7.2l8.3,9.5L281,42z"/>
	<path class="st0" d="M285,7.4h-17V0h7.1v2.9h2.8V0h7.1V7.4z M277.9,16v3l0.8-0.2l0.7-0.2l0.7-0.3l0.6-0.4l0.6-0.4L282,17l0.5-0.5
		L283,16l0.5-0.6l0.4-0.6l0.3-0.6l0.3-0.7l0.2-0.7l0.2-0.7l0.1-0.7v-0.9h-17v0.2l0.1,0.7l0.1,0.7l0.1,0.7l0.3,0.7l0.2,0.7l0.4,0.6
		l0.4,0.6L270,16l0.5,0.5L271,17l0.6,0.4l0.6,0.4l0.7,0.4l0.7,0.3l0.7,0.2l0.7,0.2v-3L277.9,16L277.9,16z"/>
</g>
</svg>
