<?xml version="1.0" encoding="UTF-8" standalone="no"?>
<svg width="578px" height="192px" viewBox="0 0 578 192" version="1.1" xmlns="http://www.w3.org/2000/svg" xmlns:xlink="http://www.w3.org/1999/xlink" xmlns:sketch="http://www.bohemiancoding.com/sketch/ns">
    <!-- Generator: Sketch 3.3.3 (12072) - http://www.bohemiancoding.com/sketch -->
    <title>logo-vector copy</title>
    <desc>Created with Sketch.</desc>
    <defs></defs>
    <g id="Page-1" stroke="none" stroke-width="1" fill="none" fill-rule="evenodd" sketch:type="MSPage">
        <g id="logo-vector-copy" sketch:type="MSLayerGroup" fill="#1F5771">
            <g id="Group" sketch:type="MSShapeGroup">
                <path d="M215.819,90.186 C187.94,90.186 165.339,112.788 165.339,140.666 C165.339,168.547 187.941,191.146 215.819,191.146 C243.7,191.146 266.301,168.546 266.301,140.666 C266.302,112.787 243.7,90.186 215.819,90.186 L215.819,90.186 Z M215.819,171.162 C198.977,171.162 185.323,157.51 185.323,140.666 C185.323,123.824 198.977,110.17 215.819,110.17 C232.663,110.17 246.317,123.824 246.317,140.666 C246.317,157.51 232.663,171.162 215.819,171.162 L215.819,171.162 Z" id="Shape"></path>
                <g transform="translate(280.000000, 48.000000)" id="Shape">
                    <path d="M68.476,50.385 L33.966,87.563 C32.808,88.811 31.204,89.481 29.568,89.481 C28.832,89.481 28.089,89.346 27.377,89.067 C25.08,88.165 23.57,85.95 23.57,83.481 L23.57,12.391 L23.566,12.391 C23.566,12.373 23.57,12.356 23.57,12.338 C23.57,5.93 18.375,0.734 11.966,0.734 C5.556,0.734 0.361,5.929 0.361,12.338 C0.361,12.356 0.363,12.373 0.363,12.391 L0.361,12.391 L0.361,143.147 L23.57,143.147 L23.57,128.41 C23.57,126.896 24.142,125.437 25.172,124.328 L93.793,50.385 L68.476,50.385 L68.476,50.385 Z"></path>
                    <path d="M68.386,95.553 L52.938,112.264 L72.396,143.146 L99.81,143.146 L68.386,95.553 Z"></path>
                </g>
                <path d="M166.728,68.461 L166.728,68.385 L151.972,68.385 C148.658,68.385 145.972,65.697 145.972,62.385 L145.972,44.25 C145.972,37.895 140.82,32.744 134.466,32.744 C128.111,32.744 122.958,37.894 122.958,44.25 L122.958,62.385 C122.958,65.697 120.272,68.385 116.958,68.385 L102.409,68.385 L102.409,68.465 C102.388,68.465 102.368,68.461 102.348,68.461 C97.407,68.461 93.403,72.465 93.403,77.404 C93.403,82.345 97.407,86.349 102.348,86.349 C102.368,86.349 102.387,86.347 102.409,86.347 L102.409,86.408 L116.958,86.408 C120.272,86.408 122.958,89.096 122.958,92.408 L122.958,191.146 L145.972,191.146 L145.972,92.408 C145.972,89.096 148.658,86.408 151.972,86.408 L166.728,86.408 L166.728,86.349 C171.669,86.349 175.673,82.345 175.673,77.404 C175.673,72.465 171.669,68.461 166.728,68.461 L166.728,68.461 Z" id="Shape"></path>
                <path d="M101.063,140.666 C101.063,112.787 78.461,90.186 50.581,90.186 C22.702,90.186 0.101,112.788 0.101,140.666 C0.101,168.547 22.703,191.146 50.581,191.146 C61.132,191.146 70.925,187.906 79.026,182.369 L83.413,187.517 C86.911,191.763 93.186,192.371 97.434,188.874 C99.829,186.903 101.065,184.046 101.061,181.169 L101.063,140.666 L101.063,140.666 Z M20.085,140.666 C20.085,123.824 33.739,110.17 50.581,110.17 C67.425,110.17 81.079,123.824 81.079,140.666 C81.079,157.51 67.425,171.162 50.581,171.162 C33.739,171.162 20.085,157.51 20.085,140.666 L20.085,140.666 Z" id="Shape"></path>
                <path d="M570.175,124.533 C565.261,119.619 558.728,116.912 551.779,116.912 C544.83,116.912 538.295,119.619 533.381,124.533 C529.666,128.246 527.217,132.887 526.24,137.931 L491.488,137.931 C491.521,138.726 491.549,139.521 491.549,140.324 C491.549,142.906 491.361,145.441 491.026,147.931 L526.241,147.931 C527.218,152.976 529.667,157.617 533.382,161.331 C538.296,166.243 544.829,168.95 551.778,168.95 L551.78,168.95 C558.729,168.95 565.262,166.243 570.176,161.331 C575.092,156.415 577.799,149.882 577.799,142.931 C577.798,135.982 575.091,129.447 570.175,124.533 L570.175,124.533 Z M563.104,154.26 C560.077,157.285 556.055,158.951 551.778,158.951 C547.499,158.951 543.475,157.285 540.45,154.26 C537.425,151.235 535.759,147.213 535.759,142.932 C535.759,138.653 537.425,134.629 540.45,131.606 C543.475,128.581 547.499,126.913 551.778,126.913 C556.055,126.913 560.079,128.579 563.104,131.606 C566.129,134.631 567.797,138.655 567.797,142.932 C567.798,147.211 566.13,151.234 563.104,154.26 L563.104,154.26 Z" id="Shape"></path>
                <path d="M454.677,8.123 C449.763,3.209 443.228,0.502 436.279,0.502 C429.328,0.502 422.795,3.209 417.879,8.123 C407.736,18.268 407.736,34.775 417.881,44.922 C421.596,48.635 426.235,51.084 431.279,52.061 L431.279,83.891 C432.478,83.844 433.681,83.811 434.9,83.811 C437.058,83.811 439.183,83.895 441.279,84.043 L441.279,52.061 C446.324,51.084 450.963,48.635 454.677,44.92 C464.821,34.773 464.821,18.268 454.677,8.123 L454.677,8.123 Z M447.606,37.85 C444.581,40.875 440.557,42.541 436.278,42.541 C431.999,42.541 427.975,40.875 424.95,37.85 C418.706,31.604 418.706,21.44 424.95,15.194 C427.975,12.169 431.999,10.503 436.278,10.503 C440.557,10.503 444.579,12.169 447.606,15.194 C453.851,21.439 453.851,31.604 447.606,37.85 L447.606,37.85 Z" id="Shape"></path>
                <path d="M484.562,181.17 L484.562,140.666 C484.562,112.787 461.96,90.186 434.082,90.186 C406.201,90.186 383.6,112.788 383.6,140.666 C383.6,168.547 406.202,191.146 434.082,191.146 C444.633,191.146 454.426,187.904 462.525,182.369 L466.914,187.517 C470.412,191.763 476.687,192.371 480.935,188.874 C483.329,186.904 484.565,184.047 484.562,181.17 L484.562,181.17 Z M403.583,140.666 C403.583,123.824 417.237,110.17 434.081,110.17 C450.923,110.17 464.577,123.824 464.577,140.666 C464.577,157.51 450.923,171.162 434.081,171.162 C417.237,171.162 403.583,157.51 403.583,140.666 L403.583,140.666 Z" id="Shape"></path>
                <path d="M536.829,42.377 C531.915,37.463 525.382,34.756 518.433,34.756 C511.484,34.756 504.951,37.463 500.037,42.377 C495.121,47.291 492.414,53.826 492.414,60.775 C492.414,66.027 493.963,71.041 496.84,75.298 L473.377,98.761 C475.828,101.031 478.08,103.511 480.098,106.179 L503.909,82.368 C508.167,85.245 513.182,86.794 518.434,86.794 C525.383,86.794 531.918,84.089 536.832,79.173 C546.974,69.027 546.972,52.52 536.829,42.377 L536.829,42.377 Z M529.761,72.104 C526.736,75.129 522.712,76.795 518.433,76.795 C514.156,76.795 510.132,75.129 507.107,72.104 C504.082,69.079 502.414,65.055 502.414,60.776 C502.414,56.497 504.08,52.475 507.107,49.448 C510.132,46.423 514.154,44.757 518.433,44.757 C522.71,44.757 526.734,46.423 529.759,49.448 C536.003,55.693 536.003,65.857 529.761,72.104 L529.761,72.104 Z" id="Shape"></path>
            </g>
        </g>
    </g>
</svg>