<?xml version="1.0" encoding="utf-8"?>
<!-- Generator: Adobe Illustrator 24.2.3, SVG Export Plug-In . SVG Version: 6.00 Build 0)  -->
<svg version="1.1" id="Livello_1" xmlns="http://www.w3.org/2000/svg" xmlns:xlink="http://www.w3.org/1999/xlink" x="0px" y="0px"
	 width="877.9px" height="271.8px" viewBox="0 0 877.9 271.8" style="enable-background:new 0 0 877.9 271.8;" xml:space="preserve"
	>
<style type="text/css">
	.st0{fill:#EBF0F5;}
	.st1{fill:#004388;}
</style>
<g>
	<g>
		<g>
			<path class="st0" d="M190.9,14.8v224.1h-55.1v-21.1c-5.5,7.7-10.9,13.4-18.9,17.4c-8,3.9-17,5.9-27.1,5.9
				c-14.8,0-27.8-3.5-39.1-10.6c-11.2-7-20-17-26.2-29.7c-6.2-12.8-9.3-27.5-9.3-44.2c0-16.5,3.1-31,9.2-43.5s14.7-22.1,25.8-29
				c11.1-6.8,23.9-10.3,38.5-10.3c10.3,0,19.5,2,27.7,6s13.7,9.8,19.5,17.2V14.8H190.9z M127.7,187.3c6.3-7.5,8.1-17.4,8.1-29.4
				c0-12.3-1.7-22.1-8.1-29.6c-6.3-7.4-14.6-11.2-24.9-11.2s-18.6,3.8-25,11.3s-9.6,17.4-9.6,29.4c0,12.1,3.2,21.9,9.6,29.4
				c6.4,7.6,14.8,11.3,25,11.3C113.1,198.7,121.4,194.9,127.7,187.3z"/>
			<path class="st0" d="M359.5,97.2c14,15.7,21,37.2,21,64.6c0,4.2-0.1,7.5-0.3,9.7H268.9c2.6,9.3,7,16.4,13.3,21.3s14,7.4,23.1,7.4
				c6.9,0,13.6-1.4,20-4.2s12.3-6.9,17.6-12.4l27.5,28.1c-8.3,9.5-18.3,16.7-30,21.6s-25,7.4-39.8,7.4c-17.2,0-32.2-3.4-45-10.3
				c-12.8-6.8-22.6-16.5-29.5-29c-6.8-12.5-10.2-27-10.2-43.5c0-16.7,3.4-31.5,10.4-44.2c6.9-12.8,16.7-22.6,29.3-29.6
				c12.6-6.9,27.2-10.4,43.8-10.4C325.5,73.7,345.5,81.5,359.5,97.2z M329.3,142.8c0-9.5-2.7-17.1-8.1-22.8s-12.6-8.6-21.5-8.6
				c-8.3,0-15.2,2.8-20.9,8.5c-5.6,5.6-9.3,13.3-11.1,23h61.6V142.8z"/>
			<path class="st0" d="M581.6,14.8v224.1h-53.2v-21.1c-5.6,7.7-12.4,13.4-20.5,17.4c-8.1,3.9-17.2,5.9-27.4,5.9
				c-14.9,0-28.1-3.5-39.5-10.6c-11.4-7-20.2-17-26.5-29.7c-6.3-12.8-9.4-27.5-9.4-44.2c0-16.5,3.1-31,9.3-43.5s14.8-22.1,26-29
				c11.2-6.8,24.1-10.3,38.9-10.3c10.4,0,19.7,2,28,6c8.3,4,15.3,9.8,21.1,17.2V14.8H581.6z M518.8,187.3c6.4-7.5,9.6-17.4,9.6-29.4
				c0-12.3-3.2-22.1-9.6-29.6c-6.4-7.4-14.8-11.2-25.1-11.2c-10.4,0-18.8,3.8-25.3,11.3s-9.7,17.4-9.7,29.4
				c0,12.1,3.2,21.9,9.7,29.4c6.5,7.6,14.9,11.3,25.3,11.3C504.1,198.7,512.4,194.9,518.8,187.3z"/>
			<path class="st0" d="M743.4,88.9c12.2,10.4,18.5,24.9,18.7,43.6v106.3h-51.8v-18.4c-10.7,13.9-26.8,20.8-48.3,20.8
				c-17,0-30.3-4.7-40.1-14c-9.8-9.4-14.7-21.7-14.7-37c0-15.5,5.3-27.6,15.8-36.2c10.6-8.7,25.7-13.1,45.4-13.3h41.7v-1.8
				c0-7.9-2.6-13.9-7.8-18.1s-12.8-6.3-22.6-6.3c-6.7,0-14.3,1.1-22.6,3.3c-8.4,2.2-16.8,5.4-25.3,9.7l-14.5-36.3
				c13-6,25.5-10.5,37.5-13.4c11.9-2.9,24.3-4.4,37.2-4.4C714,73.4,731.2,78.5,743.4,88.9z M699,198.8c5.9-3.9,9.7-9,11.2-15.3
				v-14.2h-31.4c-14.8,0-22.2,5.6-22.2,16.9c0,5.6,1.9,10.1,5.8,13.4c3.8,3.3,9.1,5,15.8,5C686.2,204.7,693.1,202.7,699,198.8z"/>
		</g>
		<path class="st0" d="M826,183.2c-20.7,0-37.5,16.8-37.5,37.5s16.8,37.5,37.5,37.5s37.5-16.8,37.5-37.5S846.6,183.2,826,183.2z
			 M826,239.1c-10.2,0-18.4-8.2-18.4-18.4s8.2-18.4,18.4-18.4s18.4,8.2,18.4,18.4C844.3,230.8,836.1,239.1,826,239.1z"/>
	</g>
	<g>
		<g>
			<path class="st1" d="M451.3,150.2h-13.8V137h14.7v0.1c3.3,0.4,5.8,3.2,5.8,6.5C457.9,147.3,455,150.2,451.3,150.2 M458.2,158.4
				c5.7-2.7,9.4-8.5,9.4-14.8c0-9-7.2-16.3-16.2-16.3h-0.2h-18c-3,0.1-5.5,2.7-5.5,5.7v49.8h9.8v-22.9h9.9l9.3,22.9h10.5l-9.8-24.1
				L458.2,158.4z"/>
			<path class="st1" d="M620.5,150.2h-13.8V137h14.6v0.1c3.3,0.4,5.8,3.2,5.8,6.5C627.1,147.3,624.1,150.2,620.5,150.2 M620.7,127.3
				h-0.2h-18c-3,0.1-5.5,2.7-5.5,5.7v49.8h9.8v-22.9h14c3.1,0,6-0.9,8.5-2.5l0.8-0.6c4.3-3.1,6.8-8,6.8-13.2
				C636.8,134.6,629.6,127.3,620.7,127.3"/>
			<path class="st1" d="M513.5,167.9c-3.5,3.5-7.8,5.2-13,5.2c-5.1,0-9.5-1.7-12.9-5.1c-3.4-3.4-5.1-7.7-5.1-12.8
				c0-5.3,1.7-9.6,5.1-13s7.8-5.1,13.1-5.1c5,0,9.4,1.7,12.8,5.2c3.4,3.4,5.2,7.7,5.2,12.7C518.7,160.1,516.9,164.5,513.5,167.9
				 M500.3,127.3c-8,0-14.7,2.7-19.9,7.9c-5.2,5.3-7.9,12-7.9,20.1c0,7.8,2.6,14.5,7.8,19.7c5.2,5.2,11.8,7.8,19.6,7.8
				c8.1,0,15-2.6,20.4-7.8c5.4-5.2,8.1-11.9,8.1-19.8c0-7.9-2.7-14.6-8-19.9C515,130,508.3,127.3,500.3,127.3"/>
			<path class="st1" d="M411.1,173.1h-17.8c-10,0-18.2-8.1-18.2-18s8.1-18,18.2-18h4.4v-9.7h-4.4c-15.4,0-27.9,12.4-27.9,27.7
				s12.5,27.7,27.9,27.7h22.3c2.9-0.2,5.2-2.5,5.4-5.4v-27.2h-21.4v9.7h11.6v13.2H411.1z"/>
			<path class="st1" d="M544.2,155v-27.6H540c-3,0.1-5.4,2.5-5.6,5.5V155c0,15.4,12.5,27.9,27.8,27.9S590,170.4,590,155v-27.6h-9.7
				V155c0,10-8.1,18.1-18.1,18.1C552.3,173.1,544.2,165,544.2,155"/>
			<path class="st1" d="M172.5,173.1h-17.8V137h17.8c10,0,18.2,8.1,18.2,18C190.7,165,182.5,173.1,172.5,173.1 M172.5,127.3h-22.2
				c-2.9,0.2-5.3,2.6-5.4,5.6v49.9h27.6c15.4,0,27.9-12.4,27.9-27.7C200.4,139.8,187.9,127.3,172.5,127.3"/>
			<path class="st1" d="M280.9,173.1h-17.8V137h17.8c10,0,18.2,8.1,18.2,18C299,165,290.9,173.1,280.9,173.1 M280.9,127.3h-22.2
				c-2.9,0.2-5.3,2.6-5.4,5.6v49.9h27.6c15.4,0,27.9-12.4,27.9-27.7S296.3,127.3,280.9,127.3"/>
			<path class="st1" d="M206.4,182.8h39.9v-9.7h-30.1v-13.2h30.1v-9.7h-30.1V137h30.1v-9.7h-34.4c-3.1,0.1-5.6,2.7-5.6,5.7v49.8
				H206.4z"/>
			<path class="st1" d="M325.8,161.7l11.2-27.6l11.2,27.6H325.8z M335.4,127.3c-3.3,0-7.2,2.8-8.6,6.1l-1.1,2.7l-19.1,46.7h10.5
				l4.7-11.5h30.3l4.7,11.5h10.5l-22.6-55.5H335.4z"/>
			<path class="st1" d="M582.8,102.2c-0.3,0-0.6,0-0.9,0.1l-29.7,2c11-5.4,23.4-11.4,26.7-13c0.3-0.1,0.6-0.3,0.9-0.4
				c3.6-2.1,4.9-6.7,2.8-10.3c-2.1-3.6-6.8-4.8-10.4-2.7c-0.3,0.2-0.5,0.3-0.8,0.5l-24.6,16.5c6.8-10.1,14.5-21.4,16.6-24.4
				c0.2-0.2,0.4-0.5,0.5-0.8c2.1-3.6,0.9-8.2-2.8-10.3c-3.6-2.1-8.3-0.8-10.4,2.8c-0.2,0.3-0.3,0.6-0.4,0.8l-13.1,26.6
				c0.8-12.1,1.8-25.8,2-29.5c0-0.3,0.1-0.6,0.1-0.9c0-4.2-3.4-7.5-7.6-7.5s-7.6,3.4-7.6,7.5c0,0.3,0,0.6,0.1,0.9l2,29.5
				c-5.4-10.9-11.5-23.3-13.1-26.5c-0.1-0.3-0.3-0.6-0.4-0.8c-2.1-3.6-6.7-4.8-10.4-2.8c-3.6,2.1-4.9,6.7-2.8,10.3
				c0.2,0.3,0.3,0.5,0.5,0.8l16.6,24.6c-10.2-6.8-21.7-14.5-24.8-16.5c-0.2-0.2-0.5-0.4-0.8-0.5c-3.6-2.1-8.3-0.8-10.4,2.8
				c-2.1,3.6-0.8,8.2,2.8,10.3c0.3,0.2,0.6,0.3,0.8,0.4l26.7,13c-12.2-0.8-25.9-1.8-29.6-2c-0.3,0-0.6-0.1-0.9-0.1
				c-4.2,0-7.6,3.4-7.6,7.5c0,4.2,3.4,7.5,7.6,7.5c0.3,0,0.6,0,0.9-0.1l50.3-3.3l0,0c0-0.1,43.3,2.8,50.3,3.2c0.3,0,0.6,0.1,0.9,0.1
				c4.2,0,7.6-3.4,7.6-7.6C590.4,105.6,587,102.2,582.8,102.2"/>
		</g>
	</g>
</g>
</svg>
