<?xml version="1.0" encoding="utf-8"?>
<!-- Generator: Adobe Illustrator 22.1.0, SVG Export Plug-In . SVG Version: 6.00 Build 0)  -->
<svg version="1.1" id="Layer_1" xmlns="http://www.w3.org/2000/svg" xmlns:xlink="http://www.w3.org/1999/xlink" x="0px" y="0px"
	 viewBox="0 0 1223 300" style="enable-background:new 0 0 1223 300;" xml:space="preserve">
<style type="text/css">
	.st0{clip-path:url(#SVGID_2_);}
	.st1{clip-path:url(#SVGID_4_);}
	.st2{clip-path:url(#SVGID_6_);}
	.st3{clip-path:url(#SVGID_8_);fill:none;stroke:#000000;stroke-width:28;stroke-miterlimit:10;}
	.st4{clip-path:url(#SVGID_10_);}
	.st5{clip-path:url(#SVGID_12_);fill:none;stroke:#000000;stroke-width:28;stroke-miterlimit:10;}
	.st6{clip-path:url(#SVGID_14_);}
	.st7{clip-path:url(#SVGID_16_);fill:none;stroke:#000000;stroke-width:28;stroke-miterlimit:10;}
	.st8{clip-path:url(#SVGID_18_);}
	.st9{clip-path:url(#SVGID_20_);fill:none;stroke:#000000;stroke-width:28;stroke-miterlimit:10;}
	.st10{clip-path:url(#SVGID_22_);}
	.st11{clip-path:url(#SVGID_24_);}
	.st12{clip-path:url(#SVGID_26_);}
	.st13{clip-path:url(#SVGID_28_);}
	.st14{clip-path:url(#SVGID_30_);}
	.st15{clip-path:url(#SVGID_32_);}
	.st16{clip-path:url(#SVGID_34_);}
	.st17{clip-path:url(#SVGID_36_);}
</style>
<g>
	<defs>
		<path id="SVGID_1_" d="M238,75.7h14.6v145.8H238V75.7z M278.4,221.5l20.7-145.8h2.4l59.3,119.6l58.7-119.6h2.4l20.9,145.8h-14.4
			l-14.3-104.3l-51.5,104.3h-3.7l-52.2-105.1l-14.2,105.1H278.4 M569.8,221.5V75.7h3.2l96.9,111.6V75.7h14.4v145.8H681l-96.1-110.2
			v110.2H569.8z M816,75.7h14.6v145.8H816V75.7z M932.6,72c22.1,0,40.5,7.4,55.4,22.1c14.9,14.7,22.3,32.9,22.3,54.4
			c0,21.3-7.4,39.5-22.3,54.3c-14.8,14.9-32.9,22.3-54.3,22.3c-21.6,0-39.8-7.4-54.7-22.2c-14.9-14.8-22.3-32.7-22.3-53.7
			c0-14,3.4-27,10.2-39c6.8-12,16-21.3,27.7-28.1C906.3,75.4,919,72,932.6,72z M933.3,86.3c-10.8,0-21,2.8-30.6,8.4
			c-9.6,5.6-17.2,13.2-22.6,22.7c-5.4,9.5-8.1,20.1-8.1,31.8c0,17.3,6,31.9,18,43.9c12,11.9,26.4,17.9,43.4,17.9
			c11.3,0,21.8-2.7,31.4-8.2s17.1-13,22.5-22.5c5.4-9.5,8.1-20.1,8.1-31.7c0-11.6-2.7-22-8.1-31.4c-5.4-9.4-13-16.8-22.7-22.5
			C954.6,89.1,944.3,86.3,933.3,86.3z M1037.8,221.5V75.7h3.2l96.9,111.6V75.7h14.4v145.8h-3.3l-96.1-110.2v110.2H1037.8z"/>
	</defs>
	<clipPath id="SVGID_2_">
		<use xlink:href="#SVGID_1_"  style="overflow:visible;"/>
	</clipPath>
	<g class="st0">
		<defs>
			<rect id="SVGID_3_" width="1223" height="300"/>
		</defs>
		<clipPath id="SVGID_4_">
			<use xlink:href="#SVGID_3_"  style="overflow:visible;"/>
		</clipPath>
		<rect x="233" y="67" class="st1" width="924.2" height="163.1"/>
	</g>
</g>
<g>
	<defs>
		<path id="SVGID_5_" d="M536.5,86l2.5-10h-9.5c-40,0-72.5,32.5-72.5,72.5s32.5,72.5,72.5,72.5H541"/>
	</defs>
	<clipPath id="SVGID_6_">
		<use xlink:href="#SVGID_5_"  style="overflow:visible;"/>
	</clipPath>
	<g class="st2">
		<defs>
			<rect id="SVGID_7_" width="1223" height="300"/>
		</defs>
		<clipPath id="SVGID_8_">
			<use xlink:href="#SVGID_7_"  style="overflow:visible;"/>
		</clipPath>
		<path class="st3" d="M536.5,86l2.5-10h-9.5c-40,0-72.5,32.5-72.5,72.5s32.5,72.5,72.5,72.5H541"/>
	</g>
</g>
<g>
	<defs>
		<polyline id="SVGID_9_" points="529.5,76 544,76 544,90 529.5,90 		"/>
	</defs>
	<clipPath id="SVGID_10_">
		<use xlink:href="#SVGID_9_"  style="overflow:visible;"/>
	</clipPath>
	<g class="st4">
		<defs>
			<rect id="SVGID_11_" width="1223" height="300"/>
		</defs>
		<clipPath id="SVGID_12_">
			<use xlink:href="#SVGID_11_"  style="overflow:visible;"/>
		</clipPath>
		<polyline class="st5" points="529.5,76 544,76 544,90 529.5,90 		"/>
	</g>
</g>
<g>
	<defs>
		<polyline id="SVGID_13_" points="469.5,139 544,139 544,153 469.5,153 		"/>
	</defs>
	<clipPath id="SVGID_14_">
		<use xlink:href="#SVGID_13_"  style="overflow:visible;"/>
	</clipPath>
	<g class="st6">
		<defs>
			<rect id="SVGID_15_" width="1223" height="300"/>
		</defs>
		<clipPath id="SVGID_16_">
			<use xlink:href="#SVGID_15_"  style="overflow:visible;"/>
		</clipPath>
		<polyline class="st7" points="469.5,139 544,139 544,153 469.5,153 		"/>
	</g>
</g>
<g>
	<defs>
		<polyline id="SVGID_17_" points="529.5,207 544,207 544,221 529.5,221 		"/>
	</defs>
	<clipPath id="SVGID_18_">
		<use xlink:href="#SVGID_17_"  style="overflow:visible;"/>
	</clipPath>
	<g class="st8">
		<defs>
			<rect id="SVGID_19_" width="1223" height="300"/>
		</defs>
		<clipPath id="SVGID_20_">
			<use xlink:href="#SVGID_19_"  style="overflow:visible;"/>
		</clipPath>
		<polyline class="st9" points="529.5,207 544,207 544,221 529.5,221 		"/>
	</g>
</g>
<g>
	<defs>
		<path id="SVGID_21_" d="M102,64.5l5,8V85l-7,7.5c0,0-39,18.5-39,59.8c0,36.7,33.9,54.7,39,56.2c3.5,3.5,7,7,7,7v13c-4,5.8-5,7-5,7
			s87.9-28.4,89.4-83.2C191.4,94.7,102,64.5,102,64.5z M64.5,38.5c10.9,2.5,49.7,12.2,83,31.5c31.9,18.4,58.8,45.7,58.8,79.8
			c0.2,69.7-110.5,110.9-155.8,114.7c36.4-29.1,43-43,43-43S48,201.5,48,150c0-48.5,43-71.6,43-71.6s-3.9-15-41.8-42.4
			C49.2,36,62.6,38.1,64.5,38.5z"/>
	</defs>
	<clipPath id="SVGID_22_">
		<use xlink:href="#SVGID_21_"  style="overflow:visible;"/>
	</clipPath>
	<g class="st10">
		<defs>
			<rect id="SVGID_23_" width="1223" height="300"/>
		</defs>
		<clipPath id="SVGID_24_">
			<use xlink:href="#SVGID_23_"  style="overflow:visible;"/>
		</clipPath>
		<rect x="43" y="31" class="st11" width="168.3" height="238.5"/>
	</g>
</g>
<g>
	<defs>
		<polygon id="SVGID_25_" points="791,76 739,76 741.2,90 791,90 		"/>
	</defs>
	<clipPath id="SVGID_26_">
		<use xlink:href="#SVGID_25_"  style="overflow:visible;"/>
	</clipPath>
	<g class="st12">
		<defs>
			<rect id="SVGID_27_" width="1223" height="300"/>
		</defs>
		<clipPath id="SVGID_28_">
			<use xlink:href="#SVGID_27_"  style="overflow:visible;"/>
		</clipPath>
		<rect x="734" y="71" class="st13" width="62" height="24"/>
	</g>
</g>
<g>
	<defs>
		<path id="SVGID_29_" d="M761,207c4.6-0.9,8.6-2.7,12.3-5.6c3.6-2.9,6.1-6.4,7.6-10.4c1.4-4,1.7-8,0.9-12.1
			c-0.9-4.6-3.3-8.8-7.3-12.6c-5.5-5.3-14.7-11.1-27.8-17.4c-13.1-6.4-21.4-11.3-25-14.6c-6.1-5.5-9.9-12-11.4-19.6
			c-1.2-6-0.8-11.7,1.1-17.2c1.9-5.5,5.2-10.1,9.8-14s11.6-6.3,17.7-7.5c10.9,13.7,5.1,13.4,0.8,14.2c-5.5,1.1-9.7,3.6-12.6,7.7
			c-2.9,4-3.8,8.5-2.9,13.4c0.6,3,1.8,5.8,3.6,8.3c1.8,2.6,4.6,5.2,8.6,7.8c2.1,1.4,8.9,4.8,20.4,10.3c13.6,6.5,23.2,12.7,29,18.7
			c5.7,6,9.3,12.4,10.6,19.3c1.9,9.9-0.2,19.3-6.3,28.1s-14.6,14.3-25.4,16.4c-8.3,1.6-16.3,0.9-24-2.3"/>
	</defs>
	<clipPath id="SVGID_30_">
		<use xlink:href="#SVGID_29_"  style="overflow:visible;"/>
	</clipPath>
	<g class="st14">
		<defs>
			<rect id="SVGID_31_" width="1223" height="300"/>
		</defs>
		<clipPath id="SVGID_32_">
			<use xlink:href="#SVGID_31_"  style="overflow:visible;"/>
		</clipPath>
		<rect x="704.7" y="71" class="st15" width="97.5" height="155"/>
	</g>
</g>
<g>
	<defs>
		<polygon id="SVGID_33_" points="708,207 761,207 756.9,221 708,221 		"/>
	</defs>
	<clipPath id="SVGID_34_">
		<use xlink:href="#SVGID_33_"  style="overflow:visible;"/>
	</clipPath>
	<g class="st16">
		<defs>
			<rect id="SVGID_35_" width="1223" height="300"/>
		</defs>
		<clipPath id="SVGID_36_">
			<use xlink:href="#SVGID_35_"  style="overflow:visible;"/>
		</clipPath>
		<rect x="703" y="202" class="st17" width="63" height="24"/>
	</g>
</g>
</svg>
