<svg width="360" height="167" viewBox="0 0 360 167" xmlns="http://www.w3.org/2000/svg" xmlns:xlink="http://www.w3.org/1999/xlink"><defs><path id="a" d="M0 0.442L166.676 0.442 166.676 166.94 0 166.94z"/></defs><g fill="none" fill-rule="evenodd"><path fill="#174489" d="M87.922 60.624L92.624 60.624 92.624 55.922 87.922 55.922z"/><path fill="#174489" d="M87.922 102.234L92.624 102.234 92.624 65.208 87.922 65.208z"/><path d="M101.792 55.922h4.702v9.286h18.454v4.584h-18.454v23.156c0 2.586 1.998 4.702 4.584 4.702h13.87v4.584h-13.87c-4.819 0-9.286-3.879-9.286-9.286V69.792h-6.935v-4.584h6.935v-9.286" fill="#174489"/><mask id="b" fill="#fff"><use xlink:href="#a"/></mask><path d="M47.135 83.78h36.203c0-4.114-.235-7.17-.705-9.168-.471-1.999-1.293-3.762-2.469-5.29-1.528-1.763-3.409-3.056-5.877-3.644-2.351-.588-6.347-.94-11.754-.94-5.525 0-9.404.352-11.872.94-2.469.588-4.349 1.881-5.76 3.644a11.004 11.004 0 0 0-2.468 5.29c-.47 1.998-.705 5.054-.823 9.168.118 3.996.353 7.052.823 9.051a11.005 11.005 0 0 0 2.468 5.289c1.411 1.763 3.291 3.056 5.76 3.644 2.468.705 6.347.94 11.872.94 5.407 0 9.403-.235 11.754-.94 2.468-.588 4.349-1.881 5.877-3.644.94-1.175 1.646-2.586 2.116-3.996h-5.525c-.352.47-.705.94-1.175 1.41-1.058.823-2.586 1.528-4.467 1.881-1.998.352-4.819.47-8.463.47-3.761 0-6.582-.118-8.463-.47-1.998-.353-3.408-1.058-4.466-1.881-1.411-1.175-2.234-3.174-2.469-5.877-.117-1.881-.117-3.997-.117-5.877zm30.913-4.702H47.135c.117-3.409.94-5.759 2.586-7.052 1.058-.941 2.468-1.529 4.466-1.881 1.881-.47 4.702-.588 8.463-.588 3.644 0 6.465.118 8.463.588 1.881.352 3.409.94 4.467 1.881 1.646 1.293 2.468 3.643 2.468 7.052z" fill="#174489" mask="url(#b)"/><path d="M83.338 167c45.959 0 83.338-37.261 83.338-83.22 0-46.077-37.379-83.338-83.338-83.338-15.163 0-29.386 3.996-41.61 11.167l4.584 7.993c10.931-6.348 23.508-9.874 37.026-9.874 40.905 0 74.052 33.147 74.052 74.052 0 40.787-33.147 74.052-74.052 74.052-40.905 0-74.052-33.265-74.052-74.052H0C0 129.739 37.379 167 83.338 167" fill="#174489" mask="url(#b)"/><path d="M83.338 148.546c23.979 0 44.901-13.047 56.068-32.442l-7.993-4.584c-9.639 16.573-27.505 27.74-48.075 27.74-30.679 0-55.48-24.919-55.48-55.48 0-30.679 24.801-55.598 55.48-55.598 20.57 0 38.436 11.167 48.075 27.74l7.993-4.584c-11.167-19.395-32.089-32.442-56.068-32.442-35.733 0-64.766 29.033-64.766 64.884 0 35.733 29.033 64.766 64.766 64.766" fill="#66B044"/><path d="M214.93 97.905c6.989 0 7.206 0 9.21-.499 3.901-.941 5.472-4.928 5.472-13.9 0-5.705-.759-9.637-2.167-11.464-1.192-1.441-2.871-2.105-6.176-2.326-.975-.111-2.546-.111-6.61-.111h-19.99v28.3h20.261zm-25.083-32.62h24.921c11.16 0 13.923.609 16.632 3.545 2.383 2.603 3.142 6.202 3.142 14.898 0 8.196-1.138 12.848-3.846 15.451-2.601 2.492-5.364 3.046-15.549 3.046h-25.3v-36.94zm48.967 36.94h3.955V76.584h-3.955v25.641zm0-32.121h3.955v-4.819h-3.955v4.819zm14.95 11.076c-1.842 1.052-2.763 3.599-2.763 7.642 0 4.486 1.084 6.922 3.467 8.03 1.355.609 4.172.887 8.722.887 5.581 0 8.181-.388 9.698-1.441 1.842-1.329 2.547-3.544 2.547-7.918 0-7.089-2.059-8.584-11.703-8.584-5.472 0-8.343.387-9.968 1.384zm25.68-4.596v19.217c0 7.864-.542 10.688-2.439 12.847-2.275 2.548-5.147 3.157-14.519 3.157-8.397 0-11.864-.942-13.869-3.711-.92-1.272-1.191-2.214-1.191-4.595h4.117c.325 3.765 2.438 4.762 10.51 4.762 7.585 0 10.456-.554 11.81-2.326 1.138-1.44 1.355-2.714 1.572-7.975h-.271c-2.168 2.769-4.172 3.323-12.245 3.323-7.042 0-10.346-.609-12.351-2.16-2.6-2.05-3.792-5.261-3.792-10.411 0-5.982 1.733-9.525 5.417-11.187 2.167-.941 5.093-1.274 11.539-1.274 5.581 0 7.422.276 9.156 1.274 1.138.664 1.68 1.273 2.384 2.326h.217l-.054-3.267h4.009zm4.49 25.641h3.955V76.584h-3.955v25.641zm0-32.121h3.955v-4.819h-3.955v4.819zm16.306.11v6.37h17.552v3.488H300.24v11.077c.108 4.873.108 5.04.921 6.091 1.029 1.274 2.816 1.773 6.609 1.773 3.522 0 4.875-.388 5.742-1.773.597-.942.758-1.883.758-5.04v-1.605h3.956V92.2c0 3.989-.326 5.65-1.355 7.2-1.462 2.271-4.172 3.157-9.48 3.157-5.364 0-8.235-.831-9.697-2.881-1.084-1.55-1.41-3.156-1.41-7.198V80.072h-6.176v-3.488h6.176v-6.37h3.956m25.673 21.211c-.974.665-1.462 1.773-1.462 3.435 0 1.883.541 2.879 1.951 3.487 1.137.5 3.846.666 10.023.666 8.397 0 10.401-.832 10.401-4.265 0-3.323-2.383-4.21-11.214-4.21-6.664 0-8.56.167-9.699.887zm-4.604-7.143v-1.108c0-5.373 3.197-6.923 14.085-6.923 8.507 0 11.432.609 13.545 2.879 1.734 1.773 2.113 3.49 2.113 9.582v13.513h-3.955l.053-2.991h-.161c-1.896 2.769-3.738 3.323-11.377 3.323-8.994 0-11.377-.332-13.219-1.773-1.626-1.329-2.168-2.879-2.168-5.981 0-4.041.976-6.036 3.576-7.032 1.517-.611 3.901-.832 9.21-.832 10.293 0 12.027.333 13.761 2.77h.325v-2.77c0-2.657-.271-3.765-1.191-4.873-1.41-1.773-3.685-2.27-10.241-2.27-8.613 0-10.131.608-10.184 4.153v.333h-4.172z" fill="#174489"/><path fill="#174489" d="M355.381 102.225L359.336 102.225 359.336 65.285 355.381 65.285z"/></g></svg>
