<?xml version="1.0" encoding="utf-8"?>
<!-- Generator: Adobe Illustrator 22.1.0, SVG Export Plug-In . SVG Version: 6.00 Build 0)  -->
<svg version="1.1" id="Ebene_1" xmlns="http://www.w3.org/2000/svg" xmlns:xlink="http://www.w3.org/1999/xlink" x="0px" y="0px"
	 viewBox="0 0 1563.6 595.3" style="enable-background:new 0 0 1563.6 595.3;" xml:space="preserve">
<style type="text/css">
	.st0{fill:#0F228A;}
	.st1{fill:#5DAF22;}
	.st2{fill:url(#SVGID_1_);}
	.st3{fill:#12267D;}
	.st4{fill:none;stroke:#FFFFFF;stroke-width:1.1959;stroke-miterlimit:10;}
	.st5{fill:#F7FA20;}
	.st6{fill:#3D3A39;}
</style>
<g>
	<rect x="515.6" y="371" class="st0" width="4.6" height="4.6"/>
	<rect x="515.6" y="380.2" class="st0" width="4.6" height="36.5"/>
	<path class="st0" d="M529.3,371h4.6v9.1h18.2v4.6h-18.2v22.7c0,2.7,2,4.6,4.5,4.6h13.7v4.5h-13.7c-4.7,0-9.1-3.8-9.1-9.1v-22.7
		h-6.8v-4.6h6.8V371"/>
	<path class="st0" d="M505.9,393.9h-30.4c0.1-3.4,0.9-5.7,2.5-6.9c1-0.9,2.4-1.5,4.4-1.9c1.9-0.3,4.6-0.6,8.3-0.6
		c3.6,0,6.4,0.2,8.3,0.6c1.9,0.3,3.4,0.9,4.4,1.9C505.1,388.2,505.9,390.5,505.9,393.9 M475.5,398.5h35.7c0-4.1-0.2-7.1-0.7-9
		c-0.5-2-1.3-3.7-2.4-5.2c-1.5-1.7-3.4-2.9-5.8-3.6c-2.3-0.6-6.2-0.9-11.6-0.9c-5.4,0-9.3,0.3-11.7,0.9c-2.4,0.7-4.3,1.9-5.7,3.6
		c-1.3,1.5-2.1,3.2-2.4,5.2c-0.5,2-0.7,5-0.8,9c0.1,4.1,0.3,6.9,0.8,8.9c0.3,2,1.2,3.7,2.4,5.2c1.4,1.7,3.2,3,5.7,3.6
		c2.4,0.7,6.3,0.9,11.7,0.9c5.3,0,9.3-0.2,11.6-0.9c2.4-0.6,4.3-1.9,5.8-3.6c0.9-1.2,1.6-2.4,2.1-3.9h-5.4c-0.3,0.5-0.7,0.9-1.2,1.4
		c-1,0.8-2.5,1.5-4.4,1.9c-2,0.3-4.7,0.5-8.3,0.5c-3.7,0-6.5-0.1-8.3-0.5c-2-0.3-3.4-1-4.4-1.9c-1.4-1.2-2.2-3.1-2.4-5.8
		C475.5,402.4,475.5,400.5,475.5,398.5z"/>
	<path class="st0" d="M511.1,480.5c45.3,0,82.1-36.7,82.1-82c0-45.4-36.8-82.1-82.1-82.1c-14.9,0-28.9,4.1-41,11l4.5,7.9
		c10.8-6.3,23.2-9.7,36.5-9.7c40.3,0,72.9,32.6,72.9,72.9c0,40.3-32.7,72.9-72.9,72.9c-40.3,0-72.9-32.6-72.9-72.9H429
		C429,443.8,465.9,480.5,511.1,480.5"/>
	<path class="st1" d="M511.1,462.3c23.6,0,44.2-12.9,55.2-32l-7.9-4.5c-9.5,16.3-27.1,27.3-47.4,27.3c-30.2,0-54.6-24.4-54.6-54.6
		c0-30.2,24.4-54.8,54.6-54.8c20.3,0,37.9,11,47.4,27.3l7.9-4.5c-11-19.1-31.6-31.8-55.2-31.8c-35.2,0-63.8,28.5-63.8,63.8
		C447.3,433.7,475.9,462.3,511.1,462.3"/>
	<g>
		<path class="st0" d="M616.5,416.7h4.9v-16.8h33.6v16.8h4.9v-36.5h-4.9v15.4h-33.6v-15.4h-4.9V416.7 M692.4,408.9h4.2
			c0,3-1.2,5.1-3.1,6.3c-2.1,1.3-5.7,1.9-10.9,1.9c-4.2,0-7.4-0.1-9.6-0.5c-2.2-0.3-3.8-0.9-5-1.7c-2.5-1.7-3.8-5.3-3.8-10.8
			c0-3.7,0.5-6.6,1.6-8.5c1-1.7,2.5-3,4.4-3.6c2-0.7,5.2-1,9.8-1c4.4,0,7.5,0.2,9.4,0.7c2,0.5,3.6,1.4,4.7,2.8c0.9,1,1.6,2.3,2,3.8
			c0.3,1.4,0.5,3.7,0.6,6.6h-28.2c0.1,3.2,0.7,5.3,1.9,6.5c0.8,0.8,2,1.4,3.7,1.7c1.6,0.2,4.4,0.3,8.2,0.3c2.9,0,5-0.1,6.3-0.3
			c1.4-0.2,2.3-0.8,3-1.5C692,411.1,692.3,410.2,692.4,408.9z M692.2,401.5c0-2.4-0.6-4.2-2-5.2c-0.8-0.7-2-1-3.6-1.4
			c-1.5-0.2-3.7-0.3-6.7-0.3c-2.7,0-4.6,0.1-6,0.3c-1.3,0.2-2.3,0.7-3.1,1.3c-1.3,0.9-2,2.8-2.2,5.3H692.2z M704.6,398.9h-4.2
			c0-0.5,0-0.8,0-1c0-2.7,0.9-4.5,3-5.4c2-1,5.7-1.5,11.2-1.5c4.3,0,7.4,0.2,9.3,0.6c1.8,0.5,3.4,1.2,4.4,2.3
			c0.9,0.8,1.5,1.9,1.7,3.1c0.2,1.2,0.5,3.4,0.5,6.4v13.3h-4.1l0.1-2.9h-0.2c-1,1.4-2.2,2.2-3.6,2.7c-1.4,0.3-4.1,0.6-7.9,0.6
			c-4.5,0-7.5-0.1-9.3-0.3c-1.7-0.2-3-0.6-3.9-1.3c-0.9-0.7-1.5-1.5-1.9-2.3c-0.3-0.9-0.6-2.2-0.6-3.8c0-1.9,0.3-3.4,0.8-4.5
			c0.6-1,1.4-1.7,2.7-2.3c1.4-0.6,4.5-0.8,9.5-0.8c5.2,0,8.6,0.1,10.2,0.5c1.6,0.2,2.9,1,3.7,2.2h0.3v-2.7c0-2.3-0.3-3.8-1.2-4.9
			c-0.7-0.8-1.9-1.5-3.2-1.7c-1.5-0.3-3.8-0.5-7.2-0.5c-4.3,0-7.1,0.2-8.3,0.7c-1.3,0.6-2,1.6-2,3.4
			C704.6,398.7,704.6,398.8,704.6,398.9z M714.9,405.1c-3.4,0-5.7,0.1-6.9,0.2c-1.3,0.1-2.2,0.3-2.8,0.6c-1,0.7-1.6,1.8-1.6,3.5
			c0,1.7,0.7,2.8,1.9,3.4c1,0.5,4.5,0.7,10.3,0.7c4.3,0,7.1-0.2,8.5-0.8c1.4-0.5,2.1-1.6,2.1-3.4c0-1.6-0.8-2.7-2.3-3.2
			C722.4,405.4,719.4,405.1,714.9,405.1z M734.8,416.7h4.1v-36.5h-4.1V416.7z M747.3,391.3h-6.3v3.5h6.3v12.3c0,2.1,0.1,3.5,0.2,4.5
			c0.2,0.9,0.6,1.9,1.2,2.5c0.7,1,1.9,1.7,3.5,2.2c1.5,0.5,3.6,0.7,6.4,0.7c2.7,0,4.7-0.2,6.3-0.7c1.5-0.5,2.5-1.3,3.4-2.4
			c0.5-0.7,0.8-1.6,1-2.7c0.1-1,0.2-2.4,0.2-4.4v-1.6h-3.9v1.6c0,1.5-0.1,2.7-0.1,3.2c-0.1,0.7-0.3,1.2-0.7,1.6
			c-0.5,0.7-1,1.2-1.9,1.4c-0.8,0.2-2.2,0.3-3.9,0.3c-2,0-3.4-0.1-4.4-0.3c-1-0.2-1.7-0.7-2.2-1.3c-0.5-0.6-0.7-1.2-0.8-1.6
			c-0.1-0.6-0.1-2-0.2-4.4v-11h17.8v-3.5h-17.8v-6.2h-3.9V391.3z M772.9,380.2h4.1v14.9h0.2c0.9-1.6,2.2-2.7,4.1-3.2
			c1.7-0.6,4.7-0.9,8.9-0.9c3.5,0,6.1,0.2,7.9,0.7c1.9,0.3,3.2,1,4.2,2.1c0.8,0.9,1.4,2,1.7,3.4c0.2,1.3,0.5,3.4,0.5,6.4v13.2h-4.1
			v-11.9c0-2.5-0.1-4.4-0.2-5.4c-0.2-1-0.6-1.9-1.2-2.5c-0.7-0.8-1.7-1.4-3.1-1.7c-1.4-0.3-3.5-0.5-6.3-0.5c-3,0-5.4,0.2-7.2,0.7
			c-1.7,0.3-3,1-3.9,2.1c-0.6,0.7-1,1.6-1.3,2.4c-0.2,0.9-0.2,2.7-0.2,5v11.9h-4.1V380.2z"/>
		<g>
			<path class="st0" d="M624.9,435h6.1l8.4,18.4h-2.6l-2.4-5.1h-13l-2.3,5.1h-2.6L624.9,435z M622,446.9h11.8l-4.7-10.4h-2.3
				L622,446.9z"/>
			<path class="st0" d="M644.1,453.4V435h2.6v16.9h13.4v1.5H644.1z"/>
			<path class="st0" d="M673.3,452.2c4.8,0,7.6-1.1,7.6-4.2v-13h2.6v13c0,4.1-3.7,5.7-10.2,5.7c-6.2,0-9.8-1.6-9.8-5.7v-13h2.6v13
				C666,451.1,668.7,452.2,673.3,452.2z"/>
			<path class="st0" d="M690.6,435h4.9l9,16.1l9-16.1h4.9v18.4h-2.6v-16.7h-0.6l-9.2,16.1H703l-9.2-16.1h-0.6v16.7h-2.6V435z"/>
			<path class="st0" d="M725.7,435h5.1l12.2,16.9h1V435h2.6v18.4h-5l-12.3-16.9h-0.9v16.9h-2.6V435z"/>
			<path class="st0" d="M754,435h2.6v18.4H754V435z"/>
		</g>
	</g>
</g>
<g>
	<g>
		<linearGradient id="SVGID_1_" gradientUnits="userSpaceOnUse" x1="29.4896" y1="292.7509" x2="803.7987" y2="292.7509">
			<stop  offset="0" style="stop-color:#F22B92"/>
			<stop  offset="5.627251e-02" style="stop-color:#DF2A92"/>
			<stop  offset="0.1739" style="stop-color:#AC2990"/>
			<stop  offset="0.3411" style="stop-color:#5B268D"/>
			<stop  offset="0.4861" style="stop-color:#0F228A"/>
			<stop  offset="1" style="stop-color:#0F228A"/>
		</linearGradient>
		<path class="st2" d="M265.2,457.8c-0.3,0-0.6,0-0.9-0.1c-6.3-1.8-6.2-9.8,38.4-177.6c8.8-33.1,18.2-68.5,25.2-96.4
			c-8.4,30.3-18.6,69.7-27.7,104.6c-32.7,125.6-40.7,153.3-45.4,156c-0.8,0.5-2,0.6-2.9,0.4c-5.6-1.6-7.1-2,30.6-147.3
			c7.8-29.9,16.5-63.6,23.1-90.4c-6.4,23.6-13.8,52.6-20.4,78.4c-27.3,106.7-34.2,130.3-38.9,133c-0.8,0.5-2.1,0.6-3,0.4
			c-5.4-1.6-6.7-1.9,27.9-138.8c7.5-29.6,15.9-62.9,22.2-89.4c-6.4,23.6-14,52.9-21.2,80.5c-29.9,114.9-37.3,140.3-41.9,142.9
			c-0.8,0.5-2,0.6-2.9,0.4c-5-1.4-6-1.7,20.9-117.7c4.7-20.2,9.9-42.5,14.1-61.7c-5.2,19.3-11,42.2-16.2,62.7
			c-23.3,91.2-28.8,110.1-33,112.5c-0.8,0.5-2,0.6-2.9,0.4c-4.8-1.4-5.4-1.5,18.8-105.6c3.9-16.7,8.1-34.8,11.9-51.7
			c-1.9,7.2-3.8,14.6-5.6,21.7C213,361.7,207.6,379.7,203.7,382c-0.8,0.5-2,0.6-2.9,0.4c-4.9-1.4-5.6-1.6,20.4-115.9
			c3.9-17.1,8.1-35.7,11.9-52.6c-4.2,15.7-8.6,32.9-12.7,48.7c-20.6,80.1-24.8,94.5-28.4,96.5c-0.8,0.5-2,0.6-2.8,0.4
			c-4.9-1.4-5.9-1.7,18-104.5c1-4.5,2.1-9,3.1-13.5c-2,7.5-3.9,15.1-5.8,22.3c-19.6,75.8-22.3,83.8-25.2,85.5
			c-0.8,0.4-1.9,0.6-2.8,0.3c-4.7-1.3-5-1.4,16-91.6c4.7-20.4,10.3-44.5,14.8-64.7c-5.8,21.2-12.5,47-18.2,68.9
			c-21.7,83.2-24.4,91.4-27.3,93.1c-0.8,0.5-1.9,0.6-2.8,0.3c-4.7-1.4-5-1.4,16.9-97.6c5.3-23.3,11.6-50.8,16.4-73.4
			c-4.2,15.8-8.9,33.9-13.1,50.3c-20.9,80.9-23.9,90.2-27.1,92.1c-0.8,0.5-2,0.6-2.8,0.4c-4.7-1.3-5.2-1.5,16.7-98
			c1-4.2,1.9-8.6,2.9-12.9c-0.7,2.8-1.5,5.6-2.2,8.4c-21.3,80.9-24.1,89.5-27,91.1c-0.8,0.5-1.9,0.6-2.8,0.3
			c-4.7-1.3-5.2-1.5,14.9-92.1c0.1-0.7,0.3-1.3,0.4-2c-0.2,0.9-0.5,1.8-0.7,2.6c-18.8,71.5-20.2,74.5-22.6,75.9
			c-0.8,0.4-1.8,0.6-2.7,0.3c-4.6-1.3-5.1-1.5,12.6-84c0.7-3.2,1.4-6.5,2.1-9.9c-0.4,1.7-0.9,3.4-1.3,5
			c-15.4,58.9-16.4,61.2-18.7,62.5c-0.8,0.5-1.8,0.6-2.7,0.3c-4-1.2-4.2-1.2,4-55.4c0.4-2.7,0.8-5.4,1.2-8.2
			c-6.1,23.5-7,24.8-8.8,25.9c-0.5,0.3-1.2,0.5-1.8,0.5v0H74.2c-1.4,0-2.7-0.9-3.2-2.2l-9.5-26.4L36,265.4c-0.8,1.7-2.8,2.5-4.5,1.7
			c-1.7-0.8-2.5-2.8-1.7-4.5l28.9-63.9c0.6-1.3,1.9-2,3.2-2c1.4,0.1,2.6,0.9,3.1,2.2l11.6,32H111c1.9-5.1,6.1-21.6,9.3-34
			c8-31.3,8.3-31.4,10.2-32.5c0.8-0.5,1.8-0.6,2.7-0.3c4,1.1,4.2,1.2-4.1,56.5c-0.6,4.2-1.3,8.7-2,13.1c2-7.7,4.2-15.8,6.1-23.3
			c16.7-64,19.1-70.9,21.8-72.4c0.8-0.5,1.9-0.6,2.8-0.3c4.5,1.3,4.9,1.4-12.1,80.8c-1,4.6-2,9.3-3,14c0.8-3.2,1.7-6.3,2.5-9.4
			c20-76,21.7-79.8,24.3-81.3c0.8-0.5,1.9-0.6,2.7-0.3c4.5,1.3,4.8,1.4-13.5,84.1c-1.7,7.6-3.5,15.6-5.2,23.5
			c2.3-8.8,4.7-17.7,6.9-26.1c20.8-79,23.3-86.8,26.2-88.4c0.8-0.5,1.9-0.6,2.8-0.3c4.6,1.3,5.1,1.5-16.5,96.6
			c-1.5,6.5-3,13.2-4.5,19.9c1.5-6,3.1-11.9,4.5-17.6c21.4-82.8,25.1-94.4,28.5-96.3c0.8-0.5,2-0.6,2.9-0.4c5,1.4,6.2,1.8-21.4,123
			c-0.5,2.4-1.1,4.8-1.6,7.2c0.5-2.1,1.1-4.2,1.6-6.2c24.2-92.8,29.9-112,33.8-114.2c0.8-0.5,2-0.6,2.9-0.4
			c4.7,1.3,5.9,1.7-15.5,94.2c16.6-63.7,20-73.4,23.1-75.2c0.8-0.5,2-0.6,2.8-0.4c4.8,1.4,5.3,1.5-15.8,91.9
			c-3.1,13.1-6.3,27.2-9.4,40.6c3.1-12,6.3-24.5,9.4-36.2c21.8-84.6,26.9-102.1,30.8-104.3c0.8-0.5,2-0.6,2.9-0.4
			c4.8,1.4,5.4,1.6-19.7,111.7c-4.7,20.5-9.9,43.3-14.1,62.8c4.9-18.3,10.4-39.3,15-57.3c20.4-78.7,22.9-86.5,25.9-88.1
			c0.8-0.5,1.9-0.6,2.8-0.3c5.1,1.4,6.1,1.8-21.7,121.7c-3.5,14.9-7.1,30.5-10.3,44.8c4.7-17.6,9.7-37.3,14.3-55.3
			c23-90,28.4-108.7,32.5-111c0.8-0.5,2-0.6,2.9-0.4c4.9,1.4,5.8,1.7-20.1,113.5c-6,25.8-12.8,55.1-17.5,77.3
			c8-28.3,18.9-69.9,28.3-106.1c27.7-106.7,34.2-128.8,38.2-131.1c0.8-0.5,2-0.6,2.9-0.4c5.5,1.6,7,2-28.9,143.7
			c-7.8,30.9-16.7,66-22.9,92.3c7.1-25.7,15.9-60,23.6-90.3c26.6-103.9,33.3-126.9,37.8-129.5c0.8-0.5,2.1-0.6,3-0.4
			c5.5,1.6,7,2-30.2,145.2c-8.8,34-18.9,72.8-25.7,101.1c8.7-30.9,20.2-75,30.2-113.6c33.2-127.5,41.4-155.6,46.2-158.4
			c0.8-0.5,2.1-0.6,2.9-0.4c5.6,1.6,6.9,2-33.5,154c-13.5,50.9-29.4,110.5-36.9,144.4c9.3-31.6,23.6-86.5,35.8-133.5
			c33.1-127.7,41.3-155.9,46.1-158.6c0.8-0.5,2.1-0.6,2.9-0.4c5.9,1.7,5.9,6.8-29.1,143.8c-10,39.2-21.7,84.8-28,113.3
			c7.7-26.6,18.4-68.9,27.6-105.4c24.6-97.2,32.5-125.9,37.4-128.7c0.8-0.5,2.1-0.6,3-0.4c5.2,1.5,6.2,1.8-25,125
			c-7.3,28.7-15.5,61-21.5,86.4c7.1-25.5,15.7-58.4,23.3-87.6c27.6-105.5,31.5-117.5,34.9-119.4c0.8-0.5,1.9-0.6,2.8-0.3
			c4.8,1.4,5.3,1.5-18.2,105.2c-4.2,18.6-8.9,39.1-12.8,57.2c4.5-16.9,9.3-35.9,13.8-53.3c22.9-89.7,28.8-109.6,32.9-112
			c0.8-0.5,2.1-0.6,2.9-0.4c4.8,1.4,5.6,1.6-16.7,98.5c-1.7,7.4-3.5,15-5.2,22.7c1.3-5,2.6-9.9,3.9-14.7
			c20.4-77.9,23.1-86.2,26.1-87.9c0.8-0.4,1.9-0.6,2.8-0.3c4.4,1.3,4.7,1.4-9.2,73.7c-1.6,8.3-3.3,17.1-4.9,25.6
			c1.1-4.4,2.3-8.7,3.4-12.9c14.9-57.3,16.1-60.1,18.5-61.4c0.8-0.5,1.9-0.6,2.7-0.3c3.2,0.9,3.2,0.9,1.8,35.3c-0.1,2.9-0.2,6-0.4,9
			c0.1-0.1,0.2-0.2,0.4-0.2c0.5-0.3,1.1-0.5,1.7-0.5v0l69.2-1.6l13.5-27.5c0.6-1.3,1.9-2,3.3-1.9c1.4,0.1,2.6,1.1,3,2.4l12,41.5
			v-25.6c0-1.9,1.5-3.4,3.4-3.4h269.9c1.9,0,3.4,1.5,3.4,3.4s-1.5,3.4-3.4,3.4H533.9v46.2c0,1.7-1.2,3.1-2.9,3.4
			c-1.6,0.2-3.3-0.8-3.7-2.4l-16.2-56L500.5,247c-0.6,1.1-1.7,1.9-3,1.9l-69.1,1.6c-0.5,1.9-1.3,5.2-1.8,7.5
			c-2.2,9.9-2.7,11.4-4.4,12.4c-0.8,0.5-1.9,0.6-2.8,0.4c-3.2-0.9-3.2-0.9-1.9-35.6c0.1-3.2,0.3-6.6,0.4-9.9
			c-3.1,11.3-6.8,25.6-10.1,38.3c-15.2,58.5-16.4,61.2-18.9,62.6c-0.8,0.5-1.9,0.6-2.7,0.3c-4.4-1.3-5-1.4,9.9-78.7
			c1.5-7.9,3.1-16.3,4.7-24.4c-3.6,13.4-7.5,28.3-11,41.9c-20.1,76.9-22.8,85.1-25.7,86.7c-0.8,0.5-1.9,0.6-2.8,0.3
			c-4.9-1.4-5.6-1.6,16.6-98.3c3.6-15.8,7.6-33.1,11-48.5c-5.4,20-11.5,44-17,65.5c-22,86.2-26.9,102.9-30.8,105.1
			c-0.8,0.5-2,0.6-2.9,0.4c-4.9-1.4-5.6-1.6,19.5-112.6c3-13.4,6.3-27.9,9.3-41.5c-5,18.5-10.4,39.5-15.7,59.4
			c-28.6,109.4-35.3,132-39.5,134.4c-0.8,0.5-2,0.6-2.9,0.4c-5.4-1.6-6.9-2,27.4-137c5.1-20.3,10.6-41.6,15.2-60.5
			c-5.6,21.3-11.8,45.8-17.4,67.9c-25.5,100.6-34.3,132.4-39.5,135.4c-0.8,0.5-2.2,0.7-3.1,0.4c-5.9-1.7-5.9-7.4,29.8-147.1
			c9-35.3,19.4-75.8,25.8-103.7c-9,31.4-21.6,80.2-32.6,122.3c-32,123.5-42.2,159.9-47.5,162.9C266.7,457.6,265.9,457.8,265.2,457.8
			z M425.3,250.4c0.4,0.1,0.7,0.1,1.1,0.1h-0.1C426,250.6,425.6,250.5,425.3,250.4z M425.3,250.4
			C425.3,250.4,425.3,250.4,425.3,250.4C425.3,250.4,425.3,250.4,425.3,250.4z M113.2,231c0.2,0,0.5,0.1,0.7,0.1
			C113.6,231,113.4,231,113.2,231z"/>
	</g>
</g>
<g>
	<rect x="895.9" y="379.9" class="st3" width="110.5" height="73.7"/>
</g>
<rect x="895.9" y="379.9" class="st4" width="110.5" height="73.7"/>
<g>
	<polygon class="st5" points="948.8,396 951.1,394.3 953.4,396 952.6,393.2 954.9,391.5 952,391.5 951.1,388.7 950.2,391.5 
		947.3,391.5 949.7,393.2 	"/>
	<polygon class="st5" points="936.7,399.2 939,397.5 941.4,399.2 940.5,396.5 942.9,394.8 939.9,394.8 939,392 938.1,394.8 
		935.2,394.8 937.6,396.5 	"/>
	<polygon class="st5" points="930.2,400.8 929.3,403.6 926.4,403.6 928.8,405.3 927.9,408.1 930.2,406.4 932.5,408.1 931.7,405.3 
		934,403.6 931.1,403.6 	"/>
	<polygon class="st5" points="927,418.4 929.3,420.1 928.4,417.4 930.8,415.7 927.9,415.7 927,412.9 926.1,415.7 923.2,415.7 
		925.5,417.4 924.6,420.1 	"/>
	<polygon class="st5" points="931.1,427.8 930.2,425 929.3,427.8 926.4,427.8 928.8,429.5 927.9,432.2 930.2,430.5 932.5,432.2 
		931.7,429.5 934,427.8 	"/>
	<polygon class="st5" points="940,436.6 939.1,433.8 938.2,436.6 935.2,436.6 937.6,438.3 936.7,441.1 939.1,439.3 941.4,441.1 
		940.5,438.3 942.9,436.6 	"/>
	<polygon class="st5" points="952,439.8 951.1,437 950.2,439.8 947.3,439.8 949.7,441.5 948.8,444.3 951.1,442.6 953.4,444.3 
		952.6,441.5 954.9,439.8 	"/>
	<polygon class="st5" points="964.1,436.6 963.2,433.8 962.3,436.6 959.4,436.6 961.7,438.3 960.8,441.1 963.2,439.3 965.5,441.1 
		964.6,438.3 967,436.6 	"/>
	<polygon class="st5" points="972.9,427.8 972,425 971.1,427.8 968.2,427.8 970.6,429.5 969.7,432.2 972,430.5 974.3,432.2 
		973.5,429.5 975.8,427.8 	"/>
	<polygon class="st5" points="979,415.6 976.1,415.6 975.2,412.8 974.3,415.6 971.4,415.6 973.8,417.3 972.9,420.1 975.2,418.4 
		977.5,420.1 976.7,417.3 	"/>
	<polygon class="st5" points="969.7,408 972,406.3 974.3,408 973.5,405.3 975.8,403.6 972.9,403.6 972,400.8 971.1,403.6 
		968.2,403.6 970.6,405.3 	"/>
	<polygon class="st5" points="963.2,392 962.3,394.8 959.4,394.8 961.8,396.5 960.9,399.2 963.2,397.5 965.5,399.2 964.6,396.5 
		967,394.8 964.1,394.8 	"/>
</g>
<path class="st6" d="M1410.5,427.7l0.6-0.3c0.4-0.2,1-0.4,1.7-0.6c0.8-0.2,1.5-0.3,2.2-0.3c1.4,0,2.4,0.4,2.8,1.2
	c0.4,0.8,0.7,2.3,0.7,4.6v8.4h2.4v-8.5c0-2.9-0.4-5-1.1-6.1c-0.7-1.1-2.2-1.7-4.3-1.7c-1.6,0-3.2,0.5-5,1.4v-1.1h-2.4l0,16h2.4
	L1410.5,427.7z M1393.9,427.7c0.6-0.9,1.8-1.3,3.5-1.3c1.7,0,2.8,0.4,3.4,1.3c0.6,0.9,0.9,2.5,0.9,4.8c0,2.3-0.3,4-0.8,4.9
	c-0.6,0.9-1.7,1.4-3.5,1.4c-1.8,0-3-0.5-3.6-1.4c-0.6-0.9-0.8-2.6-0.8-4.9C1393,430.2,1393.3,428.6,1393.9,427.7 M1392,439
	c1,1.3,2.8,2,5.4,2c2.6,0,4.4-0.7,5.4-2c1-1.3,1.5-3.4,1.5-6.4c0-2.9-0.5-5-1.6-6.3c-1-1.3-2.8-2-5.3-2c-2.5,0-4.2,0.7-5.3,2
	c-1,1.3-1.6,3.4-1.6,6.3C1390.5,435.5,1391,437.7,1392,439 M1386.6,418.2h-2.4v2.8h2.4V418.2z M1386.6,424.6h-2.4l0,16h2.4V424.6z
	 M1369.4,427.7l0.6-0.3c0.4-0.2,1-0.4,1.7-0.6c0.8-0.2,1.5-0.3,2.2-0.3c1.4,0,2.4,0.4,2.8,1.2c0.4,0.8,0.7,2.3,0.7,4.6v8.4h2.4v-8.5
	c0-2.9-0.4-5-1.1-6.1c-0.7-1.1-2.2-1.7-4.3-1.7c-1.6,0-3.2,0.5-5,1.4v-1.1h-2.4v16h2.4L1369.4,427.7z M1349.2,418.5h-2.5l0,15.4
	c0,2.5,0.6,4.3,1.9,5.4c1.3,1.1,3.2,1.7,5.8,1.7c2.6,0,4.5-0.6,5.8-1.7c1.3-1.1,2-2.9,2-5.4v-15.4h-2.4V434c0,1.7-0.5,2.9-1.4,3.7
	c-0.9,0.8-2.3,1.1-4.1,1.1c-3.5,0-5.2-1.6-5.2-4.8V418.5z M1324.6,427.7l0.6-0.3c0.4-0.2,1-0.4,1.7-0.6c0.8-0.2,1.5-0.3,2.2-0.3
	c1.4,0,2.4,0.4,2.8,1.2c0.4,0.8,0.7,2.3,0.7,4.6v8.4h2.4v-8.5c0-2.9-0.4-5-1.1-6.1c-0.7-1.1-2.2-1.7-4.3-1.7c-1.6,0-3.2,0.5-5,1.4
	v-1.1h-2.4l0,16h2.4V427.7z M1308.3,434c0.4-0.5,1.1-0.7,2.1-0.8l4.7-0.4l0,5.3l-0.7,0.3c-1.4,0.5-2.8,0.7-4.3,0.7
	c-1.6,0-2.4-1-2.4-2.9C1307.6,435.1,1307.8,434.4,1308.3,434 M1316.3,425.6c-0.8-0.8-2.1-1.2-4-1.2c-1.8,0-3.9,0.2-6.2,0.7l0.1,1.8
	l1-0.1c1.8-0.2,3.6-0.3,5.3-0.3c0.8,0,1.5,0.2,1.9,0.7c0.5,0.5,0.7,1.2,0.7,2.3v1.4l-5,0.5c-1.7,0.2-2.9,0.6-3.7,1.4
	c-0.8,0.7-1.2,1.9-1.2,3.4c0,1.6,0.4,2.8,1.2,3.6c0.8,0.8,1.9,1.2,3.4,1.2c1.9,0,3.8-0.4,5.8-1.3c0.9,0.9,2.1,1.3,3.8,1.3l0.1-1.9
	c-1.2-0.1-1.8-0.6-1.9-1.4l0-8.2C1317.5,427.7,1317.1,426.4,1316.3,425.6 M1291.7,431.7c0-1.9,0.4-3.2,1.1-4.1
	c0.7-0.9,1.8-1.3,3.2-1.3c1.4,0,2.4,0.4,3.1,1.2c0.6,0.8,0.9,2.2,0.9,4.2H1291.7z M1296.1,438.9c-1.6,0-2.7-0.4-3.3-1.3
	c-0.6-0.9-1-2.2-1-3.9h10.6l0.1-1.8c0-2.6-0.5-4.5-1.6-5.7c-1.1-1.2-2.7-1.8-4.8-1.8c-4.5,0-6.7,2.8-6.7,8.4c0,2.8,0.5,4.9,1.4,6.2
	c1,1.3,2.6,2,4.9,2c1.7,0,3.8-0.2,6.2-0.5l-0.1-1.9l-0.9,0.1C1299.3,438.8,1297.6,438.9,1296.1,438.9 M1282.7,427.9
	c0.6,0.9,0.9,2.5,0.9,4.7c0,2.2-0.3,3.8-1,4.8c-0.7,1-1.9,1.5-3.6,1.5c-0.8,0-1.9-0.1-3.5-0.4l0-10.8l0.6-0.3c0.4-0.2,1-0.4,1.7-0.6
	c0.7-0.2,1.4-0.3,2.1-0.3C1281.2,426.5,1282.1,426.9,1282.7,427.9 M1275.6,447.8v-7.1c1.1,0.2,2.3,0.4,3.6,0.4
	c2.5,0,4.3-0.6,5.4-1.9c1.1-1.3,1.6-3.4,1.6-6.4c0-3-0.5-5.1-1.4-6.4c-0.9-1.3-2.4-1.9-4.4-1.9c-1.6,0-3.2,0.5-4.8,1.5v-1.2h-2.4
	l0,23.1H1275.6z M1259,427.7c0.6-0.9,1.8-1.3,3.5-1.3c1.7,0,2.8,0.4,3.4,1.3c0.6,0.9,0.9,2.5,0.9,4.8c0,2.3-0.3,4-0.8,4.9
	c-0.6,0.9-1.7,1.4-3.5,1.4s-3-0.5-3.6-1.4c-0.6-0.9-0.8-2.6-0.8-4.9C1258,430.2,1258.3,428.6,1259,427.7 M1257,439
	c1,1.3,2.8,2,5.4,2c2.6,0,4.4-0.7,5.4-2c1-1.3,1.5-3.4,1.5-6.4c0-2.9-0.5-5-1.6-6.3c-1-1.3-2.8-2-5.3-2c-2.5,0-4.2,0.7-5.3,2
	c-1,1.3-1.6,3.4-1.6,6.3C1255.6,435.5,1256,437.7,1257,439 M1247.9,440.6v-11.7l0.8-0.4c0.5-0.3,1.3-0.6,2.2-1
	c1-0.4,1.9-0.6,2.8-0.8v-2.4c-2.1,0.4-4,1.2-5.9,2.5v-2.2h-2.4l0,16H1247.9z M1238.5,437.6l-0.6,0.3c-0.4,0.2-0.9,0.4-1.7,0.6
	c-0.7,0.2-1.4,0.3-2.1,0.3c-1.4,0-2.3-0.4-2.8-1.2c-0.4-0.8-0.6-2.3-0.6-4.7v-8.3h-2.4v8.4c0,3.1,0.4,5.1,1.1,6.3
	c0.7,1.1,2.2,1.7,4.3,1.7c1.6,0,3.1-0.5,4.7-1.4v1.1h2.4v-16h-2.4V437.6z M1225,440.6v-2.2h-11v-8h9.1v-2.1h-9.1l0-7.6h11v-2.2
	h-13.5v22.1H1225z M1189.6,431.7c0-1.9,0.4-3.2,1.1-4.1c0.7-0.9,1.8-1.3,3.2-1.3c1.4,0,2.4,0.4,3.1,1.2c0.6,0.8,0.9,2.2,0.9,4.2
	H1189.6z M1193.9,438.9c-1.6,0-2.7-0.4-3.3-1.3c-0.6-0.9-1-2.2-1-3.9h10.6l0.1-1.8c0-2.6-0.5-4.5-1.6-5.7c-1.1-1.2-2.7-1.8-4.8-1.8
	c-4.5,0-6.7,2.8-6.7,8.4c0,2.8,0.5,4.9,1.4,6.2c1,1.3,2.6,2,4.9,2c1.7,0,3.8-0.2,6.2-0.5l-0.1-1.9l-0.9,0.1
	C1197.1,438.8,1195.5,438.9,1193.9,438.9 M1173.1,427.4l0.6-0.2c1.3-0.5,2.6-0.7,3.9-0.7c1.4,0,2.3,0.4,2.8,1.2
	c0.4,0.8,0.7,2.3,0.7,4.6v8.4h2.4l0-8.5c0-2.9-0.4-5-1.1-6.1c-0.7-1.1-2.2-1.7-4.3-1.7c-1.6,0-3.2,0.4-4.9,1.2v-7.9h-2.4v23h2.4
	V427.4z M1167.8,424.6h-5.1v-4.9h-2.4v4.9h-2.3v2.1h2.3v8.4c0,2.3,0.3,3.8,1,4.6c0.6,0.8,1.8,1.2,3.5,1.2c0.7,0,1.8-0.1,3.3-0.4
	l-0.2-2l-2.8,0.2c-1,0-1.6-0.3-1.9-0.9c-0.3-0.6-0.4-1.8-0.4-3.6v-7.6h5.1L1167.8,424.6z M1149.5,426.7v-2.1h-4.6v-1.4
	c0-1.5,0.2-2.5,0.5-3c0.3-0.5,0.9-0.8,1.7-0.8c0.8,0,1.8,0,3,0.1l0-2l-3.2-0.2c-1.6,0-2.7,0.4-3.4,1.2c-0.6,0.8-1,2.4-1,4.6v1.4h-2
	v2.1h2v13.9h2.4v-13.9H1149.5z M1127.6,427.7c0.6-0.9,1.8-1.3,3.5-1.3c1.7,0,2.8,0.4,3.4,1.3c0.6,0.9,0.9,2.5,0.9,4.8
	c0,2.3-0.3,4-0.8,4.9c-0.6,0.9-1.7,1.4-3.5,1.4s-3-0.5-3.6-1.4c-0.6-0.9-0.8-2.6-0.8-4.9C1126.7,430.2,1127,428.6,1127.6,427.7
	 M1125.7,439c1,1.3,2.8,2,5.4,2c2.6,0,4.4-0.7,5.4-2c1-1.3,1.5-3.4,1.5-6.4c0-2.9-0.5-5-1.6-6.3c-1-1.3-2.8-2-5.3-2
	c-2.5,0-4.2,0.7-5.3,2c-1,1.3-1.6,3.4-1.6,6.3C1124.2,435.5,1124.7,437.7,1125.7,439 M1105.5,440.6h2.4l-2.1,7.1h2.4l6.7-23.1h-2.4
	l-4,13.9h-1.1l-4-13.9h-2.4L1105.5,440.6z M1088.4,437.8c-0.7-0.9-1.1-2.5-1.1-5c0-2.2,0.3-3.8,1-4.8c0.6-1,1.8-1.6,3.4-1.6
	c1.2,0,2.4,0.1,3.8,0.4v10.8l-0.6,0.3c-0.4,0.2-1,0.4-1.8,0.6c-0.8,0.2-1.4,0.3-2.1,0.3c-0.6,0-1.1-0.1-1.5-0.2
	C1089.1,438.5,1088.7,438.2,1088.4,437.8 M1095.4,417.7l0,7.1c-1.4-0.3-2.7-0.4-3.9-0.4c-2.4,0-4.1,0.7-5.1,2.1
	c-1,1.4-1.6,3.6-1.6,6.7c0,3.1,0.6,5.2,1.7,6.4c0.6,0.6,1.2,0.9,1.8,1.2c0.6,0.2,1.4,0.3,2.2,0.3c1.6,0,3.2-0.5,4.9-1.4v1.1h2.4v-23
	H1095.4z M1071.3,427.7c0.6-0.9,1.8-1.3,3.5-1.3c1.7,0,2.8,0.4,3.4,1.3c0.6,0.9,0.9,2.5,0.9,4.8c0,2.3-0.3,4-0.8,4.9
	c-0.6,0.9-1.7,1.4-3.5,1.4c-1.8,0-3-0.5-3.6-1.4c-0.6-0.9-0.8-2.6-0.8-4.9C1070.4,430.2,1070.7,428.6,1071.3,427.7 M1069.4,439
	c1,1.3,2.8,2,5.4,2c2.6,0,4.4-0.7,5.4-2c1-1.3,1.5-3.4,1.5-6.4c0-2.9-0.5-5-1.6-6.3c-1-1.3-2.8-2-5.3-2c-2.5,0-4.3,0.7-5.3,2
	c-1,1.3-1.6,3.4-1.6,6.3C1067.9,435.5,1068.4,437.7,1069.4,439 M1054.1,438.7v-11.3l0.6-0.2c1.3-0.5,2.6-0.7,3.8-0.7
	c1.4,0,2.3,0.5,2.8,1.4c0.5,0.9,0.8,2.5,0.8,4.8c0,2.3-0.3,3.9-1,4.8c-0.7,1-2.1,1.4-4.1,1.4
	C1056.5,438.8,1055.5,438.8,1054.1,438.7 M1054.1,425.4v-7.8h-2.4v22.9l0.9,0.1c2.1,0.2,3.6,0.3,4.4,0.3c2.9,0,4.9-0.6,5.9-1.9
	c1.1-1.2,1.6-3.4,1.6-6.5s-0.4-5.2-1.3-6.4c-0.9-1.2-2.4-1.8-4.5-1.8C1057.3,424.3,1055.8,424.7,1054.1,425.4 M1030.8,434
	c0.4-0.5,1.1-0.7,2.1-0.8l4.7-0.4v5.3l-0.7,0.3c-1.4,0.5-2.8,0.7-4.3,0.7c-1.6,0-2.4-1-2.4-2.9
	C1030.1,435.1,1030.4,434.4,1030.8,434 M1038.8,425.6c-0.8-0.8-2.1-1.2-4-1.2c-1.8,0-3.9,0.2-6.2,0.7l0.1,1.8l1-0.1
	c1.8-0.2,3.6-0.3,5.3-0.3c0.8,0,1.5,0.2,1.9,0.7c0.5,0.5,0.7,1.2,0.7,2.3v1.4l-5,0.5c-1.7,0.2-2.9,0.6-3.7,1.4
	c-0.8,0.7-1.2,1.9-1.2,3.4c0,1.6,0.4,2.8,1.2,3.6c0.8,0.8,1.9,1.2,3.4,1.2c1.9,0,3.8-0.4,5.8-1.3c0.9,0.9,2.1,1.3,3.8,1.3l0.1-1.9
	c-1.2-0.1-1.8-0.6-1.9-1.4v-8.2C1040,427.7,1039.6,426.4,1038.8,425.6"/>
<path class="st6" d="M1480.3,414.6l2.1-7.4h-2.7l-1.5,7.4H1480.3z M1469.6,390.7l0,19.9h2.4v-19.9h6.8v-2.2h-16v2.2H1469.6z
	 M1459.7,388.5h-2.5l0,22.1h2.5V388.5z M1453,410.6v-2.2h-11l0-8h9.1v-2.1h-9.1v-7.6h11v-2.2h-13.5v22.1L1453,410.6z M1417.6,401.7
	c0-1.9,0.4-3.2,1.1-4.1c0.7-0.9,1.8-1.3,3.2-1.3s2.4,0.4,3.1,1.2c0.6,0.8,0.9,2.2,0.9,4.2H1417.6z M1422,408.9
	c-1.6,0-2.7-0.4-3.3-1.3c-0.6-0.9-1-2.2-1-3.9h10.6l0.1-1.8c0-2.6-0.5-4.5-1.6-5.7c-1.1-1.2-2.7-1.8-4.8-1.8c-4.5,0-6.7,2.8-6.7,8.4
	c0,2.8,0.5,4.9,1.4,6.2c1,1.3,2.6,2,4.9,2c1.7,0,3.8-0.2,6.2-0.5l-0.1-1.9l-0.9,0.1C1425.2,408.8,1423.6,408.9,1422,408.9
	 M1401.2,397.4l0.6-0.2c1.3-0.5,2.6-0.7,3.9-0.7c1.4,0,2.3,0.4,2.8,1.2c0.4,0.8,0.7,2.3,0.7,4.6v8.4h2.4v-8.5c0-2.9-0.4-5-1.1-6.1
	c-0.7-1.2-2.2-1.7-4.3-1.7c-1.6,0-3.2,0.4-4.9,1.2v-7.9h-2.4l0,23h2.4V397.4z M1395.8,394.6h-5.1v-4.9h-2.4v4.9h-2.3v2.1h2.3v8.4
	c0,2.3,0.3,3.8,1,4.6c0.6,0.8,1.8,1.2,3.5,1.2c0.7,0,1.8-0.1,3.3-0.4l-0.2-2l-2.8,0.2c-1,0-1.6-0.3-1.9-0.9
	c-0.3-0.6-0.4-1.8-0.4-3.6v-7.6h5.1V394.6z M1368.1,410.6h2.4l-2.1,7.1h2.4l6.7-23.1h-2.4l-4,13.9h-1.1l-4-13.9h-2.4L1368.1,410.6z
	 M1350.9,408.7v-11.3l0.6-0.2c1.3-0.5,2.6-0.7,3.8-0.7c1.4,0,2.3,0.5,2.8,1.4c0.5,0.9,0.8,2.5,0.8,4.8c0,2.3-0.3,3.9-1,4.8
	c-0.7,1-2.1,1.4-4.1,1.4C1353.2,408.8,1352.2,408.8,1350.9,408.7 M1350.9,395.4v-7.8h-2.4v22.9l0.9,0.1c2.1,0.2,3.6,0.3,4.4,0.3
	c2.9,0,4.9-0.6,5.9-1.9c1.1-1.2,1.6-3.4,1.6-6.5c0-3.1-0.4-5.2-1.3-6.4c-0.9-1.2-2.4-1.8-4.5-1.8
	C1354,394.3,1352.5,394.7,1350.9,395.4 M1327.4,407.8c-0.7-0.9-1.1-2.5-1.1-5c0-2.2,0.3-3.8,1-4.8c0.6-1,1.8-1.6,3.4-1.6
	c1.2,0,2.4,0.1,3.8,0.4v10.8l-0.6,0.3c-0.4,0.2-1,0.4-1.8,0.6c-0.8,0.2-1.4,0.3-2,0.3c-0.6,0-1.1-0.1-1.5-0.2
	C1328.1,408.4,1327.7,408.2,1327.4,407.8 M1334.4,387.7v7.1c-1.4-0.3-2.7-0.4-3.9-0.4c-2.4,0-4.1,0.7-5.1,2.1
	c-1,1.4-1.6,3.6-1.6,6.7c0,3.1,0.6,5.2,1.7,6.4c0.6,0.6,1.2,0.9,1.8,1.2c0.6,0.2,1.4,0.3,2.2,0.3c1.6,0,3.2-0.5,4.9-1.4v1.1h2.4v-23
	H1334.4z M1310.1,401.7c0-1.9,0.4-3.2,1.1-4.1c0.7-0.9,1.8-1.3,3.2-1.3c1.4,0,2.4,0.4,3.1,1.2c0.6,0.8,0.9,2.2,0.9,4.2H1310.1z
	 M1314.4,408.9c-1.6,0-2.7-0.4-3.3-1.3c-0.6-0.9-1-2.2-1-3.9h10.6l0.1-1.8c0-2.6-0.5-4.5-1.6-5.7c-1.1-1.2-2.7-1.8-4.8-1.8
	c-4.5,0-6.7,2.8-6.7,8.4c0,2.8,0.5,4.9,1.4,6.2c1,1.3,2.6,2,4.9,2c1.7,0,3.8-0.2,6.2-0.5l-0.1-1.9l-0.9,0.1
	C1317.6,408.8,1316,408.9,1314.4,408.9 M1305.4,394.6h-5.1v-4.9h-2.4v4.9h-2.3v2.1h2.3v8.4c0,2.3,0.3,3.8,1,4.6
	c0.6,0.8,1.8,1.2,3.5,1.2c0.7,0,1.8-0.1,3.3-0.4l-0.2-2l-2.8,0.2c-1,0-1.6-0.3-1.9-0.9c-0.3-0.6-0.4-1.8-0.4-3.6v-7.6h5.1V394.6z
	 M1288.5,410.6v-11.7l0.8-0.4c0.5-0.3,1.3-0.6,2.2-1c1-0.4,1.9-0.6,2.8-0.8v-2.4c-2.1,0.4-4,1.2-5.9,2.5v-2.2h-2.4v16H1288.5z
	 M1271.9,397.7c0.6-0.9,1.8-1.3,3.5-1.3c1.7,0,2.8,0.4,3.4,1.3c0.6,0.9,0.9,2.5,0.9,4.9c0,2.3-0.3,4-0.8,4.9
	c-0.6,0.9-1.7,1.4-3.5,1.4c-1.8,0-3-0.5-3.6-1.4c-0.6-0.9-0.8-2.6-0.8-4.9C1270.9,400.2,1271.2,398.6,1271.9,397.7 M1269.9,409
	c1,1.3,2.8,2,5.4,2c2.6,0,4.4-0.7,5.4-2c1-1.3,1.5-3.4,1.5-6.4c0-2.9-0.5-5-1.6-6.3c-1-1.3-2.8-2-5.3-2c-2.5,0-4.2,0.7-5.3,2
	c-1,1.3-1.6,3.4-1.6,6.3C1268.5,405.5,1268.9,407.7,1269.9,409 M1261.9,397.9c0.6,0.9,0.9,2.5,0.9,4.7c0,2.2-0.3,3.8-1,4.8
	c-0.7,1-1.9,1.5-3.6,1.5c-0.8,0-1.9-0.1-3.5-0.4l0-10.8l0.6-0.3c0.4-0.2,1-0.4,1.7-0.6c0.7-0.2,1.4-0.3,2.1-0.3
	C1260.3,396.5,1261.2,396.9,1261.9,397.9 M1254.7,417.7v-7.1c1.1,0.2,2.3,0.4,3.6,0.4c2.5,0,4.3-0.6,5.4-1.9
	c1.1-1.3,1.6-3.4,1.6-6.4c0-3-0.5-5.1-1.4-6.4c-0.9-1.3-2.4-1.9-4.4-1.9c-1.6,0-3.2,0.5-4.8,1.5v-1.2h-2.4v23.1H1254.7z M1245,397.9
	c0.6,0.9,0.9,2.5,0.9,4.7c0,2.2-0.3,3.8-1,4.8c-0.7,1-1.9,1.5-3.6,1.5c-0.8,0-1.9-0.1-3.5-0.4v-10.8l0.6-0.3c0.4-0.2,1-0.4,1.7-0.6
	c0.7-0.2,1.4-0.3,2.1-0.3C1243.5,396.5,1244.4,396.9,1245,397.9 M1237.8,417.7v-7.1c1.1,0.2,2.3,0.4,3.6,0.4c2.5,0,4.3-0.6,5.4-1.9
	c1.1-1.3,1.6-3.4,1.6-6.4c0-3-0.5-5.1-1.4-6.4c-0.9-1.3-2.4-1.9-4.4-1.9c-1.6,0-3.2,0.5-4.8,1.5v-1.2h-2.4v23.1H1237.8z
	 M1228.4,407.6l-0.6,0.3c-0.4,0.2-0.9,0.4-1.7,0.6c-0.7,0.2-1.4,0.3-2.1,0.3c-1.4,0-2.3-0.4-2.8-1.2c-0.4-0.8-0.6-2.3-0.6-4.7v-8.3
	h-2.4v8.4c0,3.1,0.4,5.1,1.1,6.3c0.7,1.1,2.2,1.7,4.3,1.7c1.6,0,3.1-0.5,4.7-1.4v1.1h2.4l0-16h-2.4V407.6z M1214.2,397l0.1-2
	l-0.9-0.2c-2-0.3-3.6-0.4-4.9-0.4c-1.6,0-3,0.4-4.1,1.1c-1.1,0.7-1.6,1.9-1.6,3.5s0.4,2.6,1.2,3.2c0.8,0.6,2.1,1,4,1.3
	c1.9,0.3,3.1,0.6,3.6,0.9c0.6,0.3,0.8,1,0.8,1.9c0,0.9-0.3,1.6-1,2c-0.7,0.4-1.6,0.6-2.8,0.6c-1.2,0-3.1-0.2-5.5-0.5l-0.1,2.1l1,0.2
	c1.8,0.3,3.4,0.4,4.7,0.4c2,0,3.6-0.4,4.6-1.2c1.1-0.8,1.6-2,1.6-3.6c0-1.6-0.4-2.8-1.2-3.4c-0.8-0.6-2.1-1.1-4-1.4
	c-1.9-0.3-3.1-0.7-3.6-1c-0.5-0.3-0.8-0.8-0.8-1.6c0-1.6,1.2-2.4,3.5-2.4C1209.9,396.5,1211.8,396.6,1214.2,397 M1192.3,397l0.1-2
	l-0.9-0.2c-2-0.3-3.6-0.4-4.9-0.4c-1.6,0-3,0.4-4.1,1.1c-1.1,0.7-1.6,1.9-1.6,3.5s0.4,2.6,1.2,3.2c0.8,0.6,2.1,1,4,1.3
	c1.9,0.3,3.1,0.6,3.6,0.9c0.6,0.3,0.8,1,0.8,1.9c0,0.9-0.3,1.6-1,2c-0.6,0.4-1.6,0.6-2.8,0.6s-3.1-0.2-5.5-0.5l-0.1,2.1l1,0.2
	c1.8,0.3,3.3,0.4,4.7,0.4c2,0,3.6-0.4,4.6-1.2c1.1-0.8,1.6-2,1.6-3.6c0-1.6-0.4-2.8-1.2-3.4c-0.8-0.6-2.1-1.1-4-1.4
	c-1.9-0.3-3.1-0.7-3.6-1c-0.5-0.3-0.8-0.8-0.8-1.6c0-1.6,1.2-2.4,3.5-2.4C1188,396.5,1189.9,396.6,1192.3,397 M1177,388.2h-2.4v2.8
	h2.4V388.2z M1177,394.6h-2.4v16h2.4V394.6z M1152.8,397.4l0.6-0.2c1.3-0.5,2.6-0.7,3.9-0.7c1.4,0,2.3,0.4,2.8,1.2
	c0.4,0.8,0.7,2.3,0.7,4.6v8.4h2.4v-8.5c0-2.9-0.4-5-1.1-6.1c-0.7-1.2-2.2-1.7-4.3-1.7c-1.6,0-3.2,0.4-4.9,1.2v-7.9h-2.4l0,23l2.4,0
	L1152.8,397.4z M1147.5,394.6h-5.1l0-4.9h-2.4v4.9h-2.3v2.1h2.3v8.4c0,2.3,0.3,3.8,1,4.6c0.6,0.8,1.8,1.2,3.5,1.2
	c0.7,0,1.8-0.1,3.3-0.4l-0.2-2l-2.8,0.2c-1,0-1.6-0.3-1.9-0.9c-0.3-0.6-0.4-1.8-0.4-3.6v-7.6h5.1V394.6z M1134.4,387.7h-2.4v23h2.4
	V387.7z M1117.8,404c0.4-0.5,1.1-0.7,2.1-0.8l4.7-0.4v5.3l-0.7,0.3c-1.4,0.5-2.8,0.7-4.3,0.7c-1.6,0-2.4-1-2.4-2.9
	C1117.2,405.1,1117.4,404.4,1117.8,404 M1125.8,395.6c-0.8-0.8-2.1-1.2-4-1.2c-1.8,0-3.9,0.2-6.2,0.7l0.1,1.8l1-0.1
	c1.8-0.2,3.6-0.3,5.3-0.3c0.8,0,1.4,0.2,1.9,0.7c0.5,0.5,0.7,1.2,0.7,2.3v1.4l-5,0.5c-1.7,0.2-2.9,0.6-3.7,1.4
	c-0.8,0.7-1.2,1.9-1.2,3.4c0,1.6,0.4,2.8,1.1,3.6c0.8,0.8,1.9,1.2,3.4,1.2c1.9,0,3.8-0.4,5.8-1.3c0.9,0.9,2.1,1.3,3.8,1.3l0.1-1.9
	c-1.2-0.1-1.8-0.6-1.9-1.4l0-8.2C1127,397.7,1126.6,396.4,1125.8,395.6 M1101.3,401.7c0-1.9,0.4-3.2,1.1-4.1
	c0.7-0.9,1.8-1.3,3.2-1.3s2.4,0.4,3.1,1.2c0.6,0.8,0.9,2.2,0.9,4.2H1101.3z M1105.6,408.9c-1.6,0-2.7-0.4-3.3-1.3
	c-0.6-0.9-1-2.2-1-3.9h10.6l0.1-1.8c0-2.6-0.5-4.5-1.6-5.7c-1.1-1.2-2.7-1.8-4.8-1.8c-4.5,0-6.7,2.8-6.7,8.4c0,2.8,0.5,4.9,1.4,6.2
	c1,1.3,2.6,2,4.9,2c1.7,0,3.8-0.2,6.2-0.5l-0.1-1.9l-0.9,0.1C1108.8,408.8,1107.2,408.9,1105.6,408.9 M1094.7,410.6l0-22.1h-2.4v9.9
	H1081v-9.9h-2.5v22.1h2.5l0-10h11.3v10H1094.7z M1059.2,390.7l0,19.9h2.4v-19.9h6.8v-2.2h-16v2.2H1059.2z M1049.3,388.5h-2.5v22.1
	h2.5V388.5z M1042.6,410.6v-2.2h-11v-8h9.1v-2.1h-9.1l0-7.6h11v-2.2h-13.5l0,22.1H1042.6z"/>
</svg>
