<?xml version="1.0" encoding="utf-8"?>
<!-- Generator: Adobe Illustrator 22.1.0, SVG Export Plug-In . SVG Version: 6.00 Build 0)  -->
<svg version="1.1" id="Layer_1" xmlns="http://www.w3.org/2000/svg" xmlns:xlink="http://www.w3.org/1999/xlink" x="0px" y="0px"
	 viewBox="0 0 507.1 149.1" style="enable-background:new 0 0 507.1 149.1;" xml:space="preserve">
<style type="text/css">
	.st0{fill:#EDB155;}
	.st1{fill:#B4B4B5;}
</style>
<g>
	<path class="st0" d="M127.3,23.6c-5.4,0-10.6-0.1-15.9,0c-2.2,0.1-4.1-0.5-6-1.7c-6.8-4.3-14.3-7-22.3-8.2
		c-11.4-1.6-22.5-0.2-33.1,4.4C32.5,25.9,20.7,39,15,57.4c-2.2,7-2.8,14.2-2.3,21.5c0.7,9.3,3.2,18.1,7.4,26.3c0.5,1,1,1.3,2.1,1.3
		c12.9,0,25.9-0.1,38.8,0c8.4,0.1,14.5-3.6,18.8-10.6c2.6-4.2,3.9-8.8,4.5-13.6c0.3-2.1,0.2-4.2,0.3-6.3c0-0.7-0.2-1.3-0.6-1.9
		c-1.2-1.5-2.1-3.1-2.5-4.9c-0.9-4.1,0.5-7.4,3.8-9.9c5.8-4.4,14-1.6,15.8,5.4c0.5,2,0.4,4.1-0.6,6c-0.3,0.6-0.6,1.3-1,1.8
		c-1.4,1.5-1.5,3.2-1.5,5.1c0,10-2.7,19.2-8.7,27.3c-4.7,6.4-10.9,10.9-18.7,13c-2.6,0.7-5.2,1.1-7.9,1.1c-15.9,0-31.7,0-47.6,0
		c-0.9,0-1.4-0.3-1.9-1c-1.5-2.3-2.9-4.7-4.2-7.2c-0.4-0.8-0.9-1.5-1.3-2.3c-2.1-4-3.6-8.2-4.8-12.5C0.8,88.9-0.2,81.5,0,74
		c0.4-18.6,6.7-35,19.1-48.9C29.6,13.3,42.5,5.5,57.9,2c19.6-4.5,38-1.2,55.1,9.5c4.9,3.1,9.3,6.7,13.3,10.8
		c0.3,0.3,0.5,0.6,0.8,0.8C127.2,23.2,127.2,23.3,127.3,23.6z"/>
	<path class="st1" d="M22.2,128.6c0.5-0.3,1-0.2,1.5-0.2c5.3,0,10.5,0,15.8,0c1.3,0,2.4,0.3,3.6,0.9c5.2,3.1,10.8,5.1,16.7,6.3
		c2.7,0.6,5.3,0.9,8,1.2c3.8,0.4,7.7,0.4,11.5,0.2c6.3-0.4,12.4-1.9,18.3-4.2c5.6-2.3,10.8-5.2,15.4-9c5.8-4.7,10.8-10.2,14.7-16.6
		c3.5-5.7,6-11.9,7.4-18.4c0.8-3.3,1.2-6.7,1.4-10.1c0.1-1.5,0.2-3,0.2-4.5c-0.2-7.4-1.6-14.6-4.6-21.5c-0.9-2-2-4-3-6
		c-0.5-1-1.1-1.3-2.2-1.3c-10.3,0-20.5,0-30.8,0c-2,0-4,0-6,0c-3.9,0.1-7.8,0.2-11.6,1.1c-6.1,1.5-11.5,4.2-15.6,9.1
		c-2.4,2.9-3.9,6.2-4.3,10c-0.5,4.3-0.1,8.5-0.2,12.8c0,0.6,0.3,0.9,0.7,1.2c2.1,2,3,4.5,2.8,7.4c-0.2,4.7-4,9.2-9.5,9.3
		c-5,0.1-9.8-3.7-10.2-9.5c-0.2-2.9,0.9-5.4,2.9-7.5c0.6-0.7,0.8-1.4,0.8-2.2c0-3.2,0-6.3,0-9.5c0.1-7.7,2.7-14.4,7.5-20.4
		c4.8-6,10.9-10,18.1-12.5c4.8-1.7,9.7-2.6,14.8-2.6c15.8,0,31.6,0,47.4,0c1,0,1.7,0.3,2.2,1.2c1.9,3.1,3.8,6.3,5.3,9.7
		c1.6,3.3,3,6.7,4.2,10.2c1.6,4.7,2.7,9.5,3.1,14.5c0.2,2.6,0.6,5.2,0.5,7.8c-0.1,4.5-0.5,8.9-1.3,13.3c-1.3,6.7-3.4,13-6.5,19.1
		c-2.8,5.5-6.3,10.6-10.3,15.3c-4.6,5.3-9.9,9.9-15.8,13.7c-8.1,5.3-16.9,8.8-26.5,10.6c-3.2,0.6-6.4,1-9.7,1.2
		c-2.2,0.2-4.5,0.3-6.7,0.2c-4.4-0.2-8.7-0.5-13-1.3c-5.6-1-10.9-2.6-16.2-4.7c-5.8-2.4-11.2-5.6-16.1-9.6c-1.5-1.3-3-2.6-4.5-3.9
		C22.6,129.3,22.3,129.1,22.2,128.6z"/>
	<path class="st0" d="M336.6,84.3c1.7,1.9,3.2,3.7,4.8,5.5c4.5,5.1,9,10.1,13.5,15.2c0.3,0.4,1,0.7,0.7,1.3c-0.3,0.6-1,0.3-1.4,0.3
		c-3.8,0-7.7,0-11.5,0c-0.8,0-1.4-0.2-2-0.9c-5.5-6.4-11.1-12.7-16.6-19.1c-0.8-0.9-1.6-1.3-2.7-1.2c-2.9,0.1-5.7,0-8.6,0
		c-1.3,0-1.3,0-1.3,1.3c0,6.1,0,12.2,0,18.2c0,1.7,0.1,1.6-1.6,1.6c-3.1,0-6.2,0-9.3,0c-1,0-1,0-1.1-1.1c0-0.2,0-0.5,0-0.7
		c0-19.9,0-39.9,0-59.8c0-2-0.2-1.8,1.8-1.8c9.4,0,18.9,0,28.3,0.1c3.5,0,7,0.5,10.2,1.9c7.2,3.1,11.3,8.6,12.5,16.3
		c0.4,2.9,0.2,5.8-0.5,8.7c-1.8,7.2-6.5,11.5-13.5,13.5C337.7,83.8,337.2,83.9,336.6,84.3z M311.4,64.4c0,2.9,0,5.7,0,8.6
		c0,0.3,0,0.6,0,0.9c0,0.5,0.2,0.7,0.7,0.7c0.3,0,0.7,0,1,0c5.2,0,10.4,0,15.6,0c1.1,0,2.1-0.1,3.2-0.2c3.9-0.6,6.7-2.6,8-6.4
		c1.3-4,0.7-7.7-2.3-10.8c-2.1-2.1-4.7-2.9-7.6-2.9c-5.8-0.1-11.7,0-17.5,0c-1,0-1.1,0-1.1,1.1C311.4,58.4,311.4,61.4,311.4,64.4z"
		/>
	<path class="st0" d="M495.2,82c0-4.9,0-9.7,0-14.5c0-7.5,0-15,0-22.5c0-0.4,0-0.8,0-1.2c0-0.6,0.2-0.8,0.8-0.8c3.5,0,6.9,0,10.4,0
		c0.7,0,0.9,0.3,0.8,0.9c0,0.3,0,0.7,0,1c0,19.9,0,39.8,0,59.7c0,2,0.2,1.8-1.8,1.8c-1.6,0-3.1,0-4.7,0c-0.8,0-1.3-0.3-1.8-0.9
		c-3.9-5.1-7.9-10.1-11.8-15.2c-6.6-8.4-13.1-16.9-19.7-25.3c-0.2-0.3-0.4-0.7-1-0.8c0,0.5,0,1.1,0,1.6c0,12.7,0,25.5,0,38.2
		c0,0.3,0,0.7,0,1c0,1.5,0.1,1.4-1.4,1.4c-3.2,0-6.3,0-9.5,0c-1,0-1,0-1.1-1.1c0-0.3,0-0.6,0-0.9c0-19.8,0-39.7,0-59.5
		c0-0.2,0-0.4,0-0.6c0-1.3,0-1.3,1.3-1.3c2.4,0,4.8,0,7.1,0c0.9,0,1.5,0.3,2.1,1c6.8,8.7,13.7,17.4,20.6,26.1
		c2.9,3.7,5.8,7.4,8.8,11.1C494.5,81.6,494.6,82,495.2,82z"/>
	<path class="st0" d="M378.5,74.9c0-10,0-19.9,0-29.9c0-1.9-0.2-1.8,1.7-1.8c14.7,0,29.5,0,44.2,0c1.7,0,1.6-0.1,1.6,1.6
		c0,2.8,0,5.6,0,8.5c0,1.7,0.1,1.6-1.6,1.6c-10.4,0-20.8,0-31.2,0c-0.9,0-2-0.4-2.5,0.2c-0.7,0.6-0.2,1.7-0.2,2.6
		c0,3.4,0,6.8,0,10.2c0,1.5,0,1.5,1.5,1.5c10.3,0,20.5,0,30.8,0c2.3,0,2-0.3,2,2c0,2.5,0,5,0,7.4c0,1.9,0.1,1.7-1.8,1.7
		c-10.2,0-20.4,0-30.6,0c-2.2,0-1.9-0.3-1.9,1.9c0,3.6,0,7.2,0,10.8c0,1.7-0.1,1.5,1.6,1.5c10.5,0,20.9,0,31.4,0c0.3,0,0.7,0,1,0
		c1.7,0,1.6-0.1,1.6,1.6c0,3,0,5.9,0,8.9c0,1.3,0,1.3-1.3,1.3c-8.3,0-16.5,0-24.8,0c-6.5,0-12.9,0-19.4,0c-0.3,0-0.6,0-0.9,0
		c-1.1,0-1.1,0-1.1-1.2c0-4.9,0-9.8,0-14.7C378.5,85.4,378.5,80.1,378.5,74.9z"/>
	<path class="st0" d="M204,41.1c4.6-0.1,9.1,0.6,13.4,2.3c4.5,1.8,8,4.8,10.4,9c0.6,1.1,0.6,1.2-0.5,1.7c-2.5,1.3-5,2.6-7.5,3.9
		c-0.6,0.3-1,0.3-1.4-0.3c-3-3.7-7.1-5.5-11.7-6.1c-3-0.4-6-0.3-9,0.6c-1.9,0.5-3.6,1.4-5,2.8c-1.4,1.5-2,3.3-1.9,5.3
		c0.1,1.6,0.9,2.9,2.1,3.9c1.4,1.1,3,1.7,4.7,2.2c2.8,0.8,5.7,1.1,8.6,1.5c4.8,0.6,9.5,1.5,13.9,3.5c5.3,2.4,8.8,6.3,9.9,12.1
		c1,5.8,0.3,11.4-3.6,16.1c-2.8,3.4-6.5,5.4-10.6,6.7c-5.2,1.6-10.6,2-16,1.6c-4-0.3-7.9-1-11.6-2.6c-5.5-2.4-9.3-6.5-11.7-11.9
		c-0.3-0.6-0.3-1,0.4-1.4c2.8-1.4,5.6-2.9,8.4-4.4c0.6-0.3,0.8-0.2,1.1,0.4c2.2,4.6,6,7.2,10.8,8.4c4.9,1.3,9.7,1.2,14.5-0.3
		c1.4-0.4,2.6-1.1,3.7-2c3.6-2.7,4.7-9.4-0.6-12.6c-2.5-1.5-5.4-2.3-8.3-2.7c-4.1-0.6-8.2-1-12.2-2.1c-3.5-1-6.9-2.2-9.8-4.6
		c-3.2-2.6-4.9-6.1-5.4-10.1c-0.2-2-0.3-4.1,0.1-6.1c1-5.2,4.1-8.8,8.6-11.4c4-2.3,8.4-3.3,12.9-3.7C201.9,41.1,202.9,41.1,204,41.1
		z"/>
	<path class="st0" d="M258,74.8c0-10,0-20,0-30.1c0-1.7-0.1-1.6,1.6-1.6c3.1,0,6.1,0,9.2,0c1.1,0,1.1,0,1.1,1.1c0,1.4,0,2.7,0,4.1
		c0,18.8,0,37.5,0,56.3c0,2,0.2,1.8-1.8,1.8c-2.9,0-5.8,0-8.8,0c-1.4,0-1.4,0-1.4-1.3c0-6.8,0-13.5,0-20.3
		C258,81.5,258,78.2,258,74.8z"/>
</g>
</svg>
