<?xml version="1.0" encoding="UTF-8" standalone="no"?>
<svg width="485px" height="128px" viewBox="0 0 485 128" version="1.1" xmlns="http://www.w3.org/2000/svg" xmlns:xlink="http://www.w3.org/1999/xlink" xmlns:sketch="http://www.bohemiancoding.com/sketch/ns">
    <!-- Generator: Sketch 3.1.1 (8761) - http://www.bohemiancoding.com/sketch -->
    <title>SD_long</title>
    <desc>Created with Sketch.</desc>
    <defs></defs>
    <g id="Page-1" stroke="none" stroke-width="1" fill="none" fill-rule="evenodd" sketch:type="MSPage">
        <g id="SD_long" sketch:type="MSLayerGroup" transform="translate(1.000000, 1.000000)">
            <path d="M33.267,112.696 C33.267,116.937 31.744,120.322 28.704,122.846 C25.659,125.37 21.52,126.63 16.286,126.63 C9.541,126.63 3.951,124.419 -0.482,119.995 L2.209,117.31 C4.426,119.52 6.599,121.061 8.723,121.927 C10.849,122.796 13.445,123.23 16.514,123.23 C20.525,123.23 23.688,122.314 26.003,120.475 C28.317,118.634 29.473,116.091 29.473,112.837 C29.473,109.724 28.55,107.372 26.708,105.768 C25.243,104.494 22.808,103.598 19.406,103.081 L13.52,102.16 C4.869,100.791 0.545,96.479 0.545,89.221 C0.545,85.026 1.951,81.679 4.765,79.183 C7.578,76.681 11.394,75.434 16.217,75.434 C21.7,75.434 26.547,77.244 30.755,80.861 L28.278,83.325 C24.781,80.226 20.699,78.671 16.024,78.671 C12.389,78.671 9.533,79.605 7.456,81.466 C5.378,83.329 4.34,85.864 4.34,89.07 C4.34,91.992 5.21,94.187 6.955,95.648 C8.843,97.254 11.342,98.289 14.454,98.761 L19.899,99.608 C23.955,100.221 26.949,101.33 28.88,102.933 C31.804,105.34 33.267,108.593 33.267,112.696" id="Shape" fill="#000000" sketch:type="MSShapeGroup"></path>
            <path d="M77.226,90.328 C77.226,94.807 75.805,98.345 72.965,100.934 C70.127,103.531 66.459,104.823 61.964,104.823 L47.271,104.823 L47.271,126.236 L43.477,126.236 L43.477,75.826 L61.981,75.826 C66.472,75.826 70.136,77.126 72.97,79.719 C75.807,82.312 77.226,85.849 77.226,90.328 M73.431,90.328 C73.431,86.651 72.318,83.846 70.091,81.914 C68.005,80.123 65.161,79.228 61.559,79.228 L47.271,79.228 L47.271,101.429 L61.559,101.429 C65.161,101.429 68.041,100.494 70.197,98.635 C72.353,96.774 73.431,94.002 73.431,90.328" id="Shape" fill="#000000" sketch:type="MSShapeGroup"></path>
            <path d="M115.059,126.236 L110.951,126.236 L106.559,113.992 L83.043,113.992 L78.651,126.236 L74.542,126.236 L93.101,75.828 L96.501,75.828 L115.059,126.236 L115.059,126.236 Z M105.354,110.59 L94.8,80.919 L84.247,110.59 L105.354,110.59 L105.354,110.59 Z" id="Shape" fill="#000000" sketch:type="MSShapeGroup"></path>
            <path d="M149.521,126.236 L118.852,126.236 L118.852,122.199 L145.414,79.227 L119.916,79.227 L119.916,75.828 L149.521,75.828 L149.521,79.227 L122.749,122.837 L149.521,122.837 L149.521,126.236 Z" id="Shape" fill="#000000" sketch:type="MSShapeGroup"></path>
            <rect id="Rectangle-path" fill="#000000" sketch:type="MSShapeGroup" x="161" y="76" width="3.792" height="50.411"></rect>
            <path d="M210.28,101.03 C210.28,107.396 210.069,111.663 209.643,113.831 C209.077,116.801 207.734,119.348 205.612,121.468 C202.168,124.909 197.968,126.631 193.01,126.631 C188.057,126.631 183.855,124.909 180.411,121.468 C178.289,119.348 176.945,116.801 176.38,113.831 C175.955,111.663 175.744,107.396 175.744,101.03 C175.744,94.669 175.955,90.402 176.38,88.23 C176.945,85.263 178.289,82.717 180.411,80.594 C183.855,77.155 188.057,75.435 193.01,75.435 C197.968,75.435 202.168,77.155 205.612,80.594 C207.734,82.717 209.077,85.263 209.643,88.23 C210.068,90.402 210.28,94.668 210.28,101.03 M206.488,101.03 C206.488,95.234 206.296,91.272 205.922,89.151 C205.397,86.562 204.287,84.419 202.586,82.721 C199.983,80.128 196.792,78.832 193.01,78.832 C189.227,78.832 186.037,80.128 183.436,82.721 C181.733,84.419 180.624,86.562 180.103,89.151 C179.725,91.272 179.536,95.234 179.536,101.03 C179.536,106.832 179.725,110.792 180.103,112.913 C180.624,115.502 181.733,117.647 183.436,119.345 C186.037,121.937 189.227,123.232 193.01,123.232 C196.792,123.232 199.983,121.937 202.586,119.345 C204.287,117.648 205.397,115.502 205.922,112.913 C206.295,110.792 206.488,106.832 206.488,101.03" id="Shape" fill="#000000" sketch:type="MSShapeGroup"></path>
            <path d="M258.595,100.82 C258.595,106.438 258.449,110.118 258.169,111.864 C257.557,115.735 255.999,118.921 253.497,121.421 C250.291,124.629 245.853,126.236 240.19,126.236 L222,126.236 L222,75.828 L240.191,75.828 C245.854,75.828 250.292,77.436 253.498,80.644 C256,83.146 257.558,86.258 258.17,89.989 C258.449,91.686 258.595,95.298 258.595,100.82 M248.714,100.82 C248.714,96.758 248.597,93.902 248.362,92.248 C248.081,90.315 247.497,88.804 246.6,87.716 C244.912,85.641 242.47,84.598 239.273,84.598 L231.878,84.598 L231.878,117.465 L239.273,117.465 C242.47,117.465 244.912,116.427 246.6,114.351 C247.496,113.263 248.08,111.683 248.362,109.603 C248.597,107.855 248.714,104.926 248.714,100.82" id="Shape" fill="#000000" sketch:type="MSShapeGroup"></path>
            <path d="M306.763,126.235 L296.492,126.235 L293.519,117.306 L275.597,117.306 L272.552,126.235 L262.281,126.235 L280.624,75.827 L288.345,75.827 L306.763,126.235 L306.763,126.235 Z M290.899,109.011 L284.735,90.693 L278.361,109.011 L290.899,109.011 L290.899,109.011 Z" id="Shape" fill="#000000" sketch:type="MSShapeGroup"></path>
            <path d="M340.171,84.598 L327.058,84.598 L327.058,126.236 L317.176,126.236 L317.176,84.598 L303.977,84.598 L303.977,75.826 L340.171,75.826 L340.171,84.598 Z" id="Shape" fill="#000000" sketch:type="MSShapeGroup"></path>
            <rect id="Rectangle-path" fill="#000000" sketch:type="MSShapeGroup" x="350" y="76" width="9.879" height="50.411"></rect>
            <g id="Group" transform="translate(357.000000, 0.000000)" sketch:type="MSShapeGroup">
                <g id="Clipped" transform="translate(0.000000, 47.000000)" fill="#000000">
                    <path d="M54.356,7.96 C52.054,10.257 50.919,13.251 50.916,16.269 C50.92,19.277 52.062,22.269 54.356,24.568 C56.653,26.863 59.647,28.001 62.662,28.005 C65.675,28.001 68.666,26.864 70.966,24.569 L70.965,24.568 C73.262,22.266 74.403,19.274 74.406,16.262 C74.403,13.248 73.265,10.257 70.969,7.96 C68.663,5.662 65.673,4.523 62.661,4.521 C59.647,4.523 56.655,5.662 54.356,7.96 L54.356,7.96 Z M-0.309,76.179 L49.879,25.991 C47.693,23.13 46.595,19.693 46.597,16.269 C46.595,12.166 48.167,8.036 51.304,4.908 C54.434,1.771 58.558,0.199 62.661,0.201 C66.764,0.199 70.888,1.773 74.02,4.905 C77.152,8.036 78.727,12.16 78.724,16.262 C78.727,20.364 77.148,24.486 74.02,27.62 L72.493,26.095 L74.018,27.62 C70.887,30.754 66.763,32.327 62.661,32.324 C59.235,32.327 55.797,31.23 52.932,29.045 L2.744,79.235 L-0.309,76.179 L-0.309,76.179 Z" id="Shape"></path>
                </g>
                <rect id="Rectangle-path" fill="#000000" x="62" y="22" width="1.729" height="26.936"></rect>
                <g id="Clipped" transform="translate(51.000000, 0.000000)" fill="#B7D43B">
                    <path d="M2.182,11.647 C2.191,16.883 6.423,21.12 11.662,21.128 C16.898,21.12 21.133,16.883 21.143,11.647 C21.132,6.411 16.898,2.174 11.662,2.165 C6.423,2.174 2.19,6.411 2.182,11.647 M-0.412,11.647 C-0.412,4.978 4.99,-0.428 11.662,-0.428 C18.331,-0.428 23.737,4.978 23.737,11.647 C23.737,18.315 18.331,23.721 11.662,23.721 C4.99,23.721 -0.412,18.315 -0.412,11.647" id="Shape"></path>
                </g>
                <rect id="Rectangle-path" fill="#000000" x="77" y="62" width="26.936" height="1.73"></rect>
                <g id="Clipped" transform="translate(102.000000, 51.000000)" fill="#0099CE">
                    <path d="M0.205,12.263 C0.205,5.594 5.61,0.19 12.277,0.19 C18.946,0.19 24.351,5.594 24.351,12.263 C24.351,18.932 18.946,24.337 12.277,24.337 L12.277,23.041 L12.277,21.746 C17.514,21.735 21.75,17.498 21.759,12.263 C21.749,7.027 17.514,2.79 12.277,2.782 C7.043,2.79 2.807,7.027 2.796,12.263 C2.808,17.498 7.043,21.735 12.277,21.746 L12.277,23.041 L12.277,24.337 C5.61,24.337 0.205,18.932 0.205,12.263" id="Shape"></path>
                </g>
                <rect id="Rectangle-path" fill="#000000" transform="translate(81.692035, 44.281448) rotate(135.004051) translate(-81.692035, -44.281448) " x="68.2227121" y="43.4163955" width="26.9386465" height="1.73010574"></rect>
                <g id="Clipped" transform="translate(87.000000, 15.000000)" fill="#F8A728">
                    <path d="M5.458,5.063 C3.602,6.914 2.681,9.331 2.681,11.765 C2.681,14.194 3.602,16.614 5.458,18.47 C7.308,20.323 9.729,21.245 12.16,21.245 C14.59,21.245 17.009,20.324 18.865,18.472 C20.717,16.613 21.64,14.195 21.64,11.771 C21.637,9.337 20.719,6.917 18.864,5.061 C17.007,3.208 14.59,2.286 12.16,2.283 C9.729,2.286 7.311,3.208 5.458,5.063 M3.624,20.303 C1.268,17.948 0.084,14.847 0.087,11.765 C0.084,8.678 1.268,5.58 3.624,3.227 C5.977,0.871 9.075,-0.309 12.16,-0.307 C15.246,-0.309 18.342,0.874 20.698,3.227 C23.053,5.583 24.234,8.684 24.234,11.771 C24.234,14.853 23.049,17.948 20.7,20.303 L19.782,19.389 L20.698,20.307 C18.342,22.657 15.243,23.837 12.16,23.837 C9.075,23.837 5.977,22.657 3.624,20.303" id="Shape"></path>
                </g>
                <rect id="Rectangle-path" fill="#000000" transform="translate(43.943224, 43.914539) rotate(134.918971) translate(-43.943224, -43.914539) " x="43.078731" y="30.4451542" width="1.72898515" height="26.9387686"></rect>
                <g id="Clipped" transform="translate(14.000000, 15.000000)" fill="#A1216E">
                    <path d="M12.162,23.835 L12.162,23.835 C5.493,23.836 0.091,18.429 0.091,11.765 C0.091,5.097 5.496,-0.308 12.165,-0.308 L12.165,0.987 L12.165,2.282 C6.93,2.293 2.695,6.53 2.684,11.765 C2.696,16.995 6.926,21.234 12.163,21.244 C12.186,21.244 12.211,21.244 12.236,21.245 C17.438,21.197 21.634,16.978 21.646,11.765 C21.634,6.53 17.4,2.293 12.166,2.282 L12.166,0.987 L12.166,-0.308 C18.832,-0.308 24.238,5.097 24.238,11.765 C24.238,18.431 18.832,23.836 12.166,23.836 C12.163,23.835 12.162,23.835 12.162,23.835" id="Shape"></path>
                </g>
                <rect id="Rectangle-path" fill="#000000" transform="translate(82.222990, 82.574452) rotate(134.991897) translate(-82.222990, -82.574452) " x="81.3589979" y="69.1075808" width="1.72798345" height="26.933742"></rect>
                <g id="Clipped" transform="translate(87.000000, 88.000000)" fill="#F15A33">
                    <path d="M2.676,11.762 C2.688,16.996 6.922,21.233 12.161,21.244 C17.394,21.232 21.63,16.996 21.64,11.762 C21.64,6.527 17.395,2.282 12.161,2.279 C6.922,2.289 2.688,6.527 2.676,11.762 M0.086,11.762 C0.086,5.092 5.49,-0.312 12.161,-0.312 C18.829,-0.312 24.232,5.092 24.232,11.762 C24.232,18.431 18.829,23.835 12.161,23.835 C5.49,23.835 0.086,18.431 0.086,11.762" id="Shape"></path>
                </g>
            </g>
        </g>
    </g>
</svg>