<svg viewBox="0 0 60 60">
	<path d="M30 14.3952C21.5323 14.3952 14.5162 21.2904 14.5162 29.8791C14.5162 38.4678 21.4113 45.3629 30 45.3629C38.5888 45.3629 45.4839 38.3468 45.4839 29.8791C45.4839 21.4113 38.4678 14.3952 30 14.3952ZM30 39.7984C24.5565 39.7984 20.0807 35.3226 20.0807 29.8791C20.0807 24.4355 24.5565 19.9597 30 19.9597C35.4436 19.9597 39.9194 24.4355 39.9194 29.8791C39.9194 35.3226 35.4436 39.7984 30 39.7984Z" />
	<path d="M46.0887 17.5404C48.0261 17.5404 49.5968 15.9697 49.5968 14.0323C49.5968 12.0948 48.0261 10.5242 46.0887 10.5242C44.1512 10.5242 42.5806 12.0948 42.5806 14.0323C42.5806 15.9697 44.1512 17.5404 46.0887 17.5404Z" />
	<path d="M55.1613 4.95968C52.0161 1.69355 47.5403 0 42.4597 0H17.5403C7.01613 0 0 7.01613 0 17.5403V42.3387C0 47.5403 1.69355 52.0161 5.08064 55.2823C8.34677 58.4274 12.7016 60 17.6613 60H42.3387C47.5403 60 51.8952 58.3064 55.0403 55.2823C58.3064 52.1371 60 47.6613 60 42.4597V17.5403C60 12.4597 58.3064 8.10484 55.1613 4.95968ZM54.6774 42.4597C54.6774 46.2097 53.3468 49.2339 51.1694 51.2903C48.9919 53.3468 45.9677 54.4355 42.3387 54.4355H17.6613C14.0323 54.4355 11.0081 53.3468 8.83064 51.2903C6.65323 49.1129 5.56452 46.0887 5.56452 42.3387V17.5403C5.56452 13.9113 6.65323 10.8871 8.83064 8.70968C10.8871 6.65323 14.0323 5.56452 17.6613 5.56452H42.5806C46.2097 5.56452 49.2339 6.65323 51.4113 8.83064C53.4677 11.0081 54.6774 14.0323 54.6774 17.5403V42.4597Z" />
</svg>
