<svg viewBox="0 0 60 60">
  <path fill-rule="evenodd" clip-rule="evenodd" d="M55.6543 0H4.52286C2.07714 0 0 1.93429 0 4.31714V55.68C0 58.0657 1.36286 60 3.80857 60H54.94C57.3886 60 60 58.0657 60 55.68V4.31714C60 1.93429 58.1028 0 55.6543 0ZM22.8571 22.8571H30.9343V26.9743H31.0229C32.2543 24.7543 35.8914 22.5 40.3886 22.5C49.02 22.5 51.4286 27.0829 51.4286 35.5714V51.4286H42.8571V37.1343C42.8571 33.3343 41.34 30 37.7914 30C33.4829 30 31.4286 32.9171 31.4286 37.7057V51.4286H22.8571V22.8571ZM8.57143 51.4286H17.1429V22.8571H8.57143V51.4286ZM18.2143 12.8571C18.2146 13.5606 18.0764 14.2571 17.8074 14.9071C17.5385 15.5571 17.1442 16.1477 16.647 16.6453C16.1498 17.1428 15.5594 17.5376 14.9097 17.807C14.2599 18.0764 13.5634 18.2151 12.86 18.2153C12.1566 18.2155 11.46 18.0771 10.8101 17.8081C10.1602 17.539 9.56963 17.1446 9.07216 16.6473C8.57469 16.15 8.18005 15.5596 7.91079 14.9097C7.64152 14.2599 7.50291 13.5634 7.50286 12.86C7.50274 11.4398 8.06676 10.0776 9.07085 9.07317C10.0749 8.06873 11.4369 7.50425 12.8571 7.50387C14.2774 7.50349 15.6396 8.06725 16.6443 9.07115C17.6489 10.0751 18.2136 11.4369 18.2143 12.8571Z" />
</svg>