<svg viewBox="0 0 60 60">
	<path d="M60 30C60 46.5685 46.5685 60 30 60C13.4315 60 0 46.5685 0 30C0 13.4315 13.4315 0 30 0C46.5685 0 60 13.4315 60 30ZM31.0491 22.1316C28.1265 23.3555 22.3064 25.8784 13.5637 29.6753C12.1648 30.2498 11.4155 30.7993 11.3405 31.3489C11.2299 32.2781 12.393 32.639 13.962 33.126C14.1645 33.1888 14.3737 33.2537 14.5878 33.3222C16.1365 33.8218 18.1848 34.3963 19.2589 34.4213C20.2331 34.4463 21.3072 34.0466 22.5062 33.2223C30.6744 27.7019 34.8709 24.9042 35.1457 24.8543C35.3455 24.8043 35.5953 24.7544 35.7702 24.9042C35.945 25.0541 35.945 25.3539 35.92 25.4288C35.8009 25.9254 30.9279 30.4492 28.7104 32.5079C28.1391 33.0382 27.744 33.405 27.6519 33.4971C27.4177 33.7383 27.1791 33.9666 26.9497 34.1862C25.5159 35.5586 24.4399 36.5885 27.0025 38.2681C28.1674 39.0372 29.1071 39.6783 30.0324 40.3096C31.1506 41.0725 32.248 41.8212 33.6969 42.7644C34.0382 42.9885 34.365 43.221 34.6839 43.4478C35.9282 44.333 37.051 45.1318 38.4429 45.0125C39.2423 44.9376 40.0666 44.1882 40.4912 41.9401C41.4904 36.6445 43.4388 25.1291 43.8884 20.383C43.9384 19.9834 43.8884 19.4588 43.8384 19.209C43.7885 18.9592 43.7136 18.6345 43.4138 18.3847C43.0391 18.0849 42.4896 18.035 42.2398 18.035C41.1157 18.06 39.3672 18.6595 31.0491 22.1316Z" />
</svg>