<svg viewBox="0 0 80 58">
  <path d="M79.2 12.89C79.2 12.89 78.4175 7.33812 76.02 4.89375C72.9775 1.68375 69.5675 1.66875 68.005 1.4825C56.81 0.66687 40.0175 0.66687 40.0175 0.66687H39.9825C39.9825 0.66687 23.19 0.66687 11.995 1.4825C10.43 1.66875 7.0225 1.68375 3.9775 4.89375C1.58 7.33875 0.8 12.89 0.8 12.89C0.8 12.89 0 19.4112 0 25.9294V32.0425C0 38.5631 0.8 45.0819 0.8 45.0819C0.8 45.0819 1.58 50.6337 3.9775 53.0781C7.0225 56.2881 11.02 56.1875 12.8 56.5225C19.2 57.1419 40 57.3331 40 57.3331C40 57.3331 56.81 57.3081 68.005 56.4925C69.5675 56.3037 72.9775 56.2887 76.02 53.0787C78.4175 50.6337 79.2 45.0825 79.2 45.0825C79.2 45.0825 80 38.5637 80 32.0425V25.9294C80 19.4112 79.2 12.89 79.2 12.89ZM31.74 39.45L31.7375 16.8131L53.3525 28.1706L31.74 39.45Z" />
</svg>
