<?xml version="1.0" encoding="utf-8"?>
<!-- Generator: Adobe Illustrator 22.1.0, SVG Export Plug-In . SVG Version: 6.00 Build 0)  -->
<svg version="1.1" id="Layer_1" xmlns="http://www.w3.org/2000/svg" xmlns:xlink="http://www.w3.org/1999/xlink" x="0px" y="0px"
	 viewBox="0 0 513.5 199.3" style="enable-background:new 0 0 513.5 199.3;" xml:space="preserve">
<style type="text/css">
	.st0{fill:#62AEB2;}
	.st1{fill:#E47128;}
	.st2{fill:#E5AD24;}
	.st3{fill:#00878F;}
	.st4{fill:#8C7965;}
</style>
<g id="LOGO">
	<g>
		<path class="st0" d="M132,47.9l0.9-1.6c-8.1-4.3-16.4-7.1-24.8-8.3c-3.5-0.5-7-0.7-10.4-0.7c-27.6,0-52.3,16.6-61.4,41.3l8.9,3.3
			c7.8-21,28.9-35.1,52.6-35.1c3,0,6,0.2,9,0.6c16,2.3,31.4,11,45.8,26l5.2-5C150.7,60.8,142.1,53.4,132,47.9z"/>
		<path class="st0" d="M67.2,158.5C43.4,147.5,28,124.1,28,98.9c0-12.7,3.7-25,10.8-35.6c2.7-4,5.9-7.8,9.4-11.2l4.4,4.6
			c-3.2,3.1-6.1,6.5-8.5,10.1c-6.4,9.5-9.7,20.6-9.7,32.1c0,23,13.6,43.7,35.5,53.9L67.2,158.5z"/>
		<path class="st0" d="M183.1,106.7l-2.7-6.4c-0.2-0.5-0.6-1.2-1-1.9c-4.8,9.1-30,53.4-71.5,59.3c-3.4,0.5-6.9,1.6-10.2,1.6
			c-9.7,0-18.9-2-27.5-6L67,159c9.6,4.5,19.9,6.7,30.7,6.7c3.7,0,7.4-0.3,11.1-0.8c40-5.7,65.3-42.3,74.6-58.4L183.1,106.7z"/>
		<path class="st1" d="M191.9,137.6c-8.1,11-17.1,20.6-26.7,28.4l2.3,2.9c9.5-7.7,18.4-17.1,26.4-27.8c16.5,22.5,44,49.2,83.8,54.9
			l0.9-6.6c-40.7-5.8-68-34.6-84.2-59.1C193.8,129,191.9,137.6,191.9,137.6z"/>
		<path class="st2" d="M298.2,165c-5.3,0.3-10.6,0.1-16-0.6c-12.2-1.7-24.1-6.6-35.2-14.5l-3.5,4.9c11.9,8.4,24.7,13.7,37.8,15.6
			c4,0.6,8,0.9,11.9,0.9c1.7,0,3.3-0.1,4.9-0.2V165z"/>
		<path class="st1" d="M186.3,105.3l-3.2,1.4l-2.7-6.4c-2.1-4-9.7-18.3-22.6-32l-5.2,5c11.3,11.7,18,23.4,20.4,27.8l9.6,16.8
			l8.2-4.7L186.3,105.3z"/>
		<path class="st0" d="M293.3,159.7c-3.4,0-6.9-0.2-10.3-0.7c-42.8-6.1-67.9-49.6-72.4-58.2l6.6-3.5c2.6,5,26.8,48.6,66.9,54.3
			c3.1,0.4,6.1,0.7,9.2,0.7L293.3,159.7L293.3,159.7z"/>
		<path class="st3" d="M352.9,82.2c-2.9-9.3-8.2-17.8-15.4-24.7c-9.5-9-21.5-14.8-34.7-16.7l1.2-8.5c15.1,2.1,28.7,8.7,39.5,19
			c8.3,7.9,14.4,17.7,17.7,28.4L352.9,82.2z"/>
		<path class="st3" d="M238.3,54.9l-4-4.6c14.6-12.8,30.4-20.5,47.1-22.9c3.9-0.6,7.9-0.8,11.9-0.8c20.3,0,39.4,7.5,53.6,21.1
			l-4.2,4.4c-13.1-12.5-30.6-19.4-49.4-19.4c-3.6,0-7.3,0.3-11,0.8C266.8,35.8,252,43,238.3,54.9z"/>
		<path class="st2" d="M207.2,114.6L186,104.5l5.1-10.6c3.3-6.9,15.7-30.9,37.5-50.1l8.8-7.8l15.5,17.7l-8.8,7.8
			c-18.9,16.6-29.8,38.3-31.8,42.5L207.2,114.6z"/>
		<path class="st3" d="M27.3,127.3c-3.9-9-5.9-18.5-5.9-28.4c0-19.6,7.9-37.9,22.2-51.6c5-4.8,10.7-8.9,16.8-12.2l3.5,6.5
			c-5.5,3-10.7,6.6-15.2,11c-12.9,12.3-20,28.8-20,46.3c0,8.9,1.8,17.4,5.3,25.4L27.3,127.3z"/>
		<path class="st2" d="M52.6,56.7l-4.4-4.6c13.1-12.6,30.7-19.5,49.5-19.5c3.7,0,7.4,0.3,11,0.8c9,1.3,17.8,4.3,26.3,8.8l-3.1,5.6
			c-7.8-4.2-15.9-7-24.2-8.1c-3.4-0.5-6.8-0.7-10.1-0.7C80.6,39,64.6,45.3,52.6,56.7z"/>
		<path class="st2" d="M8.7,98.9H4.7c0-24.1,9.7-46.7,27.4-63.6l2.7,2.8C18,54.3,8.7,75.9,8.7,98.9z"/>
		<path class="st3" d="M163.9,31.9C148,19.2,130.6,11.5,112.2,8.8c-4.8-0.7-9.7-1-14.5-1c-19.1,0-37.4,5.4-53,15.5l-2.9-4.4
			C58.3,8.2,77.6,2.6,97.7,2.6c5.1,0,10.2,0.4,15.3,1.1c19.3,2.8,37.6,10.9,54.2,24.1L163.9,31.9z"/>
		<path class="st3" d="M200.6,65.8l-10.3-7.3C206.8,35.2,235.3,6,277.5,0l1.8,12.5C241.6,17.9,215.7,44.5,200.6,65.8z"/>
		<path class="st0" d="M212.5,67.3l-7.3-5.5c14.4-19.1,39.1-42.9,74.3-48c4.6-0.7,9.2-1,13.8-1c11.9,0,23.4,2.2,34.2,6.4l-3.4,8.5
			C314.3,24,304,22,293.3,22c-4.2,0-8.4,0.3-12.5,0.9C248.6,27.5,225.9,49.6,212.5,67.3z"/>
		<path class="st0" d="M197.7,82.2l-10.2-4.2l3-7.5l0.3-0.4c13.2-20.9,42.1-56.9,87.6-63.4c4.9-0.7,9.9-1.1,14.8-1.1v11
			c-4.4,0-8.9,0.3-13.3,0.9c-38.8,5.5-64.7,34.5-79.6,57.9L197.7,82.2z"/>
		<path class="st0" d="M197.6,70.9l-5.3-6.5C183.5,52,173.7,41.4,163,32.9l4.9-6.1c11.2,8.9,21.5,20,30.7,33l5,6.2L197.6,70.9z"/>
		<path class="st1" d="M359.9,34.2c-17.8-17-41.4-26.4-66.6-26.4c-4.8,0-9.7,0.3-14.5,1L278,3.7c5.1-0.7,10.2-1.1,15.3-1.1
			c26.5,0,51.5,9.9,70.2,27.8L359.9,34.2z"/>
		<path class="st3" d="M111,180.1l-1.9-13.3c53.4-7.6,80-69.8,80.2-70.4c1.2-2.8,29.7-69.9,90.7-78.6l1.9,13.3
			c-53.5,7.6-79.9,69.8-80.2,70.4C200.5,104.4,172,171.4,111,180.1z"/>
		<path class="st3" d="M54.9,166.6l5.9-10.1c14.4,8.3,31,11.5,48.1,9l1.6,11.5c11.2-1.6,22.1-5.4,32.4-11.4l-9.8-17
			c-8.2,4.7-16.7,7.7-25.4,8.9c-3.4,0.5-6.8,0.7-10.1,0.7c-17,0-32.9-6.2-44.7-17.6c-5.7-5.5-10.2-11.8-13.3-18.9l-16.8,7.4
			c4,9.2,9.9,17.6,17.4,24.8l-0.8,0.9C44.1,159.5,49.3,163.4,54.9,166.6z"/>
		<path class="st3" d="M97.7,183.1c-23.4,0-45.3-8.7-61.8-24.4l3.7-3.9c15.5,14.8,36.1,23,58.1,23c4.2,0,8.6-0.3,12.8-0.9
			c44-6.3,70.6-43.5,82.6-65.3l3-7.2l4.9,2.1l-3.2,7.6c-12.4,22.6-40.2,61.5-86.6,68.1C106.7,182.8,102.2,183.1,97.7,183.1z"/>
		<path class="st3" d="M97.7,197.6c-27.1,0-52.6-10.1-71.8-28.5l6.8-7.1c17.3,16.6,40.4,25.7,65,25.7c4.7,0,9.5-0.3,14.2-1
			c18.3-2.6,35.6-10.4,51.4-23.2l6.2,7.6c-17.1,13.9-36,22.4-56.1,25.3C108.1,197.2,102.8,197.6,97.7,197.6z"/>
		<path class="st2" d="M112.3,189.8l-1.2-8.5c39.5-5.6,65.7-35.1,80.7-58.8c0.5-0.8,4.5-7.8,6-10.7l7.6,4
			c-1.7,3.3-6.1,10.8-6.2,11.1l-0.1,0.1C183.2,152.3,155.2,183.7,112.3,189.8z"/>
		<path class="st0" d="M55.2,166.1c-24.6-14.3-39.3-39.4-39.3-67.1c0-4,0.3-8.1,0.9-12l6.1,1c-0.6,3.6-0.9,7.4-0.9,11.1
			c0,25.5,13.6,48.6,36.3,61.8L55.2,166.1z"/>
		<path class="st1" d="M25.7,88.3L14,86.5c3.4-21.2,15.1-39.9,33-52.7c18.2-13,40.8-18.4,63.8-15.1c5.2,0.7,10.3,1.9,15.3,3.6
			l-3.7,11.2c-4.3-1.4-8.8-2.5-13.3-3.1C68.4,24.5,31.8,50,25.7,88.3z"/>
		<path class="st2" d="M24.2,170.9C13.4,160.6,5.3,148.6,0,135.1l13.7-5.4c4.5,11.5,11.5,21.8,20.6,30.6L24.2,170.9z"/>
		<path class="st0" d="M97.7,190.8c-25.4,0-49.2-9.4-67.2-26.6c-16.3-15.6-26.2-36.4-27.8-58.5l0-0.2l-0.2-6.5l8.6-0.3l0.2,6.4
			c1.5,20,10.5,38.8,25.2,52.9c16.3,15.6,38.1,24.2,61.2,24.2c4.5,0,9-0.3,13.5-1l1.2,8.5C107.5,190.5,102.5,190.8,97.7,190.8z"/>
		<path class="st2" d="M137.1,160.9l-2.7-4.6l2.3-1.3c30.3-17.4,47.2-50.6,50.3-57.1l1.1-2.4l4.8,2.3l-1.1,2.4
			c-3.2,6.7-20.8,41.3-52.4,59.4L137.1,160.9z"/>
		<path class="st3" d="M203.9,95.4c-0.3-0.6-2.2-5.1-5.8-11.7l1.4-0.8c-12.6-22.9-40.8-62.4-88-69.1c-4.6-0.7-9.2-1-13.8-1V22
			c4.2,0,8.4,0.3,12.5,0.9c5.1,0.7,9.9,1.9,14.6,3.4l-3.3,10.2c43.5,14.3,65.4,65.5,65.6,66c1.2,2.9,30.2,71.1,92.6,80l2.6-18.1
			C230.3,156.9,204.2,96,203.9,95.4z"/>
		<path class="st2" d="M375.7,98.9h-7.4c0-20.2-8.9-39.6-24.5-53.1c-16.7-14.5-39.4-21-62.3-17.7l-1-7.3c25-3.6,49.8,3.5,68.2,19.4
			C365.8,55.2,375.7,76.6,375.7,98.9z"/>
		<rect x="88.4" y="68.1" class="st2" width="19.9" height="61.7"/>
		<rect x="67.5" y="89" class="st3" width="61.7" height="19.9"/>
		<path class="st0" d="M393.9,107.9l-7.9-0.7c0.3-2.7,0.4-5.5,0.4-8.3c0-24.2-9.7-46.9-27.5-63.8l5.5-5.7
			c19.3,18.4,29.9,43.1,29.9,69.5C394.3,101.9,394.2,105,393.9,107.9z"/>
		<path class="st3" d="M366.9,112.5l-5.1-1c0.8-4.1,1.2-8.4,1.2-12.7c0-17.8-7.2-34.5-20.3-47.1l3.6-3.8
			c14.1,13.5,21.9,31.6,21.9,50.8C368.2,103.4,367.7,108,366.9,112.5z"/>
		<path class="st1" d="M357.9,113.8l-11.9-3c1-3.8,1.5-7.8,1.5-11.8c0-28-24.3-50.9-54.2-50.9c-2.9,0-5.9,0.2-8.8,0.6
			c-0.8,0.1-1.6,0.2-2.3,0.4L279.9,37c0.9-0.2,1.9-0.3,2.8-0.5c3.5-0.5,7.1-0.8,10.6-0.8c36.6,0,66.5,28.3,66.5,63.1
			C359.7,104,359.1,109,357.9,113.8z"/>
		<path class="st3" d="M259.7,50.8l-1.4-2.5c-28.1,15.6-44.6,46.1-47.6,52.1l-3,6.1l-3.2-1.5l-1.3,2.9l11.2,5l5-11.2
			c2.9-5.5,25.8-45.8,62.7-52.6l-1.1-6C273.7,44.4,266.6,47,259.7,50.8z"/>
		<path class="st0" d="M293.3,185.9c-4.6,0-9.3-0.3-14-1c-20.8-3-40.1-12.6-57.4-28.7l7.5-8.1c15.6,14.5,32.9,23.2,51.4,25.9
			c5,0.7,9.9,1,14.8,0.9l0.3,11C295.1,185.9,294.2,185.9,293.3,185.9z"/>
	</g>
</g>
<g id="OPENSOURCECOMMUNITY">
	<g>
		<path class="st3" d="M311.3,144.1l5.9-18.7h5.2l6,18.7h-4.9l-1-3.8H317l-0.9,3.8L311.3,144.1L311.3,144.1z M319.6,129.8l-1.7,6.8
			h3.5L319.6,129.8z"/>
		<path class="st3" d="M331.3,125.4h7.5c5.2,0,7.1,2.6,7.1,6.2c0,2.6-1,4.5-3.1,5.6l3.7,6.8h-5.5l-2.8-5.9h-2.3v5.9h-4.6
			L331.3,125.4L331.3,125.4z M341.1,131.6c0-1.7-0.6-2.5-2.8-2.5h-2.4v5.3h2.4C340,134.4,341.1,133.7,341.1,131.6z"/>
		<path class="st3" d="M349.7,125.4h6.1c7,0,9.3,3.3,9.3,9.2c0,4.4-1.4,9.5-9.3,9.5h-6.2L349.7,125.4L349.7,125.4z M354.4,129.1
			v11.1h1.8c3.8,0,4.1-2.3,4.1-5.5c0-3.7-0.4-5.6-4.5-5.6L354.4,129.1L354.4,129.1z"/>
		<path class="st3" d="M378.9,125.4h4.5v12.3c0,5.5-4.2,6.7-7.5,6.7c-3.2,0-7.3-1.1-7.3-6.7v-12.3h4.6v11.4c0,3.1,1.1,3.8,2.8,3.8
			c2.1,0,2.9-0.9,2.9-3.8L378.9,125.4L378.9,125.4z"/>
		<path class="st3" d="M387.5,140.2h4.8v-11h-4.8v-3.8h14.3v3.8h-4.9v11h4.9v3.8h-14.3V140.2z"/>
		<path class="st3" d="M410,144.1h-4.4v-18.7h5l6.1,11.2v-11.2h4.3v18.7h-4.7l-6.4-12L410,144.1z"/>
		<path class="st3" d="M440,134.7c0,5.4-2,9.6-8,9.6c-5.4,0-7.9-3.3-7.9-9.4c0-5.6,2.2-9.8,7.8-9.8C437.3,125.1,440,127.6,440,134.7
			z M435,134.7c0-4.6-0.4-5.8-3.1-5.8c-2.5,0-2.9,1.5-2.9,6c0,3.8,0.3,5.7,2.9,5.7C434.7,140.6,435,139,435,134.7z"/>
		<path class="st4" d="M327.7,162.2c0,5.5-2.2,9.6-8,9.6c-5.4,0-7.8-3.4-7.8-9.5c0-5.7,2.3-9.8,7.9-9.8
			C325.2,152.6,327.7,155.4,327.7,162.2z M323.8,162.2c0-4.7-0.7-6.5-4-6.5c-3.1,0-3.9,1.9-3.9,6.7c0,4.2,0.6,6.4,3.9,6.4
			C323,168.7,323.8,166.6,323.8,162.2z"/>
		<path class="st4" d="M332,152.8h7c5,0,6.9,2.6,6.9,6.3c0,3.9-2.5,6.5-7,6.5h-3.2v6H332V152.8z M342,159.2c0-2-0.7-3.3-3.3-3.3h-3
			v6.6h3.1C340.8,162.5,342,161.7,342,159.2z"/>
		<path class="st4" d="M363.9,152.8v3.1h-9.5v4.5h8.6v3h-8.6v4.9h9.5v3.1h-13.2v-18.7H363.9z"/>
		<path class="st4" d="M372.1,171.5h-3.5v-18.7h4.1l7.3,12.7v-12.7h3.5v18.7h-3.8l-7.5-13.3L372.1,171.5z"/>
		<path class="st4" d="M390.7,165.7v-3h7.9v3H390.7z"/>
		<path class="st4" d="M406.8,157.8c0-3,3.1-5.2,6.9-5.2c2.1,0,4,0.4,5.7,1.4l-1,3.5c-1.2-1.1-2.8-1.8-4.7-1.8c-1.8,0-3,0.5-3,1.9
			c0,3.4,9.5,2.2,9.5,8.8c0,3.9-3.6,5.5-7.6,5.5c-2,0-4.3-0.5-6.2-1.7l1.2-3.4c1.5,1.3,3.3,2.1,5.4,2.1c1.8,0,3.2-0.6,3.2-2.1
			C416.3,162.7,406.8,164.1,406.8,157.8z"/>
		<path class="st4" d="M439.9,162.2c0,5.5-2.2,9.6-8,9.6c-5.4,0-7.8-3.4-7.8-9.5c0-5.7,2.3-9.8,7.9-9.8
			C437.4,152.6,439.9,155.4,439.9,162.2z M436,162.2c0-4.7-0.7-6.5-4-6.5c-3.1,0-3.9,1.9-3.9,6.7c0,4.2,0.6,6.4,3.9,6.4
			C435.2,168.7,436,166.6,436,162.2z"/>
		<path class="st4" d="M454.3,152.8h3.6v12.1c0,5-3.2,6.9-7.3,6.9c-4,0-7.1-1.6-7.1-6.8v-12.1h3.7v11.5c0,3.5,1.2,4.4,3.5,4.4
			c2.6,0,3.5-1.2,3.5-4.5L454.3,152.8L454.3,152.8z"/>
		<path class="st4" d="M462.6,152.8h6.9c5,0,6.9,2.4,6.9,6c0,2.6-1.1,4.5-3.2,5.5l3.9,7.2h-4.4l-3.3-6.5h-3.2v6.5h-3.7V152.8z
			 M472.5,158.9c0-2.1-0.9-3-3.3-3h-2.9v6.1h3C471.1,162,472.5,161.3,472.5,158.9z"/>
		<path class="st4" d="M495.3,170.4c-1.9,1-3.7,1.5-5.9,1.5c-5.4,0-8.5-3.2-8.5-9.6c0-6.2,3.5-9.6,8.9-9.6c1.9,0,3.7,0.5,5.2,1.4
			l-1.2,3.2c-1.4-1.1-2.7-1.5-4.1-1.5c-3.2,0-4.8,2.2-4.8,6.5c0,4.4,1.5,6.6,4.9,6.6c1.8,0,3.4-0.5,4.7-1.4L495.3,170.4z"/>
		<path class="st4" d="M513.5,152.8v3.1H504v4.5h8.6v3H504v4.9h9.5v3.1h-13.2v-18.7H513.5z"/>
		<path class="st1" d="M327,197.8c-1.9,1-3.7,1.5-5.9,1.5c-5.4,0-8.5-3.2-8.5-9.6c0-6.2,3.5-9.6,8.9-9.6c1.9,0,3.7,0.5,5.2,1.4
			l-1.2,3.2c-1.4-1.1-2.7-1.5-4.1-1.5c-3.2,0-4.8,2.2-4.8,6.5c0,4.4,1.5,6.6,4.9,6.6c1.8,0,3.4-0.5,4.7-1.4L327,197.8z"/>
		<path class="st1" d="M346.4,189.6c0,5.5-2.2,9.6-8,9.6c-5.4,0-7.8-3.4-7.8-9.5c0-5.7,2.3-9.8,7.9-9.8
			C343.9,180,346.4,182.9,346.4,189.6z M342.5,189.6c0-4.7-0.7-6.5-4-6.5c-3.1,0-3.9,1.9-3.9,6.7c0,4.2,0.6,6.4,3.9,6.4
			C341.7,196.2,342.5,194.1,342.5,189.6z"/>
		<path class="st1" d="M361.8,186.1l-3.2,6.4H356l-3.5-6.7V199h-3v-18.7h3.3l4.5,8.6l4.4-8.6h3.2V199h-3V186.1z"/>
		<path class="st1" d="M380.5,186.1l-3.2,6.4h-2.6l-3.5-6.7V199h-3v-18.7h3.3l4.5,8.6l4.4-8.6h3.2V199h-3V186.1z"/>
		<path class="st1" d="M398.2,180.3h3.6v12.1c0,5-3.2,6.9-7.3,6.9c-4,0-7.1-1.6-7.1-6.8v-12.1h3.7v11.5c0,3.5,1.2,4.4,3.5,4.4
			c2.6,0,3.5-1.2,3.5-4.5L398.2,180.3L398.2,180.3z"/>
		<path class="st1" d="M409.4,199h-3.5v-18.7h4.1l7.3,12.7v-12.7h3.5V199H417l-7.5-13.3L409.4,199z"/>
		<path class="st1" d="M425.2,195.9h5v-12.5h-5v-3.1h13.7v3.1h-5.1v12.5h5.1v3.1h-13.7V195.9z"/>
		<path class="st1" d="M458.5,183.4h-5.9V199h-3.7v-15.6H443v-3.1h15.5V183.4z"/>
		<path class="st1" d="M469.7,188.7l3.9-8.4h3.7l-5.9,11.3v7.4h-3.7v-7.3l-6.2-11.4h4L469.7,188.7z"/>
	</g>
</g>
</svg>
