<svg id="Layer_1" data-name="Layer 1" xmlns="http://www.w3.org/2000/svg" viewBox="0 0 577.7 190.64"><defs><style>.cls-1{fill:#314248;}</style></defs><title>Atoka logo</title><path class="cls-1" d="M522.82,400.19a50.48,50.48,0,1,0,50.48,50.48A50.48,50.48,0,0,0,522.82,400.19Zm0,81a30.5,30.5,0,1,1,30.5-30.49A30.5,30.5,0,0,1,522.82,481.16Z" transform="translate(-307.1 -310.5)"/><path class="cls-1" d="M655.48,408.38,621,445.56a6,6,0,0,1-4.4,1.92,6,6,0,0,1-2.19-.41,6,6,0,0,1-3.81-5.59V370.39h0v-.05a11.61,11.61,0,1,0-23.21,0v.05h0V501.15h23.21V486.41a6,6,0,0,1,1.6-4.08l68.62-73.95Z" transform="translate(-307.1 -310.5)"/><polygon class="cls-1" points="348.29 143.05 332.84 159.76 352.3 190.65 379.71 190.65 348.29 143.05"/><path class="cls-1" d="M473.73,378.46v-.08H459a6,6,0,0,1-6-6V354.25a11.51,11.51,0,1,0-23,0v18.13a6,6,0,0,1-6,6H409.41v.08h-.06a8.95,8.95,0,1,0,0,17.89h.06v.06H424a6,6,0,0,1,6,6v98.74h23V402.41a6,6,0,0,1,6-6h14.76v-.06a8.95,8.95,0,0,0,0-17.89Z" transform="translate(-307.1 -310.5)"/><path class="cls-1" d="M408.06,450.67a50.48,50.48,0,1,0-22,41.7l4.38,5.15a10,10,0,0,0,17.65-6.35Zm-81,0a30.5,30.5,0,1,1,30.49,30.49A30.49,30.49,0,0,1,327.09,450.67Z" transform="translate(-307.1 -310.5)"/><path class="cls-1" d="M877.17,434.53a26,26,0,0,0-43.93,13.4H798.49c0,.8.06,1.59.06,2.39a56.1,56.1,0,0,1-.53,7.61h35.22a26,26,0,0,0,25.54,21h0a26,26,0,0,0,18.39-44.42Zm-7.07,29.73a16,16,0,1,1,4.7-11.33A15.87,15.87,0,0,1,870.1,464.26Z" transform="translate(-307.1 -310.5)"/><path class="cls-1" d="M761.68,318.12a26,26,0,1,0-23.4,43.94v31.83c1.2-.05,2.4-.08,3.62-.08,2.16,0,4.28.08,6.38.23v-32a26,26,0,0,0,13.4-43.94Zm-7.07,29.73a16,16,0,1,1,0-22.66A15.91,15.91,0,0,1,754.61,347.85Z" transform="translate(-307.1 -310.5)"/><path class="cls-1" d="M791.56,491.17v-40.5a50.49,50.49,0,1,0-22,41.7l4.39,5.15a10,10,0,0,0,17.65-6.35Zm-81-40.5a30.5,30.5,0,1,1,30.5,30.49A30.5,30.5,0,0,1,710.58,450.67Z" transform="translate(-307.1 -310.5)"/><path class="cls-1" d="M843.83,352.38a26,26,0,0,0-40,32.92l-23.46,23.46a57,57,0,0,1,6.72,7.42l23.81-23.81a26,26,0,0,0,32.92-40Zm-7.07,29.72a16,16,0,1,1,0-22.65A15.89,15.89,0,0,1,836.76,382.1Z" transform="translate(-307.1 -310.5)"/></svg>