<svg width="159" height="50" viewBox="0 0 159 50" xmlns="http://www.w3.org/2000/svg"><title>logo</title><g fill="none" fill-rule="evenodd"><g fill="#000"><path d="M22.398 27.902c-.295-.545-.699-1.132-1.086-.954-.566.259-1.339 1.935-.971 2.15.367.22 2.35-.652 2.057-1.196"/><path d="M20.989 17.123A15.924 15.924 0 0 0 9.333 22.17V0L0 11.897V48.56h9.333V33.545c.695.741 3.24 2.045 5.37-.017 1.69-1.636 1.48-4.194 1.48-4.194s-.808 4.194-3.62 4.168c-4.445-.04-3.491-3.528-1.608-6.416 2.443-3.751 4.878-3.004 7.542-3.052 3.15-.056 5.335 1.27 5.658 1.463.32.189 4.546.121 6.797.15 1.877.026 1.433.865 1.047 4.298-.385 3.433-2.523 3.895-7.165 5.671-3.36 1.285-4.101 7.049-10.334 11.574a15.961 15.961 0 0 0 6.489 1.371c8.78 0 15.9-7.039 15.9-15.72 0-8.68-7.12-15.718-15.9-15.718"/></g><path stroke="#FFF" d="M8 49h.301H8z"/><path d="M46.354 48.259c0 .39.312.741.741.741h9.672c4.641 0 8.502-3.159 8.502-7.527 0-3.588-3.159-5.499-5.226-6.357 1.833-.975 4.524-3.159 4.524-6.162 0-4.095-3.783-7.254-8.385-7.254h-9.087a.74.74 0 0 0-.741.741v25.818zm6.084-15.483v-5.46h3.042c1.482 0 2.73 1.092 2.73 2.652s-1.248 2.808-2.73 2.808h-3.042zm0 10.647v-5.577h3.159c1.521 0 3.198 1.17 3.198 2.73 0 1.599-1.287 2.847-2.808 2.847h-3.549zm15.784 4.836c0 .39.312.741.741.741h16.146a.74.74 0 0 0 .741-.741v-4.251a.74.74 0 0 0-.741-.741H74.306v-5.265h8.892a.74.74 0 0 0 .741-.741V33.01a.767.767 0 0 0-.741-.741h-8.892v-4.836h10.803a.74.74 0 0 0 .741-.741v-4.251a.74.74 0 0 0-.741-.741H68.963a.74.74 0 0 0-.741.741v25.818zm20.854 0c0 .39.312.741.741.741h14.664a.74.74 0 0 0 .741-.741v-4.251a.74.74 0 0 0-.741-.741h-9.282V22.441a.767.767 0 0 0-.741-.741h-4.641a.74.74 0 0 0-.741.741v25.818zm18.929-.195c0 .507.39.936.936.936h4.563a.949.949 0 0 0 .936-.936V36.442l9.009 12.246c.078.117.429.273.702.273h5.382c.741 0 1.17-.858.741-1.443l-9.945-12.948 9.126-11.427c.429-.585.039-1.443-.702-1.443h-4.914c-.234 0-.585.195-.741.39l-8.658 10.803V22.636a.949.949 0 0 0-.936-.936h-4.563a.924.924 0 0 0-.936.936v25.428zm25.4.936h4.29c.78 0 1.209-.468 1.404-.936l1.404-3.12h10.608l1.404 3.081c.351.741.663.975 1.365.975h4.329c.585 0 .897-.507.663-1.014l-12.207-26.247c-.117-.234-.39-.429-.663-.429h-.39c-.273 0-.546.195-.663.429l-12.207 26.247c-.234.507.078 1.014.663 1.014zm9.438-9.36l2.925-6.435h.039l2.964 6.435h-5.928z" fill="#000"/></g></svg>