<svg viewBox="0 0 832.9 220" xmlns="http://www.w3.org/2000/svg"><switch><path d="m78.1 160.6c-19.3 0-34.7-4.7-45.6-14-11-9.4-16.6-22.3-16.6-38.1 0-6.1 1.2-12.7 3.6-19.4 2.4-6.8 6.3-13.2 11.5-19.1 5.3-6 12.2-10.9 20.7-14.5 8.4-3.7 18.6-5.5 30.3-5.5 3.6 0 7.5.2 11.7.6l5.3-35.8h38l-20.1 142.2-1.8.3c-13.6 2.2-26 3.3-37 3.3zm4-106c-11 0-20.5 1.7-28.4 5.1-7.8 3.4-14.2 7.9-19 13.3-4.8 5.5-8.4 11.4-10.6 17.6s-3.3 12.2-3.3 17.8c0 14.6 4.9 25.9 14.9 34.5s24.3 12.9 42.4 12.9c10.2 0 21.8-1 34.5-2.9l19-133.5h-28.4l-5.4 36.2-2.3-.2c-4.8-.6-9.3-.8-13.4-.8zm-4 78c-6.2 0-11.4-1.2-15.4-3.5-4.1-2.4-7.1-5.5-9-9.2-1.8-3.6-2.7-7.3-2.7-10.9 0-3.7 1-8 3.1-12.8 2.1-4.9 6-9.2 11.6-13 5.6-3.7 13.4-5.6 23-5.6 1.5 0 2.6 0 3.4.1l2.5.2-7.8 53.6-1.6.4c-1.9.5-4.2.7-7.1.7zm10.6-50.2c-8.7 0-15.5 1.6-20.3 4.8s-8.2 6.9-9.9 10.9c-1.8 4.1-2.7 7.8-2.7 10.9 0 2.9.7 5.9 2.2 8.8 1.4 2.8 3.8 5.2 7.1 7.1s7.7 2.9 13 2.9c1.7 0 3.2-.1 4.4-.3l6.6-45.1zm89.6 76.4h-38.8l15.3-107.2h38.8zm-33.3-4.8h29.1l13.9-97.6h-29.1zm100.8 53.1c-7.9 0-15-.4-21.3-1.1-6.4-.7-12-2.1-16.7-4-5-2-8.9-4.9-11.6-8.7-2.8-3.8-4.2-8.7-4.2-14.4 0-9.1 9.3-19.6 12.8-23.2-1.4-3.3-4.1-10.9-2.4-17.4 2.3-9 8.4-15.1 17.6-18-3.9-2.7-7.1-6.3-9.6-10.8-3.6-6.4-5.4-12.9-5.4-19.3 0-4.1.8-8.5 2.3-12.9 1.6-4.5 4.3-8.8 8-12.7 3.7-4 8.6-7.2 14.6-9.5 5.9-2.4 13.2-3.5 21.6-3.5l50.5-.1-.1 25.3c.4 5-.4 26.6-7.5 34.5-3.6 5.7-9 10.2-16.1 13.4-4.4 2-13.5 3.4-20.8 4.6-3.3.5-7.1 1.2-7.9 1.5-1.3.8-1.5 1.7-1.5 2.5 0 1.4.5 1.8.6 2 .9.8 6.1 4.1 13.8 5.5 25.1 4.6 37.8 15.5 37.8 32.2 0 5.4-1.3 10.7-4 15.7-2.7 5.1-8.3 9.5-16.4 13.1-8.2 3.6-19.6 5.3-34.1 5.3zm51.2-150.8-45.7.1c-7.8 0-14.4 1.1-19.8 3.2-5.3 2.1-9.6 4.9-12.9 8.4-3.2 3.5-5.6 7.2-6.9 11-1.4 3.9-2.1 7.7-2.1 11.3 0 5.6 1.6 11.3 4.8 17 3.1 5.6 7.5 9.5 13.1 11.9l8 3.3-8.6 1.2c-11 1.6-17.7 7-20 15.9-1.4 5.4 1.5 13.1 2.8 15.6l.8 1.6-1.3 1.2c-3.5 3.3-12.5 13.6-12.5 20.9 0 4.7 1.1 8.6 3.3 11.6 2.3 3.1 5.4 5.4 9.6 7.1 4.3 1.8 9.5 3 15.5 3.7 6.1.7 13.1 1 20.7 1 13.8 0 24.5-1.6 31.9-4.9 7.2-3.1 11.9-6.8 14.1-11 2.3-4.3 3.4-8.8 3.4-13.4 0-14.3-11.1-23.3-33.8-27.5-8.6-1.6-14.6-5.4-16-6.6-1-.9-2.3-2.6-2.3-5.6 0-2.9 1.4-5.2 4.1-6.7 1-.6 3.1-.9 9.3-2 6.6-1.1 15.7-2.6 19.6-4.3 6.3-2.8 11-6.8 14.1-11.7l.3-.4c5.4-5.8 6.4-22.6 6.5-29zm-41.4 49c-4.1 0-7.6-1.5-10.5-4.5-2.8-3-4.3-7.1-4.3-12.2.4-2.6 1.4-4.7 3.6-9.4 2.6-5.5 7.5-8.3 14.1-8.3 4.5 0 8.1 1.5 10.7 4.4 2.5 2.9 3.8 6.9 3.8 11.9-.2 3-3.7 10.3-3.7 10.4l-.1.2c-2.8 4.9-7.5 7.5-13.6 7.5zm2.9-29.6c-4.8 0-7.9 1.8-9.8 5.6-2.2 4.5-2.9 6.2-3.2 7.7 0 3.5 1 6.4 3 8.5 2 2 4.3 3 7 3 4.6 0 7.6-1.7 9.5-5.3l.4-.8c.8-1.8 2.4-6.2 2.8-7.3 0-3.8-.9-6.6-2.6-8.6-1.6-1.9-4-2.8-7.1-2.8zm92.8 83.1h-38.8l15.3-107.2h38.8zm-33.3-4.8h29.1l13.9-97.6h-29.1zm160.3 4.8h-38.1l9.6-66.6c.1-.8.2-1.8.2-3.2 0-6.4-2.9-7.3-6-7.3-3 0-6 1-8.8 3-.6.4-1.3.9-2.2 1.4-2.8 1.8-10.1 6.5-10.6 8.8-.7 3-6.2 41.7-9 61.8l-.3 2.1h-38.5l16-107.2h37l2.7 6.3c9-4.3 9.3-4.4 9.3-4.4 6.2-2.6 12-3.7 18.2-3.7 11.3 0 19.4 3.6 24.1 10.8 4.5 6.9 6.8 14.5 6.8 22.7 0 2.1-.3 5.9-1 11.7zm-32.6-4.8h28.4l8.8-59.7c.7-5.4 1-9.1 1-11 0-7.2-2-14-6-20-3.8-5.8-10.4-8.6-20.1-8.6-5.6 0-10.8 1.1-16.4 3.4-.6.2-11.3 5.4-11.3 5.4l-2.2 1.1-3.5-8h-29.7l-14.6 97.4h28.7c1.5-10.5 8-56.5 8.8-60.1.9-3.9 6.5-7.8 12.7-11.8.8-.5 1.5-1 2.1-1.4 3.7-2.5 7.6-3.8 11.6-3.8s10.8 1.6 10.8 12.1c0 1.7-.1 3-.2 3.9zm91 6.6c-7.7 0-14.7-2.2-20.6-6.5s-10.5-10.1-13.6-17.2c-3.1-7-4.7-14.8-4.7-23.1 0-6.9 1.1-14 3.4-21.1 2.3-7.2 6.4-14.2 12.2-20.8s14.1-12 24.6-16c10.4-4 23.4-6 38.6-6 6.4 0 11.7.2 15.8.7s9.7 1.3 17.4 2.5l2.4.4-16.1 105.3-2 .1c-2.4-.1-51.8 1.7-57.4 1.7zm39.7-106c-14.6 0-27 1.9-36.9 5.7-9.8 3.8-17.4 8.7-22.7 14.7-5.4 6.1-9.1 12.5-11.2 19-2.1 6.7-3.2 13.3-3.2 19.7 0 7.6 1.5 14.7 4.3 21.1s6.9 11.5 12.1 15.3c5.1 3.7 11.1 5.6 17.8 5.6 5 0 45.5-1.4 55-1.7l14.8-96.7c-6.4-1-11.3-1.7-14.9-2.1-3.8-.4-8.9-.6-15.1-.6zm-10.6 79.2-2.7-4.1h-16.6c-9.6 0-9.6 0-10.4-.8-3.6-3.7-4.3-9.8-4.3-14.2 0-7.1 1.5-13.8 4.5-19.9 3-6.2 7.2-11.2 12.5-14.8 5.4-3.7 11.4-5.6 17.9-5.6h9.1zm-26.8-8.9h23.3l7.7-45.7h-3.4c-5.5 0-10.6 1.6-15.2 4.7-4.6 3.2-8.3 7.5-10.9 12.9-2.7 5.5-4 11.5-4 17.9.1 4.5 1 8.1 2.5 10.2zm126.9 35.7c-4.7 0-9.3-.8-13.8-2.5-4.6-1.7-8.8-4.9-12.6-9.4-4.5-5.3-6.8-12.3-6.8-20.8 0-3.7.4-7.6 1.1-11.6l6.4-34.7h-18.9l5.4-29.9h19.1l3.9-20.4h38.7l-3.9 20.4h20.5l-6.4 29.9h-19.8l-6.4 31.5c-.5 2.6-.8 4.7-.8 6.2 0 5.4 2.5 6.2 5.1 6.2 4.9 0 11.1-2.8 18.4-8.2l4.1-3.1-2.3 37.4-1.1.6c-9.3 5.5-19.4 8.4-29.9 8.4zm-38.8-83.9h18.9l-7.5 40.4c-.7 3.7-1.1 7.3-1.1 10.7 0 7.4 1.9 13.3 5.7 17.7 3.2 3.9 6.8 6.6 10.6 8 3.9 1.5 8 2.2 12.1 2.2 9.2 0 18.2-2.4 26.6-7.2l1.5-24.7c-6.5 4.2-12.1 6.3-17.1 6.3-3.7 0-9.9-1.4-9.9-11 0-1.8.3-4.1.8-7.1l7.1-35.3h19.8l4.3-20.3h-20.4l3.9-20.4h-28.9l-3.9 20.4h-19.1zm141.4 83.9c-14.4 0-25.9-2.7-34.2-8.1-8.4-5.4-14.2-12-17.2-19.6-3-7.4-4.5-14.9-4.5-22.2 0-10.9 2.5-21.1 7.5-30.4s12-16.8 20.8-22.2c8.8-5.5 18.9-8.3 30-8.3 8.3 0 16.1 1.8 23 5.4 7 3.6 12.7 9.2 16.8 16.6s6.2 16.5 6.2 27.1c0 4.9-.5 10.1-1.4 15.4l-.4 2h-64.3c.7 11.2 6.6 16.4 18.3 16.4 6.6 0 12.7-.8 17.9-2.3l1.6-.5 17.4 21.9-3 1.2c-7.4 3-13.2 4.9-17.6 5.9-4.5 1.1-10.1 1.7-16.9 1.7zm2.4-106c-10.2 0-19.4 2.5-27.5 7.5s-14.5 11.9-19.1 20.4c-4.6 8.6-6.9 18-6.9 28.1 0 6.7 1.4 13.6 4.1 20.4 2.7 6.7 7.8 12.5 15.4 17.4 7.5 4.9 18.2 7.4 31.6 7.4 6.4 0 11.7-.5 15.8-1.4 3.5-.8 8.2-2.3 13.9-4.5l-11.4-14.3c-5.3 1.4-11.2 2.1-17.7 2.1-15.2 0-23.2-8.2-23.2-23.6v-2.4h65.1c.7-4.4 1-8.6 1-12.6 0-9.8-1.9-18.1-5.6-24.8-3.7-6.6-8.7-11.6-14.9-14.7-6.1-3.4-13.1-5-20.6-5zm13.6 43.6h-37l1.3-3.3c2.5-6.3 5.2-11.5 8.1-15.5 3.3-4.4 7.8-6.7 13.4-6.7 10.5 0 14.3 22.8 14.3 23v2.5zm-29.9-4.8h24.6c-1.4-5.7-5.1-15.8-9-15.8-4.1 0-7.2 1.5-9.5 4.7-2.1 2.9-4.1 6.6-6.1 11.1z" fill="#f39300"/></switch></svg>