<svg enable-background="new 0 0 1223 300" height="300" viewBox="0 0 1223 300" width="1223" xmlns="http://www.w3.org/2000/svg" xmlns:xlink="http://www.w3.org/1999/xlink"><clipPath id="a"><path d="m238 75.667h14.571v145.807h-14.571zm40.434 145.808 20.716-145.808h2.379l59.274 119.639 58.68-119.639h2.379l20.915 145.807h-14.373l-14.274-104.275-51.543 104.275h-3.668l-52.237-105.068-14.174 105.068h-14.074m291.321.001v-145.808h3.172l96.94 111.61v-111.61h14.373v145.807h-3.271l-96.148-110.223v110.223h-15.066zm246.291-145.808h14.571v145.807h-14.571zm116.558-3.667c22.071 0 40.54 7.368 55.409 22.104 14.868 14.736 22.302 32.875 22.302 54.417 0 21.344-7.417 39.45-22.252 54.318s-32.925 22.302-54.269 22.302c-21.609 0-39.847-7.401-54.715-22.203s-22.302-32.71-22.302-53.724c0-14.009 3.387-26.994 10.16-38.955s16.008-21.327 27.704-28.101c11.696-6.771 24.351-10.158 37.963-10.158zm.694 14.273c-10.771 0-20.981 2.808-30.628 8.425-9.648 5.617-17.181 13.183-22.6 22.699s-8.128 20.121-8.128 31.818c0 17.313 5.997 31.934 17.99 43.861 11.994 11.928 26.449 17.891 43.365 17.891 11.3 0 21.757-2.742 31.372-8.227s17.115-12.985 22.5-22.501c5.386-9.516 8.078-20.088 8.078-31.719 0-11.564-2.693-22.021-8.078-31.372-5.386-9.351-12.968-16.834-22.748-22.451-9.779-5.615-20.153-8.424-31.123-8.424zm104.457 135.202v-145.808h3.172l96.94 111.61v-111.61h14.373v145.807h-3.271l-96.147-110.223v110.223h-15.067z"/></clipPath><clipPath id="b"><path d="m0 0h1223v300h-1223z"/></clipPath><clipPath id="c"><path d="m536.5 86 2.5-10h-9.5c-40.041 0-72.5 32.459-72.5 72.5s32.459 72.5 72.5 72.5h11.5"/></clipPath><clipPath id="d"><path d="m0 0h1223v300h-1223z"/></clipPath><clipPath id="e"><path d="m529.5 76h14.5v14h-14.5"/></clipPath><clipPath id="f"><path d="m0 0h1223v300h-1223z"/></clipPath><clipPath id="g"><path d="m469.5 139h74.5v14h-74.5"/></clipPath><clipPath id="h"><path d="m0 0h1223v300h-1223z"/></clipPath><clipPath id="i"><path d="m529.5 207h14.5v14h-14.5"/></clipPath><clipPath id="j"><path d="m0 0h1223v300h-1223z"/></clipPath><clipPath id="k"><path d="m102 64.5 5 8v12.5l-7 7.5s-39 18.5-39 59.841c0 36.659 33.862 54.659 39 56.159 3.5 3.5 7 7 7 7v13c-4.012 5.805-5 7-5 7s87.872-28.419 89.392-83.159c0-57.639-89.392-87.841-89.392-87.841zm-37.5-26c10.941 2.451 49.66 12.24 83 31.5 31.932 18.446 58.766 45.662 58.843 79.773.157 69.727-110.496 110.945-155.81 114.702 36.396-29.063 42.967-42.975 42.967-42.975s-45.5-20-45.5-71.5c0-48.5 43.005-71.646 43.005-71.646s-3.904-15.027-41.834-42.354c0 0 13.451 2.079 15.329 2.5z"/></clipPath><clipPath id="l"><path d="m0 0h1223v300h-1223z"/></clipPath><clipPath id="m"><path d="m791 76h-52l2.154 14h49.846z"/></clipPath><clipPath id="n"><path d="m0 0h1223v300h-1223z"/></clipPath><clipPath id="o"><path d="m761 207c4.6-.894 8.631-2.715 12.255-5.645s6.142-6.403 7.555-10.42c1.413-4.016 1.726-8.045.941-12.085-.894-4.6-3.324-8.805-7.29-12.614-5.474-5.258-14.732-11.071-27.775-17.438-13.118-6.417-21.45-11.281-24.996-14.592-6.105-5.523-9.889-12.045-11.351-19.566-1.16-5.968-.788-11.685 1.117-17.151 1.905-5.467 5.178-10.119 9.819-13.956s11.633-6.349 17.725-7.533c10.939 13.711 5.138 13.394.848 14.227-5.532 1.076-9.729 3.633-12.588 7.672-2.86 4.04-3.812 8.515-2.858 13.426.58 2.984 1.763 5.754 3.55 8.309 1.787 2.556 4.648 5.161 8.583 7.815 2.141 1.39 8.935 4.811 20.381 10.263 13.577 6.457 23.237 12.676 28.979 18.656 5.743 5.98 9.285 12.42 10.626 19.32 1.933 9.946-.164 19.321-6.291 28.124s-14.599 14.256-25.415 16.359c-8.33 1.619-16.315.865-23.954-2.263"/></clipPath><clipPath id="p"><path d="m0 0h1223v300h-1223z"/></clipPath><clipPath id="q"><path d="m708 207h53l-4.077 14h-48.923z"/></clipPath><clipPath id="r"><path d="m0 0h1223v300h-1223z"/></clipPath><g clip-path="url(#a)"><path clip-path="url(#b)" d="m233 67h924.24v163.142h-924.24z"/></g><g clip-path="url(#c)"><path clip-path="url(#d)" d="m536.5 86 2.5-10h-9.5c-40.041 0-72.5 32.459-72.5 72.5s32.459 72.5 72.5 72.5h11.5" fill="none" stroke="#000" stroke-miterlimit="10" stroke-width="28"/></g><g clip-path="url(#e)"><path clip-path="url(#f)" d="m529.5 76h14.5v14h-14.5" fill="none" stroke="#000" stroke-miterlimit="10" stroke-width="28"/></g><g clip-path="url(#g)"><path clip-path="url(#h)" d="m469.5 139h74.5v14h-74.5" fill="none" stroke="#000" stroke-miterlimit="10" stroke-width="28"/></g><g clip-path="url(#i)"><path clip-path="url(#j)" d="m529.5 207h14.5v14h-14.5" fill="none" stroke="#000" stroke-miterlimit="10" stroke-width="28"/></g><g clip-path="url(#k)"><path clip-path="url(#l)" d="m43 31h168.343v238.475h-168.343z"/></g><g clip-path="url(#m)"><path clip-path="url(#n)" d="m734 71h62v24h-62z"/></g><g clip-path="url(#o)"><path clip-path="url(#p)" d="m704.679 71h97.538v155h-97.538z"/></g><g clip-path="url(#q)"><path clip-path="url(#r)" d="m703 202h63v24h-63z"/></g></svg>