<?xml version="1.0" encoding="utf-8"?>
<!-- Generator: Adobe Illustrator 17.0.0, SVG Export Plug-In . SVG Version: 6.00 Build 0)  -->
<!DOCTYPE svg PUBLIC "-//W3C//DTD SVG 1.1//EN" "http://www.w3.org/Graphics/SVG/1.1/DTD/svg11.dtd">
<svg version="1.1" id="Layer_1" xmlns="http://www.w3.org/2000/svg" xmlns:xlink="http://www.w3.org/1999/xlink" x="0px" y="0px"
	 width="1223px" height="300px" viewBox="0 0 1223 300" enable-background="new 0 0 1223 300" xml:space="preserve">
<g>
	<defs>
		<path id="SVGID_1_" d="M238,75.667h14.571v145.807H238V75.667z M278.434,221.475L299.15,75.667h2.379l59.274,119.639
			l58.68-119.639h2.379l20.915,145.807h-14.373L414.13,117.199l-51.543,104.275h-3.668l-52.237-105.068l-14.174,105.068H278.434
			 M569.755,221.475V75.667h3.172l96.94,111.61V75.667h14.373v145.807h-3.271l-96.148-110.223v110.223H569.755z M816.046,75.667
			h14.571v145.807h-14.571V75.667z M932.604,72c22.071,0,40.54,7.368,55.409,22.104c14.868,14.736,22.302,32.875,22.302,54.417
			c0,21.344-7.417,39.45-22.252,54.318c-14.835,14.868-32.925,22.302-54.269,22.302c-21.609,0-39.847-7.401-54.715-22.203
			c-14.868-14.802-22.302-32.71-22.302-53.724c0-14.009,3.387-26.994,10.16-38.955c6.773-11.961,16.008-21.327,27.704-28.101
			C906.337,75.387,918.992,72,932.604,72z M933.298,86.273c-10.771,0-20.981,2.808-30.628,8.425
			c-9.648,5.617-17.181,13.183-22.6,22.699c-5.419,9.516-8.128,20.121-8.128,31.818c0,17.313,5.997,31.934,17.99,43.861
			c11.994,11.928,26.449,17.891,43.365,17.891c11.3,0,21.757-2.742,31.372-8.227s17.115-12.985,22.5-22.501
			c5.386-9.516,8.078-20.088,8.078-31.719c0-11.564-2.693-22.021-8.078-31.372c-5.386-9.351-12.968-16.834-22.748-22.451
			C954.642,89.082,944.268,86.273,933.298,86.273z M1037.755,221.475V75.667h3.172l96.94,111.61V75.667h14.373v145.807h-3.271
			l-96.147-110.223v110.223H1037.755z"/>
	</defs>
	<clipPath id="SVGID_2_">
		<use xlink:href="#SVGID_1_"  overflow="visible"/>
	</clipPath>
	<g clip-path="url(#SVGID_2_)">
		<defs>
			<rect id="SVGID_3_" width="1223" height="300"/>
		</defs>
		<clipPath id="SVGID_4_">
			<use xlink:href="#SVGID_3_"  overflow="visible"/>
		</clipPath>
		<rect x="233" y="67" clip-path="url(#SVGID_4_)" width="924.24" height="163.142"/>
	</g>
</g>
<g>
	<defs>
		<path id="SVGID_5_" d="M536.5,86l2.5-10h-9.5c-40.041,0-72.5,32.459-72.5,72.5s32.459,72.5,72.5,72.5H541"/>
	</defs>
	<clipPath id="SVGID_6_">
		<use xlink:href="#SVGID_5_"  overflow="visible"/>
	</clipPath>
	<g clip-path="url(#SVGID_6_)">
		<defs>
			<rect id="SVGID_7_" width="1223" height="300"/>
		</defs>
		<clipPath id="SVGID_8_">
			<use xlink:href="#SVGID_7_"  overflow="visible"/>
		</clipPath>
		<path clip-path="url(#SVGID_8_)" fill="none" stroke="#000000" stroke-width="28" stroke-miterlimit="10" d="M536.5,86l2.5-10
			h-9.5c-40.041,0-72.5,32.459-72.5,72.5s32.459,72.5,72.5,72.5H541"/>
	</g>
</g>
<g>
	<defs>
		<polyline id="SVGID_9_" points="529.5,76 544,76 544,90 529.5,90 		"/>
	</defs>
	<clipPath id="SVGID_10_">
		<use xlink:href="#SVGID_9_"  overflow="visible"/>
	</clipPath>
	<g clip-path="url(#SVGID_10_)">
		<defs>
			<rect id="SVGID_11_" width="1223" height="300"/>
		</defs>
		<clipPath id="SVGID_12_">
			<use xlink:href="#SVGID_11_"  overflow="visible"/>
		</clipPath>
		<polyline clip-path="url(#SVGID_12_)" fill="none" stroke="#000000" stroke-width="28" stroke-miterlimit="10" points="529.5,76 
			544,76 544,90 529.5,90 		"/>
	</g>
</g>
<g>
	<defs>
		<polyline id="SVGID_13_" points="469.5,139 544,139 544,153 469.5,153 		"/>
	</defs>
	<clipPath id="SVGID_14_">
		<use xlink:href="#SVGID_13_"  overflow="visible"/>
	</clipPath>
	<g clip-path="url(#SVGID_14_)">
		<defs>
			<rect id="SVGID_15_" width="1223" height="300"/>
		</defs>
		<clipPath id="SVGID_16_">
			<use xlink:href="#SVGID_15_"  overflow="visible"/>
		</clipPath>
		<polyline clip-path="url(#SVGID_16_)" fill="none" stroke="#000000" stroke-width="28" stroke-miterlimit="10" points="469.5,139 
			544,139 544,153 469.5,153 		"/>
	</g>
</g>
<g>
	<defs>
		<polyline id="SVGID_17_" points="529.5,207 544,207 544,221 529.5,221 		"/>
	</defs>
	<clipPath id="SVGID_18_">
		<use xlink:href="#SVGID_17_"  overflow="visible"/>
	</clipPath>
	<g clip-path="url(#SVGID_18_)">
		<defs>
			<rect id="SVGID_19_" width="1223" height="300"/>
		</defs>
		<clipPath id="SVGID_20_">
			<use xlink:href="#SVGID_19_"  overflow="visible"/>
		</clipPath>
		<polyline clip-path="url(#SVGID_20_)" fill="none" stroke="#000000" stroke-width="28" stroke-miterlimit="10" points="529.5,207 
			544,207 544,221 529.5,221 		"/>
	</g>
</g>
<g>
	<defs>
		<path id="SVGID_21_" d="M102,64.5l5,8V85l-7,7.5c0,0-39,18.5-39,59.841C61,189,94.862,207,100,208.5c3.5,3.5,7,7,7,7v13
			c-4.012,5.805-5,7-5,7s87.872-28.419,89.392-83.159C191.392,94.702,102,64.5,102,64.5z M64.5,38.5
			c10.941,2.451,49.66,12.24,83,31.5c31.932,18.446,58.766,45.662,58.843,79.773C206.5,219.5,95.847,260.718,50.533,264.475
			C86.929,235.412,93.5,221.5,93.5,221.5S48,201.5,48,150c0-48.5,43.005-71.646,43.005-71.646S87.101,63.327,49.171,36
			C49.171,36,62.622,38.079,64.5,38.5z"/>
	</defs>
	<clipPath id="SVGID_22_">
		<use xlink:href="#SVGID_21_"  overflow="visible"/>
	</clipPath>
	<g clip-path="url(#SVGID_22_)">
		<defs>
			<rect id="SVGID_23_" width="1223" height="300"/>
		</defs>
		<clipPath id="SVGID_24_">
			<use xlink:href="#SVGID_23_"  overflow="visible"/>
		</clipPath>
		<rect x="43" y="31" clip-path="url(#SVGID_24_)" width="168.343" height="238.475"/>
	</g>
</g>
<g>
	<defs>
		<polygon id="SVGID_25_" points="791,76 739,76 741.154,90 791,90 		"/>
	</defs>
	<clipPath id="SVGID_26_">
		<use xlink:href="#SVGID_25_"  overflow="visible"/>
	</clipPath>
	<g clip-path="url(#SVGID_26_)">
		<defs>
			<rect id="SVGID_27_" width="1223" height="300"/>
		</defs>
		<clipPath id="SVGID_28_">
			<use xlink:href="#SVGID_27_"  overflow="visible"/>
		</clipPath>
		<rect x="734" y="71" clip-path="url(#SVGID_28_)" width="62" height="24"/>
	</g>
</g>
<g>
	<defs>
		<path id="SVGID_29_" d="M761,207c4.6-0.894,8.631-2.715,12.255-5.645c3.624-2.93,6.142-6.403,7.555-10.42
			c1.413-4.016,1.726-8.045,0.941-12.085c-0.894-4.6-3.324-8.805-7.29-12.614c-5.474-5.258-14.732-11.071-27.775-17.438
			c-13.118-6.417-21.45-11.281-24.996-14.592c-6.105-5.523-9.889-12.045-11.351-19.566c-1.16-5.968-0.788-11.685,1.117-17.151
			c1.905-5.467,5.178-10.119,9.819-13.956S732.908,77.184,739,76c10.939,13.711,5.138,13.394,0.848,14.227
			c-5.532,1.076-9.729,3.633-12.588,7.672c-2.86,4.04-3.812,8.515-2.858,13.426c0.58,2.984,1.763,5.754,3.55,8.309
			c1.787,2.556,4.648,5.161,8.583,7.815c2.141,1.39,8.935,4.811,20.381,10.263c13.577,6.457,23.237,12.676,28.979,18.656
			c5.743,5.98,9.285,12.42,10.626,19.32c1.933,9.946-0.164,19.321-6.291,28.124s-14.599,14.256-25.415,16.359
			c-8.33,1.619-16.315,0.865-23.954-2.263"/>
	</defs>
	<clipPath id="SVGID_30_">
		<use xlink:href="#SVGID_29_"  overflow="visible"/>
	</clipPath>
	<g clip-path="url(#SVGID_30_)">
		<defs>
			<rect id="SVGID_31_" width="1223" height="300"/>
		</defs>
		<clipPath id="SVGID_32_">
			<use xlink:href="#SVGID_31_"  overflow="visible"/>
		</clipPath>
		<rect x="704.679" y="71" clip-path="url(#SVGID_32_)" width="97.538" height="155"/>
	</g>
</g>
<g>
	<defs>
		<polygon id="SVGID_33_" points="708,207 761,207 756.923,221 708,221 		"/>
	</defs>
	<clipPath id="SVGID_34_">
		<use xlink:href="#SVGID_33_"  overflow="visible"/>
	</clipPath>
	<g clip-path="url(#SVGID_34_)">
		<defs>
			<rect id="SVGID_35_" width="1223" height="300"/>
		</defs>
		<clipPath id="SVGID_36_">
			<use xlink:href="#SVGID_35_"  overflow="visible"/>
		</clipPath>
		<rect x="703" y="202" clip-path="url(#SVGID_36_)" width="63" height="24"/>
	</g>
</g>
</svg>
