<?xml version="1.0" encoding="UTF-8"?>
<svg width="1223px" height="300px" viewBox="0 0 1223 300" version="1.1" xmlns="http://www.w3.org/2000/svg" xmlns:xlink="http://www.w3.org/1999/xlink">
    <!-- Generator: Sketch 50.2 (55047) - http://www.bohemiancoding.com/sketch -->
    <title>Dimension logo</title>
    <desc>Created with Sketch.</desc>
    <defs>
        <path d="M799.755,149.47461 L799.755,3.6675 L802.927,3.6675 L899.867,115.2778 L899.867,3.6675 L914.24,3.6675 L914.24,149.47461 L910.969,149.47461 L814.822,39.252 L814.822,149.47461 L799.755,149.47461 Z M695.2982,14.2734 C684.527,14.2734 674.3177,17.0818 664.6698,22.6987 C655.022,28.3156 647.4889,35.8818 642.0702,45.3975 C636.6516,54.9131 633.9423,65.519 633.9423,77.2153 C633.9423,94.5286 639.9391,109.1488 651.9328,121.0764 C663.9265,133.00405 678.3815,138.96777 695.2982,138.96777 C706.5981,138.96777 717.0553,136.22545 726.6701,130.74072 C736.2849,125.256 743.7849,117.7559 749.1706,108.2402 C754.5562,98.7246 757.2489,88.1518 757.2489,76.5215 C757.2489,64.9573 754.5562,54.5001 749.1706,45.1497 C743.7849,35.7992 736.2023,28.3156 726.4223,22.6987 C716.6423,17.0818 706.2677,14.2734 695.2982,14.2734 Z M694.6044,0 C716.6755,0 735.1448,7.3679 750.0131,22.104 C764.881,36.8401 772.315,54.9791 772.315,76.5215 C772.315,97.8657 764.898,115.9716 750.0626,130.83984 C735.2274,145.70808 717.138,153.14209 695.7938,153.14209 C674.1853,153.14209 655.9472,145.74112 641.079,130.93896 C626.2108,116.1368 618.7768,98.2291 618.7768,77.2153 C618.7768,63.2061 622.1634,50.2214 628.9367,38.2607 C635.71,26.3001 644.9447,16.9332 656.641,10.1599 C668.3374,3.3866 680.9917,0 694.6044,0 Z M578.0459,3.6675 L592.6167,3.6675 L592.6167,149.47461 L578.0459,149.47461 L578.0459,3.6675 Z M331.7546,149.47461 L331.7546,3.6675 L334.9265,3.6675 L431.8669,115.2778 L431.8669,3.6675 L446.2395,3.6675 L446.2395,149.47461 L442.9685,149.47461 L346.821,39.252 L346.821,149.47461 L331.7546,149.47461 Z M40.4335,149.47461 L61.1498,3.6675 L63.5287,3.6675 L122.8031,123.3066 L181.4828,3.6675 L183.8617,3.6675 L204.7763,149.47461 L190.4037,149.47461 L176.1303,45.1992 L124.5873,149.47461 L120.9198,149.47461 L68.683,44.4062 L54.5087,149.47461 L40.4335,149.47461 Z M0,3.6675 L14.5708,3.6675 L14.5708,149.47461 L0,149.47461 L0,3.6675 Z" id="path-1"></path>
        <path d="M79.5,10 L84,145 L72.5,145 C32.4594,145 0,112.5406 0,72.5 C0,32.4594 32.4594,0 72.5,0 L82,0" id="path-3"></path>
        <path d="M16.5,2.5 C27.44122,4.9506 66.1596,14.7401 99.5,34 C131.4317,52.4462 158.2659,79.662 158.3428,113.773 C158.5,183.5 47.84739,224.71797 2.53308,228.47465 C38.92922,199.41186 45.5,185.5 45.5,185.5 C45.5,185.5 0,165.5 0,114 C0,65.5 43.00468,42.3537 43.00468,42.3537 C43.00468,42.3537 39.10135,27.327 1.17071,0 C1.17071,0 14.62177,2.0793 16.5,2.5 Z M54,28.5 L59,36.5 L59,49 L52,56.5 C52,56.5 13,75 13,116.3411 C13,153 46.8617,171 52,172.5 C55.5,176 59,179.5 59,179.5 L59,192.5 C54.9884,198.30513 54,199.5 54,199.5 C54,199.5 141.8716,171.08054 143.3916,116.3411 C143.3916,58.702 54,28.5 54,28.5 Z" id="path-5"></path>
        <polygon id="path-7" points="52 0 52 14 2.1538 14 0 0"></polygon>
        <path d="M52,131 C56.6001,130.10583 60.6313,128.28506 64.2551,125.35501 C67.8788,122.425 70.397,118.9518 71.8097,114.9355 C73.2225,110.9192 73.5361,106.8908 72.7507,102.8502 C71.8565,98.2501 69.4264,94.0454 65.4604,90.236 C59.9869,84.9777 50.7287,79.1651 37.6853,72.7978 C24.5676,66.3804 16.2357,61.5166 12.6892,58.2062 C6.5838,52.6837 2.8001,46.1617 1.338,38.6399 C0.178,32.6723 0.5505,26.9551 2.4554,21.4884 C4.3603,16.0217 7.6332,11.3697 12.274,7.5323 C16.9148,3.6949 23.908,1.1842 30,0 C40.9388,13.7113 35.1377,13.3938 30.8484,14.2275 C25.3159,15.303 21.1198,17.8604 18.2601,21.8999 C15.4004,25.9394 14.4478,30.4146 15.4024,35.3255 C15.9824,38.3093 17.1659,41.0791 18.9529,43.6347 C20.7399,46.1904 23.6009,48.7953 27.536,51.4496 C29.6771,52.8397 36.4706,56.2608 47.9168,61.7128 C61.4938,68.1699 71.1535,74.3884 76.8962,80.3684 C82.639,86.3485 86.1809,92.7885 87.5222,99.6886 C89.4555,109.6347 87.3587,119.0094 81.2317,127.81277 C75.1047,136.61616 66.6331,142.06903 55.8167,144.17153 C47.4868,145.79069 39.5021,145.03649 31.8623,141.90889 L52,131 Z" id="path-9"></path>
        <polygon id="path-11" points="0 0 53 0 48.9231 14 0 14"></polygon>
    </defs>
    <g id="Dimension-logo" stroke="none" stroke-width="1" fill="none" fill-rule="evenodd">
        <g id="Group-3" transform="translate(238.000000, 72.000000)">
            <mask id="mask-2" fill="white">
                <use xlink:href="#path-1"></use>
            </mask>
            <g id="Clip-2"></g>
            <polygon id="Fill-1" fill="#000000" mask="url(#mask-2)" points="-5 158.14209 919.24 158.14209 919.24 -5.00001 -5 -5.00001"></polygon>
        </g>
        <g id="Group-6" transform="translate(457.000000, 76.000000)">
            <mask id="mask-4" fill="white">
                <use xlink:href="#path-3"></use>
            </mask>
            <g id="Clip-5"></g>
            <path d="M79.5,10 L82,0 L72.5,0 C32.45936,0 0,32.45936 0,72.5 C0,112.5406 32.45936,145 72.5,145 L84,145" id="Stroke-4" stroke="#000000" stroke-width="28" mask="url(#mask-4)"></path>
        </g>
        <polyline id="Stroke-7" stroke="#000000" stroke-width="28" points="529.5 76 543.9998 76 543.9998 90 529.5 90"></polyline>
        <polyline id="Stroke-9" stroke="#000000" stroke-width="28" points="469.5 139 543.9998 139 543.9998 153 469.5 153"></polyline>
        <polyline id="Stroke-11" stroke="#000000" stroke-width="28" points="529.5 207 543.9998 207 543.9998 221 529.5 221"></polyline>
        <g id="Group-15" transform="translate(48.000000, 36.000000)">
            <mask id="mask-6" fill="white">
                <use xlink:href="#path-5"></use>
            </mask>
            <g id="Clip-14"></g>
            <polygon id="Fill-13" fill="#000000" mask="url(#mask-6)" points="-5 233.47465 163.3429 233.47465 163.3429 -5.00005 -5 -5.00005"></polygon>
        </g>
        <g id="Group-18" transform="translate(739.000000, 76.000000)">
            <mask id="mask-8" fill="white">
                <use xlink:href="#path-7"></use>
            </mask>
            <g id="Clip-17"></g>
            <polygon id="Fill-16" fill="#000000" mask="url(#mask-8)" points="-5 19 57 19 57 -5 -5 -5"></polygon>
        </g>
        <g id="Group-21" transform="translate(709.000000, 76.000000)">
            <mask id="mask-10" fill="white">
                <use xlink:href="#path-9"></use>
            </mask>
            <g id="Clip-20"></g>
            <polygon id="Fill-19" fill="#000000" mask="url(#mask-10)" points="-4.3206 150 93.21774 150 93.21774 -5 -4.3206 -5"></polygon>
        </g>
        <g id="Group-24" transform="translate(708.000000, 207.000000)">
            <mask id="mask-12" fill="white">
                <use xlink:href="#path-11"></use>
            </mask>
            <g id="Clip-23"></g>
            <polygon id="Fill-22" fill="#000000" mask="url(#mask-12)" points="-5 19 58 19 58 -5 -5 -5"></polygon>
        </g>
    </g>
</svg>