<svg id="Layer_1" xmlns="http://www.w3.org/2000/svg" viewBox="0 0 256 256"><style>.st0{fill:#e7424f}</style><path class="st0" d="M0 243.5V11.4C1.9 5.7 5.8 2 11.4 0h232.1c6.5 1.2 10.3 5.5 12.5 11.4v233.2c-2 5.6-5.9 9.3-11.4 11.4h-68.3c.1-2.1.3-4.1.3-6.2 0-29.4.1-58.8 0-88.2 0-3.7.8-4.9 4.7-4.8 8.3.3 16.7 0 25 .2 2.9.1 3.9-.9 4.2-3.8 1.2-10.3 2.5-20.7 4.1-31 .6-3.5-.6-4.2-3.7-4.1-10 .1-20.1 0-30.1.1-2.1 0-4.2.5-4.1-2.9.2-8.7-.2-17.5.5-26.1.8-9.5 5.6-13.7 15.3-14.1 6.4-.3 12.9-.3 19.3-.1 3.3.1 4.8-.5 4.7-4.3-.3-8.9-.2-17.8 0-26.7.1-3.3-1.2-4-4.2-4.3-9.3-.9-18.5-1-27.8-.9-25.2.2-42.8 15.2-46.7 40-1.8 11.3-.9 22.7-.8 34.1 0 4.7-1.5 5.6-5.7 5.5-7.9-.3-15.9 0-23.9-.1-2.9-.1-4 .7-3.9 3.8.2 10.4.2 20.9 0 31.3 0 3 .9 3.9 3.8 3.8 8.5-.2 17.1.1 25.6-.2 3.3-.1 4.1 1 4 4.2-.2 31.7-.2 63.3-.2 95H11.5c-6-2.5-10.3-6.2-11.5-12.7z"/></svg>