<?xml version="1.0" encoding="utf-8"?>
<!-- Generator: Adobe Illustrator 22.1.0, SVG Export Plug-In . SVG Version: 6.00 Build 0)  -->
<svg version="1.1" id="Layer_1" xmlns="http://www.w3.org/2000/svg" xmlns:xlink="http://www.w3.org/1999/xlink" x="0px" y="0px"
	 viewBox="0 0 256 256" style="enable-background:new 0 0 256 256;" xml:space="preserve">
<style type="text/css">
	.st0{fill:#E7424F;}
</style>
<g>
	<path class="st0" d="M0,243.5C0,166.1,0,88.7,0,11.4C1.9,5.7,5.8,2,11.4,0c77.4,0,154.7,0,232.1,0c6.5,1.2,10.3,5.5,12.5,11.4
		c0,77.7,0,155.5,0,233.2c-2,5.6-5.9,9.3-11.4,11.4c-22.8,0-45.5,0-68.3,0c0.1-2.1,0.3-4.1,0.3-6.2c0-29.4,0.1-58.8,0-88.2
		c0-3.7,0.8-4.9,4.7-4.8c8.3,0.3,16.7,0,25,0.2c2.9,0.1,3.9-0.9,4.2-3.8c1.2-10.3,2.5-20.7,4.1-31c0.6-3.5-0.6-4.2-3.7-4.1
		c-10,0.1-20.1,0-30.1,0.1c-2.1,0-4.2,0.5-4.1-2.9c0.2-8.7-0.2-17.5,0.5-26.1c0.8-9.5,5.6-13.7,15.3-14.1c6.4-0.3,12.9-0.3,19.3-0.1
		c3.3,0.1,4.8-0.5,4.7-4.3c-0.3-8.9-0.2-17.8,0-26.7c0.1-3.3-1.2-4-4.2-4.3c-9.3-0.9-18.5-1-27.8-0.9c-25.2,0.2-42.8,15.2-46.7,40
		c-1.8,11.3-0.9,22.7-0.8,34.1c0,4.7-1.5,5.6-5.7,5.5c-7.9-0.3-15.9,0-23.9-0.1c-2.9-0.1-4,0.7-3.9,3.8c0.2,10.4,0.2,20.9,0,31.3
		c0,3,0.9,3.9,3.8,3.8c8.5-0.2,17.1,0.1,25.6-0.2c3.3-0.1,4.1,1,4,4.2c-0.2,31.7-0.2,63.3-0.2,95c-41.7,0-83.4,0-125.2,0
		C5.5,253.7,1.2,250,0,243.5z"/>
</g>
</svg>
