<?xml version="1.0" encoding="utf-8"?>
<!-- Generator: Adobe Illustrator 22.1.0, SVG Export Plug-In . SVG Version: 6.00 Build 0)  -->
<svg version="1.1" id="Layer_1" xmlns="http://www.w3.org/2000/svg" xmlns:xlink="http://www.w3.org/1999/xlink" x="0px" y="0px"
	 viewBox="0 0 224.6 168.3" style="enable-background:new 0 0 224.6 168.3;" xml:space="preserve">
<style type="text/css">
	.st0{fill:#E7424F;}
</style>
<g>
	<path class="st0" d="M1.1,168.3c-0.6,0-1.1-0.5-1.1-1.1L0,2.4c0-1.2,0.9-2.2,2.1-2.3C2.8,0.1,3.4,0,4.1,0c72.1,0,144.2,0,216.3-0.1
		c3.5,0,4.2,1,4.2,4.3c-0.1,53.2-0.1,106.5,0,159.7c0,3.3-0.7,4.3-4.2,4.3 M23.5,12.1c-1.1,0-1.6,1.3-0.8,2c0.4,0.4,0.9,0.8,1.3,1.2
		c26.2,26.5,52.3,53,78.5,79.5c6.5,6.6,13.8,6.7,20.3,0.3c22.2-22.3,44.4-44.7,66.6-67c4.4-4.4,8.9-8.7,13.5-13
		c-0.6-1.5-0.6-1.6-1.2-3L23.5,12.1z M202.2,154.1c-19.5-19.9-38.5-39.4-57.4-58.8c-1.4-1.5-3.7-1.4-5.1,0c-2.9,3.1-5.9,6.1-9,9.1
		c-10.1,9.7-26.1,9.5-36.1-0.3c-3.3-3.2-6.6-6.5-9.7-9.9c-1.5-1.6-2.3-1.4-3.8,0.1c-16.3,16.7-32.6,33.4-48.9,50.1
		c-3.1,3.2-6.2,6.3-9.5,9.7c-0.7,0.7-0.2,2,0.8,2h177.8C202.4,156.1,202.9,154.8,202.2,154.1z M12.3,147c0.8-0.7,1.1-0.9,1.4-1.1
		c19.8-20.2,39.5-40.3,59.3-60.4c1.8-1.8,0.9-2.5-0.4-3.8C53.1,62.1,33.8,42.4,14.3,22.8c0,0,0,0,0,0c-0.8-0.8-2.1-0.3-2.1,0.8V147z
		 M210.5,143.4c0.8,0.7,2,0.2,2-0.9V22.2c-0.7,0.6-1.1,0.8-1.4,1.2c-19.5,19.7-39.1,39.4-58.7,58.9c-1.7,1.7-1,2.4,0.3,3.7
		c11.7,11.9,23.3,24.1,35.1,35.9C195.3,129.4,203.1,136.6,210.5,143.4z"/>
</g>
</svg>
