<svg id="Layer_1" xmlns="http://www.w3.org/2000/svg" viewBox="0 0 224.6 168.3"><style>.st0{fill:#e7424f}</style><path class="st0" d="M1.1 168.3c-.6 0-1.1-.5-1.1-1.1V2.4C0 1.2.9.2 2.1.1c.7 0 1.3-.1 2-.1 72.1 0 144.2 0 216.3-.1 3.5 0 4.2 1 4.2 4.3-.1 53.2-.1 106.5 0 159.7 0 3.3-.7 4.3-4.2 4.3M23.5 12.1c-1.1 0-1.6 1.3-.8 2 .4.4.9.8 1.3 1.2 26.2 26.5 52.3 53 78.5 79.5 6.5 6.6 13.8 6.7 20.3.3 22.2-22.3 44.4-44.7 66.6-67 4.4-4.4 8.9-8.7 13.5-13-.6-1.5-.6-1.6-1.2-3H23.5zm178.7 142c-19.5-19.9-38.5-39.4-57.4-58.8-1.4-1.5-3.7-1.4-5.1 0-2.9 3.1-5.9 6.1-9 9.1-10.1 9.7-26.1 9.5-36.1-.3-3.3-3.2-6.6-6.5-9.7-9.9-1.5-1.6-2.3-1.4-3.8.1l-48.9 50.1c-3.1 3.2-6.2 6.3-9.5 9.7-.7.7-.2 2 .8 2h177.8c1.1 0 1.6-1.3.9-2zM12.3 147c.8-.7 1.1-.9 1.4-1.1 19.8-20.2 39.5-40.3 59.3-60.4 1.8-1.8.9-2.5-.4-3.8-19.5-19.6-38.8-39.3-58.3-58.9-.8-.8-2.1-.3-2.1.8V147zm198.2-3.6c.8.7 2 .2 2-.9V22.2c-.7.6-1.1.8-1.4 1.2-19.5 19.7-39.1 39.4-58.7 58.9-1.7 1.7-1 2.4.3 3.7 11.7 11.9 23.3 24.1 35.1 35.9 7.5 7.5 15.3 14.7 22.7 21.5z"/></svg>