<svg width="93" height="24" viewBox="0 0 93 24" xmlns="http://www.w3.org/2000/svg"><title>Artboard</title><path d="M92.066 7.2c0-5.253-3.341-6.94-8.367-6.94h-6.973c-.843 0-1.621.617-1.751 1.491l-2.659 20.271c-.13 1.037.422 1.718 1.362 1.718h3.243c.973 0 1.719-.649 1.849-1.687l.681-5.188h2.011c5.968-.001 10.604-3.179 10.604-9.665zm-9.371 4.086h-2.531l.714-5.449h2.238c1.751 0 3.015.747 3.015 2.367 0 2.109-1.555 3.082-3.436 3.082zM10.962 0C3.276 0 0 5.352 0 15.016c0 6.227 2.562 8.982 7.816 8.982 6.94 0 9.113-4.086 9.664-8.594l.325-2.465c.097-.875-.389-1.524-1.394-1.524h-5.417c-1.232 0-1.686.746-1.816 1.751l-.097.713c-.129 1.006.454 1.524 1.395 1.524h1.103l-.033.227c-.259 1.85-1.103 2.627-2.983 2.627-1.33 0-2.011-1.199-2.011-3.891 0-4.25.779-8.627 3.665-8.627 1.232 0 2.14 1.136 2.14 2.919 0 1.231.487 1.362 1.654 1.167l2.79-.454c1.394-.227 1.686-.648 1.686-2.367C18.485 3.081 16.832 0 10.962 0zm39.402 18.096c-1.395.131-3.374.324-4.995.324-5.837 0-8.821-.713-10.475-2.626l-1.135-1.233c2.335-1.426 4.378-3.6 4.378-7.361 0-5.253-3.34-6.94-8.367-6.94h-6.648c-1.005 0-1.622.617-1.752 1.491l-2.659 20.302c-.129.876.325 1.687 1.33 1.687h3.308c1.038 0 1.686-.843 1.816-1.718l.747-5.774h1.491l2.562 3.244c2.011 2.53 5.026 4.507 13.718 4.507 2.724 0 4.67-.227 5.935-.355 1.135-.131 1.687-.908 1.783-1.72l.324-2.399c.098-.845-.258-1.526-1.361-1.429zm-21.599-6.81H26.56l.714-5.449h1.913c1.718 0 3.016.747 3.016 2.367-.001 2.109-1.557 3.082-3.438 3.082zm61.546 9.668h-.449c-.234 0-.322.138-.348.31l-.215 1.63c-.019.152-.006.209.164.209h.24c.158 0 .195-.057.215-.215l.063-.468h.075l.14.48c.044.146.082.202.271.202h.246c.14 0 .14-.083.102-.215l-.178-.574c.254-.128.431-.349.431-.722 0-.48-.303-.637-.757-.637zm-.122.98h-.145l.057-.437h.119c.158 0 .247.062.247.184.001.171-.125.253-.278.253zm.184-1.771c-1.277 0-2.187.897-2.187 2.193 0 .998.632 1.644 1.681 1.644 1.284 0 2.199-.879 2.199-2.174 0-1.006-.644-1.663-1.693-1.663zm-.435 3.312c-.727 0-1.163-.461-1.163-1.182 0-.955.626-1.605 1.528-1.605.733 0 1.177.469 1.177 1.201-.001.954-.639 1.586-1.542 1.586zM53.088.259h-2.367c-1.037 0-1.687.649-1.784 1.524l-1.069 8.076c-.227 1.751-.779 2.659-1.881 2.659-1.103 0-1.459-.908-1.233-2.659l1.039-7.913c.129-.876-.292-1.687-1.33-1.687h-2.367c-1.038 0-1.654.811-1.784 1.687l-1.006 7.588c-.648 4.897 1.103 7.588 6.064 7.588 4.995 0 7.427-2.691 8.076-7.588l1.005-7.622c.129-.875-.326-1.653-1.363-1.653zm10.733 5.157c1.524 0 2.433.844 2.433 2.433 0 .584.486.648 1.329.519l3.211-.519c1.167-.195 1.589-.941 1.557-1.784C72.221 2.335 69.724 0 64.373 0c-6.357 0-9.309 4.378-9.309 8.172 0 7.394 9.567 5.675 9.567 8.431 0 .877-.39 2.012-2.53 2.012-1.719 0-2.303-1.104-2.303-2.075 0-.876-.615-.909-1.588-.746l-2.983.486c-1.298.228-1.493 1.069-1.46 1.783.193 3.114 2.237 5.999 7.459 5.935 7.491-.064 9.924-3.6 9.924-7.588 0-7.33-9.535-6.162-9.535-8.951 0-1.135.682-2.043 2.206-2.043z"/></svg>