<svg clip-rule="evenodd" fill-rule="evenodd" stroke-linejoin="round" stroke-miterlimit="1.414" viewBox="0 0 257 200" xmlns="http://www.w3.org/2000/svg"><path d="m46.439 35.003h15.279v11.75h-15.279z" fill="#a9bf00"/><path d="m46.439 54.938h15.279v42.134h-15.279z" fill="#707173"/><g fill-rule="nonzero"><path d="m194.689 97.099h15.278l-22.584-62.054h-15.28zm-52.496-62.044.004-.01h-15.286l.003.01-4.069 11.18c-5.631-7.042-15.339-11.235-29.525-11.235h-23.427v11.754h15.291v-.007h6.128c15.375 0 22.47 5.83 22.47 18.81 0 12.981-7.203 19.752-21.933 19.752h-6.665v-30.371h-15.291v42.111h.008v.007h15.28v-.007h7.582c18.309 0 29.283-7.688 33.735-18.957l.034-.007 8.022-22.042 14.943 41.056h15.279z" fill="#707173"/><path d="m164.768 97.099h-15.278l22.584-62.054h15.28z" fill="#a9bf00"/><path d="m51.479 144.113h3.964l7.608 19.414h-4.489l-1.312-3.644h-7.753l-1.283 3.644h-4.139zm4.606 12.476-1.662-4.636c-.611-1.662-.874-2.915-1.049-3.352h-.059c-.146.467-.465 1.777-1.019 3.352l-1.662 4.636zm10.469-12.476h4.141v16.09h7.228v3.324h-11.369zm16.997 3.38h-5.362v-3.38h14.836v3.38h-5.333v16.033h-4.141zm11.46 6.355c0-5.276 3.527-10.086 10.028-10.086 6.5 0 9.998 4.752 9.998 9.969 0 5.277-3.411 10.145-9.911 10.145-6.499 0-10.115-4.781-10.115-10.028zm15.683 0c0-3.615-1.691-6.763-5.568-6.763-3.906 0-5.743 3.032-5.743 6.645 0 3.645 1.778 6.822 5.656 6.822 3.905 0 5.655-3.09 5.655-6.704zm20.323-9.735h3.964l7.608 19.414h-4.49l-1.311-3.644h-7.753l-1.283 3.644h-4.139zm4.606 12.476-1.662-4.636c-.611-1.662-.875-2.915-1.049-3.352h-.058c-.146.467-.466 1.777-1.02 3.352l-1.662 4.636zm10.411-12.476h5.859c7.637 0 11.105 3.848 11.105 9.445s-3.526 9.969-11.251 9.969h-5.713zm6.034 16.119c4.373 0 6.587-2.245 6.587-6.559 0-4.343-2.127-6.266-6.733-6.266h-1.777v12.825zm15.338-16.119h4.11v19.414h-4.11zm8.719 9.677c0-5.276 3.847-10.029 10.58-10.029 2.915 0 4.868.641 6.384 1.749l-1.836 3.061c-1.195-.874-2.624-1.399-4.635-1.399-4.139 0-6.121 2.798-6.121 6.5 0 3.731 1.777 6.851 5.858 6.851 1.575 0 2.769-.321 3.439-.758v-3.848h-3.585v-3.178h7.52v9.269c-1.37.933-3.614 1.866-7.345 1.866-6.674.002-10.259-4.836-10.259-10.084zm22.477-9.677h11.194v3.38h-7.141v4.372h6.295v3.208h-6.295v5.072h7.345v3.381h-11.397v-19.413z" fill="#707173"/><path d="m46.637 134.303 1.855-3.029c.462.339 2.039 1.545 4.419 1.545 2.072 0 3.279-1.051 3.279-2.38 0-1.823-2.196-2.35-4.606-3.555-2.535-1.237-4.421-2.813-4.421-6.151 0-3.523 2.968-5.718 6.646-5.718 3.37 0 5.162 1.082 6.028 1.731l-1.763 3.059c-.711-.463-2.256-1.267-4.019-1.267-1.668 0-2.75.742-2.75 2.132 0 1.608 1.639 2.133 3.804 3.123 2.719 1.237 5.284 2.628 5.284 6.43 0 3.74-2.813 6.121-7.387 6.121-3.34 0-5.472-1.298-6.369-2.041zm20.119-6.305v-12.612h4.36v12.241c0 3.523 1.266 5.13 4.512 5.13 3.06 0 4.328-1.854 4.328-4.852v-12.519h4.018v12.211c0 5.625-2.813 8.748-8.439 8.748-5.966-.001-8.779-2.968-8.779-8.347zm3.061-16.444c0-1.175.958-2.195 2.288-2.195 1.329 0 2.287 1.02 2.287 2.195 0 1.237-.958 2.225-2.287 2.225-1.33 0-2.288-.989-2.288-2.225zm6.492 0c0-1.175.957-2.195 2.288-2.195 1.329 0 2.287 1.02 2.287 2.195 0 1.237-.958 2.225-2.287 2.225-1.331 0-2.288-.989-2.288-2.225zm15.666 3.832h6.213c8.1 0 11.778 4.081 11.778 10.016s-3.74 10.571-11.932 10.571h-6.058v-20.587zm6.401 17.094c4.636 0 6.985-2.381 6.985-6.956 0-4.604-2.257-6.645-7.14-6.645h-1.886v13.601zm21.664-13.508h-5.688v-3.586h15.733v3.586h-5.656v17.001h-4.39v-17.001zm16.224-3.586h4.357v20.587h-4.357zm12.826 0h6.862c4.822 0 7.604 2.071 7.604 5.935 0 3.37-2.287 5.07-4.79 5.534v.062c.556.402 1.298 1.204 2.411 2.936l4.018 6.121h-4.792l-3.77-5.873c-1.607-2.381-1.948-2.598-2.905-2.598h-.278v8.471h-4.358v-20.588zm6.737 9.026c2.319 0 3.401-1.05 3.401-2.844 0-1.884-1.082-2.843-3.586-2.843h-2.194v5.687zm13.722 1.298c0-5.595 3.741-10.695 10.633-10.695 6.894 0 10.604 5.038 10.604 10.571 0 5.595-3.618 10.758-10.511 10.758s-10.726-5.069-10.726-10.634zm16.631 0c0-3.833-1.792-7.171-5.903-7.171-4.143 0-6.091 3.215-6.091 7.048 0 3.863 1.886 7.233 5.997 7.233 4.142 0 5.997-3.277 5.997-7.11zm11.556-10.324h4.389v17.063h7.666v3.524h-12.055z" fill="#707173"/></g></svg>