<svg viewBox="0 0 414.7 191.9" xmlns="http://www.w3.org/2000/svg"><path d="M7.5 7.5h177v177H7.5z" fill="#872a21"/><path d="M30.5 106.4h11v19.2h16.4v-19.2h11v47.4h-11V135H41.5v18.8h-11zm48.1 31.3v-31.4h10.9V137c0 5.4 3.3 8.5 8.2 8.5 5 0 8.2-3 8.2-8.5v-30.7h11v31.4c0 11-7.5 17.3-19.2 17.3s-19.1-6.2-19.1-17.3zm83.5 3c0 8.1-5.8 13.1-15.2 13.1h-20.2v-47.4h19.5c9.4 0 15.2 4.7 15.2 12.3 0 6.2-3.6 9.8-9.1 10.8 5.5.6 9.8 4.6 9.8 11.2zm-24.5-26.4v11.5h6.1c4.2 0 6.7-2.2 6.7-5.8s-2.4-5.8-6.7-5.8h-6.1zm13.4 24.9c0-3.5-2.6-5.8-6.6-5.8h-6.8v12.1h6.8c4.1 0 6.6-2.3 6.6-6.3zM30.5 77.1h6.3v21.2h-6.3zm12.7 0h8L55.7 91l4.5-13.8H68v21.2h-6V84.9l-4 13.4h-4.7l-4.1-13.5v13.5h-6zM92.4 85c0 4.5-3.3 7.9-7.9 7.9h-3.9v5.4h-6.3V77.1h10.2c4.6 0 7.9 3.4 7.9 7.9zm-6.3 0c0-1.7-1.2-3-2.8-3h-2.6v6h2.6c1.5 0 2.8-1.2 2.8-3zm21.8 10.9H101l-.7 2.4h-6.5l7.2-21.2h6.8l7.2 21.2h-6.5zm-1.2-4.6l-2.2-8.2-2.2 8.2zm10.9-3.6c0-6.6 4.8-11.2 11.7-11.2 6.6 0 10.9 3.2 11.4 8.8H134c-.4-1.9-2.1-3.2-4.7-3.2-3.3 0-5.2 2.2-5.2 5.7s1.9 5.7 5.2 5.7c2.6 0 4.3-1.3 4.7-3.2h6.6c-.5 5.6-4.8 8.8-11.4 8.8-6.9-.1-11.6-4.8-11.6-11.4zm32.1-5.1h-5.4v-5.4h17.2v5.4H156v15.7h-6.3z" fill="#fff"/><path d="M217.2 116.1h-13v-9.8h37v9.8h-13.1v37.7h-10.9zm23.2 5h10.4v6.8c1.2-4.9 5-7.4 9-7.4 1.2 0 1.9.1 2.7.3v9.6c-1.2-.1-1.8-.2-3.1-.2-5.1 0-8.6 3-8.6 10.9v12.6h-10.4zm59.2 19.2h-24.1c.2 4.3 3 6.7 7.7 6.7 3.2 0 5.2-1 6.1-3h10.2c-1 6.4-7.6 10.8-16.3 10.8-11.1 0-17.9-6.4-17.9-17.3 0-10.7 7-17.3 17.6-17.3 10.2 0 17.1 6.4 17.1 15.6-.1 1.7-.2 2.6-.4 4.5zm-9.9-6.4c-.1-4.3-2.5-6.8-6.9-6.8-4.5 0-7.2 2.8-7.2 6.8zm15.9-12.8H316v4.7c1.9-3.7 5.6-5.6 10.6-5.6 7.9 0 11.9 4.5 11.9 13.3v20.2H328V137c0-5.5-1.6-8-5.8-8-4.1 0-6.3 2.7-6.3 7.7v17.1h-10.4v-32.7zm60.8 24.4v8.3c-1.5.3-3.9.5-6.9.5-4.9 0-11.6-1.1-11.6-12v-13h-5.1v-8.2h5.1v-9.7h10.4v9.7h7.4v8.2h-7.4v10.8c0 4.8 2 5.6 4.5 5.6 1.2 0 2.6 0 3.6-.2zm2.7-8c0-10 6.9-17.3 18.1-17.3s18.1 7.3 18.1 17.3-6.9 17.3-18.1 17.3-18.1-7.4-18.1-17.3zm26 0c0-4.9-2.9-8.5-7.8-8.5s-7.8 3.6-7.8 8.5 2.8 8.5 7.8 8.5c4.8 0 7.8-3.6 7.8-8.5z" fill="#424241"/></svg>