<?xml version="1.0" encoding="utf-8"?>
<!-- Generator: Adobe Illustrator 18.0.0, SVG Export Plug-In . SVG Version: 6.00 Build 0)  -->
<!DOCTYPE svg PUBLIC "-//W3C//DTD SVG 1.1//EN" "http://www.w3.org/Graphics/SVG/1.1/DTD/svg11.dtd">
<svg version="1.1" id="Layer_1" xmlns="http://www.w3.org/2000/svg" xmlns:xlink="http://www.w3.org/1999/xlink" x="0px" y="0px"
	 viewBox="0 0 414.7 191.9" style="enable-background:new 0 0 414.7 191.9;" xml:space="preserve">
<style type="text/css">
	.st0{fill:#872A21;}
	.st1{fill:#FFFFFF;}
	.st2{fill:#424241;}
</style>
<g>
	<rect x="7.5" y="7.5" class="st0" width="177" height="177"/>
	<g>
		<path class="st1" d="M30.5,106.4h11v19.2h16.4v-19.2h11v47.4h-11V135H41.5v18.8h-11V106.4z"/>
		<path class="st1" d="M78.6,137.7v-31.4h10.9v30.7c0,5.4,3.3,8.5,8.2,8.5c5,0,8.2-3,8.2-8.5v-30.7h11v31.4c0,11-7.5,17.3-19.2,17.3
			S78.6,148.8,78.6,137.7z"/>
		<path class="st1" d="M162.1,140.7c0,8.1-5.8,13.1-15.2,13.1h-20.2v-47.4h19.5c9.4,0,15.2,4.7,15.2,12.3c0,6.2-3.6,9.8-9.1,10.8
			C157.8,130.1,162.1,134.1,162.1,140.7z M137.6,114.3v11.5h6.1c4.2,0,6.7-2.2,6.7-5.8c0-3.6-2.4-5.8-6.7-5.8H137.6z M151,139.2
			c0-3.5-2.6-5.8-6.6-5.8h-6.8v12.1h6.8C148.5,145.5,151,143.2,151,139.2z"/>
		<path class="st1" d="M30.5,77.1h6.3v21.2h-6.3V77.1z"/>
		<path class="st1" d="M43.2,77.1h8L55.7,91l4.5-13.8H68v21.2h-6V84.9L58,98.3h-4.7l-4.1-13.5v13.5h-6V77.1z"/>
		<path class="st1" d="M92.4,85c0,4.5-3.3,7.9-7.9,7.9h-3.9v5.4h-6.3V77.1h10.2C89.1,77.1,92.4,80.5,92.4,85z M86.1,85
			c0-1.7-1.2-3-2.8-3h-2.6v6h2.6C84.8,88,86.1,86.8,86.1,85z"/>
		<path class="st1" d="M107.9,95.9H101l-0.7,2.4h-6.5l7.2-21.2h6.8l7.2,21.2h-6.5L107.9,95.9z M106.7,91.3l-2.2-8.2l-2.2,8.2H106.7z
			"/>
		<path class="st1" d="M117.6,87.7c0-6.6,4.8-11.2,11.7-11.2c6.6,0,10.9,3.2,11.4,8.8H134c-0.4-1.9-2.1-3.2-4.7-3.2
			c-3.3,0-5.2,2.2-5.2,5.7s1.9,5.7,5.2,5.7c2.6,0,4.3-1.3,4.7-3.2h6.6c-0.5,5.6-4.8,8.8-11.4,8.8C122.3,99,117.6,94.3,117.6,87.7z"
			/>
		<path class="st1" d="M149.7,82.6h-5.4v-5.4h17.2v5.4H156v15.7h-6.3V82.6z"/>
	</g>
</g>
<g>
	<path class="st2" d="M217.2,116.1h-13v-9.8h37v9.8h-13.1v37.7h-10.9V116.1z"/>
	<path class="st2" d="M240.4,121.1h10.4v6.8c1.2-4.9,5-7.4,9-7.4c1.2,0,1.9,0.1,2.7,0.3v9.6c-1.2-0.1-1.8-0.2-3.1-0.2
		c-5.1,0-8.6,3-8.6,10.9v12.6h-10.4V121.1z"/>
	<path class="st2" d="M299.6,140.3h-24.1c0.2,4.3,3,6.7,7.7,6.7c3.2,0,5.2-1,6.1-3h10.2c-1,6.4-7.6,10.8-16.3,10.8
		c-11.1,0-17.9-6.4-17.9-17.3c0-10.7,7-17.3,17.6-17.3c10.2,0,17.1,6.4,17.1,15.6C299.9,137.5,299.8,138.4,299.6,140.3z
		 M289.7,133.9c-0.1-4.3-2.5-6.8-6.9-6.8c-4.5,0-7.2,2.8-7.2,6.8H289.7z"/>
	<path class="st2" d="M305.6,121.1H316v4.7c1.9-3.7,5.6-5.6,10.6-5.6c7.9,0,11.9,4.5,11.9,13.3v20.2H328V137c0-5.5-1.6-8-5.8-8
		c-4.1,0-6.3,2.7-6.3,7.7v17.1h-10.4V121.1z"/>
	<path class="st2" d="M366.4,145.5v8.3c-1.5,0.3-3.9,0.5-6.9,0.5c-4.9,0-11.6-1.1-11.6-12v-13h-5.1v-8.2h5.1v-9.7h10.4v9.7h7.4v8.2
		h-7.4v10.8c0,4.8,2,5.6,4.5,5.6C364,145.7,365.4,145.7,366.4,145.5z"/>
	<path class="st2" d="M369.1,137.5c0-10,6.9-17.3,18.1-17.3c11.2,0,18.1,7.3,18.1,17.3c0,10-6.9,17.3-18.1,17.3
		C376,154.8,369.1,147.4,369.1,137.5z M395.1,137.5c0-4.9-2.9-8.5-7.8-8.5c-4.9,0-7.8,3.6-7.8,8.5s2.8,8.5,7.8,8.5
		C392.1,146,395.1,142.4,395.1,137.5z"/>
</g>
</svg>
