<?xml version="1.0" encoding="utf-8"?>
<!-- Generator: Adobe Illustrator 21.1.0, SVG Export Plug-In . SVG Version: 6.00 Build 0)  -->
<svg version="1.1" id="Livello_1" xmlns="http://www.w3.org/2000/svg" xmlns:xlink="http://www.w3.org/1999/xlink" x="0px" y="0px"
	 viewBox="0 0 761.893 190.011" enable-background="new 0 0 761.893 190.011" xml:space="preserve">
<g>
	<g>
		<path fill="#0D97D5" d="M343.408,0h61.566v16.291h-43.137v24.573h38.06v15.892h-38.06v39.395h-18.429V0z"/>
		<path fill="#0D97D5" d="M469.735,96.152h-14.157l-1.868-9.482c-5.073,7.477-12.287,11.218-22.168,11.218
			c-12.689,0-21.769-6.942-21.769-20.7c0-11.218,8.011-22.303,32.184-22.303c4.006,0,6.68,0.133,10.016,0.535v-5.21
			c0-8.411-4.405-12.015-12.017-12.015c-8.546,0-14.024,2.67-20.835,6.676l-6.008-10.686c7.612-6.008,18.16-10.147,28.711-10.147
			c17.63,0,27.911,7.61,27.911,25.906V96.152z M451.972,67.17c-2.001-0.399-4.808-0.665-8.411-0.665
			c-9.615,0-16.16,2.537-16.16,10.416c0,5.21,3.338,7.88,9.615,7.88c9.216,0,14.956-8.415,14.956-15.759V67.17z"/>
		<path fill="#0D97D5" d="M548.25,38.992v39.532c0,4.139,1.335,5.742,4.538,5.742c2.138,0,6.278-0.535,8.279-1.204l1.737,12.152
			c-4.675,1.606-11.219,2.673-16.56,2.673c-10.551,0-15.625-5.742-15.625-15.756V38.992H508.32V78.79
			c0,4.139,1.867,5.476,5.073,5.476c2.005,0,3.871-0.399,5.877-1.071l1.736,12.019c-4.673,1.739-9.48,2.673-14.691,2.673
			c-10.548,0-15.49-5.742-15.49-15.756V38.992h-9.348V28.447l9.615-2.806l1.868-20.032h15.359V25.64h22.566l1.872-20.165h15.492
			V25.64h12.95v13.352H548.25z"/>
		<path fill="#0D97D5" d="M619.951,96.152l-1.468-9.216c-5.075,5.742-12.021,10.952-22.303,10.952
			c-16.426,0-22.437-9.748-22.437-24.441V25.64h17.765v43.534c0,8.814,2.537,13.754,10.547,13.754c6.412,0,11.22-3.604,14.689-7.61
			V25.64h17.764v70.511H619.951z"/>
		<path fill="#0D97D5" d="M668.151,35.791c3.34-6.547,9.08-11.753,15.625-11.753c2.539,0,4.942,0.665,6.944,1.47l-1.337,16.158
			c-2.267-0.668-4.137-0.934-6.674-0.934c-5.341,0-10.286,4.808-12.553,8.681v46.739h-17.763V25.64h14.157L668.151,35.791z"/>
		<path fill="#0D97D5" d="M760.027,88.807c-8.28,6.141-17.897,9.08-28.581,9.08c-21.232,0-34.054-12.82-34.054-36.456
			c0-22.705,13.221-37.394,34.187-37.394c19.498,0,30.315,11.351,30.315,34.189c0,1.599-0.133,7.477-0.266,8.677H716.09
			c0.799,9.615,5.474,16.291,17.493,16.291c7.079,0,12.818-1.868,20.7-6.008L760.027,88.807z M744.934,54.087
			c0-8.951-3.203-16.694-13.221-16.694c-11.751,0-15.224,10.948-15.49,16.694H744.934z"/>
	</g>
	<g>
		<path fill="#0D97D5" d="M347.786,115.859c2.948,0,5.083,1.832,5.083,4.675c0,2.64-2.134,4.472-5.083,4.472
			c-2.843,0-5.081-1.831-5.081-4.472C342.705,117.69,344.943,115.859,347.786,115.859z M351.445,188.308h-7.418v-53.345h7.418
			V188.308z"/>
		<path fill="#0D97D5" d="M374.098,134.963v8.027c4.37-5.284,10.363-9.246,17.783-9.246c12.396,0,16.461,8.33,16.461,20.013v34.55
			h-7.522v-33.026c0-9.958-3.251-14.633-10.564-14.633c-7.418,0-13.415,6.1-15.75,8.947v38.712h-7.418v-53.345H374.098z"/>
	</g>
	<g>
		<path fill="#0D97D5" d="M490.505,178.937c-6.094,6.705-14.528,11.074-25.096,11.074c-21.542,0-30.585-17.58-30.585-38.103
			c0-20.423,10.058-37.593,30.989-37.593c13.821,0,24.285,8.434,24.59,21.845h-5.993c-0.713-8.23-5.792-16.258-18.699-16.258
			c-15.649,0-24.385,13.005-24.385,31.7c0,21.339,9.756,32.822,24.385,32.822c9.754,0,15.852-4.065,21.136-9.552L490.505,178.937z"
			/>
		<path fill="#0D97D5" d="M501.98,188.792v-73.159h5.792v73.159H501.98z"/>
		<path fill="#0D97D5" d="M543.839,134.328c14.326,0,23.773,10.265,23.773,27.944c0,17.273-9.447,27.738-23.978,27.738
			c-14.733,0-23.268-10.465-23.268-27.638C520.366,144.996,529.513,134.328,543.839,134.328z M543.839,184.623
			c9.855,0,17.679-7.112,17.679-22.351c0-15.446-7.823-22.561-17.679-22.561c-9.857,0-17.375,7.418-17.375,22.561
			C526.464,177.512,533.982,184.623,543.839,184.623z"/>
		<path fill="#0D97D5" d="M613.836,188.792v-8.131c-3.351,4.169-9.447,9.349-17.881,9.349c-13.313,0-16.258-8.84-16.258-19.101
			V135.55h5.893v34.24c0,9.552,2.642,14.833,11.378,14.833c7.317,0,12.805-5.181,16.564-9.852V135.55h5.792v53.242H613.836z"/>
		<path fill="#0D97D5" d="M671.544,181.171c-2.541,3.15-8.332,8.84-17.883,8.84c-15.038,0-21.745-11.38-21.745-27.738
			c0-16.564,7.623-27.944,21.848-27.944c8.434,0,13.614,4.372,17.578,9.249v-27.944h5.69v73.159h-5.387L671.544,181.171z
			 M671.241,150.18c-2.642-3.659-8.537-10.468-16.766-10.468c-9.754,0-16.461,8.031-16.461,22.561
			c0,10.871,4.167,22.351,16.969,22.351c8.127,0,13.513-5.893,16.258-9.242V150.18z"/>
		<path fill="#0D97D5" d="M697.042,180.359c2.847,0,4.977,1.724,4.977,4.774c0,3.05-2.13,4.878-4.977,4.878
			c-2.845,0-4.876-1.828-4.876-4.778C692.167,182.083,694.299,180.359,697.042,180.359z"/>
		<path fill="#0D97D5" d="M720.717,116.852c2.437,0,4.163,1.625,4.163,3.966c0,2.334-1.726,3.958-4.163,3.958
			c-2.441,0-4.372-1.625-4.372-3.958C716.345,118.477,718.276,116.852,720.717,116.852z M723.457,188.792h-5.688V135.55h5.688
			V188.792z"/>
		<path fill="#0D97D5" d="M746.418,140.528v39.321c0,3.966,1.322,5.284,4.778,5.284c2.234,0,4.47-0.709,6.298-1.525l1.322,4.268
			c-2.134,1.015-5.69,2.134-8.434,2.134c-6.299,0-9.652-2.644-9.652-8.939v-40.543h-6.503v-3.759l6.503-1.219l1.015-14.124h4.673
			v14.124h10.16v4.978H746.418z"/>
	</g>
</g>
<g>
	<path fill="#0D97D5" d="M161.96,87.526H88.176c-1.624,0-2.997,1.361-2.997,2.995l-0.025,99.473h137.619l0.343-49.084
		c0-1.927-1.35-2.472-2.148-2.472h-43.584c-6.379,0-11.574-5.195-11.574-11.575V91.748C165.809,88.179,163.205,87.526,161.96,87.526
		z M94.219,133.641c0-1.595,1.308-2.89,2.901-2.89h58.205c1.593,0,2.898,1.295,2.898,2.89v1.944c0,1.592-1.306,2.895-2.898,2.895
		H97.12c-1.593,0-2.901-1.303-2.901-2.895V133.641z M204.73,157.446c1.59,0,2.898,1.295,2.898,2.885v1.945
		c0,1.594-1.309,2.9-2.898,2.9h-9.65c-0.08,0.004-0.148,0.045-0.227,0.045h-97.91c-1.59,0-2.897-1.307-2.897-2.903v-1.931
		c0-1.595,1.308-2.903,2.897-2.903l49.389,0.001c0.067-0.007,0.124-0.039,0.194-0.039H204.73z"/>
	<path fill="#0D97D5" d="M212.207,129.868c4.083,0,1.694-2.339,1.694-2.339L176.73,95.766c0,0-2.341-2.184-2.341,0.665v30.432
		c0,1.65,1.342,3.005,2.994,3.005H212.207z"/>
	<path fill="#0D97D5" d="M308.265,133.625c0-27.051-18.911-49.641-44.137-55.109C260.078,34.488,223.058,0,177.967,0
		c-32.597,0-60.973,18.029-75.729,44.654c-6.457-5.35-14.746-8.567-23.786-8.567c-20.605,0-37.308,16.704-37.308,37.309
		c0,1.951,0.152,3.868,0.439,5.74C17.647,85.531,0,107.499,0,133.629c0,26.309,17.608,50.317,42.271,56.075l0.193,0.037
		l12.909,0.253c0.197,0,0.392,0.017,0.588,0.017c0.198,0,0.391-0.017,0.587-0.017h20.417l-0.368-99.473
		c0-6.388,5.203-11.574,11.578-11.574h73.785c5.022,0,11.741,2.415,15.632,5.61l46.9,38.571c4.096,3.37,7.178,9.912,7.178,15.217
		l-0.065,51.648h20.174c0.176,0,0.349,0.013,0.527,0.013c0.177,0,0.353-0.013,0.53-0.013l12.396-0.384l-0.129-0.002
		C290.228,184.063,308.265,160.604,308.265,133.625z"/>
</g>
</svg>
