<?xml version="1.0" encoding="utf-8"?>
<!-- Generator: Adobe Illustrator 22.1.0, SVG Export Plug-In . SVG Version: 6.00 Build 0)  -->
<svg version="1.1" id="Layer_1" xmlns="http://www.w3.org/2000/svg" xmlns:xlink="http://www.w3.org/1999/xlink" x="0px" y="0px"
	 viewBox="0 0 1190.5 841.9" style="enable-background:new 0 0 1190.5 841.9;" xml:space="preserve">
<style type="text/css">
	.st0{fill:#EA983E;}
	.st1{fill:#99C455;}
	.st2{fill:#F7EC5C;}
	.st3{fill:#52A8DC;}
	.st4{fill:#D9308A;}
	.st5{fill:#DA3832;}
</style>
<g>
	<polygon class="st3" points="196.8,189.3 196.8,431.6 65.6,480.7 116.1,491.2 246.7,442.1 246.8,252.6 280.9,449.5 166.2,501.4 
		220.4,512.3 362.4,466.8 398.9,279.6 398.9,474.6 271.5,522 324.1,533.2 450.8,485.6 450.8,234.3 369.7,220.1 323,458.5 
		322.9,458.4 273.6,203.3 	"/>
	<g>
		<path class="st3" d="M604.8,349.7v168.6c-76.7,26-101,5.5-101,5.5c-7.6-8.8,25.9-21.5,25.9-21.5V336.1l-54-9.8v164.6
			c-112.2,40.3-83.5,58.4-83.5,58.4c33.8,22.6,144.5-5.3,144.5-5.3l-54.2,20.5l52.1,11.1l124.6-45.6V359.4L604.8,349.7z"/>
		<path class="st3" d="M864.7,467.8c0,0-12.5-9.2-50.4-26.3c-37.8-17.1-81.2-32-78.9-63.9c2.3-31.8,28.9-37.2,52.5-32.5
			c23.6,4.7,55.7,19.2,58.2,63.2l58,10.7c0,0,6.1-81.8-75.9-121.5c0,0-63.8-29.3-110.1-2.8c-46.3,26.5-37.2,99.3-34.2,110.2
			c3,10.9,12.8,51,73.6,78c0,0,40.8,18.3,47.4,21.6c6.6,3.2,64,23.1,47,66.3c-33.8,11.9-89.5,7-98.9,5.2c-9.3-1.7-34-7-30.2-16.6
			c3.8-9.6,14.7-12.9,14.7-12.9c-5.1-11.4-5.4-25.2-5.4-25.2L676.1,510c-0.6,15.7,1.4,23.8,1.4,23.8c-47.1,15.3-56.1,35.4-56.9,38.3
			c-4.9,18,10.7,30.9,40.7,38.5c77.3,19.6,249.6-27.1,249.6-27.1S929.6,509.7,864.7,467.8"/>
		<path class="st3" d="M1087.6,544.5l-99.8-19.6c1.1-9.4,10.2-57,55.6-43C1088.8,495.8,1087.6,544.5,1087.6,544.5 M1092.5,447.7
			c0,0-68.3-48.7-122.5-10.6c0,0-55.8,35.1-36.8,151c-126.4,57.5-23,73.2-23,73.2c85,13.2,205.3-21.4,230.2-29l-59-12.6
			c-27.9,8.8-82.1,14.2-100.1,4.9c-18.7-9.7,10.2-23.9,10.2-23.9s-4.8-11.1-5.2-31.9l160.7,31.4
			C1147,600.1,1159.9,498.3,1092.5,447.7"/>
	</g>
</g>
<g>
	<polygon points="123.9,293.1 124,342.8 115.3,340.9 115.3,305.7 104.9,338.7 97.7,337.2 87.3,300.1 87.1,300.1 87.2,335 
		78.5,333.1 78.4,283.4 91.5,286.2 101.5,322.5 110.9,290.3 	"/>
	<g>
		<path d="M160.5,314.5l0.1,36l-8-1.7l0-5l-0.2-0.1c-2.1,3.6-5.8,4.8-9.3,4c-8.9-1.9-11.2-8.3-11.2-17.2l0-22.2l8.4,1.8l0,20.4
			c0,5.9,1.5,9.2,5.4,10c4.6,1,6.5-1.6,6.5-8.9l0-18.9L160.5,314.5z"/>
		<path d="M180.1,317.7c6.7,1.4,12.8,5.4,13.5,14.4l-8-1.7c-0.2-3.9-2.7-5.5-5.7-6.1c-1.9-0.4-4.7-0.6-4.7,2.4c0,3.5,4.7,5,9.5,7.4
			c4.9,2.4,9.7,5.5,9.7,12.2c0,9.5-6.9,11-13.9,9.5c-7.1-1.5-14-6.1-14.4-15.7l8,1.7c0.1,4.3,3.1,6.7,6.5,7.4
			c2.4,0.5,5.5,0.1,5.5-3.4c0-3-3.5-4.8-9.5-7.6c-4.9-2.2-9.7-5.3-9.7-11.7C166.8,317.3,173.5,316.3,180.1,317.7"/>
		<path d="M206.8,338.5l13.7,2.9c-0.8-5.2-2.6-8.2-6.7-9.1C208.5,331.2,207,335.8,206.8,338.5 M214,325
			c10.4,2.2,15.5,13.6,14.9,24.5l-22.1-4.7c0.2,6.3,2.9,9.7,7.5,10.7c3.4,0.7,6.1-1.1,6.6-3.2l7.4,1.6c-2.3,8-7.4,10.5-14.3,9
			c-9.7-2-15.6-11.1-15.7-22.3C198.4,329.9,204.7,323,214,325"/>
		<path d="M249.4,363c5.8,1.2,7.5-4.2,7.4-9.9c0-5.8-1.7-11.9-7.5-13.1c-5.7-1.2-7.4,4.2-7.4,10C242,355.6,243.7,361.8,249.4,363
			 M249.3,332.5c9.6,2.1,15.9,10.9,15.9,22.4c0,11.4-6.2,17.6-15.8,15.6c-9.6-2-15.8-10.9-15.8-22.3
			C233.5,336.6,239.7,330.4,249.3,332.5"/>
		<path d="M302.8,374.3c5.5,1.2,7.2-4.2,7.2-10.1c0-5.8-1.8-11.8-7.2-12.9c-5.5-1.2-7.4,4-7.4,9.9
			C295.4,366.8,297.6,373.2,302.8,374.3 M309.7,332.5l8.4,1.8l0.1,49.7l-8-1.7l0-4.6c-2,3.5-5.5,4.4-9.4,3.6
			c-9.2-2-13.7-12.2-13.7-22.2c0-9.7,4.5-17.7,13.5-15.8c3.6,0.8,7.2,3.3,9.1,7.3L309.7,332.5z"/>
		<path d="M332,365.1l13.7,2.9c-0.8-5.2-2.6-8.2-6.7-9.1C333.6,357.8,332.1,362.4,332,365.1 M339.2,351.6
			c10.4,2.2,15.5,13.6,14.9,24.5l-22.1-4.7c0.2,6.3,2.9,9.7,7.5,10.7c3.4,0.7,6.1-1.1,6.6-3.2l7.4,1.6c-2.4,8-7.4,10.6-14.3,9.1
			c-9.6-2.1-15.6-11.1-15.6-22.3C323.5,356.4,329.9,349.6,339.2,351.6"/>
	</g>
	<polygon points="359.9,393 368.3,394.7 368.2,345 359.8,343.2 	"/>
	<polygon points="375.8,396.3 384.2,398.1 384.1,348.4 375.7,346.6 	"/>
	<g>
		<path d="M398.3,379.2l13.7,2.9c-0.8-5.2-2.6-8.2-6.7-9.1C399.9,371.9,398.4,376.5,398.3,379.2 M405.5,365.7
			c10.4,2.2,15.4,13.6,14.9,24.5l-22.1-4.7c0.2,6.3,2.9,9.7,7.5,10.7c3.4,0.7,6.1-1.1,6.6-3.2l7.4,1.6c-2.4,8-7.4,10.6-14.3,9.1
			c-9.7-2.1-15.7-11.1-15.7-22.3C389.8,370.5,396.2,363.7,405.5,365.7"/>
		<path d="M458.3,363c8.8,1.9,16.9,8.1,17,19.6l-9-1.9c-0.3-6-3.9-8.4-8.3-9.3c-3-0.6-6.4,0.1-6.4,4.3c0,3.8,2,4.8,12.6,10.2
			c3.1,1.5,12.6,5.9,12.6,17.2c0,9.1-6.1,14.7-17.6,12.2c-9.3-2-18.1-9.3-18-21.5l9,1.9c0,6.6,4.4,10.1,9.4,11.2
			c3.2,0.7,8.2,0.6,8.2-4.4c0-5.4-6.3-7.6-12.6-10.9c-6.3-3.3-12.6-7.5-12.6-16.8C442.5,364.5,450.7,361.4,458.3,363"/>
		<path d="M496.6,385c7.2,1.5,13.9,7.4,14.4,16.7l-8.2-1.7c-0.6-4.2-2.8-6.8-6.2-7.5c-5.4-1.1-7.2,4.9-7.1,10.2
			c0,5.2,1.7,11.7,7,12.8c3.9,0.8,6.2-1.6,6.7-5.9l8.1,1.7c-1.1,9.3-6.6,13.3-14.7,11.6c-9.2-2-15.5-11-15.5-21.8
			C481,390,486.6,382.9,496.6,385"/>
	</g>
	<polygon points="516.7,384.7 525.1,386.5 525.1,378.3 516.7,376.6 	"/>
	<polygon points="516.8,426.3 525.2,428.1 525.1,392.1 516.7,390.3 	"/>
	<g>
		<path d="M539.3,409.2l13.6,2.9c-0.8-5.2-2.6-8.2-6.7-9.1C540.9,401.9,539.4,406.5,539.3,409.2 M546.5,395.6
			c10.4,2.2,15.5,13.6,14.9,24.5l-22.1-4.7c0.2,6.3,2.8,9.7,7.5,10.7c3.4,0.7,6.1-1.1,6.6-3.2l7.4,1.6c-2.3,8-7.4,10.5-14.3,9.1
			c-9.6-2-15.6-11.1-15.6-22.3C530.9,400.5,537.2,393.7,546.5,395.6"/>
		<path d="M584.4,403.7c8.9,1.9,11.2,8.3,11.2,17.2l0,22.2l-8.4-1.8l0-20.4c0-5.9-1.5-9.2-5.4-10c-4.6-1-6.5,1.6-6.5,8.9l0.1,18.9
			L567,437l-0.1-36l8,1.7l0,5l0.2,0C577.2,404.1,580.9,402.9,584.4,403.7"/>
	</g>
	<polygon points="627.7,413.9 627.7,421.3 611.8,439.1 628.9,442.7 628.9,450.1 600.8,444.2 600.8,436.7 616.7,419 601.9,415.8 
		601.9,408.4 	"/>
	<g>
		<path d="M640.9,430.8l13.7,2.9c-0.8-5.2-2.6-8.2-6.7-9.1C642.5,423.5,641,428.1,640.9,430.8 M648,417.2
			c10.4,2.2,15.5,13.6,14.9,24.5l-22.1-4.7c0.2,6.3,2.8,9.7,7.5,10.7c3.4,0.7,6-1.1,6.6-3.2l7.4,1.6c-2.3,8-7.3,10.5-14.3,9.1
			c-9.6-2-15.6-11.1-15.6-22.3C632.4,422.1,638.7,415.2,648,417.2"/>
	</g>
</g>
</svg>
