<svg xmlns="http://www.w3.org/2000/svg" viewBox="0 0 156.6 42.66"><defs><style>.cls-1{fill:#1a181b;}.cls-2,.cls-5{fill:#da6c37;}.cls-3{fill:#343434;}.cls-4{fill:#efb647;}.cls-4,.cls-5{fill-rule:evenodd;}</style></defs><title>Risorsa 1</title><g id="Livello_2" data-name="Livello 2"><g id="Livello_1-2" data-name="Livello 1"><path class="cls-1" d="M37.92,31.13a5.47,5.47,0,0,1-2.25-.44,4.41,4.41,0,0,1-1.6-1.21,5.12,5.12,0,0,1-1-1.82,8.47,8.47,0,0,1,0-4.54,5.16,5.16,0,0,1,1-1.83,4.55,4.55,0,0,1,1.6-1.22,5.32,5.32,0,0,1,2.25-.45,5.25,5.25,0,0,1,2.25.45,4.68,4.68,0,0,1,1.61,1.22,5.14,5.14,0,0,1,.95,1.83,8.47,8.47,0,0,1,0,4.54,5.1,5.1,0,0,1-.95,1.82,4.53,4.53,0,0,1-1.61,1.21A5.41,5.41,0,0,1,37.92,31.13Zm0-1.69a2.43,2.43,0,0,0,2.19-1.08,5.35,5.35,0,0,0,.7-3,5.35,5.35,0,0,0-.7-3,2.44,2.44,0,0,0-2.19-1.06,2.4,2.4,0,0,0-2.17,1.06,5.35,5.35,0,0,0-.7,3,5.35,5.35,0,0,0,.7,3A2.4,2.4,0,0,0,37.92,29.44Z"/><path class="cls-1" d="M45.81,19.88a3,3,0,0,1,.43-.06,3.62,3.62,0,0,1,.47,0,3.54,3.54,0,0,1,.45,0,3.11,3.11,0,0,1,.44.06.89.89,0,0,1,.06.27q0,.23.06.48c0,.17.05.34.07.49s0,.26,0,.3a4.33,4.33,0,0,1,.51-.66,3.52,3.52,0,0,1,.72-.58,3.82,3.82,0,0,1,.94-.41,4.25,4.25,0,0,1,1.17-.15A4.79,4.79,0,0,1,53,20a3.49,3.49,0,0,1,1.41,1,4.78,4.78,0,0,1,.93,1.72,8.12,8.12,0,0,1,.33,2.45,6.12,6.12,0,0,1-1.53,4.42,5.73,5.73,0,0,1-4.34,1.6,6.42,6.42,0,0,1-1-.07,5.3,5.3,0,0,1-.85-.17v5a4.63,4.63,0,0,1-.55.06,4.88,4.88,0,0,1-.52,0,5,5,0,0,1-.53,0,3.73,3.73,0,0,1-.52-.06Zm2.12,9.19a4.84,4.84,0,0,0,.83.22,8.45,8.45,0,0,0,1.12.06,3.8,3.8,0,0,0,1.41-.25,2.63,2.63,0,0,0,1.1-.76,3.66,3.66,0,0,0,.73-1.29,5.7,5.7,0,0,0,.27-1.86,5.09,5.09,0,0,0-.63-2.72,2.25,2.25,0,0,0-2.07-1,2.77,2.77,0,0,0-1,.19,2.55,2.55,0,0,0-.88.58,2.94,2.94,0,0,0-.62,1,3.76,3.76,0,0,0-.23,1.41Z"/><path class="cls-1" d="M60.05,25.9A3.62,3.62,0,0,0,61,28.54a3.75,3.75,0,0,0,2.63.83,8,8,0,0,0,2.89-.53,3.2,3.2,0,0,1,.28.78,5.87,5.87,0,0,1,.13.91,7.11,7.11,0,0,1-1.56.45,10.73,10.73,0,0,1-1.87.15,7,7,0,0,1-2.57-.42,4.55,4.55,0,0,1-1.77-1.18,4.7,4.7,0,0,1-1-1.8,7.8,7.8,0,0,1-.32-2.28,8.37,8.37,0,0,1,.31-2.28,5.12,5.12,0,0,1,1-1.84,4.57,4.57,0,0,1,1.61-1.25A5.47,5.47,0,0,1,63,19.62,4.77,4.77,0,0,1,65,20a4,4,0,0,1,1.43,1.06,4.56,4.56,0,0,1,.88,1.61,6.53,6.53,0,0,1,.3,2c0,.2,0,.41,0,.63s0,.41,0,.57Zm5.44-1.58a4,4,0,0,0-.16-1.15,2.73,2.73,0,0,0-.47-1,2.43,2.43,0,0,0-.79-.66,2.57,2.57,0,0,0-1.15-.24,2.51,2.51,0,0,0-2,.79,3.91,3.91,0,0,0-.85,2.21Z"/><path class="cls-1" d="M70.38,19.88a3.62,3.62,0,0,1,.46-.06,3.46,3.46,0,0,1,.46,0,3.1,3.1,0,0,1,.44,0l.44.06c0,.22.08.5.13.87a8.58,8.58,0,0,1,.06.91,3.88,3.88,0,0,1,.55-.73,4,4,0,0,1,.76-.65,3.56,3.56,0,0,1,1-.47,3.67,3.67,0,0,1,1.22-.19,3.4,3.4,0,0,1,2.79,1.09,4.89,4.89,0,0,1,.9,3.2v7l-.54.07-.53,0-.53,0-.52-.07V24.49A4.2,4.2,0,0,0,77,22.25a1.67,1.67,0,0,0-1.5-.72,2.93,2.93,0,0,0-1.14.22,2.44,2.44,0,0,0-.94.66,3.45,3.45,0,0,0-.66,1.17,5.45,5.45,0,0,0-.24,1.72v5.57l-.53.07-.52,0-.54,0c-.2,0-.38,0-.53-.07Z"/><path class="cls-2" d="M90,28.26a4.76,4.76,0,0,1,.43,1,4.85,4.85,0,0,1,.17,1.34A6.39,6.39,0,0,1,89,31a11.26,11.26,0,0,1-1.56.1A6.15,6.15,0,0,1,85,30.69a4.65,4.65,0,0,1-1.71-1.21,5.1,5.1,0,0,1-1-1.83,7.46,7.46,0,0,1-.35-2.31,7.25,7.25,0,0,1,.34-2.27,5.21,5.21,0,0,1,1-1.84A4.66,4.66,0,0,1,84.94,20a5.71,5.71,0,0,1,2.34-.45l.87,0a4.78,4.78,0,0,1,.76.09,7,7,0,0,1,.73.17c.24.07.51.16.81.28a5.18,5.18,0,0,1-.13,1.1,4.4,4.4,0,0,1-.41,1.17,6.19,6.19,0,0,0-1.12-.29,7.18,7.18,0,0,0-1.1-.08,2.39,2.39,0,0,0-2,.87A4,4,0,0,0,85,25.34a3.64,3.64,0,0,0,.73,2.53,2.53,2.53,0,0,0,2,.79h.59a3,3,0,0,0,.52,0,3.71,3.71,0,0,0,.53-.13Z"/><path class="cls-2" d="M97.09,31.13a5.86,5.86,0,0,1-2.35-.44,4.39,4.39,0,0,1-1.64-1.22,5.22,5.22,0,0,1-1-1.83,7.55,7.55,0,0,1-.33-2.27,7.8,7.8,0,0,1,.33-2.3,5.22,5.22,0,0,1,1-1.85A4.52,4.52,0,0,1,94.74,20a6.39,6.39,0,0,1,4.71,0,4.63,4.63,0,0,1,1.67,1.23,5.05,5.05,0,0,1,1,1.85,7.8,7.8,0,0,1,.33,2.3,7.55,7.55,0,0,1-.33,2.27,5,5,0,0,1-1,1.83,4.5,4.5,0,0,1-1.67,1.22A5.92,5.92,0,0,1,97.09,31.13Zm0-2.32a1.83,1.83,0,0,0,1.72-.88,5,5,0,0,0,.53-2.56,5,5,0,0,0-.53-2.56,2.09,2.09,0,0,0-3.42,0,5.06,5.06,0,0,0-.53,2.56,5.12,5.12,0,0,0,.53,2.56A1.83,1.83,0,0,0,97.09,28.81Z"/><path class="cls-2" d="M104.82,19.8a4.17,4.17,0,0,1,.6-.1c.2,0,.43,0,.67,0a6,6,0,0,1,.64,0,4.15,4.15,0,0,1,.58.1,1.43,1.43,0,0,1,.12.31l.09.42c0,.15.06.3.08.44s0,.27.05.37a5,5,0,0,1,.52-.64,3.54,3.54,0,0,1,.69-.58,4.06,4.06,0,0,1,.89-.42,3.42,3.42,0,0,1,1.09-.16,3.66,3.66,0,0,1,2.84,1,4.6,4.6,0,0,1,1,3.23v7.07a9,9,0,0,1-1.53.13,8.83,8.83,0,0,1-1.52-.13V24.62a3.57,3.57,0,0,0-.35-1.78,1.29,1.29,0,0,0-1.23-.62,2.87,2.87,0,0,0-.75.1,1.55,1.55,0,0,0-.7.42,2.4,2.4,0,0,0-.5.87,4.53,4.53,0,0,0-.19,1.46v5.8a8.83,8.83,0,0,1-1.52.13,9,9,0,0,1-1.53-.13Z"/><path class="cls-2" d="M117.7,22.11h-1.39l-.11-.43,4-5.12h.49V19.8h2.59q.06.32.09.57c0,.18,0,.35,0,.54s0,.39,0,.58,0,.39-.09.62H120.7v4.35a4,4,0,0,0,.11,1.07,1.53,1.53,0,0,0,.31.64.93.93,0,0,0,.5.32,2.5,2.5,0,0,0,.71.09,4.46,4.46,0,0,0,.63,0l.54-.1a4,4,0,0,1,.22.84,6,6,0,0,1,.06.79c0,.15,0,.29,0,.39l0,.31a8.61,8.61,0,0,1-2,.24,4.32,4.32,0,0,1-3-.91,3.78,3.78,0,0,1-1-3Z"/><path class="cls-2" d="M128,26.27a2.36,2.36,0,0,0,.9,1.86,3.69,3.69,0,0,0,2.15.58,8.61,8.61,0,0,0,1.49-.14,8.5,8.5,0,0,0,1.44-.4,5.2,5.2,0,0,1,.6,2.32,10.6,10.6,0,0,1-3.77.64,7.16,7.16,0,0,1-2.64-.43,4.65,4.65,0,0,1-1.8-1.19,4.7,4.7,0,0,1-1-1.81,7.59,7.59,0,0,1-.33-2.29,7.37,7.37,0,0,1,.34-2.29,5.37,5.37,0,0,1,1-1.87A4.77,4.77,0,0,1,128.06,20a5.43,5.43,0,0,1,2.32-.46,4.83,4.83,0,0,1,2.06.41A4.5,4.5,0,0,1,134,21.06a4.62,4.62,0,0,1,.95,1.68,6.49,6.49,0,0,1,.32,2.09c0,.27,0,.54,0,.8a6.21,6.21,0,0,1-.07.64Zm4.35-2.13a2.73,2.73,0,0,0-.56-1.66,1.81,1.81,0,0,0-1.47-.63,2.11,2.11,0,0,0-1.63.6,2.83,2.83,0,0,0-.66,1.69Z"/><path class="cls-2" d="M137.64,19.8a4.17,4.17,0,0,1,.6-.1c.2,0,.42,0,.67,0a6.11,6.11,0,0,1,.64,0,4.15,4.15,0,0,1,.58.1,1.43,1.43,0,0,1,.12.31q0,.2.09.42c0,.15.06.3.08.44s0,.27.05.37a4.93,4.93,0,0,1,.51-.64,3.93,3.93,0,0,1,.7-.58,4.06,4.06,0,0,1,.89-.42,3.42,3.42,0,0,1,1.09-.16,3.66,3.66,0,0,1,2.84,1,4.6,4.6,0,0,1,1,3.23v7.07a9,9,0,0,1-1.53.13,8.83,8.83,0,0,1-1.52-.13V24.62a3.57,3.57,0,0,0-.35-1.78,1.29,1.29,0,0,0-1.23-.62,2.76,2.76,0,0,0-.75.1,1.55,1.55,0,0,0-.7.42,2.27,2.27,0,0,0-.5.87,4.53,4.53,0,0,0-.19,1.46v5.8a9,9,0,0,1-1.53.13,8.83,8.83,0,0,1-1.52-.13Z"/><path class="cls-2" d="M150.52,22.11h-1.39l-.11-.43,4-5.12h.5V19.8h2.59q.06.32.09.57c0,.18,0,.35,0,.54s0,.39,0,.58,0,.39-.09.62h-2.59v4.35a4.46,4.46,0,0,0,.1,1.07,1.67,1.67,0,0,0,.32.64.93.93,0,0,0,.5.32,2.43,2.43,0,0,0,.7.09,4.48,4.48,0,0,0,.64,0l.54-.1a4.71,4.71,0,0,1,.22.84,6,6,0,0,1,.06.79c0,.15,0,.29,0,.39l0,.31a8.63,8.63,0,0,1-2,.24,4.33,4.33,0,0,1-3-.91,3.78,3.78,0,0,1-1-3Z"/><path class="cls-3" d="M62,36v.95h1v.55H62v2.13c0,.49.14.77.54.77a1.37,1.37,0,0,0,.41,0l0,.55a1.94,1.94,0,0,1-.64.1,1,1,0,0,1-.78-.31,1.56,1.56,0,0,1-.28-1V37.46h-.61v-.55h.61v-.74Z"/><path class="cls-3" d="M67.13,39.78c0,.41,0,.78,0,1.08h-.64l0-.64h0a1.47,1.47,0,0,1-1.31.74c-.62,0-1.36-.36-1.36-1.74V36.91h.72v2.18c0,.75.24,1.27.88,1.27a1,1,0,0,0,.95-.66,1,1,0,0,0,.06-.37V36.91h.72Z"/><path class="cls-3" d="M68.32,38.14c0-.46,0-.86,0-1.23h.63l0,.79h0a1.19,1.19,0,0,1,1.1-.87l.2,0v.67H70a1,1,0,0,0-1,.91,1.79,1.79,0,0,0,0,.34v2.1h-.72Z"/><path class="cls-3" d="M71,38c0-.42,0-.74,0-1.07h.64l0,.65h0A1.48,1.48,0,0,1,73,36.83c.54,0,1.39.33,1.39,1.68v2.35h-.72V38.59c0-.64-.23-1.17-.91-1.17a1,1,0,0,0-1,.73.9.9,0,0,0,0,.34v2.37H71Z"/><path class="cls-3" d="M77.55,36.91l.86,2.34a7.55,7.55,0,0,1,.26.81h0c.07-.24.15-.54.25-.83l.79-2.32h.76l-1.08,2.82a6.27,6.27,0,0,1-1.36,2.48,2,2,0,0,1-.88.45L77,42.07a2,2,0,0,0,.63-.36,2.25,2.25,0,0,0,.6-.8.38.38,0,0,0,.06-.17.46.46,0,0,0-.06-.18l-1.45-3.65Z"/><path class="cls-3" d="M84.63,38.85a1.94,1.94,0,0,1-2,2.11,1.89,1.89,0,0,1-1.9-2,1.93,1.93,0,0,1,2-2.09,1.86,1.86,0,0,1,1.9,2m-3.12,0c0,.86.49,1.52,1.19,1.52s1.2-.65,1.2-1.54c0-.67-.33-1.51-1.18-1.51s-1.21.78-1.21,1.53"/><path class="cls-3" d="M88.85,39.78c0,.41,0,.78,0,1.08h-.64l0-.64h0a1.49,1.49,0,0,1-1.31.74c-.62,0-1.37-.36-1.37-1.74V36.91h.72v2.18c0,.75.24,1.27.89,1.27a1,1,0,0,0,.94-.66,1,1,0,0,0,.07-.37V36.91h.72Z"/><path class="cls-3" d="M90,38.14c0-.46,0-.86,0-1.23h.63l0,.79h0a1.19,1.19,0,0,1,1.11-.87l.19,0v.67h-.24a1,1,0,0,0-1,.91c0,.1,0,.22,0,.34v2.1H90Z"/><path class="cls-3" d="M97.26,40.73a2.81,2.81,0,0,1-1.14.23,1.88,1.88,0,0,1-2-2,2,2,0,0,1,2.13-2.11,2.23,2.23,0,0,1,1,.21l-.17.55a1.74,1.74,0,0,0-.83-.19,1.49,1.49,0,0,0,0,3,2.09,2.09,0,0,0,.88-.19Z"/><path class="cls-3" d="M101.63,38.85a1.94,1.94,0,0,1-2,2.11,1.89,1.89,0,0,1-1.89-2,1.93,1.93,0,0,1,2-2.09,1.87,1.87,0,0,1,1.9,2m-3.13,0c0,.86.49,1.52,1.19,1.52s1.2-.65,1.2-1.54c0-.67-.33-1.51-1.18-1.51s-1.21.78-1.21,1.53"/><path class="cls-3" d="M102.53,38c0-.42,0-.74,0-1.07h.64l0,.65h0a1.46,1.46,0,0,1,1.3-.73c.55,0,1.4.33,1.4,1.68v2.35h-.72V38.59c0-.64-.24-1.17-.91-1.17a1,1,0,0,0-1,.73,1.16,1.16,0,0,0,0,.34v2.37h-.72Z"/><path class="cls-3" d="M107.9,36v.95h1v.55h-1v2.13c0,.49.14.77.54.77a1.45,1.45,0,0,0,.42,0l0,.55a1.94,1.94,0,0,1-.64.1,1,1,0,0,1-.77-.31,1.51,1.51,0,0,1-.28-1V37.46h-.61v-.55h.61v-.74Z"/><path class="cls-3" d="M110.09,39a1.26,1.26,0,0,0,1.36,1.37,2.64,2.64,0,0,0,1.09-.2l.13.51a3.07,3.07,0,0,1-1.32.26,1.85,1.85,0,0,1-1.95-2,1.91,1.91,0,0,1,1.86-2.12,1.66,1.66,0,0,1,1.63,1.85,1.57,1.57,0,0,1,0,.34Zm2.11-.52a1,1,0,0,0-1-1.16,1.16,1.16,0,0,0-1.1,1.16Z"/><path class="cls-3" d="M113.78,38c0-.42,0-.74,0-1.07h.64l0,.65h0a1.49,1.49,0,0,1,1.31-.73c.55,0,1.4.33,1.4,1.68v2.35h-.72V38.59c0-.64-.24-1.17-.92-1.17a1,1,0,0,0-1,.73,1.16,1.16,0,0,0,0,.34v2.37h-.72Z"/><path class="cls-3" d="M119.15,36v.95h1v.55h-1v2.13c0,.49.14.77.53.77a1.4,1.4,0,0,0,.42,0l0,.55a1.94,1.94,0,0,1-.64.1,1,1,0,0,1-.78-.31,1.56,1.56,0,0,1-.28-1V37.46h-.61v-.55h.61v-.74Z"/><path class="cls-3" d="M123.52,35.8a.44.44,0,0,1-.46.44.42.42,0,0,1-.43-.44.45.45,0,1,1,.89,0m-.8,1.11h.72v4h-.72Z"/><path class="cls-3" d="M124.63,38c0-.42,0-.74,0-1.07h.64l0,.65h0a1.46,1.46,0,0,1,1.3-.73c.55,0,1.4.33,1.4,1.68v2.35h-.72V38.59c0-.64-.23-1.17-.91-1.17a1,1,0,0,0-1,.73,1.18,1.18,0,0,0,0,.34v2.37h-.72Z"/><path class="cls-3" d="M130,36v.95h1v.55h-1v2.13c0,.49.14.77.54.77a1.45,1.45,0,0,0,.42,0l0,.55a1.94,1.94,0,0,1-.64.1,1,1,0,0,1-.77-.31,1.51,1.51,0,0,1-.28-1V37.46h-.61v-.55h.61v-.74Z"/><path class="cls-3" d="M135.36,38.85a1.94,1.94,0,0,1-2,2.11,1.89,1.89,0,0,1-1.9-2,1.94,1.94,0,0,1,2-2.09,1.87,1.87,0,0,1,1.9,2m-3.13,0c0,.86.49,1.52,1.19,1.52s1.2-.65,1.2-1.54c0-.67-.33-1.51-1.18-1.51s-1.21.78-1.21,1.53"/><path class="cls-3" d="M138.27,36.91l.78,2.21c.13.37.24.7.32,1h0c.09-.33.21-.66.34-1l.76-2.21h.76l-1.56,4H139l-1.5-4Z"/><path class="cls-3" d="M144.67,39.92a5.37,5.37,0,0,0,.06.94h-.65l-.06-.49h0a1.48,1.48,0,0,1-1.21.59,1.13,1.13,0,0,1-1.21-1.14c0-1,.85-1.48,2.38-1.47v-.08a.81.81,0,0,0-.9-.91,2,2,0,0,0-1,.29l-.16-.48a2.62,2.62,0,0,1,1.31-.34c1.2,0,1.5.82,1.5,1.61Zm-.7-1.07c-.78,0-1.67.12-1.67.89a.63.63,0,0,0,.67.68,1,1,0,0,0,1-.66.63.63,0,0,0,0-.23Z"/><rect class="cls-3" x="145.83" y="35.06" width="0.72" height="5.8"/><path class="cls-3" d="M151.06,39.78c0,.41,0,.78,0,1.08h-.64l0-.64h0a1.47,1.47,0,0,1-1.3.74c-.63,0-1.37-.36-1.37-1.74V36.91h.72v2.18c0,.75.24,1.27.88,1.27a1,1,0,0,0,.95-.66,1,1,0,0,0,.07-.37V36.91h.71Z"/><path class="cls-3" d="M152.65,39A1.27,1.27,0,0,0,154,40.39a2.73,2.73,0,0,0,1.1-.2l.13.51a3.17,3.17,0,0,1-1.33.26A1.85,1.85,0,0,1,152,39a1.91,1.91,0,0,1,1.85-2.12,1.67,1.67,0,0,1,1.64,1.85,1.46,1.46,0,0,1,0,.34Zm2.11-.52a1,1,0,0,0-1-1.16,1.18,1.18,0,0,0-1.11,1.16Z"/><polygon class="cls-4" points="27.21 21.29 27.21 35.29 13.63 42.55 13.63 28.59 27.21 21.29"/><polygon class="cls-5" points="0 21.29 0 35.29 13.63 42.55 13.63 28.59 0 21.29"/><polyline class="cls-5" points="13.57 0 13.57 14 27.21 21.3 27.21 7.3 13.57 0"/><rect x="10.93" y="20.18" width="4.59" height="4.59"/><rect x="10.8" y="15.2" width="2.51" height="2.51"/><rect x="2.61" y="9.38" width="2.51" height="2.51"/><rect x="6.49" y="5.14" width="2.51" height="2.51"/><rect x="5.41" y="18.66" width="1.68" height="1.68"/><polyline points="12.68 3.55 12.68 5.43 10.81 5.43 10.81 3.55"/><rect x="8.8" y="9.54" width="1.87" height="1.87"/><rect x="6.26" y="13.33" width="2.96" height="2.96"/><rect x="2.63" y="14.79" width="1.69" height="1.69"/></g></g></svg>