<?xml version="1.0" encoding="UTF-8"?>
<svg width="600px" height="600px" viewBox="0 0 600 600" version="1.1" xmlns="http://www.w3.org/2000/svg" xmlns:xlink="http://www.w3.org/1999/xlink">
    <!-- Generator: Sketch 52.3 (67297) - http://www.bohemiancoding.com/sketch -->
    <title>Artboard Copy</title>
    <desc>Created with Sketch.</desc>
    <g id="Artboard-Copy" stroke="none" stroke-width="1" fill="none" fill-rule="evenodd">
        <rect id="Rectangle" fill="#262626" x="0" y="0" width="600" height="600"></rect>
        <g id="Group" transform="translate(164.000000, 118.000000)">
            <path d="M0,293.039871 L19.3300856,293.039871 L108.546308,156.544679 L20.795242,23.4708199 L1.96313686,23.4708199 L1.96313686,16 L93.2403653,16 L93.2403653,23.4708199 L72.7617583,23.4708199 L130.118745,113.982455 C135.510175,121.32209 138.940388,127.68215 138.940388,127.68215 L139.920996,127.68215 C139.920996,127.68215 142.865702,121.32209 148.257132,113.982455 L203.651941,23.4708199 L184.154903,23.4708199 L184.154903,16 L272,16 L272,23.4708199 L252.673752,23.4708199 L162.966266,160.945588 L251.208596,293.039871 L271.019391,293.039871 L271.019391,301 L179.744082,301 L179.744082,293.039871 L199.732384,293.039871 L141.884133,203.018503 C136.492703,195.194346 133.057693,188.835244 133.057693,188.835244 L132.081882,188.835244 C131.591578,188.835244 129.138136,195.194346 124.236051,203.018503 L68.3509371,293.039871 L88.3392397,293.039871 L88.3392397,301 L0,301 L0,293.039871 Z" id="Fill-1" fill="#BC9D55"></path>
            <path d="M138.850026,85 C119.04012,85 101,60.0457404 101,32.647227 C101,10.0686106 112.672342,0 138.850026,0 C156.912197,0 167.785931,4.73603964 173.069403,14.9037545 L174.406809,17.4785592 L174.332029,17.5157233 C187.134695,41.2969316 225.600216,43.440061 226,43.4591195 L225.724849,49.1700019 C225.26946,49.1480846 214.418736,48.593482 201.887386,44.5025729 C184.991011,38.9870402 173.230467,29.6045359 167.87605,17.3708786 C163.650997,9.42062131 154.4205,5.71755289 138.850026,5.71755289 C116.051809,5.71755289 106.752284,13.5191538 106.752284,32.647227 C106.752284,57.0545073 122.051441,79.2824471 138.850026,79.2824471 C148.12846,79.2824471 157.494137,72.2803507 163.905057,60.5536497 L168.958438,63.2818754 C161.526487,76.8810749 150.271186,85 138.850026,85" id="Fill-3" fill="#BC9D55"></path>
            <path d="M144.72616,31.8575958 C145.946326,26.3806935 147.928284,24.3790834 151.350316,25.1639178 C154.77142,25.9487523 155.710438,28.620389 154.489344,34.0963502 C152.975039,40.8907204 149.269075,46.5435988 146.713685,45.9582666 C144.159223,45.3719934 143.210927,38.651966 144.72616,31.8575958" id="Fill-5" fill="#BC9D55"></path>
            <path d="M129.286509,45.9582746 C126.732029,46.5435808 123.02511,40.8900124 121.510795,34.0968849 C120.289692,28.6202257 121.227788,25.9487076 124.650773,25.163908 C128.071901,24.3791084 130.052945,26.3806297 131.274048,31.8582299 C132.788363,38.6513574 131.841916,45.3720274 129.286509,45.9582746" id="Fill-7" fill="#BC9D55"></path>
            <path d="M81.8813509,270 C39.4894662,270 5,235.474757 5,193.036759 C5,150.59972 39.4894662,116.075436 81.8813509,116.075436 L186.9425,115 L187,120.756126 L81.9101009,121.831562 C42.6596336,121.831562 10.7500013,153.774224 10.7500013,193.036759 C10.7500013,232.300253 42.6596336,264.243874 81.8813509,264.243874 L81.8813509,270 Z" id="Fill-9" fill="#BC9D55"></path>
            <path d="M85.6755962,213 C69.864017,213 57,200.214756 57,184.5 C57,168.785244 69.864017,156 85.6755962,156 L134,156 L134,161.747899 L85.6755962,161.747899 C73.0525505,161.747899 62.7833135,171.954252 62.7833135,184.5 C62.7833135,197.045748 73.0525505,207.252101 85.6755962,207.252101 L85.6755962,213 Z" id="Fill-11" fill="#BC9D55"></path>
            <path d="M73.2058591,267 C42.2144356,267 17,241.877915 17,211 C17,180.122085 42.2144356,155 73.2058591,155 L136,155 L136,158.826378 L73.2058591,158.826378 C44.3314803,158.826378 20.8404441,182.231376 20.8404441,211 C20.8404441,239.768624 44.3314803,263.173622 73.2058591,263.173622 L73.2058591,267 Z" id="Fill-13" fill="#BC9D55"></path>
            <path d="M210.669644,161 L103,161 L103,155.267196 L210.669644,155.267196 C240.757003,155.267196 265.235586,130.922846 265.235586,100.999522 C265.235586,71.077154 240.757003,46.7328036 210.669644,46.7328036 L210.669644,41 C243.936077,41 271,67.9155128 271,100.999522 C271,134.083532 243.936077,161 210.669644,161" id="Fill-15" fill="#BC9D55"></path>
            <path d="M208.683205,121 L176,121 L176,115.191812 L208.683205,115.191812 C216.711299,115.191812 223.243719,108.600486 223.243719,100.499032 C223.243719,92.3985456 216.711299,85.8081881 208.683205,85.8081881 L208.683205,80 C219.885888,80 229,89.1962979 229,100.499032 C229,111.803702 219.885888,121 208.683205,121" id="Fill-17" fill="#BC9D55"></path>
            <path d="M216.827123,121 L147,121 L147,117.187823 L216.827123,117.187823 C236.314964,117.187823 252.170971,101.402551 252.170971,81.9995235 C252.170971,62.5974488 236.314964,46.812177 216.827123,46.812177 L216.827123,43 C238.426673,43 256,60.4959862 256,81.9995235 C256,103.504967 238.426673,121 216.827123,121" id="Fill-19" fill="#BC9D55"></path>
            <path d="M83,267.704344 L176.902144,267.704344 L181.463667,268 C208.26969,268 230,246.254913 230,219.431846 C230,192.608778 213.348282,171.179505 186.542259,171.179505 L186.994094,171.299495 L183.365021,171 C196.300369,171 206.787555,181.492895 206.787555,194.437427 C206.787555,207.381959 196.300369,217.875814 183.365021,217.875814 L179.915339,217.970846 L113.497452,217.970846 L83,267.704344 Z" id="Fill-21" fill="#262626"></path>
            <path d="M88.0330034,264.930649 L176.933924,264.930649 C176.996379,264.930649 177.057873,264.932574 177.120327,264.936422 L181.594967,265.226997 C206.769021,265.176964 227.23495,244.652013 227.23495,219.431686 C227.23495,199.661074 218.125209,184.29334 203.723152,177.604353 C207.486769,182.165988 209.750513,188.01404 209.750513,194.378776 C209.750513,208.92482 197.93312,220.758515 183.408076,220.758515 L180.032639,220.852807 L115.041304,220.853769 L88.0330034,264.930649 Z M181.502726,271 C181.441233,271 181.378778,270.998076 181.317284,270.994227 L176.840722,270.703652 L82.8828917,270.703652 C81.8394176,270.703652 80.8766541,270.13886 80.3664472,269.226726 C79.8572011,268.315553 79.8802613,267.197515 80.4260194,266.307511 L110.972139,216.457627 C111.495798,215.602261 112.426853,215.080766 113.429011,215.080766 L179.952889,215.080766 L183.328326,214.986474 C194.753695,214.985511 203.985462,205.741009 203.985462,194.378776 C203.985462,184.209631 196.589863,175.736787 186.901696,174.069351 C186.869988,174.068389 186.838281,174.066464 186.805612,174.06454 L183.170748,173.763382 C181.629558,173.635413 180.464057,172.313396 180.528433,170.767193 C180.590888,169.220028 181.862081,168 183.408076,168 C184.457315,168 185.49118,168.061579 186.507751,168.180887 C186.535615,168.179925 186.562519,168.179925 186.589423,168.179925 C200.326577,168.179925 212.088241,173.401607 220.604181,183.28114 C228.597423,192.553545 233,205.392704 233,219.431686 C233,247.866614 209.898482,271 181.502726,271 Z" id="Fill-23" fill="#BC9D55"></path>
            <path d="M137.539427,82 L137.539427,89.3320463 C137.539427,96.3281853 133.268478,101.999035 128,102 C136.28447,102 143,96.3281853 143,89.3330116 L143,82.0009653" id="Fill-25" fill="#BC9D55"></path>
            <path d="M133.539072,82 L133.539072,85.2929501 C133.539072,92.3106808 129.267846,98 124,98 C132.284033,98 139,92.3106808 139,85.2939183 L139,82" id="Fill-27" fill="#BC9D55"></path>
            <path d="M191.856239,252 L92,252 L92,248.180371 L191.856239,248.180371 C211.330071,248.180371 227.173724,231.726366 227.173724,211.500477 C227.173724,191.274589 211.330071,174.819629 191.856239,174.819629 L191.856239,171 C213.439306,171 231,189.168064 231,211.500477 C231,233.831936 213.439306,252 191.856239,252" id="Fill-29" fill="#BC9D55"></path>
            <path d="M19.679011,326.231342 L9.53751472,326.231342 L9.53751472,338.644634 L19.679011,338.644634 C23.4406508,338.644634 26.2621214,336.215 26.2621214,332.437504 C26.2621214,328.72774 23.4406508,326.231342 19.679011,326.231342 Z M0,318 L20.9553677,318 C30.6951729,318 36,324.611585 36,332.504268 C36,340.331154 30.6267794,346.875976 20.9553677,346.875976 L9.53751472,346.875976 L9.53751472,363 L0,363 L0,318 Z" id="Fill-31" fill="#BB9E56"></path>
            <polygon id="Fill-33" fill="#BB9E56" points="54.2908489 344.580837 37 318 47.8984452 318 59.0670599 336.081472 70.1005899 318 81 318 63.843271 344.580837 63.843271 363 54.2908489 363"></polygon>
            <path d="M84,341 C84,327.333472 94.116754,318 106.98179,318 C114.888387,318 120.382069,321.800507 123.933695,326.799967 L119.242397,329.400565 C116.695911,325.666985 112.0738,322.933489 106.98179,322.933489 C97.1984817,322.933489 89.7617835,330.399692 89.7617835,341 C89.7617835,351.53338 97.1984817,359.066511 106.98179,359.066511 C112.0738,359.066511 116.695911,356.398986 119.242397,352.599435 L124,355.200033 C120.248499,360.265464 114.888387,364 106.98179,364 C94.116754,364 84,354.666528 84,341" id="Fill-35" fill="#BB9E56"></path>
            <path d="M168.282421,341 C168.282421,330.600474 161.902335,322.933489 151.999047,322.933489 C142.029984,322.933489 135.715672,330.600474 135.715672,341 C135.715672,351.332599 142.029984,359.066511 151.999047,359.066511 C161.902335,359.066511 168.282421,351.332599 168.282421,341 M130,341 C130,327.866977 138.839464,318 151.999047,318 C165.092855,318 174,327.866977 174,341 C174,354.133023 165.092855,364 151.999047,364 C138.839464,364 130,354.133023 130,341" id="Fill-37" fill="#BB9E56"></path>
            <polygon id="Fill-39" fill="#BB9E56" points="215.638615 363 189.563266 327.107984 189.563266 363 184 363 184 318 189.696893 318 215.436734 353.148902 215.436734 318 221 318 221 363"></polygon>
            <polygon id="Fill-41" fill="#BB9E56" points="248.499521 346.538285 237.282796 363 226 363 242.156719 339.926699 227.001596 318 238.284392 318 248.499521 333.38091 258.581551 318 269.997447 318 254.842324 339.858 271 363 259.649218 363"></polygon>
        </g>
    </g>
</svg>