<?xml version="1.0" encoding="utf-8"?>
<!-- Generator: Adobe Illustrator 22.1.0, SVG Export Plug-In . SVG Version: 6.00 Build 0)  -->
<svg version="1.1" id="Layer_1" xmlns="http://www.w3.org/2000/svg" xmlns:xlink="http://www.w3.org/1999/xlink" x="0px" y="0px"
	 viewBox="0 0 256 256" style="enable-background:new 0 0 256 256;" xml:space="preserve">
<style type="text/css">
	.st0{fill:#FEFEFE;}
	.st1{fill:#E7424F;}
</style>
<g>
	<path class="st0" d="M128.2,256.2c-42.4,0-84.9,0-127.3,0c-0.6,0-0.7-0.1-0.7-0.7c0-84.9,0-169.7,0-254.6c0-0.6,0.1-0.7,0.7-0.7
		c84.9,0,169.7,0,254.6,0c0.6,0,0.7,0.1,0.7,0.7c0,84.9,0,169.7,0,254.6c0,0.6-0.1,0.7-0.7,0.7C213,256.2,170.6,256.2,128.2,256.2z
		 M116.3,232.1c1,0,2.1-0.1,3.1-0.3c10.3-1.9,16.5-12.2,13.3-22.1c-2.2-6.8-4.5-13.6-6.7-20.4c-0.4-1.1-0.4-1.1,0.8-1.5
		c12.9-4.4,25.8-8.7,38.7-13.1c0.8-0.3,1-0.2,1.3,0.6c2.1,6.4,4.2,12.9,6.3,19.3c3.2,9.6,13,14.3,22.5,10.8
		c8.4-3.1,13.1-12.3,10.5-20.8c-2.1-6.8-4.4-13.4-6.7-20.1c-0.2-0.7-0.1-0.9,0.6-1.1c6.8-2.3,13.6-4.6,20.3-6.9
		c9.5-3.3,14.3-13.8,10.5-23.1c-3.5-8.5-12.7-12.6-21.6-9.6c-6.7,2.2-13.4,4.4-20.1,6.6c-0.6,0.2-0.9,0.3-1.2-0.5
		c-4.4-13.1-8.8-26.1-13.2-39.1c-0.3-0.8-0.1-1,0.6-1.2c6.5-2.1,12.9-4.2,19.3-6.4c9.5-3.2,14.2-13,10.8-22.4
		c-3.1-8.4-12.3-13.2-20.9-10.5c-6.8,2.1-13.4,4.4-20.1,6.7c-0.6,0.2-0.8,0.1-1-0.5c-2.3-6.8-4.6-13.5-6.9-20.3
		c-2.9-8.5-11.4-13.2-19.5-11.6c-10.3,2-16.6,12.3-13.3,22.3c2.3,6.9,4.7,13.8,7,20.6c0.3,0.7,0.1,0.9-0.6,1.1
		c-13.1,4.4-26.2,8.8-39.3,13.2c-0.7,0.2-0.9,0.1-1.1-0.6c-2.1-6.5-4.2-12.9-6.3-19.4c-3.2-9.6-13-14.3-22.5-10.8
		C52.4,54,47.6,63.2,50.2,71.7c2.1,6.8,4.4,13.5,6.7,20.2c0.2,0.6,0.1,0.8-0.5,1c-6.8,2.3-13.6,4.6-20.3,6.9
		c-8.2,2.8-13.1,11.1-11.5,19.6c1.9,10.3,12.2,16.5,22.2,13.3c6.9-2.2,13.8-4.5,20.7-6.8c0.6-0.2,0.8-0.1,1,0.5
		c4.4,13,8.8,26.1,13.2,39.1c0.3,0.8,0.1,1-0.6,1.2c-6.5,2.1-13,4.2-19.4,6.4c-8.5,2.8-13.3,11.4-11.4,19.9
		c2.3,10.3,12.7,16.2,22.6,12.8c6.4-2.2,12.8-4.3,19.2-6.4c0.5-0.2,0.8-0.2,1,0.5c2.3,6.8,4.6,13.6,6.9,20.3
		C102.3,227.4,108.8,232.1,116.3,232.1z"/>
	<path class="st1" d="M113.6,256c-9.3,0-17.3-5.8-20.3-14.6c-2.8-8.3-5.7-16.7-8.5-25c-0.3-0.8-0.6-0.8-1.2-0.6
		c-7.9,2.6-15.8,5.2-23.6,7.9c-12.1,4.2-24.9-3.1-27.8-15.7c-2.4-10.5,3.7-21,14.1-24.5c8-2.7,15.9-5.3,23.9-7.8
		c0.9-0.3,1.1-0.6,0.8-1.5c-5.4-16-10.9-32.1-16.2-48.1c-0.2-0.7-0.5-0.9-1.2-0.6c-8.5,2.8-17,5.6-25.5,8.4
		c-12.3,4-25-3.6-27.3-16.3C-1.3,107,4.8,96.8,14.9,93.3c8.3-2.8,16.7-5.7,25-8.5c0.7-0.2,0.9-0.5,0.7-1.3
		c-2.8-8.3-5.6-16.5-8.2-24.9c-3.2-10.4,2.6-21.8,13-25.6c11.7-4.3,23.7,1.5,27.7,13.3c2.7,7.9,5.2,15.9,7.8,23.8
		c0.3,0.8,0.5,1,1.4,0.7c16.1-5.4,32.2-10.8,48.4-16.2c0.8-0.3,1-0.5,0.7-1.4c-2.9-8.4-5.9-16.9-8.7-25.4
		c-4-12.3,3.7-24.9,16.4-27.4c9.9-1.9,20.5,3.8,24,14.3c2.8,8.4,5.7,16.7,8.5,25c0.3,0.8,0.5,0.9,1.3,0.6c8.2-2.8,16.5-5.6,24.8-8.2
		c10.6-3.3,21.9,2.6,25.7,13c4.2,11.6-1.5,23.7-13.3,27.6c-7.9,2.7-15.9,5.2-23.8,7.8c-0.8,0.3-1.1,0.5-0.7,1.5
		c5.4,16,10.9,32.1,16.2,48.1c0.3,1,0.8,0.8,1.5,0.6c8.2-2.7,16.5-5.4,24.7-8.2c10.9-3.6,22.3,1.4,26.6,11.8
		c4.7,11.5-1.1,24.4-12.9,28.4c-8.3,2.8-16.7,5.7-25,8.5c-0.8,0.3-1,0.5-0.7,1.3c2.8,8.2,5.6,16.5,8.2,24.8
		c3.2,10.5-2.6,21.8-12.9,25.6c-11.6,4.3-23.7-1.5-27.7-13.3c-2.6-7.9-5.2-15.8-7.8-23.7c-0.3-1-0.7-1.1-1.6-0.8
		c-15.8,5.4-31.7,10.7-47.6,16.1c-1.4,0.5-1.4,0.5-0.9,1.8c2.8,8.4,5.6,16.7,8.2,25.1c3.9,12.3-3.7,24.9-16.3,27.2
		C116.2,255.9,114.9,256,113.6,256z M155.4,141.5c-0.1-0.2-0.1-0.4-0.2-0.6c-4.4-13.1-8.8-26.1-13.2-39.2c-0.2-0.6-0.4-0.7-1-0.5
		c-13.1,4.4-26.1,8.8-39.2,13.2c-0.7,0.2-0.8,0.4-0.5,1.1c4.4,13.1,8.8,26.1,13.2,39.2c0.2,0.6,0.4,0.7,1,0.5
		c8.5-2.9,17.1-5.8,25.6-8.7c4.5-1.5,9.1-3.1,13.6-4.6C154.9,141.8,155.3,141.9,155.4,141.5z"/>
	<path class="st0" d="M155.4,141.5c-0.1,0.4-0.4,0.3-0.7,0.4c-4.5,1.6-9.1,3.1-13.6,4.6c-8.5,2.9-17.1,5.8-25.6,8.7
		c-0.6,0.2-0.8,0.1-1-0.5c-4.4-13.1-8.8-26.1-13.2-39.2c-0.2-0.7-0.1-0.9,0.5-1.1c13.1-4.4,26.1-8.8,39.2-13.2
		c0.6-0.2,0.8-0.1,1,0.5c4.4,13.1,8.8,26.1,13.2,39.2C155.2,141.1,155.3,141.3,155.4,141.5z"/>
</g>
</svg>
