<svg id="Layer_1" xmlns="http://www.w3.org/2000/svg" viewBox="0 0 256 256"><style>.st0{fill:#fefefe}.st1{fill:#e7424f}</style><path class="st0" d="M128.2 256.2H.9c-.6 0-.7-.1-.7-.7V.9C.2.3.3.2.9.2h254.6c.6 0 .7.1.7.7v254.6c0 .6-.1.7-.7.7H128.2zm-11.9-24.1c1 0 2.1-.1 3.1-.3 10.3-1.9 16.5-12.2 13.3-22.1-2.2-6.8-4.5-13.6-6.7-20.4-.4-1.1-.4-1.1.8-1.5 12.9-4.4 25.8-8.7 38.7-13.1.8-.3 1-.2 1.3.6 2.1 6.4 4.2 12.9 6.3 19.3 3.2 9.6 13 14.3 22.5 10.8 8.4-3.1 13.1-12.3 10.5-20.8-2.1-6.8-4.4-13.4-6.7-20.1-.2-.7-.1-.9.6-1.1 6.8-2.3 13.6-4.6 20.3-6.9 9.5-3.3 14.3-13.8 10.5-23.1-3.5-8.5-12.7-12.6-21.6-9.6l-20.1 6.6c-.6.2-.9.3-1.2-.5-4.4-13.1-8.8-26.1-13.2-39.1-.3-.8-.1-1 .6-1.2 6.5-2.1 12.9-4.2 19.3-6.4 9.5-3.2 14.2-13 10.8-22.4-3.1-8.4-12.3-13.2-20.9-10.5-6.8 2.1-13.4 4.4-20.1 6.7-.6.2-.8.1-1-.5-2.3-6.8-4.6-13.5-6.9-20.3-2.9-8.5-11.4-13.2-19.5-11.6-10.3 2-16.6 12.3-13.3 22.3 2.3 6.9 4.7 13.8 7 20.6.3.7.1.9-.6 1.1L90.8 81.8c-.7.2-.9.1-1.1-.6-2.1-6.5-4.2-12.9-6.3-19.4-3.2-9.6-13-14.3-22.5-10.8-8.5 3-13.3 12.2-10.7 20.7 2.1 6.8 4.4 13.5 6.7 20.2.2.6.1.8-.5 1-6.8 2.3-13.6 4.6-20.3 6.9-8.2 2.8-13.1 11.1-11.5 19.6 1.9 10.3 12.2 16.5 22.2 13.3 6.9-2.2 13.8-4.5 20.7-6.8.6-.2.8-.1 1 .5 4.4 13 8.8 26.1 13.2 39.1.3.8.1 1-.6 1.2-6.5 2.1-13 4.2-19.4 6.4-8.5 2.8-13.3 11.4-11.4 19.9 2.3 10.3 12.7 16.2 22.6 12.8 6.4-2.2 12.8-4.3 19.2-6.4.5-.2.8-.2 1 .5 2.3 6.8 4.6 13.6 6.9 20.3 2.3 7.2 8.8 11.9 16.3 11.9z"/><path class="st1" d="M113.6 256c-9.3 0-17.3-5.8-20.3-14.6-2.8-8.3-5.7-16.7-8.5-25-.3-.8-.6-.8-1.2-.6-7.9 2.6-15.8 5.2-23.6 7.9-12.1 4.2-24.9-3.1-27.8-15.7-2.4-10.5 3.7-21 14.1-24.5 8-2.7 15.9-5.3 23.9-7.8.9-.3 1.1-.6.8-1.5-5.4-16-10.9-32.1-16.2-48.1-.2-.7-.5-.9-1.2-.6l-25.5 8.4c-12.3 4-25-3.6-27.3-16.3-2.1-10.6 4-20.8 14.1-24.3 8.3-2.8 16.7-5.7 25-8.5.7-.2.9-.5.7-1.3-2.8-8.3-5.6-16.5-8.2-24.9-3.2-10.4 2.6-21.8 13-25.6 11.7-4.3 23.7 1.5 27.7 13.3 2.7 7.9 5.2 15.9 7.8 23.8.3.8.5 1 1.4.7 16.1-5.4 32.2-10.8 48.4-16.2.8-.3 1-.5.7-1.4-2.9-8.4-5.9-16.9-8.7-25.4-4-12.3 3.7-24.9 16.4-27.4 9.9-1.9 20.5 3.8 24 14.3 2.8 8.4 5.7 16.7 8.5 25 .3.8.5.9 1.3.6 8.2-2.8 16.5-5.6 24.8-8.2 10.6-3.3 21.9 2.6 25.7 13 4.2 11.6-1.5 23.7-13.3 27.6-7.9 2.7-15.9 5.2-23.8 7.8-.8.3-1.1.5-.7 1.5 5.4 16 10.9 32.1 16.2 48.1.3 1 .8.8 1.5.6 8.2-2.7 16.5-5.4 24.7-8.2 10.9-3.6 22.3 1.4 26.6 11.8 4.7 11.5-1.1 24.4-12.9 28.4-8.3 2.8-16.7 5.7-25 8.5-.8.3-1 .5-.7 1.3 2.8 8.2 5.6 16.5 8.2 24.8 3.2 10.5-2.6 21.8-12.9 25.6-11.6 4.3-23.7-1.5-27.7-13.3l-7.8-23.7c-.3-1-.7-1.1-1.6-.8-15.8 5.4-31.7 10.7-47.6 16.1-1.4.5-1.4.5-.9 1.8 2.8 8.4 5.6 16.7 8.2 25.1 3.9 12.3-3.7 24.9-16.3 27.2-1.4.6-2.7.7-4 .7zm41.8-114.5c-.1-.2-.1-.4-.2-.6-4.4-13.1-8.8-26.1-13.2-39.2-.2-.6-.4-.7-1-.5-13.1 4.4-26.1 8.8-39.2 13.2-.7.2-.8.4-.5 1.1 4.4 13.1 8.8 26.1 13.2 39.2.2.6.4.7 1 .5 8.5-2.9 17.1-5.8 25.6-8.7 4.5-1.5 9.1-3.1 13.6-4.6.2-.1.6 0 .7-.4z"/><path class="st0" d="M155.4 141.5c-.1.4-.4.3-.7.4-4.5 1.6-9.1 3.1-13.6 4.6-8.5 2.9-17.1 5.8-25.6 8.7-.6.2-.8.1-1-.5-4.4-13.1-8.8-26.1-13.2-39.2-.2-.7-.1-.9.5-1.1 13.1-4.4 26.1-8.8 39.2-13.2.6-.2.8-.1 1 .5 4.4 13.1 8.8 26.1 13.2 39.2 0 .2.1.4.2.6z"/></svg>