<?xml version="1.0" encoding="utf-8"?>
<!-- Generator: Adobe Illustrator 17.0.0, SVG Export Plug-In . SVG Version: 6.00 Build 0)  -->
<!DOCTYPE svg PUBLIC "-//W3C//DTD SVG 1.1//EN" "http://www.w3.org/Graphics/SVG/1.1/DTD/svg11.dtd">
<svg version="1.1" id="Layer_1" xmlns="http://www.w3.org/2000/svg" xmlns:xlink="http://www.w3.org/1999/xlink" x="0px" y="0px"
	 width="132px" height="51.89px" viewBox="0 -12.89 132 51.89" enable-background="new 0 -12.89 132 51.89" xml:space="preserve">
<title>Artboard</title>
<g>
	<path fill="#FFFFFF" d="M57.834,9.154C57.224,8.488,56.47,7.97,55.63,7.64c-0.021-0.009-0.04-0.023-0.061-0.031L39.573,1.277
		c-0.156-0.06-0.314-0.115-0.474-0.163c-0.167-0.048-0.337-0.089-0.507-0.125l-0.04-0.01c-0.074-0.018-0.148-0.033-0.223-0.047
		c-0.162-0.027-0.324-0.049-0.487-0.065c-0.089-0.014-0.178-0.023-0.268-0.028c-0.229-0.015-0.459-0.02-0.689-0.014L8.91,1.6
		C8.714,1.606,8.518,1.62,8.323,1.642L8.164,1.661c-0.39,0.05-0.776,0.13-1.154,0.24c-0.203,0.058-0.403,0.124-0.6,0.198l-0.03,0.01
		c-0.362,0.14-0.713,0.307-1.049,0.5c-0.212,0.12-0.418,0.25-0.618,0.39c-0.192,0.135-0.378,0.278-0.556,0.43
		C4.073,3.493,3.995,3.563,3.922,3.64C3.867,3.692,3.814,3.746,3.761,3.8l-0.04,0.04L3.684,3.877
		c-0.051,0.049-0.101,0.099-0.15,0.15c-0.065,0.063-0.126,0.13-0.183,0.2C3.2,4.403,3.058,4.587,2.925,4.777
		C2.897,4.813,2.87,4.85,2.845,4.888c-0.043,0.064-0.081,0.127-0.119,0.19L2.692,5.134c-0.108,0.171-0.205,0.348-0.29,0.531
		c-0.031,0.059-0.06,0.119-0.087,0.179c-0.252,0.572-0.416,1.179-0.486,1.8c-0.007,0.06-0.01,0.12-0.01,0.182L1.804,11.66
		c-0.147,1.669,0.496,3.31,1.737,4.435c0.334,0.307,0.705,0.573,1.106,0.798c0.048,0.167,0.222,0.264,0.389,0.216
		c0.008-0.002,0.015-0.005,0.023-0.007c0.126,0.058,0.253,0.114,0.384,0.165l16.386,6.331l0.003-0.008
		c0.851,0.328,1.76,0.483,2.672,0.455l5.074-0.142l1.846-0.052l20.669-0.58c3.63-0.101,6.74-2.756,7.08-6.044
		c0.006-0.06,0.01-0.121,0.01-0.182l0.015-3.834C59.332,11.727,58.838,10.256,57.834,9.154L57.834,9.154z"/>
	<g>
		<path fill="#E7424F" d="M59.455,8.96c-0.646-0.706-1.445-1.254-2.335-1.604c-0.022-0.01-0.041-0.024-0.064-0.033L40.11,0.615
			c-0.165-0.064-0.333-0.122-0.502-0.173c-0.177-0.051-0.356-0.095-0.537-0.133L39.03,0.3c-0.078-0.019-0.157-0.035-0.236-0.05
			c-0.171-0.029-0.343-0.052-0.516-0.069c-0.094-0.015-0.189-0.025-0.284-0.03c-0.243-0.016-0.487-0.021-0.73-0.014L7.63,0.957
			C7.422,0.964,7.215,0.978,7.008,1.001L6.84,1.021C6.204,1.102,5.579,1.258,4.98,1.486l-0.03,0.01
			C4.567,1.644,4.195,1.821,3.839,2.025C3.614,2.152,3.396,2.29,3.184,2.438c-0.203,0.143-0.4,0.296-0.589,0.457
			c-0.089,0.068-0.173,0.142-0.25,0.223C2.287,3.173,2.23,3.23,2.175,3.288L2.132,3.331L2.094,3.369
			c-0.055,0.052-0.108,0.105-0.16,0.159C1.865,3.595,1.801,3.666,1.741,3.74c-0.16,0.186-0.31,0.38-0.451,0.583
			C1.26,4.361,1.231,4.401,1.205,4.44C1.161,4.506,1.12,4.573,1.08,4.641l-0.037,0.06c-0.114,0.18-0.217,0.368-0.306,0.562
			c-0.033,0.062-0.064,0.126-0.093,0.19C0.376,6.058,0.202,6.701,0.129,7.359c-0.007,0.064-0.01,0.129-0.01,0.193L0.1,11.613
			c-0.155,1.768,0.526,3.506,1.84,4.698c0.355,0.325,1.028,0.84,2.016,1.241l17.356,6.708l0.004-0.01
			c0.902,0.348,1.864,0.512,2.83,0.483l5.375-0.151l1.956-0.055l21.894-0.615c3.846-0.107,7.14-2.919,7.5-6.402
			c0.006-0.064,0.01-0.128,0.01-0.193l0.016-4.062c0.142-1.571-0.381-3.129-1.443-4.296L59.455,8.96z M4.341,4.015L4.36,4
			C4.478,3.92,4.6,3.842,4.725,3.769l0.062-0.034c0.1-0.057,0.2-0.114,0.304-0.165c0.013-0.007,0.027-0.012,0.04-0.018
			c0.17-0.083,0.342-0.16,0.519-0.229l0.007-0.002c0.175-0.067,0.354-0.125,0.535-0.177L6.236,3.13
			C6.362,3.095,6.49,3.065,6.619,3.039c0.027-0.006,0.055-0.01,0.082-0.015c0.169-0.033,0.34-0.059,0.512-0.077
			c0.156-0.017,0.312-0.03,0.47-0.034l29.634-0.821c0.191-0.005,0.383-0.001,0.574,0.013h0.018c0.05,0.004,0.096,0.014,0.144,0.02
			c0.134,0.013,0.267,0.028,0.397,0.05c0.07,0.013,0.136,0.03,0.204,0.045c0.11,0.025,0.22,0.049,0.327,0.08
			c0.02,0.005,0.042,0.009,0.062,0.015c0.119,0.036,0.235,0.076,0.348,0.12L50.773,6.94l-25.79,0.725
			c-2,0.056-3.909,0.846-5.363,2.219L4.1,4.202C4.181,4.14,4.257,4.074,4.34,4.016L4.341,4.015z M17.472,14.591l-0.015,3.729
			c-0.073,0.863,0.05,1.703,0.342,2.483l-3.71-1.434c0.05-0.178-0.054-0.362-0.232-0.411c-0.154-0.043-0.316,0.029-0.388,0.171
			l-4.043-1.562v-0.05c-0.02-0.183-0.185-0.316-0.368-0.296c-0.086,0.009-0.165,0.052-0.221,0.119l-4.096-1.583
			c-0.042-0.179-0.221-0.29-0.4-0.248c-0.032,0.007-0.062,0.019-0.09,0.035c-0.281-0.14-0.546-0.31-0.79-0.507
			c0.102-0.154,0.06-0.361-0.094-0.463c-0.117-0.077-0.27-0.074-0.383,0.01c-0.706-0.782-1.043-1.829-0.927-2.876l0.016-4.149
			C2.088,7.421,2.11,7.283,2.139,7.147C2.147,7.108,2.157,7.07,2.166,7.031c0.025-0.105,0.054-0.208,0.086-0.31
			c0.011-0.034,0.02-0.068,0.032-0.1c0.042-0.124,0.089-0.245,0.141-0.364l0.011-0.021l0.015-0.031
			c0.036-0.042,0.061-0.092,0.073-0.146c0.036-0.074,0.074-0.147,0.115-0.22l0.044-0.072l2.628,0.962v0.032
			C5.332,6.944,5.497,7.076,5.68,7.056c0.083-0.009,0.16-0.05,0.215-0.113L9.987,8.44c0,0.014-0.002,0.028,0,0.042
			c0.02,0.183,0.186,0.315,0.369,0.295c0.086-0.01,0.166-0.053,0.221-0.12l4.085,1.495c-0.007,0.184,0.137,0.339,0.321,0.346
			c0.107,0.004,0.21-0.044,0.276-0.128l3.077,1.127c-0.463,0.786-0.754,1.661-0.852,2.568l-0.003,0.036
			c-0.138,0.122-0.15,0.332-0.028,0.47C17.459,14.578,17.465,14.585,17.472,14.591z M59.13,13.18l-0.015,4.13
			c-0.267,2.593-2.864,4.752-5.793,4.833L23.93,22.967c-1.483,0-2.838-0.56-3.717-1.535c-0.749-0.824-1.108-1.929-0.987-3.036
			l0.015-4.13c0.267-2.593,2.865-4.753,5.793-4.835l29.392-0.822h0.001c1.483,0,2.837,0.559,3.716,1.534
			C58.892,10.967,59.251,12.073,59.13,13.18z"/>
		<path fill="#E7424F" d="M36.82,17.132c-2.752-0.667-8.257-2.468-14.847-2.69c-0.379-0.013-1.055,0.152-1.052,0.812
			c0.007,1.315,0.034,3.562-0.003,3.574c0.014,0.498,0,1.346,0.741,1.687c3.729,1.718,10.44-2.115,15.133-3.075
			C37.108,17.375,37.214,17.228,36.82,17.132z"/>
		<path fill="#E7424F" d="M21.843,13.836c7.893,0.076,13.448,2.583,17.521,3.095c4.657,0.585,9.484-2.067,10.656-2.922
			c0.282-0.205,0.242-0.273-0.054-0.255c-7.953,0.487-10.37,0.023-14.171-3.022c-0.255-0.204-0.792-0.182-1.061-0.19
			c-2.23-0.06-9.334,0.253-9.334,0.253c-3.914,0.248-4.439,2.707-4.277,2.922C21.237,13.868,21.732,13.835,21.843,13.836z"/>
		<path fill="#E7424F" d="M57.308,13.808c-2.176-0.12-5.977,0.047-7.833,1.134c-6.524,3.82-8.05,1.514-16.906,4.331
			c-3.277,1.043-4.353,1.563-3.41,1.734c1.826,0.33,8.428-0.207,13.424-1.174c5.783-1.12,8.798,0.42,13.978-1.322
			c0.995-0.334,1.175-1.383,1.177-1.752l0.013-2.544C57.752,13.901,57.395,13.812,57.308,13.808z M37.281,10.928
			c4.454,3.892,11.225,2.046,20.455,1.676c-0.002-0.333-0.002-0.226,0.003-0.363l-0.007-0.169c-0.106-0.347-0.287-0.667-0.53-0.937
			c-0.616-0.686-1.595-1.081-2.687-1.084l-0.129,0.002c0,0-12.642,0.48-16.909,0.45C37.36,10.503,36.719,10.437,37.281,10.928z"/>
		<ellipse fill="#E7424F" cx="17.456" cy="12.136" rx="0.334" ry="0.334"/>
		<path fill="#E7424F" d="M14.048,11.731c0.183-0.021,0.315-0.187,0.294-0.37s-0.187-0.315-0.37-0.294
			c-0.183,0.021-0.314,0.186-0.294,0.369h0.001c0.02,0.184,0.186,0.316,0.37,0.295H14.048z M15.893,11.189
			c0.009,0.088,0.054,0.169,0.124,0.224c0.144,0.115,0.354,0.091,0.469-0.053c0.055-0.069,0.08-0.157,0.071-0.245
			c-0.02-0.183-0.186-0.315-0.369-0.295C16.005,10.84,15.873,11.006,15.893,11.189z"/>
		<ellipse fill="#E7424F" cx="12.781" cy="10.415" rx="0.334" ry="0.334"/>
		<path fill="#E7424F" d="M16.756,15.915c0.183-0.022,0.313-0.188,0.291-0.37c-0.022-0.183-0.188-0.313-0.37-0.291
			c-0.058,0.007-0.112,0.029-0.159,0.063l-0.015,0.011c-0.022,0.019-0.041,0.041-0.057,0.065c-0.046,0.066-0.067,0.147-0.059,0.227
			c0.021,0.183,0.187,0.315,0.37,0.295H16.756z"/>
		<ellipse fill="#E7424F" cx="14.258" cy="13.614" rx="0.334" ry="0.334"/>
		<path fill="#E7424F" d="M16.37,13.05c-0.18,0.042-0.292,0.222-0.25,0.402c0.042,0.18,0.222,0.292,0.402,0.25
			c0.019-0.004,0.037-0.01,0.054-0.018c0.172-0.068,0.257-0.262,0.19-0.434c-0.062-0.158-0.232-0.245-0.397-0.202L16.37,13.05z"/>
		<ellipse fill="#E7424F" cx="15.489" cy="14.599" rx="0.334" ry="0.334"/>
		<ellipse fill="#E7424F" cx="13.274" cy="14.846" rx="0.334" ry="0.334"/>
		<ellipse fill="#E7424F" cx="15.242" cy="12.383" rx="0.334" ry="0.334"/>
		<ellipse fill="#E7424F" cx="13.028" cy="12.63" rx="0.334" ry="0.334"/>
		<path fill="#E7424F" d="M17.11,19.696c-0.179,0.047-0.286,0.23-0.239,0.409s0.23,0.286,0.409,0.239
			c0.013-0.003,0.025-0.007,0.037-0.012c0.172-0.068,0.257-0.262,0.19-0.434C17.445,19.74,17.274,19.653,17.11,19.696z"/>
		<ellipse fill="#E7424F" cx="14.752" cy="18.045" rx="0.334" ry="0.334"/>
		<path fill="#E7424F" d="M17.298,17.761c-0.02-0.183-0.186-0.315-0.369-0.295s-0.315,0.186-0.295,0.369s0.186,0.315,0.369,0.295
			S17.318,17.944,17.298,17.761L17.298,17.761z"/>
		<ellipse fill="#E7424F" cx="15.983" cy="19.03" rx="0.334" ry="0.334"/>
		<ellipse fill="#E7424F" cx="15.736" cy="16.814" rx="0.334" ry="0.334"/>
		<ellipse fill="#E7424F" cx="13.521" cy="17.061" rx="0.334" ry="0.334"/>
		<path fill="#E7424F" d="M14.837,15.793c-0.02-0.183-0.186-0.315-0.369-0.295c-0.183,0.02-0.315,0.186-0.295,0.369
			c0.02,0.183,0.186,0.315,0.369,0.295C14.725,16.142,14.857,15.976,14.837,15.793L14.837,15.793z"/>
		<ellipse fill="#E7424F" cx="9.336" cy="9.678" rx="0.334" ry="0.334"/>
		<path fill="#E7424F" d="M11.295,9.647c0.073,0.084,0.182,0.127,0.292,0.116c0.183-0.021,0.315-0.186,0.295-0.369
			c-0.021-0.183-0.186-0.315-0.369-0.295c-0.183,0.021-0.315,0.186-0.295,0.369C11.225,9.534,11.252,9.596,11.295,9.647z"/>
		<ellipse fill="#E7424F" cx="10.566" cy="10.662" rx="0.334" ry="0.334"/>
		<ellipse fill="#E7424F" cx="8.352" cy="10.909" rx="0.334" ry="0.334"/>
		<ellipse fill="#E7424F" cx="8.105" cy="8.693" rx="0.334" ry="0.334"/>
		<ellipse fill="#E7424F" cx="9.83" cy="14.109" rx="0.334" ry="0.334"/>
		<path fill="#E7424F" d="M12.08,14.194c0.183-0.02,0.316-0.185,0.295-0.368s-0.185-0.316-0.368-0.295l0,0
			c-0.183,0.02-0.315,0.186-0.295,0.369c0.02,0.183,0.186,0.315,0.369,0.295l0,0H12.08z"/>
		<ellipse fill="#E7424F" cx="11.06" cy="15.093" rx="0.334" ry="0.334"/>
		<ellipse fill="#E7424F" cx="8.846" cy="15.34" rx="0.334" ry="0.334"/>
		<ellipse fill="#E7424F" cx="10.813" cy="12.877" rx="0.334" ry="0.334"/>
		<ellipse fill="#E7424F" cx="8.599" cy="13.124" rx="0.334" ry="0.334"/>
		<path fill="#E7424F" d="M9.915,11.856c-0.02-0.183-0.186-0.315-0.369-0.295c-0.183,0.02-0.315,0.186-0.295,0.369
			s0.186,0.315,0.369,0.295C9.803,12.205,9.935,12.039,9.915,11.856L9.915,11.856z M11.477,11.551
			c-0.054,0.177,0.046,0.364,0.223,0.418s0.364-0.046,0.418-0.223c0.014-0.045,0.018-0.091,0.012-0.138
			c-0.019-0.183-0.184-0.317-0.367-0.297C11.628,11.326,11.515,11.421,11.477,11.551z M12.747,18.031
			c-0.143-0.117-0.353-0.096-0.47,0.046s-0.096,0.353,0.046,0.47c0.002,0.002,0.004,0.003,0.006,0.005
			c0.151,0.106,0.359,0.069,0.465-0.082c0.096-0.137,0.075-0.324-0.048-0.438L12.747,18.031z"/>
		<ellipse fill="#E7424F" cx="11.307" cy="17.308" rx="0.334" ry="0.334"/>
		<path fill="#E7424F" d="M10.04,15.992c-0.183,0.021-0.315,0.187-0.294,0.37c0.021,0.183,0.187,0.315,0.37,0.294
			c0.183-0.021,0.314-0.186,0.294-0.369h-0.001C10.389,16.104,10.224,15.972,10.04,15.992c0,0-0.001,0-0.001,0L10.04,15.992z
			 M12.328,16.409c0.088-0.009,0.169-0.053,0.224-0.123c0.055-0.069,0.081-0.158,0.071-0.246c-0.02-0.183-0.186-0.315-0.369-0.295
			s-0.315,0.186-0.295,0.369c0.009,0.088,0.054,0.169,0.123,0.224C12.151,16.394,12.24,16.419,12.328,16.409z M4.328,7.993
			c0.02,0.184,0.186,0.316,0.37,0.295c0.184-0.02,0.316-0.186,0.295-0.369c-0.02-0.184-0.186-0.316-0.37-0.296
			C4.44,7.644,4.308,7.809,4.328,7.993z M6.844,8.043C7.028,8.06,7.19,7.925,7.208,7.742C7.21,7.719,7.21,7.696,7.207,7.673
			C7.187,7.49,7.022,7.357,6.839,7.378c-0.183,0.02-0.316,0.185-0.296,0.368c0.017,0.158,0.142,0.282,0.3,0.296L6.844,8.043z"/>
		<ellipse fill="#E7424F" cx="3.43" cy="6.972" rx="0.334" ry="0.334"/>
		<ellipse fill="#E7424F" cx="4.907" cy="10.172" rx="0.334" ry="0.334"/>
		<path fill="#E7424F" d="M7.018,9.607c-0.176,0.057-0.272,0.246-0.214,0.422c0.057,0.176,0.246,0.272,0.421,0.214
			s0.272-0.246,0.214-0.422C7.382,9.646,7.194,9.55,7.018,9.607z"/>
		<ellipse fill="#E7424F" cx="6.138" cy="11.156" rx="0.334" ry="0.334"/>
		<ellipse fill="#E7424F" cx="3.924" cy="11.403" rx="0.334" ry="0.334"/>
		<ellipse fill="#E7424F" cx="5.891" cy="8.94" rx="0.334" ry="0.334"/>
		<ellipse fill="#E7424F" cx="3.677" cy="9.187" rx="0.334" ry="0.334"/>
		<ellipse fill="#E7424F" cx="2.693" cy="10.419" rx="0.334" ry="0.334"/>
		<path fill="#E7424F" d="M2.778,8.166c-0.02-0.183-0.185-0.315-0.367-0.295C2.388,7.874,2.365,7.879,2.343,7.886
			C2.192,7.935,2.096,8.082,2.113,8.24c0.02,0.184,0.186,0.316,0.37,0.295S2.798,8.35,2.778,8.166z"/>
		<ellipse fill="#E7424F" cx="5.401" cy="14.603" rx="0.334" ry="0.334"/>
		<path fill="#E7424F" d="M7.652,14.688c0.088-0.009,0.169-0.053,0.224-0.123c0.115-0.144,0.092-0.354-0.052-0.47
			s-0.354-0.092-0.47,0.052c-0.115,0.144-0.092,0.354,0.052,0.47C7.476,14.672,7.564,14.698,7.652,14.688z"/>
		<ellipse fill="#E7424F" cx="6.632" cy="15.587" rx="0.334" ry="0.334"/>
		<ellipse fill="#E7424F" cx="6.385" cy="13.371" rx="0.334" ry="0.334"/>
		<ellipse fill="#E7424F" cx="4.171" cy="13.619" rx="0.334" ry="0.334"/>
		<path fill="#E7424F" d="M5.486,12.35c-0.02-0.183-0.186-0.315-0.369-0.295c-0.183,0.02-0.315,0.186-0.295,0.369
			s0.186,0.315,0.369,0.295C5.374,12.699,5.506,12.533,5.486,12.35z M7.701,12.103c-0.02-0.184-0.186-0.316-0.37-0.295
			s-0.316,0.186-0.295,0.37s0.186,0.316,0.37,0.295S7.721,12.287,7.701,12.103z M8.194,16.534c-0.02-0.183-0.186-0.315-0.369-0.295
			c-0.183,0.02-0.315,0.186-0.295,0.369c0.019,0.182,0.182,0.315,0.365,0.296c0.002,0,0.003,0,0.005-0.001
			C8.083,16.882,8.214,16.717,8.194,16.534z M3.272,12.597c-0.02-0.183-0.186-0.315-0.369-0.295
			c-0.183,0.02-0.315,0.186-0.295,0.369c0.009,0.089,0.053,0.17,0.123,0.225c0.144,0.116,0.354,0.093,0.47-0.051
			C3.257,12.775,3.282,12.686,3.272,12.597z"/>
	</g>
	<path fill="#FFFFFF" d="M51.38,37.138c-0.277,0-0.531-0.156-0.655-0.404l-3.24-6.448l-3.687,3.932
		c-0.277,0.295-0.741,0.311-1.036,0.034c-0.149-0.14-0.233-0.335-0.232-0.539l0.072-15.833c0.003-0.405,0.334-0.732,0.739-0.729
		c0.158,0.001,0.311,0.053,0.437,0.148l12.532,9.494c0.323,0.245,0.386,0.705,0.141,1.028c-0.121,0.16-0.302,0.263-0.501,0.286
		l-5.354,0.615l3.24,6.447c0.182,0.362,0.036,0.803-0.326,0.985l-1.8,0.906C51.608,37.111,51.495,37.138,51.38,37.138z"/>
	<path fill="#E7424F" d="M43.335,17.883l12.532,9.495l-6.397,0.735l3.71,7.386l-1.8,0.906l-3.71-7.387l-4.407,4.698
		C43.263,33.716,43.335,17.883,43.335,17.883z M43.335,16.416c-0.807,0.001-1.462,0.653-1.466,1.46l-0.073,15.835
		c-0.003,0.81,0.651,1.469,1.462,1.472c0.407,0.001,0.796-0.166,1.074-0.462l2.969-3.166l2.768,5.51
		c0.364,0.724,1.245,1.015,1.969,0.652l1.8-0.907c0.724-0.364,1.016-1.246,0.652-1.97l-2.768-5.508l4.312-0.496
		c0.804-0.092,1.382-0.818,1.291-1.622c-0.045-0.399-0.253-0.763-0.574-1.005L44.22,16.714
		C43.965,16.521,43.655,16.416,43.335,16.416z"/>
	<g>
		<path fill="#E7424F" d="M87.472,18.28c0-2.592-0.992-4.704-4.32-6.496l-4.096-2.208c-1.728-0.928-2.144-1.344-2.144-2.24
			c0-1.152,0.672-1.696,2.496-1.696c2.176,0,5.888,0.288,6.784,0.352h0.064c0.416,0,0.544-0.256,0.544-0.544V2.216
			c0-0.352-0.224-0.512-0.48-0.576c-1.216-0.32-4.448-0.704-6.784-0.704c-6.208,0-8.192,2.72-8.192,6.24
			c0,2.336,0.8,4.352,3.776,6.112l4.416,2.624c1.664,0.992,2.112,1.504,2.112,2.432c0,1.536-0.64,2.24-2.848,2.24
			c-1.248,0-4.768-0.256-6.08-0.384h-0.096c-0.32,0-0.576,0.16-0.576,0.608v3.136c0,0.352,0.32,0.544,0.64,0.64
			c1.632,0.416,3.52,0.704,6.048,0.704C85.232,25.288,87.472,21.672,87.472,18.28z M111.664,24.616
			c0.004-0.145-0.054-0.285-0.16-0.384l-3.264-3.456c1.504-2.304,1.856-4.608,1.856-6.976v-0.256c0-0.352-0.256-0.64-0.608-0.64
			h-2.976c-0.352,0-0.576,0.288-0.576,0.64V13.8c0,1.984-0.192,3.136-0.544,3.968l-4.16-4.384l0.992-0.64
			c2.272-1.472,4.224-3.04,4.224-5.984V6.472c0-3.264-2.56-5.536-7.296-5.536c-5.28,0-7.584,2.4-7.584,5.536V6.76
			c0,1.44,0.512,2.848,2.848,5.472l0.256,0.288c-2.624,1.632-4.256,3.456-4.256,6.208v0.288c0,4.544,3.84,6.272,8.864,6.272
			c2.368,0,4.352-0.576,5.952-1.568l0.96,1.024c0.224,0.224,0.288,0.256,0.544,0.256h4.544c0.204,0.008,0.376-0.151,0.384-0.355
			C111.664,24.635,111.664,24.626,111.664,24.616z M101.68,6.76c0,1.216-0.544,1.824-2.496,3.04l-0.832,0.512l-0.256-0.256
			c-1.664-1.664-1.792-2.4-1.792-3.296V6.472c0-1.184,0.992-1.952,2.848-1.952c1.696,0,2.528,0.768,2.528,1.952
			C101.68,6.472,101.68,6.76,101.68,6.76z M102.48,20.84c-0.864,0.48-1.888,0.736-3.2,0.736c-2.144,0-3.552-0.864-3.552-2.56v-0.288
			c0-1.216,0.32-2.176,1.856-3.104C97.584,15.624,102.48,20.84,102.48,20.84z M130.224,5.128V1.832c0-0.352-0.32-0.608-0.672-0.608
			H113.68c-0.352,0-0.64,0.256-0.64,0.608v3.296c0,0.352,0.288,0.608,0.64,0.608h5.216V24.36c0,0.352,0.288,0.64,0.64,0.64h4.192
			c0.352,0,0.64-0.288,0.64-0.64V5.736h5.184C129.904,5.736,130.224,5.48,130.224,5.128z"/>
	</g>
</g>
</svg>
