<?xml version="1.0" encoding="UTF-8" standalone="no"?>
<svg width="132px" height="39px" viewBox="0 0 132 39" version="1.1" xmlns="http://www.w3.org/2000/svg" xmlns:xlink="http://www.w3.org/1999/xlink">
    <!-- Generator: Sketch 3.8.3 (29802) - http://www.bohemiancoding.com/sketch -->
    <title>Artboard</title>
    <desc>Created with Sketch.</desc>
    <defs></defs>
    <g id="Page-1" stroke="none" stroke-width="1" fill="none" fill-rule="evenodd">
        <g id="Artboard">
            <g id="small-logo">
                <g id="Page-1">
                    <g id="Desktop-HD-Copy-4">
                        <g id="Navbar">
                            <g id="Small-logo">
                                <g id="Group">
                                    <g id="Top-logo">
                                        <g id="Group">
                                            <path d="M57.8343053,9.15403861 C57.2377957,8.49248649 56.4807212,7.98190734 55.6302404,7.64034749 C55.6088317,7.63095753 55.5907957,7.61745946 55.5689471,7.60865637 L39.5725769,1.27703475 C39.4071731,1.21321236 39.2545264,1.16068726 39.0985072,1.11359073 C39.0647812,1.10332046 39.0147788,1.09011583 38.9715216,1.07969884 C38.8457091,1.04507336 38.7190168,1.01602317 38.591738,0.988293436 L38.5525865,0.979343629 C38.478976,0.962030888 38.4052187,0.945598456 38.3294087,0.932100386 C38.1678173,0.903637066 38.0051995,0.883976834 37.8417019,0.867104247 C37.7660385,0.85580695 37.6982933,0.847444015 37.6284952,0.842455598 C37.6111923,0.841281853 37.5927163,0.840254826 37.5738005,0.839374517 C37.4111827,0.828370656 37.2462187,0.822648649 37.0792019,0.822648649 C37.0148293,0.822648649 36.9501635,0.823528958 36.8852043,0.825289575 L8.90863942,1.60040154 C8.71185577,1.60583012 8.51639183,1.6210888 8.32210096,1.64177606 L8.16329567,1.66084942 C8.00067788,1.6816834 7.84069952,1.70706564 7.68204087,1.73787645 C7.64978125,1.74330502 7.61341587,1.74990734 7.57719712,1.75753668 C7.41985817,1.79025483 7.26017308,1.82810811 7.1026875,1.87153668 C7.07614663,1.87887259 7.04095433,1.88958301 7.00869471,1.90029344 C6.78478365,1.96514286 6.59210577,2.02911197 6.40807933,2.09894981 C6.39810817,2.10261776 6.38828365,2.10628571 6.37963221,2.10951351 C6.18358173,2.18492664 5.98679808,2.27090347 5.77843029,2.372139 C5.74910337,2.38505019 5.72036298,2.39840154 5.69220913,2.41248649 C5.56551683,2.47616216 5.44718269,2.54130502 5.33016827,2.60806178 C5.29732212,2.62552124 5.26726202,2.64195367 5.23778846,2.65911969 C5.07971635,2.75199228 4.92882933,2.84721236 4.78248798,2.94727413 C4.76005288,2.96253282 4.73600481,2.97999228 4.71210337,2.99789189 C4.51854567,3.13404633 4.33877163,3.27372201 4.1560649,3.42953668 C4.11618029,3.46005405 4.07790865,3.49174517 4.04095673,3.52475676 C4.0064976,3.55468726 3.96382692,3.59591506 3.92086298,3.64022394 C3.86572837,3.69216216 3.81264663,3.74571429 3.76000481,3.79955985 L3.71953365,3.84093436 L3.682875,3.87658687 C3.63184615,3.92573745 3.58140385,3.97562162 3.53272115,4.02682625 C3.49034375,4.06790734 3.45045913,4.10913514 3.41277404,4.15183012 C3.3926851,4.17442471 3.37098317,4.20054054 3.34972115,4.22709653 C3.19898077,4.40286486 3.0571851,4.58596911 2.9237476,4.77728958 C2.89559375,4.81382239 2.86875962,4.85079537 2.84353846,4.88835521 C2.80072115,4.95232432 2.76274279,5.01482625 2.7254976,5.07776834 L2.69133173,5.13410811 C2.65789904,5.18766023 2.62490625,5.24135907 2.59381971,5.29593822 C2.52475481,5.41742085 2.46214183,5.54081081 2.40172837,5.66537452 C2.38119952,5.7048417 2.36228365,5.74254826 2.34454087,5.77966795 C2.3336899,5.80167568 2.32269231,5.82471042 2.31404087,5.8439305 C2.23867067,6.01338996 2.17547115,6.17756757 2.11828365,6.34335907 C2.10391346,6.38502703 2.09115625,6.42566795 2.07869231,6.46630888 C2.02956971,6.62138996 1.98997837,6.76385328 1.9558125,6.90749035 C1.93997596,6.97366023 1.92883173,7.02163707 1.91886058,7.07020077 C1.8761899,7.27604633 1.84627644,7.464139 1.82780048,7.64357529 C1.82149519,7.70416988 1.81826923,7.7649112 1.8181226,7.82594595 L1.8028726,11.660278 C1.66049038,13.3375598 2.29013942,14.9489653 3.53975962,16.0951274 C3.87423317,16.4019151 4.24463221,16.6683552 4.64626442,16.892834 C4.68761538,17.0385251 4.82838462,17.1374131 4.98381731,17.1199537 C5.00977163,17.1170193 5.03425962,17.1102703 5.05772115,17.1016139 C5.18368029,17.1601544 5.3112524,17.2160541 5.44249038,17.2668185 L21.8275889,23.5984402 L21.8309615,23.5897838 C22.594488,23.8849807 23.4292788,24.0479846 24.2979423,24.0479846 C24.3659808,24.0479846 24.4346058,24.0469575 24.5033774,24.0450502 L29.5766418,23.9025869 L31.4230649,23.8507954 L52.0915072,23.2702317 C55.7223269,23.169583 58.8325937,20.515305 59.171613,17.2272046 C59.1779183,17.1667568 59.1811442,17.1058687 59.1812909,17.0449807 L59.1965409,13.2105019 C59.3245529,11.7094286 58.8428582,10.2726178 57.8343053,9.15403861 L57.8343053,9.15403861 L57.8343053,9.15403861 Z" id="Shape" fill="#FFFFFF"></path>
                                            <g fill="#E7424F">
                                                <path d="M59.4552043,8.95949035 C58.8233558,8.25861776 58.0214111,7.71781467 57.120488,7.35600772 C57.0979062,7.34603089 57.0786971,7.33165251 57.0556755,7.32255598 L40.1108726,0.615482625 C39.9357909,0.54784556 39.7739062,0.492239382 39.608649,0.442355212 C39.5728702,0.431498069 39.5199351,0.417559846 39.4741851,0.406409266 C39.3408942,0.36972973 39.2067236,0.339065637 39.0719663,0.30957529 L39.0304688,0.30003861 C38.9524591,0.281698842 38.8743029,0.2643861 38.7940938,0.250007722 C38.6228245,0.219783784 38.4506755,0.198949807 38.2775,0.181196911 C38.1972909,0.169166023 38.1255865,0.160362934 38.0516827,0.155081081 C38.0333534,0.153760618 38.0137043,0.152733591 37.9936154,0.151706564 C37.8213197,0.14011583 37.6466779,0.133953668 37.4696899,0.133953668 C37.4015048,0.133953668 37.3330264,0.134833977 37.2641082,0.136741313 L7.62866587,0.957776062 C7.42015144,0.963498069 7.21325,0.979637066 7.007375,1.00149807 L6.83903846,1.02174517 C6.66674279,1.04389961 6.49723317,1.07074903 6.3291899,1.10332046 C6.29502404,1.10904247 6.25645913,1.11608494 6.2181875,1.12415444 C6.05161058,1.15877992 5.88239423,1.19898069 5.71552404,1.24490347 C5.68737019,1.25267954 5.650125,1.26397683 5.61595913,1.27527413 C5.37870433,1.34393822 5.17473558,1.41172201 4.97971154,1.48566795 C4.96915385,1.48948263 4.95874279,1.49344402 4.94965144,1.49681853 C4.74201683,1.57677992 4.5335024,1.66774517 4.31267067,1.77499614 C4.28173077,1.78864093 4.25123077,1.80287259 4.22131731,1.81769112 C4.08714663,1.88503475 3.96177404,1.954139 3.83772115,2.02485714 C3.80296875,2.04334363 3.77114904,2.06080309 3.73991587,2.07899614 C3.57245913,2.1772973 3.4126274,2.27823938 3.25748798,2.3843166 C3.23373317,2.40060232 3.20821875,2.41894208 3.1829976,2.43786873 C2.9780024,2.58209266 2.78752404,2.73013127 2.59396635,2.89504247 C2.55173558,2.92746718 2.51111779,2.96091892 2.47196635,2.99598456 C2.43545433,3.02767568 2.39029087,3.07125097 2.3446875,3.11820077 C2.28632692,3.17322008 2.23001923,3.23 2.17429808,3.28707336 L2.13148077,3.33094208 L2.0926226,3.36879537 C2.03851442,3.42088031 1.98513942,3.47369884 1.93367067,3.52783784 C1.88865385,3.57126641 1.84656971,3.61513514 1.80653846,3.66017761 C1.78527644,3.68409266 1.76225481,3.71167568 1.73981971,3.73999228 C1.58013462,3.92617761 1.42998077,4.120139 1.288625,4.32275676 C1.25885817,4.36134363 1.23041106,4.40066409 1.20372356,4.44042471 C1.15841346,4.50820849 1.11808894,4.5745251 1.07864423,4.64113514 L1.04242548,4.7007027 C1.0069399,4.75748263 0.972040865,4.81426255 0.939194712,4.8720695 C0.866024038,5.00074131 0.799745192,5.13146718 0.735665865,5.2633668 C0.713963942,5.30518147 0.693875,5.3450888 0.675105769,5.38455598 C0.663668269,5.40788417 0.6519375,5.43223938 0.642846154,5.4526332 C0.562930288,5.63221622 0.496064904,5.8059305 0.435504808,5.98169884 C0.420254808,6.025861 0.406764423,6.06884942 0.393567308,6.11183784 C0.341512019,6.27601544 0.299574519,6.42698842 0.263355769,6.57913514 C0.246639423,6.64926641 0.234908654,6.70003089 0.224204327,6.75152896 C0.179040865,6.96955212 0.147367788,7.16879537 0.12771875,7.35879537 C0.121120192,7.42305792 0.117600962,7.48732046 0.117454327,7.55187645 L0.101324519,11.6134749 C-0.0495625,13.3902317 0.617478365,15.0971506 1.94129567,16.3112432 C2.2955649,16.6362239 2.96935096,17.1510579 3.95678846,17.5524788 L21.313488,24.2595521 L21.3170072,24.2503089 C22.1256971,24.5629653 23.0101971,24.7356525 23.9301827,24.7356525 C24.0023269,24.7356525 24.0749111,24.7344788 24.1477885,24.7325714 L29.5219471,24.5815985 L31.4777596,24.5267259 L53.371774,23.9116834 C57.2178534,23.8050193 60.5125865,20.9933127 60.8716947,17.5102239 C60.8782933,17.4461081 60.8818125,17.3816988 60.8819591,17.3172896 L60.8980889,13.2553977 C61.0338726,11.6664402 60.5235841,10.1443861 59.4552043,8.95949035 L59.4552043,8.95949035 L59.4552043,8.95949035 Z M4.34053125,4.01596911 C4.34727644,4.01142085 4.35284856,4.00569884 4.35959375,4.00100386 C4.47807452,3.92016216 4.60022115,3.84298842 4.72515385,3.76977606 C4.74553606,3.75803861 4.76694471,3.74762162 4.78747356,3.73588417 C4.88733173,3.67881081 4.98792308,3.62247104 5.09144712,3.57053282 C5.1044976,3.56407722 5.11828125,3.55938224 5.13133173,3.55307336 C5.30025481,3.47003089 5.47255048,3.39241699 5.64983173,3.32433977 C5.65217788,3.32345946 5.65467067,3.32272587 5.65701683,3.32169884 C5.83165865,3.25464865 6.01055288,3.19713514 6.1919399,3.14549035 C6.20689663,3.14138224 6.22097356,3.1353668 6.23593029,3.13140541 C6.36232933,3.09648649 6.49034135,3.06640927 6.61923317,3.03955985 C6.64636058,3.03383784 6.67407452,3.03002317 6.70134856,3.02459459 C6.82848077,2.99994595 6.95678606,2.97969884 7.08597115,2.96311969 C7.12820192,2.9575444 7.17043269,2.95226255 7.21310337,2.94756757 C7.36868269,2.93098842 7.52484856,2.91807722 7.68248077,2.91382239 L37.3171899,2.09278764 C37.3682187,2.09146718 37.4189543,2.09073359 37.4693966,2.09073359 C37.6119255,2.09073359 37.7524014,2.09601544 37.8909712,2.10599228 C37.8969832,2.10657915 37.9031418,2.10599228 37.9090072,2.10657915 C37.9582764,2.1102471 38.004613,2.12022394 38.0534423,2.12521236 C38.1873197,2.13885714 38.3204639,2.15352896 38.4497957,2.17641699 C38.5193005,2.18874131 38.585726,2.20634749 38.6539111,2.22131274 C38.7641803,2.24552124 38.8741562,2.26972973 38.980613,2.30054054 C39.0008486,2.30640927 39.0228437,2.30963707 39.0430793,2.31565251 C39.1615601,2.35159846 39.2775481,2.39150579 39.3910433,2.4352278 L50.7728221,6.94020849 L24.9837524,7.66484942 C22.9090192,7.72236293 20.9998365,8.57127413 19.6202981,9.88381467 L4.10093029,4.20215444 C4.18113942,4.1403861 4.25665625,4.07377606 4.34053125,4.01596911 L4.34053125,4.01596911 L4.34053125,4.01596911 Z M17.4722476,14.5915598 L17.4574375,18.3209884 C17.3838269,19.1838378 17.5065601,20.0243861 17.7992428,20.8041931 L14.0890938,19.3704633 C14.1011178,19.3292355 14.1055168,19.2849266 14.1005313,19.2395907 C14.0800024,19.0560463 13.9147452,18.9238533 13.7313053,18.9443938 C13.6131178,18.9575985 13.5170721,19.031251 13.4685361,19.1307259 L9.42567308,17.568471 C9.42625962,17.5518919 9.42699279,17.5353127 9.42508654,17.5182934 C9.40455769,17.334749 9.23930048,17.202556 9.05586058,17.2230965 C8.96685337,17.2330734 8.89045673,17.2773822 8.83722837,17.3410579 L4.74143029,15.7582625 C4.70345192,15.5955521 4.55051202,15.4827259 4.3805625,15.5016525 C4.33290625,15.5069344 4.28920913,15.5223398 4.25035096,15.5449344 C3.96426683,15.4015907 3.70032452,15.2313977 3.46116346,15.0384633 C3.50515385,14.9744942 3.52846875,14.896 3.51908413,14.8126641 C3.49855529,14.6291197 3.33329808,14.4969266 3.14985817,14.5174672 C3.12698317,14.5201081 3.10469471,14.5248031 3.08357933,14.5316988 C3.04677404,14.543583 3.01363462,14.5626564 2.98386779,14.5855444 C2.30084375,13.820556 1.94246875,12.8168571 2.05669712,11.7088417 L2.07312019,7.56009266 C2.08749038,7.4212973 2.11124519,7.28426255 2.13939904,7.14825483 C2.14746394,7.1092278 2.15684856,7.07093436 2.16608654,7.03205405 C2.19086779,6.92744402 2.21975481,6.823861 2.25245433,6.72130502 C2.26315865,6.688 2.27254327,6.65425483 2.28398077,6.62109653 C2.32621154,6.49844015 2.37254808,6.37695753 2.42548317,6.25782239 C2.4285625,6.25077992 2.4328149,6.24388417 2.43604087,6.2368417 C2.44073317,6.22642471 2.44601202,6.21630116 2.45114423,6.20603089 C2.48692308,6.16465637 2.51170433,6.11491892 2.523875,6.06033977 C2.56038702,5.98639382 2.59763221,5.91288803 2.6386899,5.8407027 C2.65276683,5.81605405 2.66816346,5.79199228 2.68312019,5.76778378 L5.3112524,6.72996139 C5.31139904,6.74067181 5.3103726,6.75123552 5.31154567,6.76209266 C5.33207452,6.94578378 5.4971851,7.07783012 5.68077163,7.05728958 C5.76757933,7.04760618 5.84206971,7.00476448 5.89515144,6.94372973 L9.98655048,8.44142857 C9.98640385,8.4553668 9.9853774,8.4691583 9.98699038,8.48338996 C10.0075192,8.66708108 10.1726298,8.79912741 10.3562163,8.77858687 C10.4466899,8.76846332 10.5242596,8.72312741 10.5776346,8.65783784 L14.6618486,10.1530425 C14.6611154,10.1700618 14.6603822,10.1872278 14.6624351,10.2046873 C14.6829639,10.3883784 14.8480745,10.5204247 15.0315144,10.4998842 C15.1253606,10.4894672 15.2052764,10.4407568 15.2587981,10.3715058 L18.3362188,11.4981544 C17.8795986,12.2839768 17.5779712,13.1507876 17.4835385,14.0661622 C17.4823654,14.0781931 17.4817788,14.0902239 17.4807524,14.1024015 C17.4025962,14.1720927 17.3580192,14.2768494 17.3704832,14.3887954 C17.3798678,14.4696371 17.4179928,14.5393282 17.4722476,14.5915598 L17.4722476,14.5915598 L17.4722476,14.5915598 Z M59.1301154,13.1805714 L59.1147188,17.3109807 C58.848137,19.9036371 56.2505048,22.0631815 53.3222115,22.1441699 L23.9301827,22.9676988 C22.4465337,22.9676988 21.0917764,22.4087027 20.2128486,21.4334672 C19.4604663,20.599668 19.1101563,19.5207027 19.2261442,18.396695 L19.2412476,14.266139 C19.5076827,11.6743629 22.1059014,9.51393822 25.0341947,9.43221622 L54.4259303,8.60956757 L54.4273966,8.60956757 C55.9098726,8.60956757 57.2644832,9.16856371 58.1432644,10.1437992 C58.8952067,10.978332 59.2456635,12.0567104 59.1301154,13.1805714 L59.1301154,13.1805714 L59.1301154,13.1805714 Z" id="Shape"></path>
                                                <path d="M36.8196587,17.132278 C34.0683534,16.4651506 28.5625168,14.6637452 21.9727572,14.4420541 C21.5942933,14.4292896 20.9178678,14.5936139 20.9210937,15.2539923 C20.9275457,16.5688803 20.9546731,18.8158687 20.9178678,18.8284865 C20.9317981,19.325861 20.9178678,20.1735985 21.6589591,20.5150116 C25.388024,22.2326409 32.0993437,18.3999228 36.7919447,17.4396525 C37.1080889,17.3749498 37.214399,17.2280849 36.8196587,17.132278 L36.8196587,17.132278 L36.8196587,17.132278 Z" id="Shape"></path>
                                                <path d="M21.8428389,13.8358147 C29.735887,13.9124015 35.2911394,16.4189344 39.3643558,16.9309807 C44.0211779,17.5162394 48.8475096,14.8640154 50.0202933,14.0090888 C50.3015385,13.8041236 50.2622404,13.7360463 49.9655986,13.7542394 C42.0128702,14.24061 39.5951587,13.776834 35.7946827,10.7319923 C35.5399784,10.5279073 35.0032957,10.5496216 34.7339279,10.5422857 C32.5047885,10.4818378 25.4001947,10.7946409 25.4001947,10.7946409 C21.485637,11.0430347 20.9612716,13.502471 21.1227163,13.7168263 C21.2370913,13.8683861 21.7316899,13.8347876 21.8428389,13.8358147 L21.8428389,13.8358147 L21.8428389,13.8358147 Z" id="Shape"></path>
                                                <path d="M57.3077404,13.8076448 C55.131976,13.6879228 51.3315,13.8550347 49.4745192,14.9420695 C42.9507452,18.7612896 41.4251587,16.4556139 32.5687212,19.2730425 C29.2915841,20.3156216 28.2164591,20.8363243 29.159613,21.0069575 C30.984774,21.3372201 37.5869976,20.8003784 42.5826923,19.8329189 C48.3661082,18.7130193 51.3806226,20.2535598 56.5613702,18.5112819 C57.5561394,18.1767645 57.7362067,17.1283166 57.7382596,16.7585869 C57.7430986,15.9211197 57.7480841,14.9921004 57.7510168,14.2147876 C57.7523365,13.9008108 57.3945481,13.8123398 57.3077404,13.8076448 L57.3077404,13.8076448 L57.3077404,13.8076448 Z" id="Shape"></path>
                                                <path d="M37.2812644,10.9281544 C41.734851,14.8198533 48.5064375,12.9736988 57.7356202,12.6044093 C57.7337139,12.2710656 57.7344471,12.3784633 57.7394327,12.2405483 L57.7319543,12.0724093 C57.6266707,11.73261 57.4536418,11.4155521 57.2020168,11.135027 C56.5857115,10.448973 55.6066322,10.0535676 54.5152308,10.0507799 L54.3860457,10.0526873 C54.3860457,10.0526873 41.7435024,10.5336293 37.4774615,10.5029653 C37.3604471,10.5020849 36.7189207,10.4367954 37.2812644,10.9281544 L37.2812644,10.9281544 L37.2812644,10.9281544 Z" id="Shape"></path>
                                                <ellipse id="Oval" cx="17.4559712" cy="12.1360849" rx="0.334180288" ry="0.334370656"></ellipse>
                                                <path d="M14.0481827,11.7312896 C14.2316226,11.710749 14.3637404,11.5456911 14.3432115,11.362 L14.3432115,11.362 L14.3432115,11.362 C14.3226827,11.1784556 14.1574255,11.0462625 13.9739856,11.0668031 C13.7905457,11.0871969 13.6584279,11.2525483 13.6789567,11.4360927 L13.6789567,11.4360927 L13.6789567,11.4360927 C13.6994856,11.6197838 13.8647428,11.7518301 14.0481827,11.7312896 L14.0481827,11.7312896 L14.0481827,11.7312896 Z" id="Shape"></path>
                                                <path d="M15.8932861,11.1890193 L15.8932861,11.1890193 C15.8957788,11.2120541 15.9006178,11.2342085 15.9075096,11.2553359 C15.9211466,11.2975907 15.9428486,11.3358842 15.9707091,11.3686023 C15.9846394,11.384888 16.0000361,11.3998533 16.0167524,11.4132046 C16.0669014,11.4532587 16.128488,11.4789344 16.1947668,11.4849498 C16.2169087,11.4870039 16.239637,11.4868571 16.262512,11.4842162 C16.4459519,11.4638224 16.5780697,11.2986178 16.5576875,11.1149266 L16.5576875,11.1149266 L16.5576875,11.1149266 C16.5371587,10.9313822 16.3719014,10.7991892 16.1884615,10.8197297 C16.1655865,10.8222239 16.1434447,10.8270656 16.1223293,10.8339614 C15.9954904,10.8750425 15.9047236,10.9886023 15.8926995,11.1213822 C15.8905,11.14339 15.8906466,11.1659846 15.8932861,11.1890193 L15.8932861,11.1890193 L15.8932861,11.1890193 L15.8932861,11.1890193 Z" id="Shape"></path>
                                                <ellipse id="Oval" cx="12.7805264" cy="10.4147876" rx="0.334180288" ry="0.334370656"></ellipse>
                                                <path d="M16.7563774,15.915251 C16.9398173,15.8947104 17.0719351,15.7296525 17.0514063,15.5459614 L17.0514063,15.5459614 L17.0514063,15.5459614 C17.046274,15.5000386 17.0320505,15.4573436 17.0107885,15.4194903 C16.9895264,15.3816371 16.961226,15.3484788 16.9277933,15.3217761 C16.8943606,15.2950734 16.8559423,15.2746795 16.8142981,15.2623552 C16.793476,15.2561931 16.7719207,15.2519382 16.7497788,15.2500309 C16.727637,15.2479768 16.7050553,15.2481236 16.6820337,15.2507645 C16.6430288,15.255166 16.60725,15.2671969 16.5739639,15.2833359 C16.5543149,15.2928726 16.5359856,15.3040232 16.5188293,15.3170811 C16.5135505,15.3210425 16.5076851,15.3241236 16.5026995,15.3282317 C16.4807043,15.3470116 16.462375,15.3693127 16.4459519,15.3929344 C16.4257163,15.4219846 16.409,15.453529 16.3987356,15.487861 C16.3864183,15.529529 16.3820192,15.574278 16.3871514,15.6202008 L16.3871514,15.6202008 L16.3871514,15.6202008 C16.3922837,15.6661236 16.4065072,15.7088185 16.4276226,15.7466718 C16.4807043,15.8414517 16.5779231,15.9060077 16.6886322,15.9161313 C16.710774,15.9180386 16.7333558,15.9177452 16.7563774,15.915251 L16.7563774,15.915251 L16.7563774,15.915251 Z" id="Shape"></path>
                                                <ellipse id="Oval" cx="14.2581635" cy="13.614417" rx="0.334180288" ry="0.334370656"></ellipse>
                                                <path d="M16.3691154,13.0492587 C16.2846538,13.076695 16.2160288,13.1362625 16.1762909,13.2122625 C16.1463774,13.2693359 16.1325937,13.3355058 16.1402187,13.4043166 C16.1478437,13.4732741 16.1759976,13.5348958 16.2176418,13.5838996 C16.2732163,13.6491892 16.3531322,13.6923243 16.4416995,13.7002471 C16.4638413,13.7023012 16.4864231,13.7021544 16.5094447,13.6995135 C16.6928846,13.678973 16.8250024,13.5139151 16.8044736,13.3302239 C16.7840913,13.1466795 16.6186875,13.0144865 16.4352476,13.035027 C16.4123726,13.037668 16.3902308,13.0425097 16.3691154,13.0492587 L16.3691154,13.0492587 L16.3691154,13.0492587 Z" id="Shape"></path>
                                                <ellipse id="Oval" cx="15.4887212" cy="14.5986023" rx="0.334180288" ry="0.334370656"></ellipse>
                                                <ellipse id="Oval" cx="13.2743918" cy="14.8456757" rx="0.334180288" ry="0.334370656"></ellipse>
                                                <ellipse id="Oval" cx="15.2417885" cy="12.3831583" rx="0.334180288" ry="0.334370656"></ellipse>
                                                <ellipse id="Oval" cx="13.0276058" cy="12.6302317" rx="0.334180288" ry="0.334370656"></ellipse>
                                                <path d="M17.1099135,19.6957375 C16.9830745,19.7368185 16.8924543,19.8503784 16.8802837,19.9831583 C16.8782308,20.0053127 16.878524,20.0279073 16.8810168,20.0509421 C16.886149,20.0968649 16.900226,20.1395598 16.921488,20.1774131 C16.9745697,20.2721931 17.0717885,20.3368958 17.1824976,20.3468726 C17.2046394,20.3487799 17.2273678,20.3486332 17.2502428,20.346139 C17.4336827,20.3255985 17.5658005,20.1605405 17.5454183,19.9768494 C17.5248894,19.793305 17.3596322,19.661112 17.1761923,19.6816525 C17.1531707,19.6841467 17.1310288,19.6889884 17.1099135,19.6957375 L17.1099135,19.6957375 L17.1099135,19.6957375 Z" id="Shape"></path>
                                                <ellipse id="Oval" cx="14.7520288" cy="18.0454517" rx="0.334180288" ry="0.334370656"></ellipse>
                                                <path d="M17.2983389,17.7612587 C17.2779567,17.5777143 17.1125529,17.4455212 16.9292596,17.4660618 C16.906238,17.468556 16.8840962,17.4733977 16.8629808,17.4802934 C16.82075,17.4939382 16.7824784,17.5156525 16.7497788,17.543529 C16.6681034,17.6130734 16.6213269,17.7207645 16.6340841,17.8353514 C16.654613,18.0190425 16.8197236,18.1510888 17.0033101,18.1305483 C17.1866034,18.1101544 17.3188678,17.9449498 17.2983389,17.7612587 L17.2983389,17.7612587 L17.2983389,17.7612587 Z" id="Shape"></path>
                                                <ellipse id="Oval" cx="15.9825865" cy="19.0296371" rx="0.334180288" ry="0.334370656"></ellipse>
                                                <ellipse id="Oval" cx="15.7356538" cy="16.8141931" rx="0.334180288" ry="0.334370656"></ellipse>
                                                <ellipse id="Oval" cx="13.5213245" cy="17.0612664" rx="0.334180288" ry="0.334370656"></ellipse>
                                                <path d="M14.8372236,15.7930347 L14.8372236,15.7930347 L14.8372236,15.7930347 C14.8166947,15.6093436 14.6514375,15.4772973 14.4679976,15.4976911 C14.2844111,15.5182317 14.1524399,15.683583 14.1728221,15.8669807 L14.1728221,15.8669807 L14.1728221,15.8669807 C14.193351,16.0506718 14.3584615,16.1827181 14.5420481,16.1621776 C14.725488,16.1419305 14.8576058,15.9767259 14.8372236,15.7930347 L14.8372236,15.7930347 L14.8372236,15.7930347 Z" id="Shape"></path>
                                                <ellipse id="Oval" cx="9.33578606" cy="9.67752896" rx="0.334180288" ry="0.334370656"></ellipse>
                                                <path d="M11.2952644,9.6471583 C11.3091947,9.66344402 11.3245913,9.67840927 11.3413077,9.69176062 C11.3914567,9.73181467 11.4530433,9.75749035 11.5193221,9.76350579 C11.5414639,9.76555985 11.5640457,9.76541313 11.5870673,9.7627722 C11.7705072,9.74223166 11.902625,9.57717375 11.8820962,9.39348263 C11.8617139,9.20993822 11.6963101,9.07774517 11.5128702,9.09828571 C11.4898486,9.10077992 11.4678534,9.10562162 11.4465913,9.11251737 C11.3621298,9.13980695 11.2935048,9.19952124 11.2536202,9.27552124 C11.2237067,9.33259459 11.2099231,9.39876448 11.2176947,9.46757529 C11.2201875,9.49061004 11.2250264,9.51276448 11.2319183,9.53389189 C11.2457019,9.57614672 11.2674038,9.61444015 11.2952644,9.6471583 L11.2952644,9.6471583 L11.2952644,9.6471583 Z" id="Shape"></path>
                                                <ellipse id="Oval" cx="10.5663437" cy="10.661861" rx="0.334180288" ry="0.334370656"></ellipse>
                                                <ellipse id="Oval" cx="8.35216106" cy="10.9089344" rx="0.334180288" ry="0.334370656"></ellipse>
                                                <ellipse id="Oval" cx="8.10522837" cy="8.69334363" rx="0.334180288" ry="0.334370656"></ellipse>
                                                <ellipse id="Oval" cx="9.82965144" cy="14.1085637" rx="0.334180288" ry="0.334370656"></ellipse>
                                                <path d="M12.0809327,14.1938069 C12.2643726,14.1732664 12.3964904,14.0082085 12.3759615,13.8245174 C12.3555793,13.640973 12.1901755,13.5087799 12.0067356,13.5293205 C11.9838606,13.5318147 11.9615721,13.5366564 11.9406034,13.5435521 C11.8137644,13.5846332 11.7229976,13.6981931 11.7109736,13.830973 C11.7089207,13.8531274 11.7090673,13.875722 11.7117067,13.8987568 C11.7168389,13.9446795 11.7310625,13.9873745 11.7521779,14.0252278 C11.8052596,14.1200077 11.9024784,14.1845637 12.0130409,14.1946873 C12.0353293,14.1965946 12.0579111,14.1963012 12.0809327,14.1938069 L12.0809327,14.1938069 L12.0809327,14.1938069 Z" id="Shape"></path>
                                                <ellipse id="Oval" cx="11.0602091" cy="15.092749" rx="0.334180288" ry="0.334370656"></ellipse>
                                                <ellipse id="Oval" cx="8.84602644" cy="15.3398224" rx="0.334180288" ry="0.334370656"></ellipse>
                                                <ellipse id="Oval" cx="10.8132764" cy="12.877305" rx="0.334180288" ry="0.334370656"></ellipse>
                                                <ellipse id="Oval" cx="8.59909375" cy="13.1243784" rx="0.334180288" ry="0.334370656"></ellipse>
                                                <path d="M9.91484615,11.8561467 L9.91484615,11.8561467 L9.91484615,11.8561467 C9.89431731,11.6724556 9.7290601,11.5402625 9.54562019,11.5608031 C9.36218029,11.5811969 9.2300625,11.7465483 9.25059135,11.9300927 L9.25059135,11.9300927 L9.25059135,11.9300927 C9.27112019,12.1137838 9.43623077,12.2458301 9.61981731,12.2252896 C9.80311058,12.2048958 9.935375,12.0398378 9.91484615,11.8561467 L9.91484615,11.8561467 L9.91484615,11.8561467 Z" id="Shape"></path>
                                                <path d="M11.4765048,11.5508263 C11.4641875,11.5924942 11.4596418,11.6372432 11.4649207,11.6830193 L11.4649207,11.6830193 L11.4649207,11.6830193 C11.4700529,11.7289421 11.4841298,11.7716371 11.5053918,11.8096371 C11.5584736,11.9042703 11.6556923,11.968973 11.7664014,11.9790965 C11.7885433,11.9811506 11.811125,11.9810039 11.8341466,11.9783629 C12.0175865,11.9579691 12.1497043,11.7927645 12.1293221,11.6090734 L12.1293221,11.6090734 L12.1293221,11.6090734 C12.1087933,11.425529 11.9435361,11.2934826 11.7600962,11.3138764 C11.6222596,11.3291351 11.5136034,11.4259691 11.4765048,11.5508263 L11.4765048,11.5508263 L11.4765048,11.5508263 Z" id="Shape"></path>
                                                <path d="M12.7463606,18.0313668 C12.7129279,18.0046641 12.6745096,17.9842703 12.6328654,17.9719459 C12.6120433,17.9657838 12.590488,17.961529 12.5683462,17.9594749 C12.5462043,17.9574208 12.5236226,17.9575676 12.5007476,17.9602085 C12.477726,17.9627027 12.4555841,17.9675444 12.4344687,17.9744402 C12.3498606,18.0018764 12.2813822,18.061444 12.2414976,18.137444 C12.2115841,18.1945174 12.1978005,18.2606873 12.2054255,18.3294981 C12.2080649,18.3523861 12.2127572,18.3745405 12.219649,18.3958147 C12.2332861,18.4382162 12.254988,18.4763629 12.2828486,18.5090811 C12.2967788,18.5253668 12.3121755,18.540332 12.3288918,18.5536834 C12.3790409,18.5937375 12.4404808,18.6194131 12.5069062,18.6254286 C12.5290481,18.6274826 12.5516298,18.6271892 12.5746514,18.624695 C12.5975264,18.6222008 12.6196683,18.6173591 12.6407837,18.6104633 C12.6830144,18.5968185 12.7212861,18.5751042 12.7539856,18.5472278 C12.770262,18.5332896 12.7852187,18.5178842 12.7985625,18.5011583 C12.82525,18.4677066 12.8456322,18.4292664 12.8579495,18.3875985 C12.8704135,18.3459305 12.8748125,18.3011815 12.8696803,18.2552587 C12.8645481,18.2093359 12.8503245,18.1666409 12.8292091,18.1287876 C12.8080937,18.0910811 12.7797933,18.0580695 12.7463606,18.0313668 L12.7463606,18.0313668 L12.7463606,18.0313668 Z" id="Shape"></path>
                                                <ellipse id="Oval" cx="11.3071418" cy="17.3083398" rx="0.334180288" ry="0.334370656"></ellipse>
                                                <path d="M10.0394856,15.9918378 C9.85589904,16.0123784 9.72392788,16.177583 9.7443101,16.3611274 L9.7443101,16.3611274 L9.7443101,16.3611274 C9.76483894,16.5448185 9.92994952,16.6768649 10.1135361,16.6563243 C10.296976,16.6357838 10.4290937,16.4707259 10.4087115,16.2870347 L10.4087115,16.2870347 L10.4087115,16.2870347 C10.3881827,16.1034903 10.2229255,15.9712973 10.0394856,15.9918378 L10.0394856,15.9918378 L10.0394856,15.9918378 Z" id="Shape"></path>
                                                <path d="M12.3278654,16.4093977 C12.3507404,16.4069035 12.3728822,16.4020618 12.3939976,16.395166 C12.4362284,16.3815212 12.4745,16.3598069 12.5071995,16.3319305 C12.523476,16.3179923 12.5384327,16.3025869 12.5519231,16.285861 C12.5786106,16.2524093 12.5989928,16.2139691 12.6113101,16.1723012 C12.6236274,16.1306332 12.6281731,16.0858842 12.6230409,16.0399614 L12.6230409,16.0399614 L12.6230409,16.0399614 C12.602512,15.856417 12.4372548,15.7243707 12.2538149,15.7447645 C12.2309399,15.7474054 12.2087981,15.7521004 12.1875361,15.7589961 C12.1029279,15.7862857 12.0345962,15.846 11.9945649,15.922 C11.9646514,15.9789266 11.9510144,16.0452432 11.9586394,16.1140541 L11.9586394,16.1140541 L11.9586394,16.1140541 C11.9611322,16.1370888 11.9659712,16.1590965 11.972863,16.1803707 C11.9865,16.2226255 12.0082019,16.2609189 12.0360625,16.2936371 C12.0499928,16.3099228 12.0653894,16.3250347 12.0821058,16.3382394 C12.1322548,16.3782934 12.1936947,16.4039691 12.2601202,16.4099846 C12.282262,16.4121853 12.3048438,16.4118919 12.3278654,16.4093977 L12.3278654,16.4093977 L12.3278654,16.4093977 Z" id="Shape"></path>
                                                <path d="M4.32821394,7.99335135 C4.34874279,8.17704247 4.51385337,8.3090888 4.6974399,8.28854826 C4.88087981,8.26815444 5.0129976,8.10294981 4.99261538,7.91925869 L4.99261538,7.91925869 L4.99261538,7.91925869 C4.97223317,7.73571429 4.80682933,7.60352124 4.62338942,7.62406178 C4.43980288,7.6444556 4.3076851,7.80966023 4.32821394,7.99335135 L4.32821394,7.99335135 L4.32821394,7.99335135 L4.32821394,7.99335135 L4.32821394,7.99335135 Z" id="Shape"></path>
                                                <path d="M6.8438774,8.04220849 C6.86601923,8.04426255 6.88860096,8.04396911 6.9116226,8.0414749 C7.0950625,8.02093436 7.22718029,7.85587645 7.20679808,7.67218533 L7.20679808,7.67218533 L7.20679808,7.67218533 C7.18626923,7.48864093 7.02101202,7.35644788 6.83757212,7.37698842 C6.79871394,7.38138996 6.76278846,7.39342085 6.7295024,7.40955985 C6.71557212,7.4164556 6.70222837,7.42408494 6.68947115,7.43274131 C6.62524519,7.47587645 6.57641587,7.53940541 6.55427404,7.61408494 C6.54195673,7.6557529 6.53741106,7.70050193 6.54254327,7.74627799 L6.54254327,7.74627799 L6.54254327,7.74627799 C6.55016827,7.81523552 6.57817548,7.87685714 6.61996635,7.925861 C6.67554087,7.99115058 6.75545673,8.03428571 6.8438774,8.04220849 L6.8438774,8.04220849 L6.8438774,8.04220849 Z" id="Shape"></path>
                                                <ellipse id="Oval" cx="3.42978365" cy="6.97204633" rx="0.334180288" ry="0.334370656"></ellipse>
                                                <ellipse id="Oval" cx="4.90727404" cy="10.1716757" rx="0.334180288" ry="0.334370656"></ellipse>
                                                <path d="M7.01822596,9.60666409 C6.89138702,9.64759846 6.80062019,9.76130502 6.78859615,9.89408494 C6.78654327,9.91623938 6.78683654,9.93883398 6.78932933,9.96186873 C6.79446154,10.0077915 6.8086851,10.0504865 6.82980048,10.0883398 C6.88288221,10.182973 6.98010096,10.2476757 7.0908101,10.2577992 C7.11295192,10.2598533 7.13553365,10.2595598 7.15855529,10.2570656 C7.34199519,10.2365251 7.47411298,10.0714672 7.45373077,9.88777606 C7.43334856,9.70423166 7.26794471,9.57203861 7.08450481,9.59257915 C7.06148317,9.59492664 7.03934135,9.59976834 7.01822596,9.60666409 L7.01822596,9.60666409 L7.01822596,9.60666409 Z" id="Shape"></path>
                                                <ellipse id="Oval" cx="6.13783173" cy="11.155861" rx="0.334180288" ry="0.334370656"></ellipse>
                                                <ellipse id="Oval" cx="3.92364904" cy="11.4029344" rx="0.334180288" ry="0.334370656"></ellipse>
                                                <ellipse id="Oval" cx="5.89089904" cy="8.94041699" rx="0.334180288" ry="0.334370656"></ellipse>
                                                <ellipse id="Oval" cx="3.67671635" cy="9.18749035" rx="0.334180288" ry="0.334370656"></ellipse>
                                                <ellipse id="Oval" cx="2.69309135" cy="10.418749" rx="0.334180288" ry="0.334370656"></ellipse>
                                                <path d="M2.77828606,8.16633205 L2.77828606,8.16633205 L2.77828606,8.16633205 C2.77315385,8.12040927 2.75893029,8.07771429 2.73766827,8.039861 C2.71640625,8.00200772 2.68810577,7.96884942 2.65467308,7.94214672 C2.62124038,7.91544402 2.58282212,7.89505019 2.54117788,7.88272587 C2.52035577,7.87656371 2.49880048,7.87230888 2.47665865,7.87025483 C2.45451683,7.86820077 2.4319351,7.86849421 2.4090601,7.87098842 C2.38603846,7.87348263 2.36404327,7.87832432 2.34278125,7.88522008 C2.25817308,7.91265637 2.18969471,7.97222394 2.1498101,8.04822394 C2.11989663,8.1052973 2.10611298,8.17146718 2.11373798,8.24027799 L2.11373798,8.24042471 L2.11373798,8.24042471 C2.13426683,8.42411583 2.2993774,8.55616216 2.48281731,8.53562162 C2.66655048,8.5152278 2.7988149,8.35002317 2.77828606,8.16633205 L2.77828606,8.16633205 L2.77828606,8.16633205 Z" id="Shape"></path>
                                                <ellipse id="Oval" cx="5.40113942" cy="14.6027104" rx="0.334180288" ry="0.334370656"></ellipse>
                                                <path d="M7.65242067,14.6879537 C7.67529567,14.6854595 7.6974375,14.6806178 7.71855288,14.673722 C7.76078365,14.6600772 7.79905529,14.6383629 7.83175481,14.6104865 C7.84817788,14.5965483 7.86313462,14.5811429 7.87647837,14.5645637 C7.90316587,14.531112 7.92354808,14.4926718 7.93586538,14.4510039 C7.94832933,14.4093359 7.95272837,14.3645869 7.94759615,14.3186641 C7.94246394,14.2727413 7.92838702,14.2300463 7.907125,14.1921931 C7.88586298,14.1543398 7.8575625,14.1211815 7.82412981,14.0944788 C7.79069712,14.0677761 7.75227885,14.047529 7.71063462,14.0350579 C7.6898125,14.0288958 7.66825721,14.0246409 7.64611538,14.0227336 C7.62397356,14.0206795 7.60139183,14.0208263 7.57851683,14.0234672 C7.55549519,14.0259614 7.53335337,14.0308031 7.51223798,14.0376988 C7.42762981,14.0649884 7.35915144,14.1247027 7.31926683,14.2007027 C7.28935337,14.2577761 7.27556971,14.3239459 7.28319471,14.3929035 C7.28583413,14.4159382 7.29052644,14.4380927 7.29741827,14.4592201 C7.31105529,14.5014749 7.33275721,14.5397683 7.36061779,14.5724865 C7.37454808,14.5887722 7.38994471,14.6037375 7.40666106,14.6170888 C7.4568101,14.6571429 7.51825,14.6828185 7.58467548,14.688834 C7.60681731,14.6907413 7.62954567,14.6904479 7.65242067,14.6879537 L7.65242067,14.6879537 L7.65242067,14.6879537 Z" id="Shape"></path>
                                                <ellipse id="Oval" cx="6.63169712" cy="15.5868958" rx="0.334180288" ry="0.334370656"></ellipse>
                                                <ellipse id="Oval" cx="6.38476442" cy="13.3714517" rx="0.334180288" ry="0.334370656"></ellipse>
                                                <ellipse id="Oval" cx="4.17058173" cy="13.6185251" rx="0.334180288" ry="0.334370656"></ellipse>
                                                <path d="M5.48633413,12.3502934 L5.48633413,12.3502934 L5.48633413,12.3502934 C5.46580529,12.166749 5.30054808,12.034556 5.11710817,12.0549498 C4.93366827,12.0754903 4.80155048,12.240695 4.82193269,12.4242394 L4.82193269,12.4242394 L4.82193269,12.4242394 C4.84246154,12.6079305 5.00757212,12.7399768 5.19115865,12.7194363 C5.37459856,12.6991892 5.50686298,12.5339846 5.48633413,12.3502934 L5.48633413,12.3502934 L5.48633413,12.3502934 Z" id="Shape"></path>
                                                <path d="M7.70066346,12.1032201 L7.70066346,12.1032201 L7.70066346,12.1032201 C7.68013462,11.919529 7.5148774,11.7874826 7.3314375,11.8078764 C7.30841587,11.8105174 7.28642067,11.8152124 7.26515865,11.8221081 C7.18055048,11.8493977 7.11207212,11.909112 7.0721875,11.985112 C7.04227404,12.0421853 7.02849038,12.1083552 7.03626202,12.177166 L7.03626202,12.177166 L7.03626202,12.177166 C7.05679087,12.3608571 7.22190144,12.4929035 7.40548798,12.4723629 C7.58892788,12.4521158 7.72104567,12.2869112 7.70066346,12.1032201 L7.70066346,12.1032201 L7.70066346,12.1032201 Z" id="Shape"></path>
                                                <path d="M8.19438221,16.5341081 C8.17385337,16.3505637 8.00859615,16.2185174 7.82515625,16.2389112 C7.78629808,16.2433127 7.7503726,16.2553436 7.71708654,16.2714826 C7.70300962,16.2783784 7.6898125,16.2860077 7.67705529,16.2946641 C7.61268269,16.3377992 7.564,16.4013282 7.54185817,16.4760077 C7.52954087,16.5176757 7.52499519,16.5624247 7.5301274,16.6082008 L7.5301274,16.6082008 L7.5301274,16.6082008 C7.5377524,16.6771583 7.56575962,16.7387799 7.60755048,16.7877838 C7.663125,16.8530734 7.7431875,16.8962085 7.83160817,16.9041313 C7.85375,16.9061853 7.87633173,16.9060386 7.89935337,16.9033977 C8.08279327,16.8830039 8.21491106,16.7179459 8.19438221,16.5341081 L8.19438221,16.5341081 L8.19438221,16.5341081 L8.19438221,16.5341081 L8.19438221,16.5341081 Z" id="Shape"></path>
                                                <path d="M3.27215144,12.5972201 C3.2516226,12.4136757 3.08636538,12.2814826 2.90292548,12.3020232 C2.71933894,12.3225637 2.58736779,12.4877683 2.60775,12.6713127 L2.60775,12.6713127 L2.60775,12.6714595 C2.61024279,12.6943475 2.61508173,12.7166486 2.62197356,12.7377761 C2.63561058,12.7800309 2.65745913,12.8183243 2.68517308,12.8510425 C2.69910337,12.8673282 2.7145,12.8822934 2.73121635,12.8956448 C2.78136538,12.9356988 2.84295192,12.9613745 2.90923077,12.96739 C2.9313726,12.969444 2.95395433,12.9692973 2.97697596,12.9666564 C2.99985096,12.9640154 3.02199279,12.9593205 3.04310817,12.9524247 C3.08533894,12.9387799 3.12361058,12.9170656 3.1563101,12.8891892 C3.17258654,12.875251 3.18754327,12.8598456 3.20088702,12.8431197 C3.22757452,12.809668 3.24795673,12.7712278 3.26027404,12.7295598 C3.27288462,12.6880386 3.27728365,12.6432896 3.27215144,12.5972201 L3.27215144,12.5972201 L3.27215144,12.5972201 L3.27215144,12.5972201 L3.27215144,12.5972201 Z" id="Shape"></path>
                                            </g>
                                        </g>
                                        <g id="arrow-copy" transform="translate(41.790865, 16.285714)">
                                            <g id="Group">
                                                <path d="M9.58975721,20.8523166 C9.5121875,20.8523166 9.43447115,20.8399923 9.35954087,20.8151969 C9.17478125,20.7540154 9.02198798,20.6221158 8.93474038,20.4481081 L5.69558173,14.0002857 L2.00801442,17.9324788 C1.86651202,18.083305 1.67178125,18.1641467 1.47323798,18.1641467 C1.38203125,18.1641467 1.29009135,18.1471274 1.20196394,18.1122085 C0.922038462,18.000556 0.738891827,17.7289807 0.740211538,17.4273282 L0.811769231,1.5943861 C0.813088942,1.31650193 0.971161058,1.06326641 1.22,0.940023166 C1.3229375,0.889111969 1.43423317,0.864023166 1.54479567,0.864023166 C1.70169471,0.864023166 1.85771394,0.91434749 1.98763221,1.01279537 L14.5199062,10.5069266 C14.758774,10.6878301 14.8636178,10.9960849 14.7845817,11.2852664 C14.7055457,11.5745946 14.458613,11.7864556 14.1609447,11.8206409 L8.8064351,12.4355367 L12.0457404,18.8830656 C12.2274207,19.245166 12.0816659,19.6860541 11.7200649,19.8679846 L9.91939183,20.7741158 C9.81601442,20.8259073 9.70310577,20.8523166 9.58975721,20.8523166 L9.58975721,20.8523166 L9.58975721,20.8523166 Z" id="Shape" fill="#FFFFFF"></path>
                                                <path d="M1.54479567,1.59746718 L14.0772163,11.0915985 L7.67984135,11.8265097 L11.3905769,19.2125946 L9.59005048,20.1187259 L5.8793149,12.7323475 L1.47338462,17.4304093 L1.54479567,1.59746718 L1.54479567,1.59746718 L1.54479567,1.59746718 Z M1.5445024,0.130285714 C1.32308413,0.130285714 1.10078606,0.180316602 0.894911058,0.282285714 C0.396939904,0.528625483 0.0809423077,1.03524324 0.0784495192,1.59086486 L0.00703846154,17.4238069 C0.00425240385,18.0269653 0.370692308,18.5702625 0.930689904,18.7934208 C1.10679808,18.8635521 1.29067788,18.8975907 1.47294471,18.8975907 C1.87032452,18.8975907 2.25978606,18.7359073 2.54264423,18.4342548 L5.51199519,15.2680772 L8.27987019,20.7776371 C8.45451202,21.1253591 8.76024519,21.3894517 9.12947115,21.511668 C9.27947837,21.5612587 9.43491106,21.5859073 9.59005048,21.5859073 C9.8167476,21.5859073 10.0425649,21.5333822 10.2490264,21.4295058 L12.0495529,20.5233745 C12.7729014,20.1593668 13.0644111,19.2775907 12.7007572,18.5536834 L9.93302885,13.0445637 L14.2446731,12.5492432 C14.8400096,12.4808726 15.333875,12.0568571 15.4918005,11.4784942 C15.649726,10.9001313 15.4401851,10.2837683 14.9624495,9.92181467 L2.43002885,0.427683398 C2.17019231,0.231081081 1.85844712,0.130285714 1.5445024,0.130285714 L1.5445024,0.130285714 L1.5445024,0.130285714 L1.5445024,0.130285714 Z" id="Shape" fill="#E7424F"></path>
                                            </g>
                                        </g>
                                    </g>
                                    <g id="S&amp;T" transform="translate(71.000000, 0.000000)" fill="#E7424F">
                                        <path d="M16.472,18.28 C16.472,15.688 15.48,13.576 12.152,11.784 L8.056,9.576 C6.328,8.648 5.912,8.232 5.912,7.336 C5.912,6.184 6.584,5.64 8.408,5.64 C10.584,5.64 14.296,5.928 15.192,5.992 L15.256,5.992 C15.672,5.992 15.8,5.736 15.8,5.448 L15.8,2.216 C15.8,1.864 15.576,1.704 15.32,1.64 C14.104,1.32 10.872,0.936 8.536,0.936 C2.328,0.936 0.344,3.656 0.344,7.176 C0.344,9.512 1.144,11.528 4.12,13.288 L8.536,15.912 C10.2,16.904 10.648,17.416 10.648,18.344 C10.648,19.88 10.008,20.584 7.8,20.584 C6.552,20.584 3.032,20.328 1.72,20.2 L1.624,20.2 C1.304,20.2 1.048,20.36 1.048,20.808 L1.048,23.944 C1.048,24.296 1.368,24.488 1.688,24.584 C3.32,25 5.208,25.288 7.736,25.288 C14.232,25.288 16.472,21.672 16.472,18.28 L16.472,18.28 Z M40.664,24.616 C40.664,24.488 40.632,24.36 40.504,24.232 L37.24,20.776 C38.744,18.472 39.096,16.168 39.096,13.8 L39.096,13.544 C39.096,13.192 38.84,12.904 38.488,12.904 L35.512,12.904 C35.16,12.904 34.936,13.192 34.936,13.544 L34.936,13.8 C34.936,15.784 34.744,16.936 34.392,17.768 L30.232,13.384 L31.224,12.744 C33.496,11.272 35.448,9.704 35.448,6.76 L35.448,6.472 C35.448,3.208 32.888,0.936 28.152,0.936 C22.872,0.936 20.568,3.336 20.568,6.472 L20.568,6.76 C20.568,8.2 21.08,9.608 23.416,12.232 L23.672,12.52 C21.048,14.152 19.416,15.976 19.416,18.728 L19.416,19.016 C19.416,23.56 23.256,25.288 28.28,25.288 C30.648,25.288 32.632,24.712 34.232,23.72 L35.192,24.744 C35.416,24.968 35.48,25 35.736,25 L40.28,25 C40.504,25 40.664,24.84 40.664,24.616 L40.664,24.616 Z M30.68,6.76 C30.68,7.976 30.136,8.584 28.184,9.8 L27.352,10.312 L27.096,10.056 C25.432,8.392 25.304,7.656 25.304,6.76 L25.304,6.472 C25.304,5.288 26.296,4.52 28.152,4.52 C29.848,4.52 30.68,5.288 30.68,6.472 L30.68,6.76 Z M31.48,20.84 C30.616,21.32 29.592,21.576 28.28,21.576 C26.136,21.576 24.728,20.712 24.728,19.016 L24.728,18.728 C24.728,17.512 25.048,16.552 26.584,15.624 L31.48,20.84 Z M59.224,5.128 L59.224,1.832 C59.224,1.48 58.904,1.224 58.552,1.224 L42.68,1.224 C42.328,1.224 42.04,1.48 42.04,1.832 L42.04,5.128 C42.04,5.48 42.328,5.736 42.68,5.736 L47.896,5.736 L47.896,24.36 C47.896,24.712 48.184,25 48.536,25 L52.728,25 C53.08,25 53.368,24.712 53.368,24.36 L53.368,5.736 L58.552,5.736 C58.904,5.736 59.224,5.48 59.224,5.128 L59.224,5.128 Z"></path>
                                    </g>
                                </g>
                            </g>
                        </g>
                    </g>
                </g>
            </g>
        </g>
    </g>
</svg>