<?xml version="1.0" encoding="UTF-8"?>
<svg width="131px" height="50px" viewBox="0 0 131 50" version="1.1" xmlns="http://www.w3.org/2000/svg" xmlns:xlink="http://www.w3.org/1999/xlink">
    <!-- Generator: Sketch 49 (51002) - http://www.bohemiancoding.com/sketch -->
    <title>Artboard</title>
    <desc>Created with Sketch.</desc>
    <defs></defs>
    <g id="Artboard" stroke="none" stroke-width="1" fill="none" fill-rule="evenodd">
        <g id="small-logo" transform="translate(0.000000, 12.000000)" fill-rule="nonzero">
            <path d="M57.834,9.154 C57.2243416,8.48793183 56.4704664,7.97007023 55.63,7.64 C55.609,7.631 55.59,7.617 55.569,7.609 L39.573,1.277 C39.4171302,1.21665895 39.2590153,1.16228608 39.099,1.114 C38.9315628,1.06623271 38.7624522,1.02453878 38.592,0.989 L38.552,0.979 C38.4781117,0.961291438 38.4037502,0.945618843 38.329,0.932 C38.167493,0.904537863 38.0050559,0.882857356 37.842,0.867 C37.7531789,0.853285016 37.6637378,0.843940427 37.574,0.839 C37.3446801,0.823527794 37.1147591,0.818855959 36.885,0.825 L8.91,1.6 C8.71386499,1.60642623 8.51805195,1.62043671 8.323,1.642 L8.164,1.661 C7.77367356,1.71084537 7.3878345,1.7910892 7.01,1.901 C6.80738087,1.95878144 6.60721314,2.02483679 6.41,2.099 L6.38,2.109 C6.0181743,2.24885764 5.66749827,2.41600541 5.331,2.609 C5.11905001,2.72932344 4.91282605,2.85946478 4.713,2.999 C4.52100466,3.13350592 4.33546489,3.27699891 4.157,3.429 C4.07312668,3.49290745 3.99453906,3.56346909 3.922,3.64 C3.86723762,3.69221932 3.81355951,3.74556403 3.761,3.8 L3.721,3.84 L3.684,3.877 C3.63275772,3.9257421 3.5827421,3.97575772 3.534,4.027 C3.46898633,4.08988 3.40787262,4.15667094 3.351,4.227 C3.19992055,4.4031175 3.05774299,4.58668008 2.925,4.777 C2.89713473,4.81312122 2.87045391,4.85014086 2.845,4.888 C2.802,4.952 2.764,5.015 2.726,5.078 L2.692,5.134 C2.58399571,5.30456816 2.48712719,5.48193776 2.402,5.665 C2.37143274,5.72389212 2.34242268,5.78357951 2.315,5.844 C2.06252274,6.41583515 1.89864238,7.02279944 1.829,7.644 C1.822,7.704 1.819,7.764 1.819,7.826 L1.804,11.66 C1.65749361,13.3286377 2.30022763,14.9697001 3.541,16.095 C3.875,16.402 4.246,16.668 4.647,16.893 C4.67107535,16.977303 4.72919596,17.0477582 4.80738436,17.0874217 C4.88557276,17.1270853 4.97675406,17.1323682 5.059,17.102 C5.185,17.16 5.312,17.216 5.443,17.267 L21.829,23.598 L21.832,23.59 C22.6833913,23.9184118 23.5918975,24.0731163 24.504,24.045 L29.578,23.903 L31.424,23.851 L52.093,23.271 C55.723,23.17 58.833,20.515 59.173,17.227 C59.1794048,17.1665411 59.1827424,17.1057966 59.183,17.045 L59.198,13.211 C59.3322748,11.727415 58.8377912,10.2555734 57.835,9.154 L57.834,9.154 Z" id="Shape" fill="#FFFFFF"></path>
            <g id="Group" fill="#E7424F">
                <path d="M59.455,8.96 C58.8091541,8.25428325 58.0104569,7.70562783 57.12,7.356 C57.098,7.346 57.079,7.332 57.056,7.323 L40.11,0.615 C39.9449398,0.550937046 39.7774834,0.49322797 39.608,0.442 C39.4306329,0.391316082 39.2515198,0.346954724 39.071,0.309 L39.03,0.3 C38.9517949,0.281224537 38.8730999,0.264551865 38.794,0.25 C38.6228906,0.220769998 38.4507775,0.197754874 38.278,0.181 C38.1838877,0.166309703 38.0891045,0.156297397 37.994,0.151 C37.7510184,0.134945186 37.5074185,0.130273406 37.264,0.137 L7.63,0.957 C7.42217067,0.963519666 7.2146775,0.97819764 7.008,1.001 L6.84,1.021 C6.20379855,1.10192999 5.57943892,1.25801989 4.98,1.486 L4.95,1.496 C4.5668832,1.64412641 4.1954947,1.82096215 3.839,2.025 C3.61433038,2.1523515 3.39575694,2.29016956 3.184,2.438 C2.9806196,2.58102719 2.78406968,2.73352858 2.595,2.895 C2.50583661,2.9625274 2.42223504,3.0371 2.345,3.118 C2.28716163,3.17348272 2.23048272,3.23016163 2.175,3.288 L2.132,3.331 L2.094,3.369 C2.03949618,3.420809 1.9861497,3.47382207 1.934,3.528 C1.86546851,3.59472754 1.80101847,3.6655224 1.741,3.74 C1.581,3.926 1.431,4.12 1.29,4.323 C1.26,4.361 1.231,4.401 1.205,4.44 C1.16148786,4.50583454 1.11980525,4.57286018 1.08,4.641 L1.043,4.701 C0.928561124,4.88128791 0.82633211,5.06904185 0.737,5.263 C0.704281607,5.32547768 0.67327012,5.38883448 0.644,5.453 C0.375895617,6.05826651 0.202209688,6.70107307 0.129,7.359 C0.122445756,7.42312597 0.119108239,7.48754004 0.119,7.552 L0.1,11.613 C-0.0552837899,13.3806013 0.62557758,15.119018 1.94,16.311 C2.295,16.636 2.968,17.151 3.956,17.552 L21.312,24.26 L21.316,24.25 C22.2176707,24.5981631 23.1798923,24.7623868 24.146,24.733 L29.521,24.582 L31.477,24.527 L53.371,23.912 C57.217,23.805 60.511,20.993 60.871,17.51 C60.877,17.446 60.881,17.382 60.881,17.317 L60.897,13.255 C61.0392781,11.6840576 60.5157714,10.1255095 59.454,8.959 L59.455,8.96 Z M4.341,4.015 L4.36,4 C4.478,3.92 4.6,3.842 4.725,3.769 L4.787,3.735 C4.887,3.678 4.987,3.621 5.091,3.57 C5.104,3.563 5.118,3.558 5.131,3.552 C5.301,3.469 5.473,3.392 5.65,3.323 L5.657,3.321 C5.832,3.254 6.011,3.196 6.192,3.144 L6.236,3.13 C6.362,3.095 6.49,3.065 6.619,3.039 C6.646,3.033 6.674,3.029 6.701,3.024 C6.87049999,2.99109869 7.04132049,2.96540889 7.213,2.947 C7.369,2.93 7.525,2.917 7.683,2.913 L37.317,2.092 C37.5084309,2.08699185 37.6999921,2.09133034 37.891,2.105 L37.909,2.105 C37.959,2.109 38.005,2.119 38.053,2.125 C38.187,2.138 38.32,2.153 38.45,2.175 C38.52,2.188 38.586,2.205 38.654,2.22 C38.764,2.245 38.874,2.269 38.981,2.3 C39.001,2.305 39.023,2.309 39.043,2.315 C39.162,2.351 39.278,2.391 39.391,2.435 L50.773,6.94 L24.983,7.665 C22.9834454,7.72076085 21.0743892,8.51065374 19.62,9.884 L4.1,4.202 C4.181,4.14 4.257,4.074 4.34,4.016 L4.341,4.015 Z M17.472,14.591 L17.457,18.32 C17.384,19.183 17.507,20.023 17.799,20.803 L14.089,19.369 C14.1351573,19.2034367 14.0481281,19.0298737 13.8878411,18.9678271 C13.7275541,18.9057806 13.5463471,18.9755102 13.469,19.129 L9.426,17.567 L9.426,17.517 C9.41140941,17.3837088 9.31852133,17.2720645 9.1901069,17.2334748 C9.06169247,17.194885 8.92264889,17.2368317 8.837,17.34 L4.741,15.757 C4.71703509,15.6545114 4.64602725,15.5693859 4.54949955,15.5274259 C4.45297185,15.4854659 4.34228903,15.4916115 4.251,15.544 C3.9702728,15.403774 3.70542024,15.233799 3.461,15.037 C3.55047249,14.9018741 3.53003111,14.7220168 3.41251727,14.6104156 C3.29500343,14.4988144 3.11433115,14.487677 2.984,14.584 C2.27808125,13.8019267 1.94066653,12.7551039 2.057,11.708 L2.073,7.559 C2.08804414,7.42064235 2.11007224,7.28313357 2.139,7.147 C2.147,7.108 2.157,7.07 2.166,7.031 C2.191,6.926 2.22,6.823 2.252,6.721 C2.263,6.687 2.272,6.653 2.284,6.621 C2.326,6.497 2.373,6.376 2.425,6.257 L2.436,6.236 L2.451,6.205 C2.48710444,6.16316685 2.51219615,6.11298344 2.524,6.059 C2.56,5.985 2.598,5.912 2.639,5.839 L2.683,5.767 L5.311,6.729 L5.311,6.761 C5.32573597,6.89274454 5.41699246,7.00330428 5.54355497,7.0427467 C5.67011747,7.08218912 5.80802741,7.04304769 5.895,6.943 L9.987,8.44 C9.987,8.454 9.985,8.468 9.987,8.482 C10.00189,8.61543935 10.0952375,8.72699024 10.2239619,8.76517123 C10.3526864,8.80335221 10.4917602,8.76073984 10.577,8.657 L14.662,10.152 C14.6566163,10.2967477 14.7451448,10.4284677 14.8812052,10.4781514 C15.0172656,10.5278351 15.1698423,10.4841569 15.259,10.37 L18.336,11.497 C17.872744,12.2827312 17.5822906,13.1581821 17.484,14.065 L17.481,14.101 C17.4113301,14.1627859 17.3707138,14.250921 17.3690037,14.3440256 C17.3672936,14.4371301 17.404646,14.5266974 17.472,14.591 Z M59.13,13.18 L59.115,17.31 C58.848,19.903 56.251,22.062 53.322,22.143 L23.93,22.967 C22.447,22.967 21.092,22.407 20.213,21.432 C19.4640831,20.6082294 19.1046723,19.5026862 19.226,18.396 L19.241,14.266 C19.508,11.673 22.106,9.513 25.034,9.431 L54.426,8.609 L54.427,8.609 C55.91,8.609 57.264,9.168 58.143,10.143 C58.8917356,10.967277 59.2510976,12.0730344 59.13,13.18 Z" id="Shape"></path>
                <path d="M36.82,17.132 C34.068,16.465 28.563,14.664 21.973,14.442 C21.594,14.429 20.918,14.594 20.921,15.254 C20.928,16.569 20.955,18.816 20.918,18.828 C20.932,19.326 20.918,20.174 21.659,20.515 C25.388,22.233 32.099,18.4 36.792,17.44 C37.108,17.375 37.214,17.228 36.82,17.132 Z" id="Shape"></path>
                <path d="M21.843,13.836 C29.736,13.912 35.291,16.419 39.364,16.931 C44.021,17.516 48.848,14.864 50.02,14.009 C50.302,13.804 50.262,13.736 49.966,13.754 C42.013,14.241 39.596,13.777 35.795,10.732 C35.54,10.528 35.003,10.55 34.734,10.542 C32.504,10.482 25.4,10.795 25.4,10.795 C21.486,11.043 20.961,13.502 21.123,13.717 C21.237,13.868 21.732,13.835 21.843,13.836 Z" id="Shape"></path>
                <path d="M57.308,13.808 C55.132,13.688 51.331,13.855 49.475,14.942 C42.951,18.762 41.425,16.456 32.569,19.273 C29.292,20.316 28.216,20.836 29.159,21.007 C30.985,21.337 37.587,20.8 42.583,19.833 C48.366,18.713 51.381,20.253 56.561,18.511 C57.556,18.177 57.736,17.128 57.738,16.759 L57.751,14.215 C57.752,13.901 57.395,13.812 57.308,13.808 Z M37.281,10.928 C41.735,14.82 48.506,12.974 57.736,12.604 C57.734,12.271 57.734,12.378 57.739,12.241 L57.732,12.072 C57.6255325,11.7248592 57.4446666,11.4051018 57.202,11.135 C56.586,10.449 55.607,10.054 54.515,10.051 L54.386,10.053 C54.386,10.053 41.744,10.533 37.477,10.503 C37.36,10.503 36.719,10.437 37.281,10.928 Z" id="Shape"></path>
                <circle id="Oval" cx="17.456" cy="12.136" r="1"></circle>
                <path d="M14.048,11.731 C14.2311057,11.7100111 14.3626031,11.5446705 14.3418366,11.3615395 C14.32107,11.1784085 14.1558893,11.0467103 13.9727332,11.0672544 C13.7895771,11.0877984 13.6576784,11.2528191 13.678,11.436 L13.679,11.436 C13.699,11.62 13.865,11.752 14.049,11.731 L14.048,11.731 Z M15.893,11.189 C15.9021693,11.277417 15.9469388,11.358291 16.017,11.413 C16.1225481,11.4970237 16.268281,11.5092997 16.3863977,11.4441167 C16.5045145,11.3789337 16.5718196,11.2490924 16.557,11.115 C16.5437812,10.9963878 16.4682876,10.8938378 16.3589571,10.8459796 C16.2496265,10.7981213 16.1230688,10.8122256 16.0269571,10.8829796 C15.9308453,10.9537335 15.8797812,11.0703878 15.893,11.189 Z" id="Shape"></path>
                <circle id="Oval" cx="12.781" cy="10.415" r="1"></circle>
                <path d="M16.756,15.915 C16.894858,15.8984248 17.0085661,15.7968575 17.0406488,15.6607436 C17.0727315,15.5246298 17.0163527,15.3829722 16.8995141,15.306128 C16.7826755,15.2292838 16.6302729,15.2336268 16.518,15.317 L16.503,15.328 C16.4812802,15.3471217 16.4621217,15.3689692 16.446,15.393 C16.3996224,15.4590851 16.3786707,15.5396959 16.387,15.62 C16.4084331,15.8032343 16.5735947,15.9349172 16.757,15.915 L16.756,15.915 Z" id="Shape"></path>
                <circle id="Oval" cx="14.258" cy="13.614" r="1"></circle>
                <path d="M16.37,13.05 C16.2467963,13.0786722 16.1502488,13.1742973 16.1203955,13.2972202 C16.0905421,13.4201431 16.1324742,13.5493997 16.2288027,13.631388 C16.3251311,13.7133763 16.4594276,13.7341135 16.576,13.685 C16.7411264,13.6202785 16.8271941,13.4380718 16.7723035,13.2694224 C16.7174129,13.1007731 16.5405876,13.0041306 16.369,13.049 L16.37,13.05 Z" id="Shape"></path>
                <circle id="Oval" cx="15.489" cy="14.599" r="1"></circle>
                <circle id="Oval" cx="13.274" cy="14.846" r="1"></circle>
                <circle id="Oval" cx="15.242" cy="12.383" r="1"></circle>
                <circle id="Oval" cx="13.028" cy="12.63" r="1"></circle>
                <path d="M17.11,19.696 C16.9896514,19.7274706 16.8966503,19.8230362 16.8684642,19.9441961 C16.8402781,20.0653561 16.8815485,20.1921579 16.9756489,20.2735171 C17.0697492,20.3548762 17.2011832,20.3773945 17.317,20.332 C17.4821264,20.2672785 17.5681941,20.0850718 17.5133035,19.9164224 C17.4584129,19.7477731 17.2815876,19.6511306 17.11,19.696 Z" id="Shape"></path>
                <circle id="Oval" cx="14.752" cy="18.045" r="1"></circle>
                <path d="M17.298,17.761 C17.2847812,17.6423878 17.2092876,17.5398378 17.0999571,17.4919796 C16.9906265,17.4441213 16.8640688,17.4582256 16.7679571,17.5289796 C16.6718453,17.5997335 16.6207812,17.7163878 16.634,17.835 C16.6544345,18.0183585 16.8196415,18.1504345 17.003,18.13 C17.1863585,18.1095655 17.3184345,17.9443585 17.298,17.761 Z" id="Shape"></path>
                <circle id="Oval" cx="15.983" cy="19.03" r="1"></circle>
                <circle id="Oval" cx="15.736" cy="16.814" r="1"></circle>
                <circle id="Oval" cx="13.521" cy="17.061" r="1"></circle>
                <path d="M14.837,15.793 C14.8237812,15.6743878 14.7482876,15.5718378 14.6389571,15.5239796 C14.5296265,15.4761213 14.4030688,15.4902256 14.3069571,15.5609796 C14.2108453,15.6317335 14.1597812,15.7483878 14.173,15.867 C14.1862188,15.9856122 14.2617124,16.0881622 14.3710429,16.1360204 C14.4803735,16.1838787 14.6069312,16.1697744 14.7030429,16.0990204 C14.7991547,16.0282665 14.8502188,15.9116122 14.837,15.793 Z" id="Shape"></path>
                <circle id="Oval" cx="9.336" cy="9.678" r="1"></circle>
                <path d="M11.295,9.647 C11.367559,9.73101821 11.4765659,9.77432232 11.587,9.763 C11.7393255,9.74593708 11.8604855,9.62738348 11.8808563,9.47546494 C11.9012272,9.32354641 11.8155796,9.17726184 11.6731302,9.12067234 C11.5306807,9.06408284 11.3679975,9.11171545 11.278565,9.23619854 C11.1891325,9.36068162 11.1959088,9.5300592 11.295,9.647 Z" id="Shape"></path>
                <circle id="Oval" cx="10.566" cy="10.662" r="1"></circle>
                <circle id="Oval" cx="8.352" cy="10.909" r="1"></circle>
                <circle id="Oval" cx="8.105" cy="8.693" r="1"></circle>
                <circle id="Oval" cx="9.83" cy="14.109" r="1"></circle>
                <path d="M12.08,14.194 C12.1986122,14.1809598 12.3012575,14.1056313 12.3492704,13.9963901 C12.3972834,13.8871488 12.3833697,13.7605911 12.3127704,13.6643901 C12.2421712,13.568189 12.1256122,13.5169598 12.007,13.53 C11.8236415,13.5504345 11.6915655,13.7156415 11.712,13.899 C11.7324345,14.0823585 11.8976415,14.2144345 12.081,14.194 L12.08,14.194 Z" id="Shape"></path>
                <circle id="Oval" cx="11.06" cy="15.093" r="1"></circle>
                <circle id="Oval" cx="8.846" cy="15.34" r="1"></circle>
                <circle id="Oval" cx="10.813" cy="12.877" r="1"></circle>
                <circle id="Oval" cx="8.599" cy="13.124" r="1"></circle>
                <path d="M9.915,11.856 C9.90178118,11.7373878 9.82628764,11.6348378 9.71695706,11.5869796 C9.60762649,11.5391213 9.4810688,11.5532256 9.38495705,11.6239796 C9.28884531,11.6947335 9.23778117,11.8113878 9.251,11.93 C9.26421882,12.0486122 9.33971236,12.1511622 9.44904294,12.1990204 C9.55837351,12.2468787 9.6849312,12.2327744 9.78104294,12.1620204 C9.87715469,12.0912665 9.92821883,11.9746122 9.915,11.856 Z M11.477,11.551 C11.4371368,11.681482 11.4803877,11.8231036 11.5863482,11.9090514 C11.6923086,11.9949992 11.8398066,12.0081001 11.9592567,11.9421735 C12.0787067,11.8762468 12.1462415,11.7444653 12.13,11.609 C12.1133188,11.4501359 11.9864871,11.3253214 11.827376,11.311189 C11.6682649,11.2970566 11.52142,11.397563 11.477,11.551 Z M12.747,18.031 C12.6540837,17.9546804 12.527316,17.9341952 12.4150907,17.9773648 C12.3028655,18.0205344 12.2225064,18.1206949 12.2046908,18.2396097 C12.1868752,18.3585245 12.2343533,18.4778372 12.329,18.552 C12.4731953,18.6527837 12.6708466,18.6244392 12.780907,18.4871937 C12.8909674,18.3499481 12.8757,18.1508593 12.746,18.032 L12.747,18.031 Z" id="Shape"></path>
                <circle id="Oval" cx="11.307" cy="17.308" r="1"></circle>
                <path d="M10.04,15.992 C9.85689433,16.0129889 9.72539693,16.1783295 9.74616344,16.3614605 C9.76692996,16.5445915 9.93211068,16.6762897 10.1152668,16.6557456 C10.2984229,16.6352016 10.4303216,16.4701809 10.41,16.287 L10.409,16.287 C10.3992096,16.1987482 10.3546813,16.1180271 10.285254,16.062673 C10.2158267,16.0073188 10.1272155,15.9818881 10.039,15.992 L10.04,15.992 Z M12.328,16.409 C12.4162595,16.4000808 12.4971081,16.3556863 12.552,16.286 C12.6074051,16.2166871 12.632951,16.1281758 12.623,16.04 C12.6025655,15.8566415 12.4373585,15.7245655 12.254,15.745 C12.0706415,15.7654345 11.9385655,15.9306415 11.959,16.114 C11.9682522,16.2021557 12.0125801,16.2828828 12.082,16.338 C12.151261,16.3935053 12.2398147,16.4190634 12.328,16.409 Z M4.328,7.993 C4.34843454,8.17663468 4.51386532,8.30893454 4.6975,8.2885 C4.88113468,8.26806546 5.01343454,8.10263468 4.993,7.919 C4.97978117,7.80020919 4.90419233,7.69749412 4.79470706,7.64954655 C4.68522179,7.60159899 4.5584735,7.61570331 4.46220706,7.68654655 C4.36594062,7.7573898 4.31478117,7.87420919 4.328,7.993 Z M6.844,8.043 C6.94410904,8.05236414 7.04310997,8.01613174 7.11352459,7.94435926 C7.18393921,7.87258678 7.2182743,7.77291195 7.207,7.673 C7.19395981,7.55438782 7.11863133,7.45174251 7.00939007,7.40372956 C6.90014882,7.35571661 6.77359113,7.36963033 6.67739007,7.44022956 C6.58118901,7.51082879 6.5299598,7.62738782 6.543,7.746 C6.55952904,7.90362559 6.68516675,8.02758814 6.843,8.042 L6.844,8.043 Z" id="Shape"></path>
                <circle id="Oval" cx="3.43" cy="6.972" r="1"></circle>
                <circle id="Oval" cx="4.907" cy="10.172" r="1"></circle>
                <path d="M7.018,9.607 C6.90438954,9.64397699 6.81913613,9.73875559 6.79435391,9.85563363 C6.76957169,9.97251167 6.80902567,10.0937326 6.89785391,10.1736336 C6.98668216,10.2535347 7.11138954,10.279977 7.225,10.243 C7.40062654,10.1858385 7.49666146,9.99712655 7.43949999,9.8215 C7.38233852,9.64587346 7.19362655,9.54983854 7.018,9.607 Z" id="Shape"></path>
                <circle id="Oval" cx="6.138" cy="11.156" r="1"></circle>
                <circle id="Oval" cx="3.924" cy="11.403" r="1"></circle>
                <circle id="Oval" cx="5.891" cy="8.94" r="1"></circle>
                <circle id="Oval" cx="3.677" cy="9.187" r="1"></circle>
                <circle id="Oval" cx="2.693" cy="10.419" r="1"></circle>
                <path d="M2.778,8.166 C2.76704186,8.06620367 2.711644,7.97667781 2.62722446,7.92233879 C2.54280491,7.86799977 2.43837533,7.8546482 2.343,7.886 C2.19227483,7.9347735 2.09632004,8.08246045 2.113,8.24 C2.12621883,8.35879081 2.20180767,8.46150589 2.31129294,8.50945345 C2.42077821,8.55740102 2.5475265,8.5432967 2.64379294,8.47245345 C2.74005939,8.40161021 2.79121883,8.28479081 2.778,8.166 Z" id="Shape"></path>
                <circle id="Oval" cx="5.401" cy="14.603" r="1"></circle>
                <path d="M7.652,14.688 C7.74025955,14.6790808 7.82110809,14.6346863 7.876,14.565 C7.97571206,14.4407005 7.97372808,14.263273 7.87126151,14.1412342 C7.76879493,14.0191954 7.59438732,13.9865388 7.45470849,14.0632374 C7.31502965,14.1399361 7.24898646,14.304626 7.29697173,14.4565808 C7.34495699,14.6085356 7.49360465,14.7054291 7.652,14.688 Z" id="Shape"></path>
                <circle id="Oval" cx="6.632" cy="15.587" r="1"></circle>
                <circle id="Oval" cx="6.385" cy="13.371" r="1"></circle>
                <circle id="Oval" cx="4.171" cy="13.619" r="1"></circle>
                <path d="M5.486,12.35 C5.46556546,12.1666415 5.30035854,12.0345655 5.117,12.055 C4.93364146,12.0754345 4.80156546,12.2406415 4.822,12.424 C4.83521883,12.5426122 4.91071237,12.6451622 5.02004294,12.6930204 C5.12937351,12.7408787 5.2559312,12.7267744 5.35204294,12.6560204 C5.44815468,12.5852665 5.49921883,12.4686122 5.486,12.35 Z M7.701,12.103 C7.68056546,11.9193653 7.51513468,11.7870655 7.3315,11.8075 C7.14786532,11.8279345 7.01556546,11.9933653 7.036,12.177 C7.04921882,12.2957908 7.12480766,12.3985059 7.23429294,12.4464535 C7.34377821,12.494401 7.4705265,12.4802967 7.56679295,12.4094535 C7.66305939,12.3386102 7.71421883,12.2217908 7.701,12.103 Z M8.194,16.534 C8.17356546,16.3506415 8.00835853,16.2185655 7.825,16.239 C7.64164147,16.2594345 7.50956547,16.4246415 7.53,16.608 C7.53927236,16.696475 7.58366362,16.7775277 7.65322096,16.8329856 C7.7227783,16.8884435 7.81168227,16.9136667 7.9,16.903 C8.08297095,16.882088 8.21448957,16.7170187 8.194,16.534 Z M3.272,12.597 C3.25878117,12.4783878 3.18328763,12.3758378 3.07395706,12.3279796 C2.96462649,12.2801213 2.8380688,12.2942256 2.74195706,12.3649796 C2.64584532,12.4357335 2.59478117,12.5523878 2.608,12.671 C2.61699299,12.7595143 2.66134569,12.8406473 2.731,12.896 C2.83665765,12.9809245 2.98316542,12.9935654 3.1018081,12.9279939 C3.22045078,12.8624225 3.28769428,12.7316454 3.272,12.597 Z" id="Shape"></path>
            </g>
            <path d="M51.38,37.138 C51.1028468,37.1379934 50.8493975,36.9816674 50.725,36.734 L47.485,30.286 L43.798,34.218 C43.5918593,34.438112 43.2719451,34.5095089 42.9917788,34.3979286 C42.7116126,34.2863482 42.5283755,34.0145637 42.53,33.713 L42.602,17.88 C42.6038841,17.6025209 42.7620856,17.3498241 43.0108657,17.2269149 C43.2596458,17.1040057 43.5564714,17.1318974 43.778,17.299 L56.31,26.793 C56.5488914,26.9742226 56.6535322,27.2825324 56.574301,27.5717263 C56.4950698,27.8609202 56.2478994,28.0728434 55.95,28.107 L50.596,28.722 L53.836,35.169 C54.0177727,35.5310377 53.8718669,35.9718877 53.51,36.154 L51.71,37.06 C51.6075704,37.1113308 51.4945717,37.1380396 51.38,37.138 Z" id="Shape" fill="#FFFFFF"></path>
            <path d="M43.335,17.883 L55.867,27.378 L49.47,28.113 L53.18,35.499 L51.38,36.405 L47.67,29.018 L43.263,33.716 L43.335,17.883 Z M43.335,16.416 C42.5279143,16.416541 41.8728509,17.0689233 41.869,17.876 L41.796,33.711 C41.7937993,34.3136145 42.1603476,34.8562771 42.7201992,35.0792464 C43.2800507,35.3022157 43.9193099,35.1601309 44.332,34.721 L47.301,31.555 L50.069,37.065 C50.4328202,37.7886063 51.3142152,38.0804649 52.038,37.717 L53.838,36.81 C54.5617339,36.4457755 54.8535453,35.5640753 54.49,34.84 L51.722,29.332 L56.034,28.836 C56.6299974,28.7681654 57.1245423,28.3440863 57.2824839,27.7654077 C57.4404255,27.1867291 57.229896,26.5702106 56.751,26.209 L44.22,16.714 C43.9653346,16.5209202 43.6545844,16.4162834 43.335,16.416 Z" id="Shape" fill="#E7424F"></path>
            <g id="Group" transform="translate(71.000000, 0.000000)" fill="#E7424F">
                <path d="M16.472,18.28 C16.472,15.688 15.48,13.576 12.152,11.784 L8.056,9.576 C6.328,8.648 5.912,8.232 5.912,7.336 C5.912,6.184 6.584,5.64 8.408,5.64 C10.584,5.64 14.296,5.928 15.192,5.992 L15.256,5.992 C15.672,5.992 15.8,5.736 15.8,5.448 L15.8,2.216 C15.8,1.864 15.576,1.704 15.32,1.64 C14.104,1.32 10.872,0.936 8.536,0.936 C2.328,0.936 0.344,3.656 0.344,7.176 C0.344,9.512 1.144,11.528 4.12,13.288 L8.536,15.912 C10.2,16.904 10.648,17.416 10.648,18.344 C10.648,19.88 10.008,20.584 7.8,20.584 C6.552,20.584 3.032,20.328 1.72,20.2 L1.624,20.2 C1.304,20.2 1.048,20.36 1.048,20.808 L1.048,23.944 C1.048,24.296 1.368,24.488 1.688,24.584 C3.32,25 5.208,25.288 7.736,25.288 C14.232,25.288 16.472,21.672 16.472,18.28 Z M40.664,24.616 C40.6680528,24.4710056 40.6098084,24.331219 40.504,24.232 L37.24,20.776 C38.744,18.472 39.096,16.168 39.096,13.8 L39.096,13.544 C39.096,13.192 38.84,12.904 38.488,12.904 L35.512,12.904 C35.16,12.904 34.936,13.192 34.936,13.544 L34.936,13.8 C34.936,15.784 34.744,16.936 34.392,17.768 L30.232,13.384 L31.224,12.744 C33.496,11.272 35.448,9.704 35.448,6.76 L35.448,6.472 C35.448,3.208 32.888,0.936 28.152,0.936 C22.872,0.936 20.568,3.336 20.568,6.472 L20.568,6.76 C20.568,8.2 21.08,9.608 23.416,12.232 L23.672,12.52 C21.048,14.152 19.416,15.976 19.416,18.728 L19.416,19.016 C19.416,23.56 23.256,25.288 28.28,25.288 C30.648,25.288 32.632,24.712 34.232,23.72 L35.192,24.744 C35.416,24.968 35.48,25 35.736,25 L40.28,25 C40.383011,25.0039774 40.4830109,24.9647991 40.555905,24.891905 C40.6287991,24.8190109 40.6679774,24.719011 40.664,24.616 Z M30.68,6.76 C30.68,7.976 30.136,8.584 28.184,9.8 L27.352,10.312 L27.096,10.056 C25.432,8.392 25.304,7.656 25.304,6.76 L25.304,6.472 C25.304,5.288 26.296,4.52 28.152,4.52 C29.848,4.52 30.68,5.288 30.68,6.472 L30.68,6.76 Z M31.48,20.84 C30.616,21.32 29.592,21.576 28.28,21.576 C26.136,21.576 24.728,20.712 24.728,19.016 L24.728,18.728 C24.728,17.512 25.048,16.552 26.584,15.624 L31.48,20.84 Z M59.224,5.128 L59.224,1.832 C59.224,1.48 58.904,1.224 58.552,1.224 L42.68,1.224 C42.328,1.224 42.04,1.48 42.04,1.832 L42.04,5.128 C42.04,5.48 42.328,5.736 42.68,5.736 L47.896,5.736 L47.896,24.36 C47.896,24.712 48.184,25 48.536,25 L52.728,25 C53.08,25 53.368,24.712 53.368,24.36 L53.368,5.736 L58.552,5.736 C58.904,5.736 59.224,5.48 59.224,5.128 Z" id="Shape"></path>
            </g>
        </g>
    </g>
</svg>