<svg height="128" viewBox="0 0 208 128" width="208" xmlns="http://www.w3.org/2000/svg"><g fill="none" fill-rule="evenodd"><path d="M197.206 31.116c-2.034-2.249-4.616-3.984-7.516-5.145-.073-.032-.135-.078-.209-.108L134.936 4.34a22.456 22.456 0 0 0-1.617-.556 8.476 8.476 0 0 0-.432-.115 24.68 24.68 0 0 0-1.296-.31l-.133-.031a14.166 14.166 0 0 0-.761-.16 23.513 23.513 0 0 0-1.663-.222 9.387 9.387 0 0 0-.913-.094 25.058 25.058 0 0 0-2.349-.048L30.377 5.44c-.671.018-1.337.07-2 .14l-.541.065c-.555.071-1.1.158-1.641.262-.11.019-.235.041-.358.067-.537.111-1.081.24-1.618.388-.09.025-.21.06-.32.097-.764.22-1.421.438-2.049.676l-.097.036c-.668.256-1.339.548-2.05.892-.1.044-.197.09-.293.137-.433.217-.836.438-1.235.665-.112.06-.215.115-.315.174-.539.315-1.053.64-1.552.98a6.63 6.63 0 0 0-.24.171 25.39 25.39 0 0 0-1.897 1.467 7.013 7.013 0 0 0-.802.716c-.188.177-.368.36-.548.542l-.138.14-.125.122c-.174.167-.346.337-.512.51a7.564 7.564 0 0 0-.624.681 23.83 23.83 0 0 0-1.453 1.87c-.095.125-.187.25-.273.378-.146.218-.275.43-.402.644l-.117.192c-.114.182-.226.364-.332.55-.236.413-.45.832-.655 1.255a12.822 12.822 0 0 0-.3.607 20.88 20.88 0 0 0-.667 1.698c-.049.142-.093.28-.135.418a20.904 20.904 0 0 0-.545 2.053c-.146.7-.248 1.339-.31 1.949a6.106 6.106 0 0 0-.034.62l-.051 13.033c-.486 5.701 1.661 11.179 5.922 15.074a20.01 20.01 0 0 0 3.773 2.712 1.072 1.072 0 0 0 1.403.71c.43.199.864.389 1.312.561l55.87 21.522.012-.03a23.384 23.384 0 0 0 9.112 1.548l17.3-.484 6.295-.176 70.477-1.973c12.38-.342 22.986-9.365 24.142-20.541.021-.206.032-.413.032-.62l.053-13.034c.436-5.102-1.207-9.986-4.645-13.788z" fill="#fff"/><g fill="#e7424f"><path d="M202.732 30.455c-2.154-2.383-4.888-4.221-7.96-5.45-.077-.035-.143-.084-.221-.115L136.77 2.092a23.665 23.665 0 0 0-1.712-.588 9.608 9.608 0 0 0-.458-.123 26.605 26.605 0 0 0-1.372-.329l-.142-.032a15.365 15.365 0 0 0-.805-.17 24.555 24.555 0 0 0-1.762-.234 9.85 9.85 0 0 0-.968-.1 26.69 26.69 0 0 0-2.487-.051L26.012 3.255a27.17 27.17 0 0 0-2.119.15l-.574.068a27.74 27.74 0 0 0-1.739.277c-.116.02-.247.044-.378.071-.568.118-1.145.254-1.714.41a7.632 7.632 0 0 0-.34.104c-.809.233-1.504.464-2.169.715l-.102.038c-.709.272-1.42.58-2.172.945-.106.047-.21.095-.312.146-.457.228-.885.463-1.308.704a9.818 9.818 0 0 0-.334.184c-.57.334-1.116.677-1.645 1.038a7.422 7.422 0 0 0-.253.182A27.06 27.06 0 0 0 8.845 9.84a7.468 7.468 0 0 0-.85.759c-.199.186-.391.38-.581.573l-.146.15-.132.128a17.29 17.29 0 0 0-.543.54 8.109 8.109 0 0 0-.433.45 6.377 6.377 0 0 0-.228.272 25.092 25.092 0 0 0-1.538 1.98 7.495 7.495 0 0 0-.29.4c-.154.231-.292.456-.426.683l-.123.202c-.122.193-.24.386-.353.583-.249.437-.475.882-.693 1.33a13.192 13.192 0 0 0-.317.643c-.273.61-.5 1.201-.707 1.799-.052.15-.098.296-.143.442a22.111 22.111 0 0 0-.578 2.174 20.517 20.517 0 0 0-.329 2.065 6.543 6.543 0 0 0-.034.656L.345 39.476c-.514 6.04 1.76 11.841 6.274 15.968 1.208 1.105 3.506 2.855 6.873 4.22L72.675 82.46l.013-.03a24.773 24.773 0 0 0 9.652 1.638l18.325-.513 6.669-.186 74.655-2.091c13.114-.363 24.349-9.92 25.573-21.76a6.22 6.22 0 0 0 .035-.655l.055-13.807c.464-5.401-1.276-10.575-4.92-14.602zM14.801 13.65c.022-.016.041-.035.065-.051.404-.275.82-.537 1.246-.786.07-.04.143-.075.213-.115.34-.194.683-.386 1.036-.562.044-.022.091-.038.136-.06a21.435 21.435 0 0 1 1.768-.777c.008-.003.017-.006.024-.01a21.592 21.592 0 0 1 1.824-.598c.052-.014.1-.034.15-.048.431-.119.868-.22 1.307-.312.093-.02.188-.033.28-.051a20.86 20.86 0 0 1 1.745-.262 20.79 20.79 0 0 1 1.601-.115l101.05-2.79a20.13 20.13 0 0 1 1.956.045c.02.002.042 0 .061.002.168.012.326.046.493.063.457.046.91.096 1.351.174.238.042.464.102.697.153.375.082.75.164 1.113.269.07.02.144.03.214.051.404.122.799.258 1.186.407l38.81 15.313-87.937 2.463c-7.074.195-13.584 3.08-18.288 7.542L13.983 14.284c.274-.21.531-.437.817-.633zm44.776 35.948l-.05 12.676a19.206 19.206 0 0 0 1.166 8.441l-12.651-4.873a1.138 1.138 0 0 0-2.117-.815l-13.785-5.31c.002-.057.005-.113-.002-.171a1.139 1.139 0 0 0-2.004-.602l-13.966-5.38a1.136 1.136 0 0 0-1.675-.726 14.947 14.947 0 0 1-2.691-1.721c.15-.218.23-.484.197-.768a1.139 1.139 0 0 0-1.825-.772c-2.328-2.6-3.55-6.012-3.161-9.778l.056-14.102a14 14 0 0 1 .226-1.4c.027-.133.06-.263.091-.395.085-.356.183-.708.295-1.056.036-.114.068-.228.107-.341.144-.417.302-.83.482-1.235.011-.024.026-.047.037-.071.015-.036.034-.07.051-.105.122-.14.207-.31.248-.495.124-.251.252-.501.392-.747.048-.083.1-.165.151-.248l8.961 3.271c.001.036-.002.072.002.11a1.138 1.138 0 0 0 1.99.617l13.95 5.09c0 .048-.004.095.002.143a1.138 1.138 0 0 0 2.014.593l13.927 5.083c-.003.057-.005.116.002.175a1.138 1.138 0 0 0 2.033.567l10.493 3.83c-1.556 2.67-2.585 5.617-2.907 8.729l-.01.123a1.131 1.131 0 0 0-.376.973c.033.275.163.512.348.69zm142.047-4.796l-.053 14.04c-.909 8.812-9.766 16.153-19.751 16.428l-100.222 2.8c-5.059 0-9.678-1.9-12.675-5.216-2.566-2.834-3.76-6.502-3.365-10.322l.051-14.04c.909-8.81 9.769-16.154 19.754-16.432l100.22-2.796h.006c5.054 0 9.673 1.9 12.67 5.215 2.564 2.837 3.759 6.502 3.365 10.323z"/><path d="M125.549 58.235c-9.382-2.268-28.156-8.391-50.626-9.145-1.29-.043-3.597.516-3.585 2.76.022 4.47.114 12.108-.011 12.15.047 1.691 0 4.573 2.526 5.733 12.716 5.839 35.6-7.19 51.602-10.453 1.078-.22 1.44-.72.094-1.045z"/><path d="M74.48 47.03c26.914.26 45.857 8.78 59.746 10.52 15.879 1.99 32.336-7.025 36.335-9.931.959-.697.825-.928-.186-.866-27.118 1.653-35.362.076-48.321-10.274-.868-.693-2.698-.62-3.617-.644-7.601-.206-31.826.857-31.826.857-13.349.845-15.136 9.205-14.586 9.933.39.516 2.076.401 2.456.405z"/><path d="M195.41 46.934c-7.419-.407-20.378.161-26.71 3.856-22.245 12.982-27.447 5.145-57.646 14.722-11.175 3.544-14.84 5.313-11.624 5.893 6.223 1.123 28.736-.702 45.77-3.99 19.72-3.807 30 1.43 47.665-4.493 3.392-1.137 4.006-4.7 4.013-5.957.017-2.847.034-6.005.044-8.647.004-1.067-1.216-1.368-1.512-1.384zm-68.287-9.788c15.186 13.229 38.276 6.953 69.746 5.698-.006-1.133-.004-.768.013-1.237l-.025-.571a8.483 8.483 0 0 0-1.808-3.187c-2.101-2.332-5.44-3.676-9.161-3.685l-.44.006s-43.11 1.635-57.656 1.531c-.399-.003-2.587-.225-.669 1.445z"/><ellipse cx="59.522" cy="41.252" rx="1.139" ry="1.137"/><path d="M47.902 39.876a1.136 1.136 0 0 0 1.006-1.255 1.139 1.139 0 0 0-2.265.252c.07.624.633 1.073 1.259 1.003zm6.291-1.843a1.127 1.127 0 0 0 .421.762 1.14 1.14 0 0 0 1.845-1.014 1.139 1.139 0 0 0-2.266.252z"/><ellipse cx="43.58" cy="35.401" rx="1.139" ry="1.137"/><path d="M57.136 54.098a1.136 1.136 0 0 0 1.006-1.255 1.13 1.13 0 0 0-.421-.762 1.14 1.14 0 0 0-.838-.242 1.134 1.134 0 0 0-.369.111c-.067.033-.129.07-.188.115-.017.013-.038.024-.054.038a1.16 1.16 0 0 0-.194.22 1.135 1.135 0 0 0-.161.322 1.138 1.138 0 0 0 1.22 1.453z"/><ellipse cx="48.618" cy="46.277" rx="1.139" ry="1.137"/><path d="M55.816 44.356a1.14 1.14 0 0 0-.78 1.207 1.14 1.14 0 0 0 1.259 1.003 1.136 1.136 0 1 0-.479-2.21z"/><ellipse cx="52.814" cy="49.623" rx="1.139" ry="1.137"/><ellipse cx="45.264" cy="50.462" rx="1.139" ry="1.137"/><ellipse cx="51.972" cy="42.092" rx="1.139" ry="1.137"/><ellipse cx="44.422" cy="42.932" rx="1.139" ry="1.137"/><path d="M58.342 66.948a1.139 1.139 0 0 0-.642 1.638 1.14 1.14 0 0 0 1.12.573 1.137 1.137 0 1 0-.478-2.21z"/><ellipse cx="50.302" cy="61.339" rx="1.139" ry="1.137"/><path d="M58.984 60.373a1.138 1.138 0 0 0-1.87-.74 1.134 1.134 0 0 0-.395.992c.07.624.633 1.073 1.26 1.003a1.137 1.137 0 0 0 1.005-1.255z"/><ellipse cx="54.498" cy="64.684" rx="1.139" ry="1.137"/><ellipse cx="53.656" cy="57.154" rx="1.139" ry="1.137"/><ellipse cx="46.105" cy="57.994" rx="1.139" ry="1.137"/><path d="M50.593 53.683a1.14 1.14 0 0 0-2.266.251c.07.624.633 1.073 1.259 1.003a1.136 1.136 0 0 0 1.007-1.254z"/><ellipse cx="31.834" cy="32.895" rx="1.139" ry="1.137"/><path d="M38.515 32.792a1.14 1.14 0 0 0 2.001-.862 1.139 1.139 0 0 0-1.485-.955 1.14 1.14 0 0 0-.78 1.207 1.109 1.109 0 0 0 .264.61z"/><ellipse cx="36.029" cy="36.241" rx="1.139" ry="1.137"/><ellipse cx="28.48" cy="37.081" rx="1.139" ry="1.137"/><ellipse cx="27.637" cy="29.55" rx="1.139" ry="1.137"/><ellipse cx="33.517" cy="47.957" rx="1.139" ry="1.137"/><path d="M41.194 48.247a1.136 1.136 0 1 0-.479-2.21 1.138 1.138 0 0 0-.642 1.637 1.14 1.14 0 0 0 1.121.573z"/><ellipse cx="37.714" cy="51.302" rx="1.139" ry="1.137"/><ellipse cx="30.163" cy="52.142" rx="1.139" ry="1.137"/><ellipse cx="36.871" cy="43.772" rx="1.139" ry="1.137"/><ellipse cx="29.322" cy="44.612" rx="1.139" ry="1.137"/><path d="M33.808 40.3a1.139 1.139 0 0 0-2.265.252c.07.624.633 1.073 1.259 1.003a1.136 1.136 0 0 0 1.006-1.254zm5.325-1.037a1.135 1.135 0 0 0 1.22 1.453 1.137 1.137 0 0 0 1.006-1.255 1.14 1.14 0 0 0-1.259-1.004c-.47.052-.84.381-.967.806zm4.33 22.028a1.14 1.14 0 0 0-1.58 1.624 1.138 1.138 0 0 0 1.758-.027 1.134 1.134 0 0 0-.178-1.597z"/><ellipse cx="38.556" cy="58.833" rx="1.139" ry="1.137"/><path d="M34.233 54.358a1.137 1.137 0 0 0-1.006 1.256c.07.624.633 1.073 1.259 1.003a1.137 1.137 0 0 0 1.006-1.255 1.139 1.139 0 0 0-1.259-1.004zm7.803 1.42a1.119 1.119 0 0 0 .611-.264 1.134 1.134 0 0 0 .395-.992 1.14 1.14 0 0 0-2.142-.401 1.128 1.128 0 0 0-.123.653 1.116 1.116 0 0 0 .264.61 1.138 1.138 0 0 0 .995.393zM14.758 27.17c.07.625.634 1.074 1.26 1.004a1.137 1.137 0 0 0 1.006-1.255 1.139 1.139 0 0 0-1.259-1.004 1.137 1.137 0 0 0-1.007 1.255zm8.579.167a1.137 1.137 0 0 0 1.238-1.258h-.001a1.139 1.139 0 0 0-1.259-1.004 1.138 1.138 0 0 0-.505.19 1.136 1.136 0 0 0-.461.616 1.126 1.126 0 0 0 .224 1.06c.19.222.462.369.764.396z"/><ellipse cx="11.695" cy="23.699" rx="1.139" ry="1.137"/><ellipse cx="16.733" cy="34.575" rx="1.139" ry="1.137"/><path d="M23.931 32.654a1.137 1.137 0 0 0 .479 2.211 1.137 1.137 0 1 0-.479-2.21z"/><ellipse cx="20.929" cy="37.92" rx="1.139" ry="1.137"/><ellipse cx="13.379" cy="38.76" rx="1.139" ry="1.137"/><ellipse cx="20.087" cy="30.39" rx="1.139" ry="1.137"/><ellipse cx="12.537" cy="31.23" rx="1.139" ry="1.137"/><ellipse cx="9.183" cy="35.415" rx="1.139" ry="1.137"/><path d="M9.473 27.758a1.13 1.13 0 0 0-.421-.762 1.14 1.14 0 0 0-1.845 1.014c.07.625.633 1.074 1.259 1.004a1.137 1.137 0 0 0 1.008-1.256z"/><ellipse cx="18.417" cy="49.637" rx="1.139" ry="1.137"/><path d="M26.093 49.926a1.119 1.119 0 0 0 .612-.263 1.134 1.134 0 0 0-.633-1.998 1.115 1.115 0 0 0-.456.051 1.139 1.139 0 0 0-.733 1.433 1.127 1.127 0 0 0 .373.536 1.138 1.138 0 0 0 .837.241z"/><ellipse cx="22.613" cy="52.982" rx="1.139" ry="1.137"/><ellipse cx="21.771" cy="45.451" rx="1.139" ry="1.137"/><ellipse cx="14.221" cy="46.291" rx="1.139" ry="1.137"/><path d="M18.707 41.98a1.14 1.14 0 0 0-2.265.252c.07.624.633 1.073 1.259 1.003a1.136 1.136 0 0 0 1.006-1.255zm7.551-.84a1.14 1.14 0 0 0-2.265.252c.07.624.633 1.073 1.259 1.003a1.136 1.136 0 0 0 1.006-1.255zm1.684 15.062a1.14 1.14 0 0 0-1.26-1.004 1.138 1.138 0 0 0-.505.19 1.128 1.128 0 0 0-.46.616 1.126 1.126 0 0 0 .224 1.06 1.14 1.14 0 0 0 2-.862zM11.158 42.82a1.139 1.139 0 0 0-1.26-1.004 1.137 1.137 0 0 0-1.006 1.255v.001a1.116 1.116 0 0 0 .264.61 1.14 1.14 0 0 0 2.002-.863z"/></g><path d="M162.422 70.099c-2.635 0-4.778-2.138-4.778-4.767V41.465c0-2.629 2.143-4.767 4.779-4.767 2.634 0 4.778 2.138 4.778 4.767v23.867c0 2.629-2.144 4.767-4.779 4.767z" fill="#fff"/><path d="M162.422 39.192a2.275 2.275 0 0 1 2.279 2.273v23.868a2.275 2.275 0 0 1-2.279 2.273 2.275 2.275 0 0 1-2.278-2.273V41.465a2.276 2.276 0 0 1 2.278-2.273zm0-4.987c-4.013 0-7.278 3.257-7.278 7.26v23.868c0 4.003 3.264 7.26 7.278 7.26 4.013 0 7.279-3.257 7.279-7.26V41.465c0-4.003-3.266-7.26-7.279-7.26z" fill="#e7424f"/><g fill="#fff" stroke="#e7424f" stroke-width="7" transform="translate(122.5 34.06)"><ellipse cx="39.922" cy="10.138" rx="8.549" ry="8.527"/><path d="M11.672 73.532H4.181c-2.127 0-3.866-1.735-3.866-3.856v-15.39c0-2.121 1.74-3.856 3.866-3.856h7.491m52.928 0h11.063c2.126 0 3.865 1.735 3.865 3.856v15.39c0 2.121-1.74 3.856-3.866 3.856H64.6"/><path d="M61.15 90.222H18.695c-3.898 0-7.087-3.18-7.087-7.068V40.808c0-3.887 3.19-7.068 7.087-7.068H61.15c3.897 0 7.086 3.18 7.086 7.068v42.346c0 3.887-3.189 7.068-7.087 7.068z"/><path d="M55.203 70.425v4.265c0 2.121-1.739 3.856-3.866 3.856h-22.83c-2.127 0-3.866-1.735-3.866-3.856v-4.265"/><ellipse cx="26.574" cy="52.053" rx="4.8" ry="4.787"/><ellipse cx="53.27" cy="52.053" rx="4.8" ry="4.787"/></g></g></svg>