<svg id="Layer_1" xmlns="http://www.w3.org/2000/svg" viewBox="0 0 248.4 248.6"><style>.st0{fill:#dc4551}.st1{fill:#fefefe}</style><path class="st0" d="M125.5.1c14.1 0 28.9 2.9 43.2 8.4 14.8 5.7 28 13.9 39.8 24.4 7.7 6.8 13.8 14.9 19.3 23.5 4 6.3 7.6 12.8 10.6 19.6 2.8 6.4 4.9 13 6.6 19.8 2.5 10.2 3.6 20.5 3.4 31-.4 18.9-5.1 36.7-13.6 53.6-5.2 10.4-11.8 19.9-19.6 28.6-9.5 10.5-20.7 18.7-33.3 25.2-10.8 5.6-22.1 9.6-34 12-9.7 2-19.5 2.7-29.3 2.2-18.7-.9-36.3-6-52.8-14.6-11.7-6.1-22.2-13.9-31.4-23.4-8.1-8.4-14.7-17.9-20-28.3-5.5-10.6-9.5-21.8-12-33.5-1.1-5.5-1.9-11.1-2.2-16.8-.4-6-.3-11.9.2-17.9.8-9.7 2.8-19.1 5.9-28.3 5.5-16.4 13.9-31.1 25.3-44.2 9.2-10.6 20.2-19 32.5-25.7C74.4 10.2 85.2 6 96.6 3.3c6-1.4 12-2.4 18.1-2.8 3.2-.3 6.4-.4 10.8-.4zm59.8 82c0-.7 0-1.4-.2-2.1-.7-3.7-3.9-5.7-7.5-4.7-1.9.5-3.7 1.3-5.5 2-19.5 7.5-38.9 15-58.4 22.5-16.8 6.5-33.5 12.9-50.3 19.4-3.1 1.2-6.2 2.3-9.2 3.7-1.3.7-2.6 1.5-3.3 2.8-1 1.8-.6 3.3 1.1 4.4 1 .7 2.2.9 3.4 1.3 9.9 3 19.8 6.1 29.7 9.1.6.2 1.1.2 1.7-.2 21.7-13.7 43.4-27.3 65.1-41 1.9-1.2 3.9-2.5 5.8-3.7 1-.6 2-1 3.2-.8 1 .2 1.3.8.7 1.7-.3.4-.6.7-1 1-11.5 10.5-23.1 21.1-34.6 31.6-7.4 6.8-14.8 13.5-22.2 20.3-.2.2-.4.3-.4.7-.3 4.6-.7 9.1-1.1 13.7-.4 5.6-.9 11.2-1.3 16.8-.1 1 0 1 .9.8h.1c2.2-.5 4-1.7 5.6-3.2 4.7-4.5 9.4-9.1 14.1-13.7.3-.3.6-.4 1-.1 9.8 7.3 19.6 14.5 29.4 21.8 1.3 1 2.8 1.7 4.4 2.1 3.1.8 5.3-.2 6.7-3 .6-1.3 1-2.6 1.3-4 2.2-10.4 4.4-20.9 6.7-31.3l6.6-31.2c2.2-10.2 4.4-20.4 6.5-30.6.4-2 1-4 1-6.1z"/><path class="st1" d="M182.5 84c0 2-.6 3.9-1 5.8-2.1 9.7-4.1 19.5-6.2 29.2-2.1 9.9-4.2 19.9-6.3 29.8-2.1 10-4.2 19.9-6.4 29.8-.3 1.3-.6 2.6-1.2 3.8-1.4 2.7-3.5 3.7-6.4 2.9-1.5-.4-2.9-1-4.2-2-9.3-6.9-18.7-13.9-28-20.8-.4-.3-.6-.2-.9.1-4.5 4.4-9 8.7-13.5 13-1.5 1.4-3.3 2.6-5.4 3h-.1c-.9.2-1 .1-.9-.8.4-5.4.8-10.7 1.3-16.1.3-4.4.7-8.7 1-13.1 0-.3.2-.5.4-.6 7.1-6.4 14.1-12.9 21.2-19.3 11-10.1 22-20.1 33-30.2.3-.3.7-.6.9-1 .6-.8.4-1.4-.6-1.6-1.1-.2-2.1.2-3 .8-1.9 1.2-3.7 2.4-5.6 3.5-20.7 13-41.4 26.1-62.1 39.1-.5.3-1 .4-1.6.2-9.4-2.9-18.9-5.8-28.4-8.7-1.1-.3-2.2-.6-3.2-1.2-1.6-1.1-2-2.5-1-4.2.7-1.3 1.9-2.1 3.2-2.7 2.9-1.4 5.9-2.4 8.8-3.5 16-6.2 32-12.4 48-18.5 18.6-7.2 37.1-14.3 55.7-21.5 1.7-.7 3.4-1.5 5.3-1.9 3.5-.9 6.4 1 7.1 4.5.1.9.1 1.5.1 2.2z"/></svg>