<?xml version="1.0" encoding="utf-8"?>
<!-- Generator: Adobe Illustrator 22.1.0, SVG Export Plug-In . SVG Version: 6.00 Build 0)  -->
<svg version="1.1" id="Layer_1" xmlns="http://www.w3.org/2000/svg" xmlns:xlink="http://www.w3.org/1999/xlink" x="0px" y="0px"
	 viewBox="0 0 248.4 248.6" style="enable-background:new 0 0 248.4 248.6;" xml:space="preserve">
<style type="text/css">
	.st0{fill:#DC4551;}
	.st1{fill:#FEFEFE;}
</style>
<g>
	<path class="st0" d="M125.5,0.1c14.1,0,28.9,2.9,43.2,8.4c14.8,5.7,28,13.9,39.8,24.4c7.7,6.8,13.8,14.9,19.3,23.5
		c4,6.3,7.6,12.8,10.6,19.6c2.8,6.4,4.9,13,6.6,19.8c2.5,10.2,3.6,20.5,3.4,31c-0.4,18.9-5.1,36.7-13.6,53.6
		c-5.2,10.4-11.8,19.9-19.6,28.6c-9.5,10.5-20.7,18.7-33.3,25.2c-10.8,5.6-22.1,9.6-34,12c-9.7,2-19.5,2.7-29.3,2.2
		c-18.7-0.9-36.3-6-52.8-14.6c-11.7-6.1-22.2-13.9-31.4-23.4c-8.1-8.4-14.7-17.9-20-28.3c-5.5-10.6-9.5-21.8-12-33.5
		c-1.1-5.5-1.9-11.1-2.2-16.8c-0.4-6-0.3-11.9,0.2-17.9c0.8-9.7,2.8-19.1,5.9-28.3c5.5-16.4,13.9-31.1,25.3-44.2
		c9.2-10.6,20.2-19,32.5-25.7C74.4,10.2,85.2,6,96.6,3.3c6-1.4,12-2.4,18.1-2.8C117.9,0.2,121.1,0.1,125.5,0.1z M185.3,82.1
		c0-0.7,0-1.4-0.2-2.1c-0.7-3.7-3.9-5.7-7.5-4.7c-1.9,0.5-3.7,1.3-5.5,2c-19.5,7.5-38.9,15-58.4,22.5c-16.8,6.5-33.5,12.9-50.3,19.4
		c-3.1,1.2-6.2,2.3-9.2,3.7c-1.3,0.7-2.6,1.5-3.3,2.8c-1,1.8-0.6,3.3,1.1,4.4c1,0.7,2.2,0.9,3.4,1.3c9.9,3,19.8,6.1,29.7,9.1
		c0.6,0.2,1.1,0.2,1.7-0.2c21.7-13.7,43.4-27.3,65.1-41c1.9-1.2,3.9-2.5,5.8-3.7c1-0.6,2-1,3.2-0.8c1,0.2,1.3,0.8,0.7,1.7
		c-0.3,0.4-0.6,0.7-1,1c-11.5,10.5-23.1,21.1-34.6,31.6c-7.4,6.8-14.8,13.5-22.2,20.3c-0.2,0.2-0.4,0.3-0.4,0.7
		c-0.3,4.6-0.7,9.1-1.1,13.7c-0.4,5.6-0.9,11.2-1.3,16.8c-0.1,1,0,1,0.9,0.8c0,0,0.1,0,0.1,0c2.2-0.5,4-1.7,5.6-3.2
		c4.7-4.5,9.4-9.1,14.1-13.7c0.3-0.3,0.6-0.4,1-0.1c9.8,7.3,19.6,14.5,29.4,21.8c1.3,1,2.8,1.7,4.4,2.1c3.1,0.8,5.3-0.2,6.7-3
		c0.6-1.3,1-2.6,1.3-4c2.2-10.4,4.4-20.9,6.7-31.3c2.2-10.4,4.4-20.8,6.6-31.2c2.2-10.2,4.4-20.4,6.5-30.6
		C184.7,86.2,185.3,84.2,185.3,82.1z"/>
	<path class="st1" d="M182.5,84c0,2-0.6,3.9-1,5.8c-2.1,9.7-4.1,19.5-6.2,29.2c-2.1,9.9-4.2,19.9-6.3,29.8
		c-2.1,10-4.2,19.9-6.4,29.8c-0.3,1.3-0.6,2.6-1.2,3.8c-1.4,2.7-3.5,3.7-6.4,2.9c-1.5-0.4-2.9-1-4.2-2c-9.3-6.9-18.7-13.9-28-20.8
		c-0.4-0.3-0.6-0.2-0.9,0.1c-4.5,4.4-9,8.7-13.5,13c-1.5,1.4-3.3,2.6-5.4,3c0,0-0.1,0-0.1,0c-0.9,0.2-1,0.1-0.9-0.8
		c0.4-5.4,0.8-10.7,1.3-16.1c0.3-4.4,0.7-8.7,1-13.1c0-0.3,0.2-0.5,0.4-0.6c7.1-6.4,14.1-12.9,21.2-19.3c11-10.1,22-20.1,33-30.2
		c0.3-0.3,0.7-0.6,0.9-1c0.6-0.8,0.4-1.4-0.6-1.6c-1.1-0.2-2.1,0.2-3,0.8c-1.9,1.2-3.7,2.4-5.6,3.5c-20.7,13-41.4,26.1-62.1,39.1
		c-0.5,0.3-1,0.4-1.6,0.2c-9.4-2.9-18.9-5.8-28.4-8.7c-1.1-0.3-2.2-0.6-3.2-1.2c-1.6-1.1-2-2.5-1-4.2c0.7-1.3,1.9-2.1,3.2-2.7
		c2.9-1.4,5.9-2.4,8.8-3.5c16-6.2,32-12.4,48-18.5c18.6-7.2,37.1-14.3,55.7-21.5c1.7-0.7,3.4-1.5,5.3-1.9c3.5-0.9,6.4,1,7.1,4.5
		C182.5,82.7,182.5,83.3,182.5,84z"/>
</g>
</svg>
