<?xml version="1.0" encoding="UTF-8" standalone="no"?>
<!-- Generator: Adobe Illustrator 17.1.0, SVG Export Plug-In . SVG Version: 6.00 Build 0)  -->

<svg
   xmlns:dc="http://purl.org/dc/elements/1.1/"
   xmlns:cc="http://creativecommons.org/ns#"
   xmlns:rdf="http://www.w3.org/1999/02/22-rdf-syntax-ns#"
   xmlns:svg="http://www.w3.org/2000/svg"
   xmlns="http://www.w3.org/2000/svg"
   xmlns:sodipodi="http://sodipodi.sourceforge.net/DTD/sodipodi-0.dtd"
   xmlns:inkscape="http://www.inkscape.org/namespaces/inkscape"
   version="1.1"
   id="logo"
   x="0px"
   y="0px"
   viewBox="0 0 157.5 57.299999"
   enable-background="new 0 0 300 150"
   xml:space="preserve"
   inkscape:version="0.91 r13725"
   sodipodi:docname="toptal.svg"
   width="157.5"
   height="57.299999"><metadata
     id="metadata3422"><rdf:RDF><cc:Work
         rdf:about=""><dc:format>image/svg+xml</dc:format><dc:type
           rdf:resource="http://purl.org/dc/dcmitype/StillImage" /><dc:title></dc:title></cc:Work></rdf:RDF></metadata><defs
     id="defs3420" /><sodipodi:namedview
     pagecolor="#ffffff"
     bordercolor="#666666"
     borderopacity="1"
     objecttolerance="10"
     gridtolerance="10"
     guidetolerance="10"
     inkscape:pageopacity="0"
     inkscape:pageshadow="2"
     inkscape:window-width="1211"
     inkscape:window-height="809"
     id="namedview3418"
     showgrid="false"
     fit-margin-top="5"
     fit-margin-left="5"
     fit-margin-right="5"
     fit-margin-bottom="5"
     inkscape:zoom="3.5766667"
     inkscape:cx="85.1"
     inkscape:cy="28.399998"
     inkscape:window-x="0"
     inkscape:window-y="0"
     inkscape:window-maximized="0"
     inkscape:current-layer="logo" /><g
     id="g3400"
     transform="translate(-64.9,-46.1)"><path
       d="m 102.2,70.8 -19.7,-19.7 -4,4 7.4,7.4 -16,16 19.7,19.7 4,-4 -7.4,-7.4 16,-16 z m -23.4,8.3 11.9,-11.9 2.4,2.4 -11.9,12 -2.4,-2.5 z"
       id="path3402"
       inkscape:connector-curvature="0"
       style="fill:#3d64ac" /><g
       id="g3404"><path
         d="m 115.8,56.8 0,6 6.6,0 0,3.5 -6.6,0 0,13.6 c 0,3.1 0.9,4.9 3.4,4.9 1.2,0 2,-0.1 2.7,-0.3 l 0.2,3.5 c -0.9,0.3 -2.3,0.6 -4.1,0.6 -2.1,0 -3.9,-0.7 -4.9,-1.9 -1.2,-1.4 -1.8,-3.6 -1.8,-6.6 l 0,-13.8 -3.9,0 0,-3.5 3.9,0 0,-4.7 4.5,-1.3 z"
         id="path3406"
         inkscape:connector-curvature="0"
         style="fill:#3d64ac" /><path
         d="m 147,75.3 c 0,9.3 -6.5,13.4 -12.6,13.4 -6.8,0 -12.1,-5 -12.1,-13 0,-8.4 5.6,-13.3 12.5,-13.3 7.3,-0.1 12.2,5.2 12.2,12.9 z m -19.9,0.2 c 0,5.5 3.1,9.7 7.6,9.7 4.4,0 7.7,-4.1 7.7,-9.8 0,-4.3 -2.1,-9.6 -7.6,-9.6 -5.4,0 -7.7,5 -7.7,9.7 z"
         id="path3408"
         inkscape:connector-curvature="0"
         style="fill:#3d64ac" /><path
         d="m 149.3,71.1 c 0,-3.2 -0.1,-5.8 -0.2,-8.2 l 4.1,0 0.3,4.3 0.1,0 c 1.8,-3.1 4.8,-4.8 9,-4.8 6.1,0 10.7,5.2 10.7,12.8 0,9.1 -5.6,13.5 -11.5,13.5 -3.3,0 -6.3,-1.5 -7.8,-4 l -0.1,0 0,13.7 -4.5,0 0,-27.3 z m 4.5,6.7 c 0,0.7 0.1,1.3 0.2,1.9 0.8,3.2 3.6,5.4 6.9,5.4 4.8,0 7.7,-4 7.7,-9.7 0,-5 -2.7,-9.3 -7.5,-9.3 -3.1,0 -6.1,2.2 -6.9,5.6 -0.2,0.6 -0.3,1.3 -0.3,1.8 l 0,4.3 z"
         id="path3410"
         inkscape:connector-curvature="0"
         style="fill:#3d64ac" /><path
         d="m 182,56.8 0,6 6.6,0 0,3.5 -6.6,0 0,13.6 c 0,3.1 0.9,4.9 3.4,4.9 1.2,0 2,-0.1 2.7,-0.3 l 0.2,3.5 c -0.9,0.3 -2.3,0.6 -4.1,0.6 -2.1,0 -3.9,-0.7 -4.9,-1.9 -1.3,-1.4 -1.8,-3.6 -1.8,-6.6 l 0,-13.8 -3.9,0 0,-3.5 3.9,0 0,-4.7 4.5,-1.3 z"
         id="path3412"
         inkscape:connector-curvature="0"
         style="fill:#3d64ac" /><path
         d="m 209.4,82 c 0,2.2 0.1,4.3 0.4,6 l -4.1,0 -0.4,-3.2 -0.2,0 c -1.4,2 -4.1,3.8 -7.7,3.8 -5.1,0 -7.7,-3.6 -7.7,-7.2 0,-6.1 5.4,-9.4 15.2,-9.4 l 0,-0.5 c 0,-2 -0.6,-5.8 -5.7,-5.8 -2.4,0 -4.8,0.7 -6.6,1.9 l -1,-3.1 c 2.1,-1.3 5.2,-2.2 8.3,-2.2 7.7,0 9.6,5.3 9.6,10.3 l 0,9.4 z M 205,75.2 c -5,-0.1 -10.7,0.8 -10.7,5.7 0,3 2,4.4 4.3,4.4 3.3,0 5.5,-2.1 6.2,-4.2 0.2,-0.5 0.2,-1 0.2,-1.5 l 0,-4.4 z"
         id="path3414"
         inkscape:connector-curvature="0"
         style="fill:#3d64ac" /><path
         d="m 212.8,51.1 4.6,0 0,37 -4.6,0 0,-37 z"
         id="path3416"
         inkscape:connector-curvature="0"
         style="fill:#3d64ac" /></g></g></svg>