<svg height="57.3" viewBox="0 0 157.5 57.299999" width="157.5" xmlns="http://www.w3.org/2000/svg"><g fill="#3d64ac"><path d="M37.3 24.7L17.6 5l-4 4 7.4 7.4-16 16 19.7 19.7 4-4-7.4-7.4zM13.9 33l11.9-11.9 2.4 2.4-11.9 12zm37-22.3v6h6.6v3.5h-6.6v13.6c0 3.1.9 4.9 3.4 4.9 1.2 0 2-.1 2.7-.3l.2 3.5c-.9.3-2.3.6-4.1.6-2.1 0-3.9-.7-4.9-1.9-1.2-1.4-1.8-3.6-1.8-6.6V20.2h-3.9v-3.5h3.9V12z"/><path d="M82.1 29.2c0 9.3-6.5 13.4-12.6 13.4-6.8 0-12.1-5-12.1-13 0-8.4 5.6-13.3 12.5-13.3 7.3-.1 12.2 5.2 12.2 12.9zm-19.9.2c0 5.5 3.1 9.7 7.6 9.7 4.4 0 7.7-4.1 7.7-9.8 0-4.3-2.1-9.6-7.6-9.6-5.4 0-7.7 5-7.7 9.7zM84.4 25c0-3.2-.1-5.8-.2-8.2h4.1l.3 4.3h.1c1.8-3.1 4.8-4.8 9-4.8 6.1 0 10.7 5.2 10.7 12.8 0 9.1-5.6 13.5-11.5 13.5-3.3 0-6.3-1.5-7.8-4H89v13.7h-4.5V25zm4.5 6.7c0 .7.1 1.3.2 1.9.8 3.2 3.6 5.4 6.9 5.4 4.8 0 7.7-4 7.7-9.7 0-5-2.7-9.3-7.5-9.3-3.1 0-6.1 2.2-6.9 5.6-.2.6-.3 1.3-.3 1.8v4.3zm28.2-21v6h6.6v3.5h-6.6v13.6c0 3.1.9 4.9 3.4 4.9 1.2 0 2-.1 2.7-.3l.2 3.5c-.9.3-2.3.6-4.1.6-2.1 0-3.9-.7-4.9-1.9-1.3-1.4-1.8-3.6-1.8-6.6V20.2h-3.9v-3.5h3.9V12zm27.4 25.2c0 2.2.1 4.3.4 6h-4.1l-.4-3.2h-.2c-1.4 2-4.1 3.8-7.7 3.8-5.1 0-7.7-3.6-7.7-7.2 0-6.1 5.4-9.4 15.2-9.4v-.5c0-2-.6-5.8-5.7-5.8-2.4 0-4.8.7-6.6 1.9l-1-3.1c2.1-1.3 5.2-2.2 8.3-2.2 7.7 0 9.6 5.3 9.6 10.3v9.4zm-4.4-6.8c-5-.1-10.7.8-10.7 5.7 0 3 2 4.4 4.3 4.4 3.3 0 5.5-2.1 6.2-4.2.2-.5.2-1 .2-1.5zM147.9 5h4.6v37h-4.6z"/></g></svg>