<svg width="157" height="14" viewBox="0 0 157 14" fill="none">
    <path
        d="M131.3 2.50004C130.1 1.30004 128.5 0.600037 126.7 0.600037C124.9 0.600037 123.4 1.30004 122.1 2.50004L121.9 2.70004L123.3 4.10004L123.5 3.90004C124.3 3.10004 125.5 2.60004 126.7 2.60004C127.9 2.60004 129 3.10004 129.9 3.90004C130.7 4.70004 131.2 5.90004 131.2 7.10004C131.2 8.30004 130.7 9.50004 129.9 10.3C128.2 12.1 125.3 12.1 123.6 10.3L118.3 4.90004C117.7 4.20004 116.8 3.70004 115.8 3.70004C114 3.70004 112.5 5.20004 112.5 7.00004C112.5 8.90004 114 10.3 115.8 10.3C117.2 10.3 118.4 9.40004 118.9 8.20004L122.3 11.6C124.8 14.2 128.9 14.2 131.4 11.6C132.6 10.4 133.3 8.70004 133.3 7.00004C133.2 5.40004 132.5 3.80004 131.3 2.50004Z" />
    <path
        d="M118.9 10.3C118.1 11.1 116.9 11.6 115.7 11.6C114.5 11.6 113.4 11.1 112.5 10.3C111.7 9.50002 111.2 8.30002 111.2 7.10002C111.2 5.90002 111.7 4.70002 112.5 3.90002C114.2 2.10002 117.1 2.10002 118.8 3.90002L124.1 9.30002C124.7 10 125.6 10.5 126.6 10.5C128.4 10.5 129.9 9.00002 129.9 7.20002C129.9 5.30002 128.4 3.90002 126.6 3.90002C125.2 3.90002 124 4.80002 123.5 6.00002L120.1 2.60002C117.6 2.44379e-05 113.5 2.44379e-05 111 2.60002C109.8 3.80002 109.1 5.50002 109.1 7.20002C109.1 9.00002 109.8 10.6 111 11.8C112.2 13 113.8 13.7 115.6 13.7C117.3 13.7 118.9 13 120.2 11.8L120.4 11.6L119 10.2L118.9 10.3Z" />
    <path
        d="M6.29995 13.6H0.699951V0.600037H5.69995C6.59995 0.600037 7.29995 0.700037 7.89995 0.900037C8.49995 1.10004 8.99995 1.40004 9.29995 1.70004C9.89995 2.40004 10.2 3.10004 10.2 4.00004C10.2 5.00004 9.89995 5.80004 9.19995 6.30004C8.99995 6.50004 8.79995 6.60004 8.69995 6.60004C8.59995 6.60004 8.49995 6.70004 8.19995 6.80004C8.99995 7.00004 9.59995 7.30004 10.1 7.90004C10.6 8.40004 10.8 9.10004 10.8 10C10.8 10.9 10.5 11.7 9.89995 12.4C9.29995 13.2 8.09995 13.6 6.29995 13.6ZM3.59995 5.90004H4.99995C5.79995 5.90004 6.39995 5.80004 6.79995 5.60004C7.19995 5.40004 7.39995 5.10004 7.39995 4.50004C7.39995 3.90004 7.19995 3.60004 6.89995 3.40004C6.49995 3.20004 5.89995 3.10004 5.09995 3.10004H3.69995V5.90004H3.59995ZM3.59995 11.1H5.59995C6.39995 11.1 6.99995 11 7.39995 10.8C7.79995 10.6 7.99995 10.2 7.99995 9.60004C7.99995 9.00004 7.79995 8.60004 7.29995 8.40004C6.89995 8.20004 6.19995 8.10004 5.19995 8.10004H3.49995L3.59995 11.1Z" />
    <path
        d="M21.5 0.600037V3.20004H15.1V5.90004H20.9V8.40004H15.1V11.1H21.7V13.7H12.2V0.700037H21.5V0.600037Z"
    />
    <path
        d="M32.2 0.600037H35.0999V13.6H32.2L26.1 5.50004V13.6H23.2V0.600037H25.9L32.2 8.90004V0.600037Z"
    />
    <path
        d="M46.9 2.3C48.1 3.4 48.7 5 48.7 7C48.7 9 48.1 10.6 46.9 11.8C45.7 13 43.9 13.6 41.4 13.6H37V0.699997H41.5C43.9 0.599997 45.7 1.2 46.9 2.3ZM44.8 10C45.5 9.3 45.9 8.4 45.9 7.1C45.9 5.8 45.5 4.8 44.8 4.2C44.1 3.5 43 3.2 41.6 3.2H40V11.1H41.8C43.1 11 44.1 10.7 44.8 10Z"
    />
    <path d="M50.2 0.600037H53.0999V13.6H50.2V0.600037Z"
    />
    <path
        d="M64.1 0.600037H67V13.6H64.1L58 5.50004V13.6H55.1V0.600037H57.8L64.1 8.90004V0.600037Z"
    />
    <path
        d="M77.3999 7.00002H80.2999V11.6C78.9999 13 77.2999 13.8 74.9999 13.8C73.0999 13.8 71.4999 13.2 70.2999 11.9C68.9999 10.7 68.3999 9.00002 68.3999 7.10002C68.3999 5.20002 69.0999 3.60002 70.3999 2.30002C71.6999 1.00002 73.2999 0.400024 75.0999 0.400024C76.8999 0.400024 78.4999 1.00002 79.8999 2.30002L78.3999 4.50002C77.7999 4.00002 77.2999 3.70002 76.7999 3.50002C76.2999 3.30002 75.7999 3.20002 75.1999 3.20002C74.0999 3.20002 73.1999 3.60002 72.3999 4.30002C71.6999 5.00002 71.2999 6.00002 71.2999 7.30002C71.2999 8.50002 71.6999 9.50002 72.3999 10.2C73.0999 10.9 73.9999 11.3 74.9999 11.3C75.9999 11.3 76.7999 11.1 77.4999 10.7L77.3999 7.00002Z"
    />
    <path
        d="M90.7 3.20002C90.4 3.40002 90.3 3.70002 90.3 4.10002C90.3 4.50002 90.5 4.80002 90.8 5.00002C91.1 5.20002 91.9 5.50002 93.1 5.80002C94.3 6.10002 95.3 6.50002 95.9 7.10002C96.6 7.70002 96.9 8.60002 96.9 9.80002C96.9 11 96.5 11.9 95.6 12.6C94.7 13.3 93.6 13.7 92.2 13.7C90.2 13.7 88.3 12.9 86.7 11.4L88.4 9.30002C89.8 10.5 91.1 11.2 92.2 11.2C92.7 11.2 93.1 11.1 93.4 10.9C93.7 10.7 93.8 10.4 93.8 10C93.8 9.60002 93.6 9.30003 93.3 9.10003C93 8.90003 92.4 8.60002 91.4 8.40002C89.9 8.00002 88.8 7.60002 88.1 7.00002C87.4 6.40002 87.1 5.50002 87.1 4.30002C87.1 3.10002 87.5 2.10002 88.4 1.40002C89.3 0.700024 90.4 0.400024 91.7 0.400024C92.6 0.400024 93.4 0.500024 94.3 0.800024C95.2 1.10002 95.9 1.50002 96.5 2.00002L95 4.10002C93.9 3.30002 92.7 2.80002 91.5 2.80002C91.4 2.90002 91 3.00002 90.7 3.20002Z"
    />
    <path
        d="M107.2 1.80004C108.1 2.60004 108.5 3.80004 108.5 5.40004C108.5 7.00004 108 8.20004 107.1 8.90004C106.2 9.60004 104.8 10 102.9 10H101.2V13.6H98.2999V0.700038H102.8C104.8 0.600038 106.3 1.00004 107.2 1.80004ZM105.1 6.90004C105.4 6.50004 105.6 6.00004 105.6 5.20004C105.6 4.50004 105.4 3.90004 104.9 3.60004C104.5 3.30004 103.8 3.10004 102.8 3.10004H101.2V7.40004H103.1C104.1 7.50004 104.7 7.30004 105.1 6.90004Z"
    />
    <path
        d="M143.1 0.600037H146V13.6H143.1L137 5.50004V13.6H134.1V0.600037H136.8L143.1 8.90004V0.600037Z"
    />
    <path
        d="M151 3.20002C150.7 3.40002 150.6 3.70002 150.6 4.10002C150.6 4.50002 150.8 4.80002 151.1 5.00002C151.4 5.20002 152.2 5.50002 153.4 5.80002C154.6 6.10002 155.6 6.50002 156.2 7.10002C156.9 7.70002 157.2 8.60002 157.2 9.80002C157.2 11 156.8 11.9 155.9 12.6C155 13.3 153.9 13.7 152.5 13.7C150.5 13.7 148.6 12.9 147 11.4L148.7 9.30002C150.1 10.5 151.4 11.2 152.5 11.2C153 11.2 153.4 11.1 153.7 10.9C154 10.7 154.1 10.4 154.1 10C154.1 9.60002 153.9 9.30003 153.6 9.10003C153.3 8.90003 152.7 8.60002 151.7 8.40002C150.2 8.00002 149.1 7.60002 148.4 7.00002C147.7 6.40002 147.4 5.50002 147.4 4.30002C147.4 3.10002 147.8 2.10002 148.7 1.40002C149.6 0.700024 150.7 0.400024 152 0.400024C152.9 0.400024 153.7 0.500024 154.6 0.800024C155.5 1.10002 156.2 1.50002 156.8 2.00002L155.3 4.10002C154.2 3.30002 153 2.80002 151.8 2.80002C151.7 2.90002 151.3 3.00002 151 3.20002Z"
    />
</svg>
