<svg width="493" height="132" viewBox="0 0 493 132" fill="none">
	<path
		d="M307.3 99.1999H293.5V85.9999H308.2V86.0999C311.5 86.4999 314 89.2999 314 92.5999C313.9 96.2999 311 99.1999 307.3 99.1999ZM314.2 107.4C319.9 104.7 323.6 98.8999 323.6 92.5999C323.6 83.5999 316.4 76.2999 307.4 76.2999H307.2H289.2C286.2 76.3999 283.7 78.9999 283.7 81.9999V131.8H293.5V108.9H303.4L312.7 131.8H323.2L313.4 107.7L314.2 107.4Z"
		fill="#004388" />
	<path
		d="M476.5 99.1999H462.7V85.9999H477.3V86.0999C480.6 86.4999 483.1 89.2999 483.1 92.5999C483.1 96.2999 480.1 99.1999 476.5 99.1999ZM476.7 76.2999H476.5H458.5C455.5 76.3999 453 78.9999 453 81.9999V131.8H462.8V108.9H476.8C479.9 108.9 482.8 108 485.3 106.4L486.1 105.8C490.4 102.7 492.9 97.7999 492.9 92.5999C492.8 83.5999 485.6 76.2999 476.7 76.2999Z"
		fill="#004388" />
	<path
		d="M369.5 116.9C366 120.4 361.7 122.1 356.5 122.1C351.4 122.1 347 120.4 343.6 117C340.2 113.6 338.5 109.3 338.5 104.2C338.5 98.8999 340.2 94.5999 343.6 91.1999C347 87.7999 351.4 86.0999 356.7 86.0999C361.7 86.0999 366.1 87.7999 369.5 91.2999C372.9 94.6999 374.7 98.9999 374.7 104C374.7 109.1 372.9 113.5 369.5 116.9ZM356.3 76.2999C348.3 76.2999 341.6 78.9999 336.4 84.1999C331.2 89.4999 328.5 96.1999 328.5 104.3C328.5 112.1 331.1 118.8 336.3 124C341.5 129.2 348.1 131.8 355.9 131.8C364 131.8 370.9 129.2 376.3 124C381.7 118.8 384.4 112.1 384.4 104.2C384.4 96.2999 381.7 89.5999 376.4 84.2999C371 78.9999 364.3 76.2999 356.3 76.2999Z"
		fill="#004388" />
	<path
		d="M267.1 122.1H249.3C239.3 122.1 231.1 114 231.1 104.1C231.1 94.1999 239.2 86.0999 249.3 86.0999H253.7V76.3999H249.3C233.9 76.3999 221.4 88.7999 221.4 104.1C221.4 119.4 233.9 131.8 249.3 131.8H271.6C274.5 131.6 276.8 129.3 277 126.4V99.1999H255.6V108.9H267.2V122.1H267.1Z"
		fill="#004388" />
	<path
		d="M400.2 104V76.3999H396C393 76.4999 390.6 78.8999 390.4 81.8999V104C390.4 119.4 402.9 131.9 418.2 131.9C433.5 131.9 446 119.4 446 104V76.3999H436.3V104C436.3 114 428.2 122.1 418.2 122.1C408.3 122.1 400.2 114 400.2 104Z"
		fill="#004388" />
	<path
		d="M28.5 122.1H10.7V85.9999H28.5C38.5 85.9999 46.7 94.0999 46.7 104C46.7 114 38.5 122.1 28.5 122.1ZM28.5 76.2999H6.30003C3.40003 76.4999 1.00002 78.8999 0.900024 81.8999V131.8H28.5C43.9 131.8 56.4 119.4 56.4 104.1C56.4 88.7999 43.9 76.2999 28.5 76.2999Z"
		fill="#004388" />
	<path
		d="M136.9 122.1H119.1V85.9999H136.9C146.9 85.9999 155.1 94.0999 155.1 104C155 114 146.9 122.1 136.9 122.1ZM136.9 76.2999H114.7C111.8 76.4999 109.4 78.8999 109.3 81.8999V131.8H136.9C152.3 131.8 164.8 119.4 164.8 104.1C164.8 88.7999 152.3 76.2999 136.9 76.2999Z"
		fill="#004388" />
	<path
		d="M62.4 131.8H102.3V122.1H72.2V108.9H102.3V99.1999H72.2V85.9999H102.3V76.2999H67.9C64.8 76.3999 62.3 78.9999 62.3 81.9999V131.8H62.4Z"
		fill="#004388" />
	<path
		d="M181.8 110.7L193 83.0999L204.2 110.7H181.8ZM191.4 76.2999C188.1 76.2999 184.2 79.0999 182.8 82.3999L181.7 85.0999L162.6 131.8H173.1L177.8 120.3H208.1L212.8 131.8H223.3L200.7 76.2999H191.4Z"
		fill="#004388" />
	<path
		d="M438.8 51.1999C438.5 51.1999 438.2 51.2 437.9 51.3L408.2 53.3C419.2 47.9 431.6 41.9 434.9 40.3C435.2 40.2 435.5 40 435.8 39.9C439.4 37.8 440.7 33.1999 438.6 29.5999C436.5 25.9999 431.8 24.8 428.2 26.9C427.9 27.1 427.7 27.2 427.4 27.4L402.8 43.9C409.6 33.8 417.3 22.5 419.4 19.5C419.6 19.3 419.8 18.9999 419.9 18.6999C422 15.0999 420.8 10.5 417.1 8.39995C413.5 6.29995 408.8 7.59995 406.7 11.2C406.5 11.5 406.4 11.8 406.3 12L393.2 38.5999C394 26.4999 395 12.7999 395.2 9.09995C395.2 8.79995 395.3 8.49995 395.3 8.19995C395.3 3.99995 391.9 0.699951 387.7 0.699951C383.5 0.699951 380.1 4.09995 380.1 8.19995C380.1 8.49995 380.1 8.79995 380.2 9.09995L382.2 38.5999C376.8 27.6999 370.7 15.2999 369.1 12.0999C369 11.7999 368.8 11.4999 368.7 11.2999C366.6 7.69995 362 6.49995 358.3 8.49995C354.7 10.6 353.4 15.2 355.5 18.8C355.7 19.1 355.8 19.2999 356 19.5999L372.6 44.1999C362.4 37.3999 350.9 29.6999 347.8 27.6999C347.6 27.4999 347.3 27.2999 347 27.1999C343.4 25.0999 338.7 26.4 336.6 30C334.5 33.6 335.8 38.2 339.4 40.3C339.7 40.5 340 40.5999 340.2 40.6999L366.9 53.6999C354.7 52.8999 341 51.8999 337.3 51.6999C337 51.6999 336.7 51.5999 336.4 51.5999C332.2 51.5999 328.8 54.9999 328.8 59.0999C328.8 63.2999 332.2 66.5999 336.4 66.5999C336.7 66.5999 337 66.6 337.3 66.5L387.6 63.1999C387.6 63.0999 430.9 65.9999 437.9 66.3999C438.2 66.3999 438.5 66.5 438.8 66.5C443 66.5 446.4 63.1 446.4 58.9C446.4 54.6 443 51.1999 438.8 51.1999Z"
		fill="#004388" />
</svg>