<svg width="708" height="451" viewBox="0 0 708 451" fill="none" xmlns="http://www.w3.org/2000/svg">
  <path d="M8.48001 449.65V432.38H2.27002V428.4H19.23V432.38H13.05V449.65H8.49002H8.48001Z"
  />
  <path
    d="M38.43 449.65V440.73H28.39V449.65H23.86V428.39H28.39V436.74H38.43V428.39H42.99V449.65H38.43Z"
  />
  <path
    d="M48.92 449.65V428.39H63.9601V432.28H53.44V436.9H63.73V440.79H53.44V445.73H63.9601V449.65H48.92Z"
  />
  <path
    d="M79.16 449.65V428.39H87.54C94.2 428.39 98.82 432.63 98.82 439.04C98.82 445.45 94.2 449.65 87.54 449.65H79.16ZM83.69 445.67H87.55C91.76 445.67 94.21 442.64 94.21 439.04C94.21 435.44 91.92 432.38 87.55 432.38H83.69V445.67Z"
  />
  <path d="M103.8 449.65V428.39H108.33V449.65H103.8Z" />
  <path
    d="M124.58 428.04C128.98 428.04 131.75 430.18 133.38 432.69L129.62 434.73C128.63 433.23 126.82 432.05 124.58 432.05C120.72 432.05 117.92 435.01 117.92 439.03C117.92 443.05 120.72 446.01 124.58 446.01C126.52 446.01 128.25 445.21 129.17 444.38V441.8H123.5V437.91H133.64V446.04C131.47 448.46 128.44 450.06 124.59 450.06C118.38 450.06 113.28 445.73 113.28 439.03C113.28 432.33 118.38 428.03 124.59 428.03L124.58 428.04Z"
  />
  <path d="M138.98 449.65V428.39H143.51V449.65H138.98Z" />
  <path d="M154.37 449.65V432.38H148.16V428.4H165.12V432.38H158.94V449.65H154.38H154.37Z"
  />
  <path
    d="M182.61 449.65L181.27 445.98H171.77L170.43 449.65H165.46L173.68 428.39H179.35L187.54 449.65H182.6H182.61ZM176.52 432.31L172.98 442.06H180.02L176.51 432.31H176.52Z"
  />
  <path d="M191.28 449.65V428.39H195.81V445.66H204.8V449.64H191.29L191.28 449.65Z" />
  <path d="M224.52 449.65V432.38H218.31V428.4H235.27V432.38H229.09V449.65H224.53H224.52Z"
  />
  <path
    d="M251.93 449.65L247.75 442.03H244.44V449.65H239.91V428.39H249.85C254.28 428.39 256.99 431.29 256.99 435.24C256.99 439.19 254.63 441.01 252.34 441.55L257.12 449.65H251.92H251.93ZM249.19 432.28H244.44V438.14H249.19C251.01 438.14 252.38 436.99 252.38 435.21C252.38 433.43 251.01 432.28 249.19 432.28Z"
  />
  <path
    d="M277.04 449.65L275.7 445.98H266.2L264.86 449.65H259.89L268.11 428.39H273.78L281.97 449.65H277.03H277.04ZM270.95 432.31L267.41 442.06H274.45L270.94 432.31H270.95Z"
  />
  <path
    d="M300.37 449.65L290.24 435.37V449.65H285.71V428.39H290.36L300.21 442.16V428.39H304.74V449.65H300.37Z"
  />
  <path
    d="M311.71 443.21C313.21 444.77 315.53 446.08 318.47 446.08C320.96 446.08 322.17 444.9 322.17 443.69C322.17 442.1 320.32 441.55 317.87 440.98C314.4 440.18 309.93 439.23 309.93 434.48C309.93 430.94 312.99 428.07 317.99 428.07C321.37 428.07 324.17 429.09 326.28 431.03L323.76 434.34C322.04 432.75 319.74 432.01 317.67 432.01C315.6 432.01 314.55 432.9 314.55 434.18C314.55 435.61 316.33 436.06 318.79 436.63C322.3 437.43 326.76 438.48 326.76 443.2C326.76 447.09 323.99 450.02 318.25 450.02C314.17 450.02 311.24 448.65 309.23 446.64L311.72 443.2L311.71 443.21Z"
  />
  <path
    d="M331.57 449.65V428.39H346.61V432.28H336.09V436.9H346.38V440.79H336.09V449.65H331.56H331.57Z"
  />
  <path
    d="M361.59 428.04C368.03 428.04 372.71 432.63 372.71 439.04C372.71 445.45 368.02 450.04 361.59 450.04C355.16 450.04 350.5 445.45 350.5 439.04C350.5 432.63 355.19 428.04 361.59 428.04ZM361.59 432.06C357.67 432.06 355.15 435.06 355.15 439.04C355.15 443.02 357.67 446.02 361.59 446.02C365.51 446.02 368.06 442.99 368.06 439.04C368.06 435.09 365.51 432.06 361.59 432.06Z"
  />
  <path
    d="M389.67 449.65L385.49 442.03H382.18V449.65H377.65V428.39H387.59C392.02 428.39 394.73 431.29 394.73 435.24C394.73 439.19 392.37 441.01 390.08 441.55L394.86 449.65H389.67ZM386.93 432.28H382.18V438.14H386.93C388.75 438.14 390.12 436.99 390.12 435.21C390.12 433.43 388.75 432.28 386.93 432.28Z"
  />
  <path
    d="M418.38 449.65V434.35L412.39 449.65H410.41L404.42 434.35V449.65H399.89V428.39H406.23L411.39 441.65L416.55 428.39H422.92V449.65H418.36H418.38Z"
  />
  <path
    d="M443.78 449.65L442.44 445.98H432.94L431.6 449.65H426.63L434.85 428.39H440.52L448.71 449.65H443.77H443.78ZM437.69 432.31L434.15 442.06H441.19L437.68 432.31H437.69Z"
  />
  <path d="M455.32 449.65V432.38H449.11V428.4H466.07V432.38H459.89V449.65H455.33H455.32Z"
  />
  <path d="M470.71 449.65V428.39H475.24V449.65H470.71Z" />
  <path
    d="M491.27 428.04C497.71 428.04 502.39 432.63 502.39 439.04C502.39 445.45 497.7 450.04 491.27 450.04C484.84 450.04 480.18 445.45 480.18 439.04C480.18 432.63 484.86 428.04 491.27 428.04ZM491.27 432.06C487.35 432.06 484.83 435.06 484.83 439.04C484.83 443.02 487.35 446.02 491.27 446.02C495.19 446.02 497.74 442.99 497.74 439.04C497.74 435.09 495.19 432.06 491.27 432.06Z"
  />
  <path
    d="M521.99 449.65L511.86 435.37V449.65H507.33V428.39H511.98L521.83 442.16V428.39H526.36V449.65H521.99Z"
  />
  <path
    d="M541.21 439.04C541.21 432.51 546.15 428.04 552.36 428.04C557.2 428.04 559.91 430.59 561.41 433.23L557.52 435.14C556.63 433.42 554.72 432.05 552.36 432.05C548.66 432.05 545.86 435.01 545.86 439.03C545.86 443.05 548.66 446.01 552.36 446.01C554.72 446.01 556.63 444.67 557.52 442.92L561.41 444.8C559.88 447.45 557.2 450.03 552.36 450.03C546.14 450.03 541.21 445.57 541.21 439.03V439.04Z"
  />
  <path
    d="M575.95 428.04C582.39 428.04 587.07 432.63 587.07 439.04C587.07 445.45 582.38 450.04 575.95 450.04C569.52 450.04 564.86 445.45 564.86 439.04C564.86 432.63 569.54 428.04 575.95 428.04ZM575.95 432.06C572.03 432.06 569.51 435.06 569.51 439.04C569.51 443.02 572.03 446.02 575.95 446.02C579.87 446.02 582.42 442.99 582.42 439.04C582.42 435.09 579.87 432.06 575.95 432.06Z"
  />
  <path
    d="M610.49 449.65V434.35L604.5 449.65H602.52L596.53 434.35V449.65H592V428.39H598.34L603.5 441.65L608.66 428.39H615.03V449.65H610.47H610.49Z"
  />
  <path
    d="M621.01 449.65V428.39H630.95C635.57 428.39 638.09 431.51 638.09 435.24C638.09 438.97 635.54 442.03 630.95 442.03H625.53V449.65H621H621.01ZM630.35 432.28H625.54V438.14H630.35C632.13 438.14 633.47 436.99 633.47 435.21C633.47 433.43 632.13 432.28 630.35 432.28Z"
  />
  <path
    d="M655.17 449.65L653.83 445.98H644.33L642.99 449.65H638.02L646.24 428.39H651.91L660.1 449.65H655.16H655.17ZM649.08 432.31L645.54 442.06H652.58L649.07 432.31H649.08Z"
  />
  <path
    d="M678.5 449.65L668.37 435.37V449.65H663.84V428.39H668.49L678.34 442.16V428.39H682.87V449.65H678.5Z"
  />
  <path
    d="M694.76 449.65V440.95L686.57 428.39H691.73L697.02 436.93L702.25 428.39H707.41L699.28 440.95V449.65H694.75H694.76Z"
  />
  <path d="M705.92 403.36H0.780029V407.45H705.92V403.36Z" />
  <path
    d="M2.76001 379.79V314.3H56.41V329.99H24.32V338.71H51.45V353.73H24.32V363.87H57.73V379.78H2.76001V379.79Z"
  />
  <path
    d="M67.8 379.79V314.3H88.26L107.08 344.75C107.66 345.61 108.27 346.82 108.92 348.4C109.58 349.97 110.27 351.87 111.01 354.09C110.82 352.93 110.68 351.66 110.59 350.26C110.5 348.87 110.45 347.18 110.45 345.19V314.29H131.02V379.78H110.45L91.6301 349.55C91.0501 348.66 90.4201 347.4 89.7401 345.77C89.0601 344.14 88.36 342.27 87.67 340.16C87.88 341.32 88.04 342.53 88.12 343.79C88.21 345.04 88.26 346.81 88.26 349.1V379.77H67.8V379.79Z"
  />
  <path
    d="M193.74 379.79L192.69 374.14C190.26 376.66 187.33 378.53 183.89 379.76C180.45 380.99 176.47 381.61 171.91 381.61C162.31 381.61 154.74 378.53 149.21 372.38C143.68 366.23 140.91 357.8 140.91 347.1C140.91 336.4 144 327.68 150.17 321.65C156.34 315.62 164.98 312.6 176.11 312.6C184.86 312.6 191.91 314.72 197.28 318.96C202.64 323.2 205.83 329.17 206.82 336.87H186.35C185.54 334.27 184.2 332.28 182.36 330.91C180.53 329.54 178.26 328.86 175.55 328.86C171.23 328.86 168 330.48 165.86 333.71C163.71 336.93 162.64 341.75 162.64 348.16C162.64 354.09 163.72 358.52 165.87 361.45C168.03 364.39 171.32 365.86 175.72 365.86C178.88 365.86 181.56 365.14 183.76 363.7C185.96 362.26 187.32 360.33 187.84 357.9H178.13V343.9H207.62V379.78H193.72L193.74 379.79Z"
  />
  <path d="M220.21 379.79V314.3H242.18V379.79H220.21Z" />
  <path
    d="M255.31 379.79V314.3H275.77L294.6 344.75C295.17 345.61 295.79 346.82 296.44 348.4C297.09 349.97 297.79 351.87 298.51 354.09C298.33 352.93 298.19 351.66 298.1 350.26C298.02 348.87 297.97 347.18 297.97 345.19V314.29H318.52V379.78H297.97L279.15 349.55C278.56 348.66 277.94 347.4 277.25 345.77C276.57 344.14 275.87 342.27 275.17 340.16C275.38 341.32 275.54 342.53 275.63 343.79C275.73 345.04 275.77 346.81 275.77 349.1V379.77H255.31V379.79Z"
  />
  <path
    d="M331.28 379.79V314.3H384.94V329.99H352.85V338.71H379.98V353.73H352.85V363.87H386.26V379.78H331.28V379.79Z"
  />
  <path
    d="M396.33 379.79V314.3H449.98V329.99H417.89V338.71H445.02V353.73H417.89V363.87H451.3V379.78H396.33V379.79Z"
  />
  <path
    d="M461.37 379.79V314.3H493.5C503.55 314.3 510.73 315.77 515.03 318.7C519.33 321.64 521.48 326.45 521.48 333.15C521.48 337.15 520.6 340.47 518.84 343.11C517.08 345.75 514.36 347.83 510.68 349.38C514.42 350.15 517.14 351.68 518.84 353.94C520.54 356.21 521.45 359.54 521.57 363.92L521.93 373.04C521.93 373.09 521.95 373.17 521.98 373.26C522.08 375.86 522.71 377.23 523.9 377.35V379.8H502.15C501.76 378.23 501.47 376.86 501.27 375.69C501.07 374.52 500.97 373.61 500.97 372.96V366.42C500.97 363.04 500.29 360.66 498.92 359.28C497.55 357.91 495.18 357.22 491.82 357.22H482.65V379.8H461.37V379.79ZM482.65 342.44H492.45C495.89 342.44 498.25 341.99 499.56 341.08C500.87 340.17 501.52 338.6 501.52 336.35C501.52 334.1 500.87 332.43 499.56 331.52C498.25 330.62 495.7 330.17 491.9 330.17H482.64V342.44H482.65Z"
  />
  <path d="M532.98 379.79V314.3H554.94V379.79H532.98Z" />
  <path
    d="M568.06 379.79V314.3H588.53L607.36 344.75C607.94 345.61 608.55 346.82 609.21 348.4C609.86 349.97 610.55 351.87 611.28 354.09C611.1 352.93 610.97 351.66 610.87 350.26C610.78 348.87 610.74 347.18 610.74 345.19V314.29H631.28V379.78H610.74L591.91 349.55C591.33 348.66 590.69 347.4 590.01 345.77C589.33 344.14 588.64 342.27 587.94 340.16C588.15 341.32 588.3 342.53 588.4 343.79C588.49 345.04 588.53 346.81 588.53 349.1V379.77H568.06V379.79Z"
  />
  <path
    d="M693.99 379.79L692.95 374.14C690.51 376.66 687.58 378.53 684.14 379.76C680.71 380.99 676.72 381.61 672.16 381.61C662.55 381.61 655 378.53 649.46 372.38C643.92 366.23 641.16 357.8 641.16 347.1C641.16 336.4 644.25 327.68 650.41 321.65C656.58 315.62 665.22 312.6 676.35 312.6C685.09 312.6 692.15 314.72 697.52 318.96C702.88 323.2 706.07 329.17 707.07 336.87H686.6C685.78 334.27 684.45 332.28 682.61 330.91C680.78 329.54 678.5 328.86 675.8 328.86C671.49 328.86 668.26 330.48 666.11 333.71C663.97 336.93 662.9 341.75 662.9 348.16C662.9 354.09 663.97 358.52 666.13 361.45C668.29 364.39 671.58 365.86 675.97 365.86C679.13 365.86 681.81 365.14 684.01 363.7C686.22 362.26 687.58 360.33 688.1 357.9H678.4V343.9H707.88V379.78H693.98L693.99 379.79Z"
  />
  <path fill-rule="evenodd" clip-rule="evenodd"
    d="M333.76 267.98H266.19C246.48 267.98 228.42 260.09 215.1 247.09H333.77V267.98H333.76ZM206.18 236.63C202.6 231.55 199.62 225.99 197.37 220.03H333.76V236.63H206.18ZM194.24 209.57C193.03 204.14 192.39 198.45 192.4 192.59H333.75V209.57H194.24ZM193.09 182.12C194.71 169.63 199.23 156.55 207.3 143.42L295.98 27.19C315.23 6.6 330.63 1.74 346.05 0.809998V87.73L275.08 182.12H193.08H193.09Z"
  />
  <path fill-rule="evenodd" clip-rule="evenodd"
    d="M374.9 267.98H442.48C462.19 267.98 480.25 260.09 493.57 247.09H374.9V267.98ZM502.48 236.63C506.06 231.55 509.03 225.99 511.29 220.03H374.9V236.63H502.48ZM514.42 209.57C515.63 204.14 516.26 198.45 516.25 192.59H374.9V209.57H514.42ZM515.56 182.12C513.94 169.63 509.42 156.55 501.35 143.42L412.67 27.19C393.43 6.6 378.02 1.74 362.6 0.809998V87.73L433.57 182.12H515.57H515.56Z"
  />
</svg>