<svg fill="none" viewBox="0 0 55 55">
  <path
    d="M13.75 12.4941C21.34 12.4941 27.5 18.6541 27.5 26.2441V27.4856H1.24143C0.55 27.4856 0 26.9199 0 26.2441C0 18.6541 6.16 12.5099 13.75 12.4941Z"
    fill="#FBBB05" />
  <path
    d="M42.5062 13.75C42.5062 21.34 36.3462 27.5 28.7562 27.5H27.499V1.24143C27.499 0.55 28.0647 0 28.7405 0C36.3462 0 42.5062 6.16 42.5062 13.75Z"
    fill="#E94335" />
  <path
    d="M41.249 42.5071C33.659 42.5071 27.499 36.3471 27.499 28.7571V27.5H53.7576C54.449 27.5 54.999 28.0657 54.999 28.7414C54.999 36.3471 48.8547 42.5071 41.249 42.5071Z"
    fill="#4285F4" />
  <path
    d="M12.4932 41.25C12.4932 33.66 18.6532 27.5 26.2432 27.5H27.4846V53.7586C27.4846 54.45 26.9189 55 26.2432 55C18.6532 55 12.4932 48.84 12.4932 41.25Z"
    fill="#0F9D58" />
</svg>