<svg viewBox="0 0 800 265" fill="none">
  <path d="M43.353 0.0463858C22.7374 0.671386 9.33156 7.60305 4.14406 19.0406C4.14406 19.0406 -26.9848 60.0409 81.3902 157.566V249.705H153.753V213.914C145.628 208.664 137.535 203.046 129.535 196.921C111.035 182.921 95.2866 169.914 81.5366 157.664V118.943C97.9116 137.318 119.66 158.208 148.285 181.833L153.9 186.326V149.07C153.9 140.445 156.001 126.316 167.376 126.316C178.751 126.316 180.658 134.941 180.658 145.066V205.955C203.158 221.205 227.277 233.542 252.777 242.917V125.535C252.777 102.16 235.996 78.8062 201.996 78.8061C182.246 78.6811 163.9 89.0249 153.9 106.15V38.2788C206.275 64.4038 258.802 96.4292 278.802 111.179C266.052 129.429 267.181 146.269 267.181 165.769C267.181 189.144 265.427 208.644 288.177 231.394C310.927 254.144 351.166 252.781 351.166 252.781C351.166 252.781 391.529 254.144 414.154 231.394C436.904 208.644 435.052 189.144 435.052 165.769C435.077 142.644 436.953 123.013 414.203 100.388C391.453 77.6382 351.214 79.0503 351.214 79.0503C351.214 79.0503 310.927 77.6382 288.177 100.388C285.802 102.763 283.585 105.283 281.585 107.908C233.835 70.9077 190.925 49.7905 153.9 31.5405V5.66162L125.775 18.894C91.7749 5.08154 63.9687 -0.578614 43.353 0.0463858ZM707.855 5.51514L635.492 39.646V249.705H707.855V5.51514ZM61.4195 11.1304C77.2837 10.0061 96.898 14.6167 117.914 22.5073L81.3902 39.646V118.796C20.5152 50.6714 32.771 23.7456 37.396 19.8706C43.7241 14.5269 51.9009 11.8049 61.4195 11.1304ZM763.861 32.2729C743.986 32.2729 727.728 43.0132 727.728 62.8882C727.728 82.7632 743.861 99.021 763.861 99.021C783.736 99.021 799.994 82.8882 799.994 62.8882C799.994 42.8882 783.861 32.2729 763.861 32.2729ZM533.734 79.0503C533.734 79.0503 493.322 77.6382 470.697 100.388C447.947 123.138 449.701 142.785 449.701 166.16C449.701 189.535 447.947 209.035 470.697 231.785C493.447 254.535 533.734 253.171 533.734 253.171C533.734 253.171 574.097 254.535 596.722 231.785C619.472 209.035 617.718 189.535 617.718 166.16C617.593 142.66 619.347 123.013 596.722 100.388C573.972 77.6382 533.734 79.0503 533.734 79.0503ZM727.63 111.521V249.705H799.994V111.521H727.63ZM351.214 126.169C355.464 126.169 364.544 128.792 364.544 139.792V190.33C364.544 194.83 362.339 205.955 351.214 205.955C340.089 205.955 337.835 194.83 337.835 190.33V139.792C337.835 128.917 346.964 126.169 351.214 126.169ZM533.587 126.169C537.837 126.169 546.966 128.792 546.966 139.792V190.33C546.966 194.83 544.712 205.955 533.587 205.955C522.462 205.955 520.209 194.83 520.209 190.33V139.792C520.209 128.917 529.337 126.169 533.587 126.169ZM180.56 229.685V249.705L228.412 250.681C211.912 244.931 195.935 237.935 180.56 229.685ZM228.412 250.681C274.037 266.306 315.795 268.416 346.82 259.666C321.92 259.916 289.554 256.439 252.679 243.064V249.705L228.412 250.681Z" />
</svg>
