<?xml version="1.0" encoding="UTF-8"?>
<svg id="Layer_1" data-name="Layer 1" xmlns="http://www.w3.org/2000/svg" viewBox="0 0 1920 1080">
  <defs>
    <style>
      .cls-1 {
        fill: #0556a1;
      }

      .cls-1, .cls-2 {
        stroke-width: 0px;
      }

      .cls-2 {
        fill: #0156a4;
      }
    </style>
  </defs>
  <path class="cls-2" d="M362.54,783.51l.16.29s-.22.25-.22.25c-2.22.19-2.48,1.69-2.68,3.55-.96,8.81-1.43,9.17-10.54,9.17-38.08.03-76.16.05-114.24.08-17.68-1.33-33-8.84-47.07-18.89-44.36-31.69-68.72-74.92-70.33-129.39-1.96-66.27,38.51-130.55,100.99-150.78,9.11-2.95,11.44-6.38,11.4-16.52-.12-30.73,9.96-57.37,32.59-78.44,32.21-29.99,88.06-37.61,124.93-10.59,8.13,5.96,10.04,5.45,15.52-3.18,22.57-35.55,51.67-64.28,88.96-84.13,32.25-17.17,66.89-25.97,103.42-26.98,90.53-2.5,159.33,36.73,209.39,110.51,18.17,26.78,28.14,57.22,32.97,89.1,1.52,10.07,5.61,15.19,15.45,18.61,60.38,21.02,96.06,63.81,106.31,126.56,6.7,41.02-4.05,78.79-27.39,113.12-21.79,32.05-51.12,52.97-89.06,61.53-6.04,1.36-12.2,1.14-18.32,1.15-21.4.03-42.79.09-64.19.03-13.28-.04-14.16-.97-14.03-11.9.07-6-3.95-9.73-9.4-11.41-4.01-1.23-8.24-2.01-12.43-2.36-4.87-.41-6.65-3-6.72-7.45-.04-2.75-.17-5.5-.17-8.26,0-72.66,0-145.31-.03-217.97,0-4.87-.23-9.74-.59-14.59-.64-8.54-3.58-11.83-12.06-13.95q-14.51-3.62-14.51-18.48c-.01-9.11.14-18.22-.13-27.32-.46-15.46-5.46-20.28-21.07-20.39-35.59-.24-71.19-.45-106.78-.53-41.53-.09-83.06-.02-124.59-.02-1.06,0-2.12-.04-3.18,0-16.81.61-21.71,5.67-21.76,22.55-.04,10.8-.05,21.61-.04,32.41,0,4.86-1.29,9.15-6.61,10.17-12.78,2.45-15.03,8.99-15.02,21.04.07,75.41.03,150.82.04,226.23,0,16.59-1.01,17.61-17.67,17.47-.39-.64-.78-1.82-1.15-1.81-1.48.03-1.15,1.28-1.11,2.25,0,0-.02-.07-.02-.08-7.77-.41-9.24,1.12-9.01,9.33Z"/>
  <path class="cls-2" d="M1026.15,316.37c8.67-.1,17.34-.29,26.01-.29,7.44,0,9.76,2.28,9.78,9.98.05,21.18-.07,42.36-.1,63.54,0,2.96-.08,5.94.12,8.89.39,5.79,3.64,9.01,9.4,9.04,24.57.1,49.14.01,73.71.05,2.69,0,4.85-1.32,7.16-2.3,4.51.13,3.59-3.2,3.6-5.79.03-23.5-.06-46.99.09-70.49.03-4.58.59-9.76,6.72-10.1,7.81-.42,15.67-.31,23.49-.04,6.92.24,10.39,4.28,10.39,11.4,0,66.04,0,132.08,0,198.13,0,7.63-3.94,11.55-11.54,11.59-6.56.03-13.13.02-19.69,0-8.22-.02-9.43-1.25-9.43-9.68-.01-24.55-.04-49.11.02-73.66.01-4.58-1.17-7.91-6.48-8.11,0,0,.02.02.02.02-.67-4.01-3.87-2.56-6.08-2.57-23.94-.1-47.88-.06-71.83-.06-10.48,0-12.31,1.8-12.31,12.32-.01,24.57-.06,49.14.04,73.71.02,5.58-2.33,8.17-7.96,8.07-7.41-.13-14.83-.03-22.25-.03-9.68,0-10.52-.84-10.52-10.53,0-64.18.09-128.36-.11-192.54-.03-8.1.27-15.52,7.74-20.54Z"/>
  <path class="cls-1" d="M1400.78,458.47c-.41,21.85-4.7,41.59-17.84,58.61-14.07,18.23-33.22,27.11-55.59,29.13-15.01,1.35-30.01.42-44.44-4.88-22.8-8.38-36.94-24.7-43.29-47.77-6.73-24.43-7.36-48.92,2.61-72.72,11.84-28.24,33.69-43.73,63.78-47.47,24.99-3.1,48.06,2.08,67.54,18.81,16.6,14.26,24.12,33.22,26.46,54.53.46,4.2.56,8.45.77,11.76ZM1280.4,456.66c0,13.73,1.94,24.29,6.35,34.28,5.41,12.26,15.13,17.96,28.42,18.78,15.06.94,27.25-4.1,33.46-17.92,9.36-20.82,9.31-42.35.11-63.4-6.5-14.87-19.45-19.42-34.35-18.91-13.22.45-22.82,7.46-27.88,19.71-3.97,9.62-6.16,19.76-6.1,27.46Z"/>
  <path class="cls-1" d="M1659.74,474.54c-21.16,0-42.33-.02-63.49,0-11.42.02-13.02,2.34-9.35,13.34,4.51,13.49,16.52,21.77,32.82,22.56,15.55.75,30.26-2.34,44.14-9.49,6.28-3.24,8.82-2.42,12.36,3.76,2.73,4.76,5.09,9.73,6.77,14.99,1.49,4.66.38,8.65-3.85,10.99-33.79,18.71-68.76,23.57-104.29,5.88-20.7-10.31-29.9-29.68-34.26-51.5-5.8-28.99-2.27-56.49,14.79-81.24,23.74-34.43,79.29-42.14,111.4-15.52,15.94,13.21,21.38,31.56,22.99,51.25.74,9.05.2,18.2.29,27.31.06,5.93-3.09,8.39-8.72,8.36-7.2-.03-14.41,0-21.61,0,0-.23,0-.45,0-.68ZM1617.43,443.31s0-.09,0-.13c7.2,0,14.4.02,21.6,0,9.28-.03,11.64-2.95,9.7-11.98-3.51-16.35-16.08-26-32.39-24.87-15.23,1.05-29.52,15.02-30.7,29.84-.42,5.28,1.9,7.29,7.01,7.19,8.26-.16,16.52-.04,24.78-.04Z"/>
  <path class="cls-1" d="M1486.68,459.83c0,12.71-.11,25.42.02,38.12.14,13.29,3.95,16.39,17.26,14.51,2.3-.32,4.66-.27,6.96-.6,4.27-.61,6.51,1.58,7.11,5.4.88,5.63,1.5,11.31,2,17,.36,4.06-1.44,7.07-5.47,8.21-15.06,4.25-30.53,5.87-45.84,3.06-15.44-2.83-24.26-15.22-24.32-31.95-.12-30.07.01-60.15.02-90.22,0-12.61-.96-13.61-13.85-13.3-4.82.12-7.64-1.87-8.53-6.56-.79-4.19-.96-8.45-.41-12.65.6-4.64,3.31-7.83,7.98-8.74,11.7-2.26,16.56-9.44,16.65-21.1.06-8.01,1.43-16.01,1.96-24.03.34-5.25,3.15-7.69,8.09-7.8,7.62-.16,15.24-.15,22.86-.04,5.03.07,7.75,2.43,7.67,7.87-.15,9.95-.1,19.9.08,29.85.17,9.25,1.24,10.17,10.31,10.19,4.02,0,8.06-.14,12.07.1,4.95.29,7.81,2.88,7.78,8.1-.03,5.29-.16,10.59-.02,15.88.17,6.24-3.07,8.82-8.94,8.8-3.6-.01-7.2-.2-10.8-.14-8.18.13-10.58,2.52-10.62,10.63-.05,13.13-.01,26.26-.02,39.39Z"/>
  <path class="cls-1" d="M1787.9,689.81c0-15.91,0-30.22,0-44.54,0-3.81-.07-7.63.09-11.43.22-5.08,3.38-6.98,8.05-6.73,4.47.23,6.07,2.9,6.05,7.22-.09,19.9-.03,39.81-.04,59.71,0,32.19.01,64.37-.03,96.56,0,3.77.39,7.93-4.9,8.88-5.84,1.05-8.46-1.12-9.24-7.33-.23-1.85,1.26-4.48-1.67-5.41-2.32-.74-3.27,1.46-4.66,2.63-18.22,15.39-42.49,17.99-62.78,4.55-10.16-6.73-16.37-17.23-19.73-29.22-5.75-20.51-5.64-40.97,1.85-60.85,13.21-35.08,52.06-44.38,80.52-19.73,1.72,1.49,3.42,3,6.49,5.7ZM1787.59,737.83c.26-5.7.67-11.39.76-17.09.25-15.66-12.98-30.22-31.14-34.45-16.75-3.89-31.56,3.02-38.73,18.54-9.88,21.41-9.63,43,.32,64.29,6.48,13.87,20.13,20.51,36.88,18.72,15.34-1.64,27.57-12.2,31.09-26.62,1.89-7.75.6-15.6.81-23.39Z"/>
  <path class="cls-1" d="M1252.39,713.03c-.58,15.63,3.31,30.47,9.79,44.67,10.85,23.76,36.74,35.24,62.57,28.15,10.85-2.98,20.52-7.81,28.21-16.16,3.11-3.38,6.39-2.75,9.6-.41,3.44,2.52,4.06,5.89,1.78,9.47-1.23,1.93-2.79,3.77-4.55,5.23-21.11,17.4-45.36,22.3-71.49,15.99-21.19-5.12-35.53-19.28-43.34-39.38-11.17-28.74-12.64-58.08-2.77-87.54,14.59-43.55,63.99-62.52,101.88-39.23,13.31,8.18,20.51,20.35,22.75,35.63.51,3.48,0,6.44-4.16,7.21-3.94.73-8.11,2.07-10.64-2.64-.79-1.47-1.2-3.16-1.68-4.77-5.98-19.95-18.65-29.59-39.51-30.05-26.46-.58-43,11.54-52.62,38.9-3.95,11.23-6.29,22.81-5.83,34.95Z"/>
  <path class="cls-1" d="M1489.95,802.03c-25.21,1.68-44.05-14.98-50.46-36.89-6.49-22.15-5.88-43.93,3.86-64.89,8.7-18.73,24.18-28.43,44.71-29.21,21.18-.81,39.09,6.38,49.49,25.71,14.19,26.37,14.5,53.48-.06,79.92-10.17,18.47-26.67,26.33-47.54,25.36ZM1491.7,788.03c16.11.03,27.28-7.58,33.81-22.12,8.31-18.49,8.39-37.18,1.09-56.03-6.18-15.94-19.69-25.29-36.06-24.71-17.09.61-30.56,11.1-35.28,27.74-4.48,15.84-5.72,31.53-.28,47.68,5.76,17.08,18.65,27.4,36.71,27.44Z"/>
  <path class="cls-1" d="M1667.73,735.86c0,18.01.1,36.01-.07,54.02-.04,3.56.74,7.96-4.27,9.51-6.02,1.86-9.59-.75-10.18-7.43-.16-1.81.65-4.23-1.19-5.19-2.23-1.17-3.84.91-5.43,2.29-12.98,11.23-28.12,15.11-44.9,12.76-14.61-2.04-26.3-16.04-27.28-33.91-1.59-29.19-1.15-58.42-.46-87.63.12-5.17,3.03-7.04,7.78-7,4.89.04,7.57,2.71,7.7,7.34.25,8.68.07,17.37.08,26.05,0,16.1.01,32.2.03,48.3,0,1.91-.03,3.82.09,5.72,1.53,24.14,20.09,34.5,41.54,23.27,15.25-7.97,23.35-19.38,22.3-37.65-1.21-21.12-.4-42.35-.5-63.53-.02-5.11.75-9.38,7.34-9.47,6.55-.09,7.49,3.89,7.46,9.17-.1,17.79-.04,35.59-.03,53.38Z"/>
  <path class="cls-1" d="M1079.38,690.47c6.74-5.15,12.16-9.79,18.35-13.45,27.92-16.5,57.33-2.37,60.75,29.7,3.03,28.48,1.07,57.09,1.35,85.64.05,5.22-2.76,7.7-7.97,7.61-6.01-.1-7.29-3.96-7.3-8.94-.06-23.29-.14-46.59-.23-69.88-.02-5.95-.89-11.8-2.38-17.55-3.53-13.53-15.25-20.72-29-17.86-20.43,4.24-32.07,18.55-32.07,39.41,0,21.6-.01,43.2-.01,64.81,0,3.46-.14,6.96-3.45,9.02-5.45,3.39-12.02-.14-12.03-6.67-.09-37.27-.02-74.55-.03-111.82,0-4.63,1.99-7.09,6.86-7.08,4.78,0,7.01,2.39,7.15,6.96.09,2.95.02,5.9.02,10.1Z"/>
  <path class="cls-1" d="M558.22,757.21c-10.81,0-21.61.07-32.42-.02-7.38-.06-9.36-2.1-9.39-9.52-.05-10.59-.06-21.18.03-31.77.06-6.94,2.16-9.14,9.16-9.17,22.03-.1,44.07-.1,66.1-.03,6.5.02,8.61,2.25,8.66,8.87.08,10.8.08,21.61,0,32.41-.05,6.95-2.17,9.13-9.1,9.2-11.02.12-22.03.03-33.05.03Z"/>
  <path class="cls-1" d="M457.22,551.38c5.92,0,11.84.09,17.76-.03,4.94-.1,7.76,2.21,7.82,7.05.14,12.25.07,24.51-.07,36.77-.05,4.66-2.36,7.61-7.36,7.64-12.47.08-24.95.15-37.42.13-4.17,0-6.27-2.61-6.32-6.45-.17-12.67-.24-25.34-.03-38.01.08-4.72,2.94-7.2,7.87-7.12,5.92.1,11.84.02,17.76.02Z"/>
  <path class="cls-1" d="M630.62,577.57c0-5.29-.08-10.59.02-15.88.13-7.05,2.44-10.03,9.27-9.96,11.22.12,22.43.1,33.65.02,6.22-.04,8.98,3.41,8.67,10.06-.47,10.14-.41,20.25-.04,30.39.27,7.48-2.74,10.67-10.08,10.78-10.59.16-21.19.14-31.78,0-7.39-.1-9.63-2.57-9.72-10.15-.06-5.08-.01-10.17-.01-15.25h.03Z"/>
  <path class="cls-1" d="M1392.09,713.87c0-25.63-.01-51.27.01-76.9,0-4.35.05-8.68,6.03-9.36,6.73-.75,9.34,1.55,9.37,9.22.09,26.27.06,52.54.06,78.8,0,25,0,49.99,0,74.99,0,3.66-.04,7.29-4.27,9.01-6.07,2.46-11.12-1.1-11.15-8.24-.08-25.84-.03-51.69-.03-77.53h-.02Z"/>
  <path class="cls-1" d="M658.25,631.31c5.49,0,10.98-.01,16.48,0,4.16.01,6.71,1.6,7.07,6.24.89,11.82.52,23.63.22,35.44-.13,5.42-3.15,8.32-8.87,8.24-9.72-.14-19.44.09-29.15-.18-9.55-.27-12.58-3.01-13.06-12.46-.44-8.84-.38-17.74.08-26.58.38-7.47,3.34-10.12,10.76-10.49,5.48-.27,10.98-.05,16.47-.05,0-.05,0-.1,0-.15Z"/>
  <path class="cls-1" d="M555.75,602.97c-5.5,0-10.99.11-16.49-.03-5.3-.14-8.12-2.73-8.01-8.34.18-9.72-.02-19.44.25-29.16.28-10,2.9-13.13,12.71-13.6,9.67-.46,19.41-.95,29.1.52,4.79.73,7.41,3.6,7.6,7.95.5,11.57.79,23.16.54,34.73-.13,5.96-3.66,8.25-10.51,8.29-5.06.03-10.12,0-15.18,0,0-.12,0-.24,0-.37Z"/>
  <path class="cls-1" d="M430.98,732.74c.12-5.73.37-11.41,1.2-17.07.68-4.61,3.31-7.26,7.78-7.88,11.57-1.6,23.16-1.69,34.73,0,4.25.62,6.74,3.23,7.31,7.54,1.51,11.37,1.56,22.74-.1,34.09-.59,4.06-3.14,6.31-7.18,6.86-11.36,1.54-22.73,1.34-34.1.15-5.52-.58-8.22-3.83-8.65-9.15-.39-4.83-.66-9.68-.99-14.51Z"/>
  <path class="cls-1" d="M631.01,731.97c-.06-5.67-.78-11.35.47-17.03.96-4.37,3.44-6.66,7.63-7.24,11.37-1.56,22.75-1.48,34.12.04,5.18.69,7.84,3.88,8.31,8.87.97,10.32,1.05,20.66.05,30.98-.48,4.94-2.89,8.14-8.25,8.77-10.95,1.28-21.88,1.17-32.84.12-6.22-.6-9-4.3-9.42-9.95-.36-4.83-.07-9.71-.07-14.56Z"/>
  <path class="cls-1" d="M457.46,631.53c5.08,0,10.17-.21,15.24.06,5.5.29,9.07,2.99,9.68,8.9,1.1,10.55,1.03,21.09.01,31.63-.53,5.55-3.9,8.54-9.16,8.67-10.36.27-20.74.31-31.1-.07-6.45-.24-9.68-4.2-10.09-10.76-.59-9.52-.7-19.01.05-28.52.5-6.42,3.96-9.61,10.13-9.88,5.07-.23,10.16-.05,15.24-.05v.02Z"/>
  <path class="cls-1" d="M556.99,631.34c5.93,0,11.86.05,17.79-.03,4-.05,6.51,1.5,6.83,5.74.92,12.25,1.27,24.51-.57,36.7-.72,4.8-4.51,6.61-8.72,6.96-10.13.83-20.32.85-30.45.02-5.78-.47-8.86-3.84-9.55-9.91-1.25-11-.47-21.99-.58-32.99-.04-4.18,2.27-6.6,6.82-6.52,6.14.12,12.28.03,18.42.02Z"/>
  <path class="cls-1" d="M1768.57,430.02c0,32.6,0,65.21,0,97.81,0,13.11-1.82,15.03-15.08,14.87-6.52-.08-13.1.76-19.57-1.14-4.11-1.21-6.38-3.65-7.36-7.78-1.04-4.39-1.05-8.82-1.06-13.25-.04-64.36-.06-128.73-.06-193.09,0-9.26,2.6-11.55,11.76-11.3,6.98.19,13.97.03,20.95-.03,6.97-.06,9.16,1.67,10.11,8.5.35,2.5.28,5.07.28,7.61.02,32.6.01,65.21.01,97.81ZM1766.2,430.02c0-11.01,0-22.02,0-33.03,0-22.45.04-44.89-.02-67.34-.02-8.39-2.53-11.13-10.56-10.78-6.2.27-12.3-.12-18.67,1.26-8.62,1.86-8.9.63-8.9,9.62,0,49.13,0,98.25,0,147.38,0,16.52,0,33.03,0,49.55,0,5.4,1.98,9.27,7.21,11.8,6.17,2.99,12.45,1.11,18.64,1.4,8.5.39,12.28-3.62,12.28-12.03.01-32.61,0-65.22,0-97.83Z"/>
  <path class="cls-1" d="M1149.4,448.52c5.3.2,6.49,3.53,6.48,8.11-.06,24.55-.04,49.11-.02,73.66,0,8.43,1.21,9.66,9.43,9.68,6.56.02,13.13.03,19.69,0,7.6-.03,11.54-3.96,11.54-11.59.01-66.04.01-132.08,0-198.13,0-7.12-3.47-11.16-10.39-11.4-7.82-.27-15.68-.38-23.49.04-6.13.33-6.7,5.52-6.72,10.1-.15,23.49-.05,46.99-.09,70.49,0,2.59.91,5.92-3.6,5.79,2.02-3.42,2.22-7.16,2.19-11.03-.19-21.61-.3-43.22-.41-64.83-.06-11.76,1.97-13.65,13.73-13.36,5.93.15,11.87.17,17.8.07,11.88-.2,13.34,1.23,13.33,13.43-.01,19.49,0,38.98,0,58.47,0,46.82.02,93.64-.01,140.46,0,2.52-.28,5.07-.67,7.56-.69,4.39-3.37,6.68-7.85,6.69-9.54.01-19.07-.04-28.61-.02-7.55.01-7.59-5.46-7.61-10.63-.09-23.52-.03-47.03-.05-70.55,0-4.88.13-9.84-4.66-13.02Z"/>
  <path class="cls-1" d="M1026.15,316.37c-7.47,5.02-7.76,12.44-7.74,20.54.2,64.18.11,128.36.11,192.54,0,9.69.83,10.52,10.52,10.53,7.42,0,14.83-.1,22.25.03,5.63.1,7.98-2.5,7.96-8.07-.1-24.57-.05-49.14-.04-73.71,0-10.51,1.83-12.32,12.31-12.32,23.94,0,47.88-.04,71.83.06,2.21,0,5.41-1.44,6.08,2.57-26.25-.21-52.5-.52-78.75-.56-6.76,0-8.94,2.81-8.94,10.26,0,23.93.07,47.85.07,71.78,0,10.95-2.01,12.81-13.09,12.71-7.41-.07-14.82.05-22.23,0-6.82-.04-9.2-2.22-9.28-9.08-.12-10.58.04-21.17.04-31.76.02-57.8.01-115.6.04-173.41,0-9.43,1.73-11.69,8.86-12.11Z"/>
  <path class="cls-1" d="M1015.61,736.59c0-17.99.05-35.97-.03-53.96-.02-4.96.82-9.07,6.9-9.15,5.98-.08,7.45,4.04,7.45,8.91.05,36.4.04,72.8,0,109.19,0,4.74-1.52,8.38-7.14,8.46-5.62.08-7.18-3.3-7.17-8.22.04-18.41.02-36.82.02-55.23h-.04ZM1026.14,737.35c0-18.18-.03-36.35.03-54.53.01-3.29-.13-6.03-4.6-5.5-4.48.53-2.99,3.99-3,6.38-.09,34.66-.06,69.33-.06,103.99,0,1.27-.14,2.57.08,3.8.48,2.73,2.18,4.92,4.87,5.01,3.7.11,2.62-3.18,2.63-5.24.08-17.97.05-35.93.04-53.9Z"/>
  <path class="cls-1" d="M1022.9,630.29c5.73.16,10.1,5.02,9.82,10.93-.23,4.86-4.75,9.08-9.63,9.02-5.89-.08-11.16-5.03-10.84-10.18.32-5.2,5.47-9.92,10.66-9.77Z"/>
  <path class="cls-1" d="M235.02,796.85c38.08-.03,76.16-.05,114.24-.08,9.11,0,9.58-.37,10.54-9.17.2-1.86.46-3.36,2.68-3.55-.11,15.74-.2,14.25-14.21,14.23-35.31-.03-70.61-.05-105.92-.13-2.48,0-5.12.41-7.34-1.3Z"/>
  <path class="cls-1" d="M362.54,783.51c-.24-8.22,1.23-9.74,9.01-9.33-4.24,1.92-7.21,5.06-9.01,9.33Z"/>
  <path class="cls-1" d="M371.56,774.26c-.05-.98-.37-2.22,1.11-2.25.37,0,.77,1.18,1.15,1.81-.75.15-1.51.3-2.26.44Z"/>
  <path class="cls-2" d="M1766.2,430.02c0,32.61,0,65.22,0,97.83,0,8.41-3.78,12.42-12.28,12.03-6.19-.29-12.47,1.59-18.64-1.4-5.23-2.53-7.21-6.4-7.21-11.8,0-16.52,0-33.03,0-49.55,0-49.13,0-98.25,0-147.38,0-8.99.27-7.76,8.9-9.62,6.37-1.37,12.47-.98,18.67-1.26,8.03-.35,10.54,2.39,10.56,10.78.06,22.45.02,44.89.02,67.34,0,11.01,0,22.02,0,33.03Z"/>
  <path class="cls-2" d="M1026.14,737.35c0,17.97.03,35.93-.04,53.9,0,2.06,1.07,5.36-2.63,5.24-2.69-.08-4.39-2.28-4.87-5.01-.22-1.23-.08-2.53-.08-3.8,0-34.66-.03-69.33.06-103.99,0-2.39-1.48-5.84,3-6.38,4.47-.53,4.61,2.22,4.6,5.5-.07,18.18-.03,36.35-.03,54.53Z"/>
</svg>