<svg width="592" height="439" viewBox="0 0 592 439" fill="none">
  <path
    d="M313.475 0C314.339 1.512 315.583 2.72534 316.671 4.05689C322.225 10.8516 327.821 17.6089 333.393 24.3911C338.431 30.52 343.443 36.6676 348.48 42.7964C352.927 48.2036 357.404 53.592 361.85 58.9991C366.863 65.0907 371.863 71.1947 376.869 77.2924C381.651 83.1164 386.439 88.928 391.222 94.752C395.979 100.539 400.724 106.332 405.481 112.112C409.449 116.94 413.429 121.756 417.403 126.585C421.656 131.749 425.904 136.92 430.151 142.091C434.15 146.95 438.142 151.816 442.147 156.669C442.477 157.074 442.819 157.46 443.167 158.1C442.483 158.1 441.967 158.1 441.457 158.1C419.088 158.1 396.713 158.1 374.344 158.1C372.447 158.1 372.646 157.889 372.646 159.818C372.646 233.476 372.677 307.129 372.609 380.788C372.596 393.562 368.791 405.235 361.135 415.545C356.658 421.568 351.086 426.396 344.581 430.124C337.809 434 330.533 436.396 322.803 437.447C320.738 437.727 318.68 438.013 316.597 437.982C316.342 437.982 316.056 437.926 315.881 438.206H310.552C309.694 437.715 308.742 438.007 307.841 437.939C300.857 437.385 294.122 435.823 287.679 433.048C282.051 430.628 276.94 427.38 272.406 423.267C268.041 419.309 264.384 414.761 261.48 409.615C258.084 403.604 255.902 397.177 254.726 390.401C254.39 388.441 254.204 386.456 254.024 384.471C253.75 381.453 253.868 378.442 253.868 375.43C253.856 333.144 253.694 290.858 253.912 248.572C254.067 219.172 253.93 189.778 254.048 160.378C254.061 158.1 254.048 158.1 251.71 158.1H183.565C183.347 157.665 183.696 157.484 183.87 157.279C189.523 150.397 195.182 143.522 200.841 136.64C206.948 129.211 213.036 121.775 219.143 114.346C224.572 107.738 230.019 101.148 235.448 94.5404C241.555 87.1111 247.643 79.6693 253.75 72.2462C260.503 64.0329 267.282 55.8382 274.035 47.6249C281.293 38.7956 288.531 29.9476 295.789 21.112C301.274 14.4356 306.783 7.77778 312.268 1.10134C312.536 0.771558 312.959 0.510222 312.94 0H313.475ZM272.157 246.4C272.157 264.612 272.157 282.825 272.157 301.031C272.157 302.966 271.971 302.761 273.843 302.761C299.452 302.761 325.06 302.761 350.663 302.761C350.887 302.761 351.104 302.761 351.328 302.761C352.017 302.744 352.371 302.404 352.392 301.74C352.398 301.516 352.392 301.299 352.392 301.075C352.392 295.17 352.392 289.259 352.392 283.354C352.392 281.531 352.578 281.711 350.756 281.711C333.051 281.711 315.34 281.711 297.636 281.711C296.1 281.711 296.199 281.811 296.199 280.261C296.199 272.664 296.199 265.073 296.199 257.476C296.199 255.777 296.056 255.926 297.804 255.926C315.023 255.926 332.243 255.926 349.463 255.926C349.817 255.926 350.172 255.914 350.526 255.926C351.011 255.945 351.285 255.764 351.26 255.236C351.241 254.924 351.26 254.613 351.26 254.302C351.26 248.441 351.26 242.573 351.26 236.712C351.26 234.901 351.447 235.063 349.631 235.063C332.411 235.063 315.191 235.063 297.971 235.063C297.617 235.063 297.263 235.051 296.908 235.063C296.398 235.082 296.18 234.839 296.205 234.341C296.218 234.03 296.205 233.719 296.205 233.408C296.205 226.433 296.205 219.464 296.205 212.489C296.205 210.678 296.056 210.877 297.878 210.877C315.452 210.877 333.027 210.877 350.601 210.877C350.955 210.877 351.31 210.865 351.664 210.877C352.149 210.896 352.423 210.722 352.398 210.193C352.379 209.882 352.398 209.571 352.398 209.26C352.398 203.398 352.398 197.531 352.398 191.669C352.398 189.834 352.591 190.014 350.781 190.014C325.129 190.014 299.476 190.014 273.824 190.014C271.99 190.014 272.164 189.821 272.164 191.632C272.164 209.888 272.164 228.144 272.164 246.4H272.157ZM355.321 377.894C355.514 355.252 337.081 335.857 313.456 335.851C290.347 335.851 271.946 354.169 271.455 376.836C270.932 400.879 290.217 419.801 313.332 419.838C336.745 419.876 355.42 400.692 355.321 377.894Z"
  />
  <path
    d="M131.035 438.206C131.048 437.721 131.066 437.229 131.066 436.744C131.066 399.877 131.066 363.011 131.066 326.138C131.066 324.14 130.83 324.352 132.826 324.352C139.487 324.346 146.141 324.377 152.801 324.321C153.815 324.315 154.3 324.657 154.685 325.54C158.808 334.911 162.962 344.269 167.117 353.634C169.778 359.632 172.452 365.618 175.114 371.616C177.775 377.614 180.431 383.612 183.093 389.604C183.248 389.959 183.441 390.295 183.665 390.743C184.311 389.804 184.616 388.82 185.027 387.9C188.739 379.605 192.439 371.305 196.127 362.998C201.656 350.56 207.178 338.128 212.669 325.671C213.104 324.682 213.608 324.296 214.727 324.308C221.475 324.364 228.222 324.34 234.963 324.34C235.231 324.34 235.498 324.352 235.759 324.34C236.269 324.315 236.481 324.564 236.462 325.061C236.443 325.46 236.462 325.858 236.462 326.262C236.462 363.172 236.462 400.089 236.462 436.999C236.462 437.397 236.487 437.796 236.493 438.194H213.322C213.309 437.572 213.291 436.949 213.285 436.327C213.285 415.719 213.285 395.105 213.285 374.497C213.285 374.049 213.285 373.595 213.285 373.147C212.974 373.333 212.849 373.514 212.762 373.707C211.885 375.648 211.008 377.583 210.144 379.531C206.593 387.508 203.049 395.491 199.51 403.474C197.134 408.819 194.771 414.17 192.396 419.521C190.81 423.086 189.206 426.639 187.651 430.217C187.321 430.982 186.886 431.281 186.046 431.244C184.498 431.181 182.937 431.2 181.389 431.244C180.729 431.262 180.387 431.076 180.095 430.428C178.627 427.199 177.091 424.001 175.574 420.796C173.149 415.663 170.723 410.53 168.304 405.396C165.506 399.46 162.707 393.524 159.915 387.582C158.653 384.894 157.422 382.188 156.134 379.512C155.568 378.336 155.102 377.104 154.163 376.04V377.434C154.163 397.158 154.163 416.876 154.163 436.601C154.163 437.13 154.188 437.665 154.2 438.194H131.029L131.035 438.206Z"
  />
  <path
    d="M0 242.293C0.391781 241.584 0.397993 240.781 0.478837 240.016C1.55468 230.284 4.96256 221.455 10.6092 213.478C12.792 210.392 15.2608 207.542 18.0406 204.979C21.6413 201.662 25.5839 198.812 29.9059 196.492C34.6633 193.934 39.6818 192.124 44.9553 191.016C47.4677 190.487 49.9987 190.126 52.5671 189.971C53.9352 189.89 55.3034 189.809 56.6777 189.815C64.022 189.834 71.1052 191.19 77.9023 193.984C84.0713 196.523 89.6184 200.02 94.5623 204.512C100.228 209.652 104.63 215.7 107.846 222.613C110.159 227.584 111.658 232.798 112.447 238.236C113.063 242.48 113.138 246.736 112.845 250.973C112.429 256.934 110.974 262.684 108.648 268.197C106.198 274.008 102.864 279.253 98.6543 283.964C94.2327 288.916 89.1022 292.924 83.2753 296.072C77.1249 299.395 70.5828 301.442 63.6551 302.325C60.3467 302.748 57.0259 302.904 53.7176 302.73C49.3831 302.506 45.0984 301.84 40.9194 300.608C32.8039 298.219 25.5528 294.274 19.2159 288.643C11.0445 281.394 5.42897 272.533 2.35069 262.049C1.43653 258.938 0.802212 255.777 0.478837 252.554C0.410431 251.882 0.398 251.16 0 250.55V242.287V242.293ZM56.5222 282.047C75.763 282.172 92.3173 266.678 92.3173 246.313C92.3173 226.097 75.9558 210.554 56.6279 210.554C37.0016 210.554 21.1188 226.159 20.8452 245.797C20.5529 266.405 37.3498 282.178 56.5222 282.041V282.047Z"
  />
  <path
    d="M428.528 438.206C425.748 429.788 422.968 421.375 420.102 412.981C417.44 405.179 414.89 397.339 412.285 389.517C407.285 374.503 402.291 359.489 397.285 344.475C395.239 338.333 393.174 332.204 391.122 326.063C390.985 325.646 390.774 325.248 390.793 324.794C391.103 324.508 391.47 324.626 391.806 324.626C399.841 324.62 407.869 324.62 415.904 324.626C417.123 324.626 417.135 324.626 417.514 325.87C420.338 335.104 423.143 344.344 425.972 353.584C428.254 361.038 430.555 368.492 432.837 375.947C435.611 385.012 438.372 394.084 441.152 403.144C441.289 403.592 441.326 404.102 441.755 404.482C442.215 403.592 442.445 402.64 442.738 401.719C445.144 394.252 447.539 386.786 449.939 379.319C453.403 368.561 456.867 357.809 460.331 347.051C461.935 342.073 463.533 337.095 465.131 332.117C465.847 329.884 466.58 327.65 467.271 325.404C467.439 324.862 467.681 324.62 468.291 324.62C476.188 324.644 484.086 324.638 491.99 324.644C492.115 324.644 492.245 324.707 492.37 324.738C492.556 325.267 492.245 325.702 492.096 326.144C488.632 336.579 485.15 347.007 481.68 357.436C474.18 379.979 466.686 402.528 459.193 425.071C457.737 429.445 456.32 433.832 454.889 438.212H428.522L428.528 438.206Z"
  />
  <path
    d="M131.073 247.408C131.073 228.754 131.073 210.1 131.073 191.439C131.073 189.628 130.917 189.815 132.733 189.815C153.858 189.815 174.983 189.778 196.108 189.84C201.245 189.852 206.357 190.313 211.301 191.918C215.903 193.412 220.131 195.589 223.819 198.756C230.349 204.375 234.086 211.537 235.479 219.974C236.549 226.458 236.238 232.879 234.279 239.164C232.867 243.693 230.647 247.825 227.544 251.446C221.941 257.98 214.758 261.694 206.413 263.312C203.583 263.86 200.729 264.121 197.843 264.121C183.777 264.102 169.704 264.108 155.637 264.115C153.808 264.115 153.989 263.94 153.989 265.751C153.989 278.276 153.989 290.802 153.989 303.327C153.989 305.15 154.175 304.964 152.353 304.964C145.83 304.964 139.306 304.964 132.783 304.964C132.559 304.964 132.341 304.964 132.117 304.964C131.116 304.932 131.098 304.932 131.091 303.906C131.079 301.417 131.091 298.928 131.091 296.445C131.091 280.1 131.091 263.754 131.091 247.408H131.073ZM177.067 211.605C169.791 211.605 162.515 211.605 155.233 211.605C153.989 211.605 153.976 211.618 153.976 212.831C153.976 222.332 153.976 231.84 153.976 241.341C153.976 242.505 153.989 242.505 155.145 242.524C155.413 242.524 155.68 242.524 155.941 242.524C169.473 242.524 183.012 242.524 196.544 242.524C198.235 242.524 199.902 242.362 201.55 242.013C205.642 241.142 209.106 239.22 211.512 235.698C213.888 232.232 214.522 228.374 213.875 224.28C213.247 220.273 211.301 217.044 207.961 214.716C204.846 212.545 201.32 211.618 197.557 211.605C190.723 211.58 183.889 211.599 177.054 211.599L177.067 211.605Z"
  />
  <path
    d="M414.984 230.291V231.734C414.984 254.881 414.984 278.021 414.984 301.168C414.984 303.01 415.183 302.836 413.379 302.836C406.364 302.836 399.356 302.836 392.341 302.836C392.074 302.836 391.806 302.817 391.545 302.836C390.936 302.892 390.618 302.668 390.681 302.008C390.712 301.697 390.681 301.386 390.681 301.075C390.681 264.563 390.681 228.044 390.681 191.532C390.681 191.489 390.681 191.445 390.681 191.402C390.681 189.653 390.556 189.815 392.248 189.815C399.617 189.815 406.986 189.828 414.349 189.79C415.245 189.79 415.811 190.058 416.327 190.767C423.833 200.99 431.357 211.201 438.882 221.412C443.776 228.051 448.677 234.69 453.571 241.329C458.179 247.576 462.781 253.823 467.383 260.07C467.563 260.313 467.694 260.605 468.179 260.773C468.179 260.263 468.179 259.803 468.179 259.342C468.179 236.731 468.179 214.119 468.179 191.508C468.179 189.579 468.005 189.815 469.895 189.809C476.866 189.803 483.831 189.809 490.803 189.809C491.026 189.809 491.244 189.809 491.468 189.809C492.127 189.83 492.465 190.186 492.482 190.879C492.482 191.103 492.482 191.321 492.482 191.545C492.482 228.057 492.482 264.575 492.482 301.087C492.482 303.028 492.699 302.817 490.809 302.823C484.018 302.829 477.227 302.798 470.436 302.854C469.323 302.867 468.676 302.487 468.042 301.622C463.539 295.462 459 289.333 454.46 283.204C447.657 274.002 440.847 264.805 434.05 255.603C427.962 247.364 421.874 239.12 415.786 230.882C415.605 230.639 415.406 230.415 415.214 230.185C415.133 230.216 415.058 230.247 414.977 230.278L414.984 230.291Z"
  />
  <path
    d="M591.758 437.945H511.673C511.648 437.46 511.592 436.974 511.592 436.489C511.592 399.678 511.592 362.868 511.592 326.057C511.592 324.147 511.368 324.358 513.302 324.358C539.035 324.358 564.768 324.358 590.502 324.358C590.943 324.358 591.391 324.377 591.832 324.383C591.832 331.047 591.839 337.711 591.845 344.375C591.845 345.744 591.839 345.756 590.47 345.756C572.89 345.756 555.316 345.756 537.735 345.756C535.646 345.756 535.901 345.495 535.901 347.598C535.888 354.393 535.901 361.194 535.901 367.988C535.901 368.343 535.92 368.698 535.901 369.052C535.876 369.581 536.15 369.756 536.635 369.737C536.989 369.724 537.344 369.737 537.698 369.737C554.918 369.737 572.144 369.737 589.363 369.737C591.111 369.737 590.949 369.588 590.955 371.299C590.955 377.428 590.955 383.563 590.955 389.692C590.955 389.872 590.955 390.046 590.955 390.227C590.939 390.895 590.587 391.237 589.898 391.253C589.587 391.26 589.276 391.253 588.965 391.253H537.966C537.655 391.253 537.344 391.253 537.033 391.253C536.291 391.266 535.911 391.627 535.895 392.336C535.895 392.604 535.895 392.871 535.895 393.139V414.997C535.895 415.128 535.895 415.265 535.895 415.396C535.895 416.945 535.801 416.845 537.331 416.845C554.912 416.845 572.486 416.845 590.066 416.845C592.062 416.845 591.832 416.615 591.839 418.619C591.845 424.573 591.839 430.522 591.839 436.476C591.839 436.962 591.907 437.453 591.758 437.932V437.945Z"
  />
</svg>
