<svg width="795" height="319" viewBox="0 0 795 319" fill="none" xmlns="http://www.w3.org/2000/svg">
  <mask id="mask0_3696_6" style="mask-type:alpha" maskUnits="userSpaceOnUse" x="166" y="2"
    width="226" height="314">
    <path d="M375.206 2.69727L166.014 3.59326L180.138 315.064L391.881 314.984L375.206 2.69727Z"
      fill="white" />
  </mask>
  <g mask="url(#mask0_3696_6)">
    <path
      d="M296.2 247.867C254.53 249.761 222.284 285.076 224.177 326.746C226.07 368.416 261.386 400.663 303.056 398.77C344.726 396.876 376.972 361.562 375.079 319.891C373.186 278.221 337.87 245.974 296.2 247.867ZM301.34 361.004C280.546 361.948 262.916 345.851 261.97 325.029C261.026 304.235 277.123 286.605 297.917 285.661C318.739 284.715 336.369 300.812 337.313 321.607C338.259 342.429 322.162 360.058 301.34 361.004Z"
      fill="black" />
    <path
      d="M245.831 -83.5106C204.161 -81.6174 171.915 -46.3025 173.808 -4.63229C175.701 37.0378 211.016 69.2848 252.686 67.3917C294.356 65.4986 326.603 30.1829 324.71 -11.4873C322.817 -53.1574 287.501 -85.4037 245.831 -83.5106ZM250.97 29.6255C230.176 30.5699 212.547 14.4728 211.601 -6.34862C210.657 -27.1434 226.754 -44.7727 247.548 -45.7171C268.369 -46.6626 285.999 -30.5664 286.944 -9.77148C287.889 11.0499 271.792 28.6799 250.97 29.6255Z"
      fill="black" />
    <path
      d="M273.021 80.9224C230.656 81.7078 196.95 116.687 197.735 159.052C198.521 201.417 233.5 235.123 275.865 234.337C318.229 233.552 351.936 198.573 351.151 156.208C350.366 113.843 315.385 80.1371 273.021 80.9224ZM275.153 195.943C254.012 196.335 236.55 179.508 236.158 158.34C235.766 137.199 252.592 119.737 273.733 119.345C294.901 118.953 312.364 135.779 312.755 156.92C313.148 178.088 296.321 195.55 275.153 195.943Z"
      fill="black" />
  </g>
  <path
    d="M756.735 3.43855V92.6109L705.601 11.603C703.022 7.45112 699.618 4.4804 695.394 2.68647C691.168 0.896963 686.55 0 681.536 0C677.381 0 673.405 0.96775 669.612 2.90103C665.815 4.83432 662.736 7.66458 660.374 11.3874C658.01 15.1146 656.828 19.5519 656.828 24.708V148.465H694.428V59.0162L745.564 140.085C748.142 144.097 751.579 147.035 755.876 148.894C760.174 150.756 764.756 151.688 769.627 151.688C773.924 151.688 777.932 150.722 781.659 148.788C785.382 146.854 788.427 144.061 790.789 140.408C793.153 136.755 794.335 132.351 794.335 127.194V3.43855H756.735Z"
    fill="black" />
  <path
    d="M403.524 288.228L366.559 167.977H407.658L439.623 276.269C439.839 276.92 440.059 277.136 440.494 277.136C440.929 277.136 441.145 276.92 441.361 276.269L472.894 167.977H513.994L477.024 288.228C470.937 308.233 459.848 318.237 440.274 318.237C420.705 318.237 409.616 308.233 403.524 288.228Z"
    fill="black" />
  <path
    d="M203.469 311.99L186.279 190.812C184.991 181.932 181.585 175.201 176.073 170.615C170.557 166.032 163.575 163.74 155.125 163.74C147.391 163.74 140.515 165.604 134.5 169.327C128.484 173.053 124.473 178.925 122.468 186.943L102.914 263.322L83.1491 186.299C81.1417 178.28 77.2408 172.515 71.4388 169.004C65.6378 165.495 58.941 163.74 51.3505 163.74C42.6131 163.74 35.4152 165.995 29.758 170.508C24.0975 175.019 20.5528 181.572 19.1227 190.167L0 311.99H40.3922L54.2836 209.443L77.1335 294.371C78.7074 300.531 81.9303 305.114 86.8022 308.122C91.6686 311.13 97.0416 312.634 102.917 312.634C108.932 312.634 114.266 311.057 118.923 307.906C123.576 304.757 126.835 299.959 128.697 293.512L151.672 209.676L163.29 311.99H203.469Z"
    fill="black" />
  <path
    d="M430.842 2.5293H366.557V39.4949H431.927C449.323 39.4949 458.457 45.8033 458.457 57.3267C458.457 69.7223 449.974 76.4619 431.927 76.4619H389.713C376.924 76.4619 366.557 86.8289 366.557 99.6165V149.311L406.786 149.095V113.432H433.013C475.636 113.432 499.774 92.5563 499.774 57.3267C499.774 23.1863 474.331 2.5293 430.842 2.5293Z"
    fill="black" />
  <path
    d="M562.029 110.94V91.7583H625.537V56.5967H562.029V38.4835H631.503V2.25586H522.592V146.102H631.503V110.94H562.029Z"
    fill="black" />
  <path
    d="M562.029 276.94V257.758H625.537V222.597H562.029V204.484H631.503V168.256H522.592V312.102H631.503V276.94H562.029Z"
    fill="black" />
</svg>