<svg width="485" height="128" viewBox="0 0 485 128" fill="none">
    <path fill-rule="evenodd" clip-rule="evenodd"
        d="M34.2669 113.696C34.2669 117.937 32.7439 121.322 29.7039 123.846C26.6589 126.37 22.5199 127.63 17.2859 127.63C10.5409 127.63 4.95094 125.419 0.517944 120.995L3.20894 118.31C5.42594 120.52 7.59894 122.061 9.72294 122.927C11.8489 123.796 14.4449 124.23 17.5139 124.23C21.5249 124.23 24.6879 123.314 27.0029 121.475C29.3169 119.634 30.4729 117.091 30.4729 113.837C30.4729 110.724 29.5499 108.372 27.7079 106.768C26.2429 105.494 23.8079 104.598 20.4059 104.081L14.5199 103.16C5.86895 101.791 1.54494 97.479 1.54494 90.221C1.54494 86.026 2.95094 82.679 5.76494 80.183C8.57794 77.681 12.3939 76.434 17.2169 76.434C22.6999 76.434 27.5469 78.244 31.7549 81.861L29.2779 84.325C25.7809 81.226 21.6989 79.671 17.0239 79.671C13.3889 79.671 10.5329 80.605 8.45594 82.466C6.37794 84.329 5.33994 86.864 5.33994 90.07C5.33994 92.992 6.20994 95.187 7.95494 96.648C9.84294 98.254 12.3419 99.289 15.4539 99.761L20.8989 100.608C24.9549 101.221 27.9489 102.33 29.8799 103.933C32.8039 106.34 34.2669 109.593 34.2669 113.696Z"
    />
    <path fill-rule="evenodd" clip-rule="evenodd"
        d="M78.2259 91.328C78.2259 95.807 76.8049 99.345 73.9649 101.934C71.1269 104.531 67.4589 105.823 62.9639 105.823H48.2709V127.236H44.4769V76.826H62.9809C67.4719 76.826 71.1359 78.126 73.9699 80.719C76.8069 83.312 78.2259 86.849 78.2259 91.328ZM74.4309 91.328C74.4309 87.651 73.3179 84.846 71.0909 82.914C69.0049 81.123 66.1609 80.228 62.5589 80.228H48.2709V102.429H62.5589C66.1609 102.429 69.0409 101.494 71.1969 99.635C73.3529 97.774 74.4309 95.002 74.4309 91.328Z"
    />
    <path fill-rule="evenodd" clip-rule="evenodd"
        d="M116.059 127.236H111.951L107.559 114.992H84.0429L79.6509 127.236H75.5419L94.1009 76.828H97.5009L116.059 127.236ZM106.354 111.59L95.7999 81.919L85.2469 111.59H106.354Z"
    />
    <path fill-rule="evenodd" clip-rule="evenodd"
        d="M150.521 127.236H119.852V123.199L146.414 80.227H120.916V76.828H150.521V80.227L123.749 123.837H150.521V127.236Z"
    />
    <path d="M165.792 77H162V127.411H165.792V77Z" />
    <path fill-rule="evenodd" clip-rule="evenodd"
        d="M211.28 102.03C211.28 108.396 211.069 112.663 210.643 114.831C210.077 117.801 208.734 120.348 206.612 122.468C203.168 125.909 198.968 127.631 194.01 127.631C189.057 127.631 184.855 125.909 181.411 122.468C179.289 120.348 177.945 117.801 177.38 114.831C176.955 112.663 176.744 108.396 176.744 102.03C176.744 95.669 176.955 91.402 177.38 89.23C177.945 86.263 179.289 83.717 181.411 81.594C184.855 78.155 189.057 76.435 194.01 76.435C198.968 76.435 203.168 78.155 206.612 81.594C208.734 83.717 210.077 86.263 210.643 89.23C211.068 91.402 211.28 95.668 211.28 102.03ZM207.488 102.03C207.488 96.234 207.296 92.272 206.922 90.151C206.397 87.562 205.287 85.419 203.586 83.721C200.983 81.128 197.792 79.832 194.01 79.832C190.227 79.832 187.037 81.128 184.436 83.721C182.733 85.419 181.624 87.562 181.103 90.151C180.725 92.272 180.536 96.234 180.536 102.03C180.536 107.832 180.725 111.792 181.103 113.913C181.624 116.502 182.733 118.647 184.436 120.345C187.037 122.937 190.227 124.232 194.01 124.232C197.792 124.232 200.983 122.937 203.586 120.345C205.287 118.648 206.397 116.502 206.922 113.913C207.295 111.792 207.488 107.832 207.488 102.03Z"
    />
    <path fill-rule="evenodd" clip-rule="evenodd"
        d="M259.595 101.82C259.595 107.438 259.449 111.118 259.169 112.864C258.557 116.735 256.999 119.921 254.497 122.421C251.291 125.629 246.853 127.236 241.19 127.236H223V76.828H241.191C246.854 76.828 251.292 78.436 254.498 81.644C257 84.146 258.558 87.258 259.17 90.989C259.449 92.686 259.595 96.298 259.595 101.82ZM249.714 101.82C249.714 97.758 249.597 94.902 249.362 93.248C249.081 91.315 248.497 89.804 247.6 88.716C245.912 86.641 243.47 85.598 240.273 85.598H232.878V118.465H240.273C243.47 118.465 245.912 117.427 247.6 115.351C248.496 114.263 249.08 112.683 249.362 110.603C249.597 108.855 249.714 105.926 249.714 101.82Z"
    />
    <path fill-rule="evenodd" clip-rule="evenodd"
        d="M307.763 127.235H297.492L294.519 118.306H276.597L273.552 127.235H263.281L281.624 76.827H289.345L307.763 127.235ZM291.899 110.011L285.735 91.693L279.361 110.011H291.899Z"
    />
    <path fill-rule="evenodd" clip-rule="evenodd"
        d="M341.171 85.598H328.058V127.236H318.176V85.598H304.977V76.826H341.171V85.598Z"
    />
    <path d="M360.879 77H351V127.411H360.879V77Z" />
    <path d="M421.729 23H420V49.936H421.729V23Z" />
    <path d="M461.936 63H435V64.73H461.936V63Z" />
    <path d="M430.779 55.4168L449.828 36.3696L448.605 35.1462L429.555 54.1933L430.779 55.4168Z"
    />
    <path d="M410.87 55.0375L412.091 53.8132L393.016 34.7916L391.795 36.0159L410.87 55.0375Z"
    />
    <path d="M449.136 93.7067L450.358 92.4846L431.31 73.4423L430.088 74.6643L449.136 93.7067Z"
    />
    <path fill-rule="evenodd" clip-rule="evenodd"
        d="M412.356 55.96C410.054 58.257 408.919 61.251 408.916 64.269C408.92 67.277 410.062 70.269 412.356 72.568C414.653 74.863 417.647 76.001 420.662 76.005C423.675 76.001 426.666 74.864 428.966 72.569L428.965 72.568C431.262 70.266 432.403 67.274 432.406 64.262C432.403 61.248 431.265 58.257 428.969 55.96C426.663 53.662 423.673 52.523 420.661 52.521C417.647 52.523 414.655 53.662 412.356 55.96ZM357.691 124.179L407.879 73.991C405.693 71.13 404.595 67.693 404.597 64.269C404.595 60.166 406.167 56.036 409.304 52.908C412.434 49.771 416.558 48.199 420.661 48.201C424.764 48.199 428.888 49.773 432.02 52.905C435.152 56.036 436.727 60.16 436.724 64.262C436.727 68.364 435.148 72.486 432.02 75.62L430.493 74.095L432.018 75.62C428.887 78.754 424.763 80.327 420.661 80.324C417.235 80.327 413.797 79.23 410.932 77.045L360.744 127.235L357.691 124.179Z"
    />
    <path fill-rule="evenodd" clip-rule="evenodd"
        d="M411.182 12.647C411.191 17.883 415.423 22.12 420.662 22.128C425.898 22.12 430.133 17.883 430.143 12.647C430.132 7.41102 425.898 3.17402 420.662 3.16502C415.423 3.17402 411.19 7.41102 411.182 12.647ZM408.588 12.647C408.588 5.97802 413.99 0.572021 420.662 0.572021C427.331 0.572021 432.737 5.97802 432.737 12.647C432.737 19.315 427.331 24.721 420.662 24.721C413.99 24.721 408.588 19.315 408.588 12.647Z"
    />
    <path fill-rule="evenodd" clip-rule="evenodd"
        d="M460.205 64.263C460.205 57.594 465.61 52.19 472.277 52.19C478.946 52.19 484.351 57.594 484.351 64.263C484.351 70.932 478.946 76.337 472.277 76.337V73.746C477.514 73.735 481.75 69.498 481.759 64.263C481.749 59.027 477.514 54.79 472.277 54.782C467.043 54.79 462.807 59.027 462.796 64.263C462.808 69.498 467.043 73.735 472.277 73.746V76.337C465.61 76.337 460.205 70.932 460.205 64.263Z"
    />
    <path fill-rule="evenodd" clip-rule="evenodd"
        d="M450.458 21.063C448.602 22.914 447.681 25.331 447.681 27.765C447.681 30.194 448.602 32.614 450.458 34.47C452.308 36.323 454.729 37.245 457.16 37.245C459.59 37.245 462.009 36.324 463.865 34.472C465.717 32.613 466.64 30.195 466.64 27.771C466.637 25.337 465.719 22.917 463.864 21.061C462.007 19.208 459.59 18.286 457.16 18.283C454.729 18.286 452.311 19.208 450.458 21.063ZM448.624 36.303C446.268 33.948 445.084 30.847 445.087 27.765C445.084 24.678 446.268 21.58 448.624 19.227C450.977 16.871 454.075 15.691 457.16 15.693C460.246 15.691 463.342 16.874 465.698 19.227C468.053 21.583 469.234 24.684 469.234 27.771C469.234 30.853 468.049 33.948 465.7 36.303L464.782 35.389L465.698 36.307C463.342 38.657 460.243 39.837 457.16 39.837C454.075 39.837 450.977 38.657 448.624 36.303Z"
    />
    <path fill-rule="evenodd" clip-rule="evenodd"
        d="M384.162 39.835C377.493 39.836 372.091 34.429 372.091 27.765C372.091 21.097 377.496 15.692 384.165 15.692V18.282C378.93 18.293 374.695 22.53 374.684 27.765C374.696 32.995 378.926 37.234 384.163 37.244C384.186 37.244 384.211 37.244 384.236 37.245C389.438 37.197 393.634 32.978 393.646 27.765C393.634 22.53 389.4 18.293 384.166 18.282V15.692C390.832 15.692 396.238 21.097 396.238 27.765C396.238 34.431 390.832 39.836 384.166 39.836C384.163 39.835 384.162 39.835 384.162 39.835Z"
    />
    <path fill-rule="evenodd" clip-rule="evenodd"
        d="M447.676 100.762C447.688 105.996 451.922 110.233 457.161 110.244C462.394 110.232 466.63 105.996 466.64 100.762C466.64 95.527 462.395 91.282 457.161 91.279C451.922 91.289 447.688 95.527 447.676 100.762ZM445.086 100.762C445.086 94.092 450.49 88.688 457.161 88.688C463.829 88.688 469.232 94.092 469.232 100.762C469.232 107.431 463.829 112.835 457.161 112.835C450.49 112.835 445.086 107.431 445.086 100.762Z"
    />
</svg>