<svg width="513" height="71" viewBox="0 0 513 71" fill="none" xmlns="http://www.w3.org/2000/svg">
  <path
    d="M102.5 66.1C95.3004 66.1 88.7004 65.3 82.9004 59.5L90.4004 52C94.2004 55.8 99.1004 56.3 102.7 56.3C106.7 56.3 110.8 55 110.8 51.5C110.8 49.2 109.6 47.6 105.9 47.3L98.7004 46.6C90.4004 45.8 85.3004 42.2 85.3004 33.7C85.3004 24.2 93.7004 19 103.1 19C110.3 19 116.3 20.2 120.7 24.4L113.6 31.6C110.9 29.2 106.9 28.5 102.9 28.5C98.3004 28.5 96.4004 30.6 96.4004 32.9C96.4004 34.6 97.1004 36.5 101.2 36.9L108.4 37.6C117.5 38.5 122.1 43.3 122.1 51.1C122.1 61.3 113.4 66.1 102.5 66.1Z"
    fill="#4E2817" />
  <path
    d="M142.1 65.5998C132.7 65.5998 128.8 58.9998 128.8 52.3998V29.5998H123.9V20.8998H128.8V7.2998H140.3V20.8998H148.4V29.5998H140.3V51.6998C140.3 54.2998 141.5 55.8998 144.3 55.8998H148.5V65.5998H142.1Z"
    fill="#4E2817" />
  <path d="M153.5 11.6998V2.2998H165.3V11.6998H153.5ZM153.7 65.5998V19.5998H165.2V65.5998H153.7Z"
    fill="#4E2817" />
  <path
    d="M191.1 66.1C181.9 66.1 170.5 61.2 170.5 42.5C170.5 23.9 181.9 19 191.1 19C197.5 19 202.2 20.9 206.3 25.2L198.5 33C196.1 30.4 194.1 29.4 191.1 29.4C188.4 29.4 186.2 30.4 184.6 32.4C182.8 34.6 182 37.7 182 42.6C182 47.5 182.8 50.6 184.6 52.9C186.3 54.9 188.4 55.9 191.1 55.9C194.1 55.9 196.1 54.8 198.5 52.3L206.3 60C202.2 64.1 197.5 66.1 191.1 66.1Z"
    fill="#4E2817" />
  <path
    d="M238.001 65.6002L226.701 46.4002L221.801 51.9002V65.6002H210.301V2.7002H221.801V38.4002L237.101 19.6002H251.001L234.601 38.2002L252.301 65.7002H238.001V65.6002Z"
    fill="#4E2817" />
  <path
    d="M261.8 46.1004C261.8 52.0004 265.4 56.3004 271.9 56.3004C276.9 56.3004 279.4 54.9004 282.3 52.0004L289.3 58.8004C284.6 63.5004 280.1 66.0004 271.8 66.0004C260.9 66.0004 250.5 61.1004 250.5 42.4004C250.5 27.4004 258.6 18.9004 270.6 18.9004C283.4 18.9004 290.7 28.3004 290.7 40.9004V46.0004H261.8V46.1004ZM278.3 33.3004C277.1 30.6004 274.5 28.5004 270.6 28.5004C266.7 28.5004 264.1 30.5004 262.9 33.3004C262.2 35.0004 261.9 36.2004 261.8 38.2004H279.3C279.2 36.2004 279 35.0004 278.3 33.3004Z"
    fill="#4E2817" />
  <path
    d="M321.1 32.0996C319.3 30.2996 317.8 29.3996 315 29.3996C311.5 29.3996 307.6 32.0996 307.6 37.8996V65.5996H296.1V19.5996H307.3V23.9996C309.5 21.2996 313.9 19.0996 318.9 19.0996C323.4 19.0996 326.6 20.1996 329.8 23.3996L321.1 32.0996Z"
    fill="#4E2817" />
  <path fill-rule="evenodd" clip-rule="evenodd"
    d="M47.4996 70.6998C46.7996 70.9998 45.8996 70.8998 44.9996 70.9998C44.1996 70.9998 43.0996 70.9998 42.5996 70.5998C42.2996 70.3998 42.2997 69.8998 42.2997 69.5998C42.2997 69.2998 42.3997 68.7998 42.3997 68.4998C42.4997 68.0998 42.5997 67.4998 42.3997 67.1998C42.1997 66.8998 41.4996 66.9998 41.0996 66.7998C40.6996 66.5998 40.5996 65.9998 40.4996 65.3998C40.4996 65.1998 40.2997 64.9998 40.2997 64.8998C40.1997 63.9998 40.4996 62.6998 40.6996 61.7998C40.8996 60.7998 41.1997 59.8998 41.3997 58.8998C41.6997 57.4998 41.6996 55.8998 41.5996 54.3998C41.5996 53.5998 41.3996 52.9998 41.5996 52.3998C41.6996 51.7998 41.9996 51.2998 42.0996 50.6998C42.0996 50.4998 42.0996 50.2998 42.0996 50.0998C42.0996 49.8998 42.1996 49.7998 42.1996 49.5998C42.1996 49.1998 42.0996 48.6998 42.0996 48.1998C41.9996 46.8998 42.0996 44.9998 42.1996 43.8998C42.1996 43.4998 42.3996 43.0998 42.0996 42.8998C40.6996 42.8998 39.4996 43.0998 38.1996 43.2998C34.7996 43.6998 30.3996 43.7998 27.0996 43.0998C26.7996 42.9998 26.4996 42.9998 26.1996 42.9998C23.7996 42.4998 21.6996 41.3998 19.9996 40.0998C19.6996 39.8998 19.3996 39.6998 19.0996 39.3998C18.7996 39.1998 18.4996 38.8998 18.1996 38.6998C16.8996 38.0998 15.0996 38.7998 14.4996 39.6998C14.2996 39.9998 14.0996 40.4998 13.8996 40.8998C13.6996 41.2998 13.4996 41.6998 13.3996 42.0998C12.4996 44.0998 11.4996 46.0998 10.5996 48.0998C10.0996 49.2998 9.49965 50.5998 9.09965 51.8998C8.29965 54.6998 8.99964 58.3998 9.69964 61.0998C9.79964 61.2998 9.89965 61.5998 9.99965 61.8998C10.1996 62.4998 10.5996 63.3998 11.0996 63.7998C11.3996 63.9998 11.7996 64.1998 12.0996 64.3998C12.4996 64.6998 12.6996 65.2998 12.9996 65.8998C13.0996 66.0998 13.2996 66.3998 13.3996 66.6998C13.6996 67.2998 13.8996 67.7998 13.1996 68.1998C12.6996 68.4998 11.8996 68.4998 11.1996 68.5998C10.8996 68.6998 10.9997 69.0998 10.7997 69.2998C10.6997 69.3998 10.1996 69.5998 9.99965 69.6998C9.09965 69.9998 7.49965 69.9998 6.79965 69.6998C6.39965 69.5998 5.99965 69.2998 5.89965 68.9998C5.69965 68.3998 6.19965 67.6998 5.79965 67.2998C5.59965 67.0998 5.19965 67.0998 4.89965 66.9998C4.39965 66.7998 3.99964 66.2998 3.69964 65.7998C3.19964 64.3998 3.49965 62.2998 3.39965 60.5998C3.39965 60.0998 3.29965 59.5998 3.29965 58.9998C3.29965 57.9998 2.99965 56.9998 2.89965 55.9998C2.79965 55.4998 2.69965 55.0998 2.59965 54.6998C2.39965 53.9998 2.29965 53.1998 2.09965 52.4998C1.89965 51.6998 1.89965 50.8998 2.09965 50.2998C2.19965 50.0998 2.39965 49.8998 2.49965 49.6998C2.69965 49.2998 2.69964 48.8998 2.69964 48.4998C2.59964 48.2998 2.09965 48.4998 1.99965 48.2998C1.69965 46.0998 1.39964 43.9998 1.19964 41.6998C1.09964 40.8998 1.09965 40.1998 1.09965 39.3998C0.999646 37.8998 1.09965 36.2998 0.899649 34.7998C0.799649 34.0998 0.699646 33.3998 0.599646 32.6998C0.299646 30.6998 -0.200356 28.1998 0.199644 26.0998C0.499644 24.7998 0.899644 23.6998 1.69964 22.6998C2.19964 21.9998 2.79965 21.3998 3.39965 20.6998C3.99965 20.0998 4.69965 19.4998 5.39965 18.9998C5.89965 18.6998 6.39965 18.2998 6.89965 17.9998C7.99965 17.4998 9.49965 16.9998 11.0996 16.8998C12.6996 16.7998 14.4996 16.7998 15.9996 17.0998C17.4996 17.3998 18.9996 17.5998 20.4996 17.8998C21.8996 18.1998 23.2996 18.5998 24.6996 18.8998C24.8996 18.8998 24.9996 19.0998 25.1996 19.0998C25.5996 19.1998 26.0996 19.1998 26.5996 19.3998C27.8996 19.6998 29.4996 19.8998 31.0996 19.8998C32.7996 19.8998 34.2996 19.8998 35.6996 19.4998C35.8996 19.3998 36.0997 19.2998 36.2997 19.2998C36.4997 19.1998 36.7996 19.1998 36.9996 19.1998C37.0996 19.1998 37.2997 18.9998 37.3997 18.8998C38.1997 18.4998 38.8996 18.0998 39.5996 17.5998C40.1996 17.1998 40.5997 16.8998 41.3997 16.5998C41.6997 16.4998 42.0997 16.2998 42.3997 16.1998C43.0997 15.9998 43.8997 15.7998 44.3997 15.3998C45.2997 14.8998 45.8996 14.0998 46.5996 13.3998C47.2996 12.7998 48.0997 12.0998 48.8997 11.4998C50.4997 10.1998 52.0996 9.0998 53.5996 7.8998C54.3996 7.2998 55.1997 6.6998 56.0997 6.1998C57.7997 5.1998 59.5997 4.0998 62.0997 3.8998C63.0997 3.7998 64.0997 3.7998 65.0997 3.8998C65.3997 3.8998 65.6996 4.0998 65.9996 3.9998C66.2996 3.8998 66.4997 3.4998 66.5997 3.1998C66.9997 2.4998 67.1997 2.0998 67.5997 1.2998C67.7997 0.799805 67.6996 0.299805 68.1996 0.299805C68.6996 0.299805 68.5997 1.5998 68.5997 2.0998C68.5997 2.6998 68.4997 3.4998 68.5997 3.8998C68.6997 4.1998 69.0996 4.5998 69.4996 4.5998C69.7996 4.5998 69.9996 4.3998 70.1996 4.1998C70.4996 3.9998 70.6996 3.9998 70.8996 3.7998C71.2996 3.4998 71.7996 2.9998 72.1996 2.5998C72.4996 2.2998 73.0997 1.3998 73.5997 1.4998C74.5997 1.5998 73.5996 3.0998 73.3996 3.4998C72.8996 4.5998 72.3997 5.4998 71.7997 6.4998C71.5997 6.8998 70.9996 7.4998 70.9996 7.9998C70.9996 8.2998 71.2996 8.4998 71.3996 8.8998C71.4996 9.0998 71.4997 9.1998 71.5997 9.3998C71.8997 10.1998 72.1996 11.2998 72.4996 12.1998C72.6996 12.9998 72.8996 13.7998 73.1996 14.4998C73.4996 15.1998 73.8996 15.8998 74.1996 16.6998C74.2996 16.8998 74.2996 17.0998 74.3996 17.2998C74.9996 18.8998 75.5996 20.6998 76.3996 22.2998C76.6996 22.8998 77.0997 23.6998 77.0997 24.5998C77.0997 25.5998 76.5997 26.0998 76.0997 26.8998C75.8997 27.2998 75.4997 27.8998 75.0997 27.9998C74.7997 28.0998 74.4996 27.9998 74.1996 27.9998C73.7996 28.0998 73.4996 28.2998 73.1996 28.2998C72.2996 28.3998 71.3996 27.6998 71.1996 26.9998C71.0996 26.7998 71.1997 26.4998 71.0997 26.1998C70.8997 25.0998 70.2997 24.5998 69.5997 23.7998C69.0997 23.2998 68.6997 22.9998 68.0997 22.6998C67.1997 22.1998 66.2997 21.9998 65.2997 21.4998C64.9997 21.2998 64.4996 21.0998 64.1996 21.1998C63.6996 21.2998 63.1997 22.0998 62.7997 22.5998C60.3997 25.7998 58.1996 29.0998 55.8996 32.1998C54.2996 34.2998 52.6997 36.3998 51.3997 38.6998C51.0997 39.2998 50.8996 39.9998 50.5996 40.6998C50.3996 41.3998 50.1996 42.0998 49.9996 42.8998C49.0996 45.4998 48.7996 48.6998 47.9996 51.3998C47.8996 51.6998 47.8997 51.9998 47.7997 52.2998C47.3997 53.6998 46.9996 55.2998 46.5996 56.7998C46.2996 57.8998 46.1996 59.3998 46.0996 60.7998C46.0996 62.1998 45.9996 64.0998 46.4996 64.8998C46.7996 65.3998 47.6996 65.4998 47.9996 65.9998C48.1996 66.2998 48.3996 66.9998 48.6996 67.3998C48.8996 67.6998 49.3997 68.2998 49.2997 68.7998C49.2997 69.0998 48.9996 69.3998 48.6996 69.4998C48.3996 69.5998 47.9996 69.5998 47.6996 69.6998C47.6996 70.0998 47.7996 70.4998 47.4996 70.6998Z"
    fill="#4E2817" />
  <path
    d="M381.399 19C375.699 19 371.499 20.8 367.599 24.8C364.699 20.8 360.499 19 355.399 19C351.199 19 346.899 20.7 343.899 23.8V19.6H332.699V65.6H344.199V37.8C344.199 31.5 348.299 29.4 351.899 29.4C355.499 29.4 359.499 31.5 359.499 37.8V65.6H370.999V37.5C370.999 31.5 375.199 29.4 378.699 29.4C382.299 29.4 386.299 31.5 386.299 37.8V65.6H397.799V36.2C397.799 31.2 396.499 26.8 392.799 23.1C390.099 20.5 385.999 19 381.399 19Z"
    fill="#F26922" />
  <path
    d="M431.3 47.4C431.3 53.7 427.2 55.8 423.6 55.8C420 55.8 416 53.7 416 47.4V19.5H404.5V49C404.5 54 405.5 58.4 409.2 62.1C411.8 64.7 415.5 66.2 420.1 66.2C424.3 66.2 428.6 64.6 431.6 61.4V65.6H442.8V19.6H431.3V47.4Z"
    fill="#F26922" />
  <path
    d="M461.6 51.7002V2.7002H450.1V52.4002C450.1 58.9002 454.1 65.6002 463.5 65.6002H470V55.9002H465.6C462.7 55.9002 461.6 54.5002 461.6 51.7002Z"
    fill="#F26922" />
  <path
    d="M512.2 41C512.2 28.4 505 19 492.1 19C480.2 19 472 27.5 472 42.5C472 61.1 482.4 66.1 493.3 66.1C501.6 66.1 506.1 63.5 510.8 58.9L503.8 52.1C500.9 55 498.4 56.4 493.4 56.4C486.9 56.4 483.3 52.1 483.3 46.2H512.2V41ZM483.4 38.3C483.5 36.3 483.8 35 484.5 33.4C485.7 30.7 488.3 28.6 492.2 28.6C496.1 28.6 498.6 30.6 499.9 33.4C500.6 35.1 500.9 36.3 501 38.3H483.4Z"
    fill="#F26922" />
</svg>