<svg viewBox="0 0 250 56" fill="none">
  <g clip-path="url(#clip0_2519_62)">
    <path
      d="M78.0591 8.71554C77.1405 5.28315 74.4428 2.58578 71.0105 1.66698C64.7956 4.98988e-07 39.8629 0 39.8629 0C39.8629 0 14.9306 4.98988e-07 8.71552 1.66698C5.28314 2.58578 2.58578 5.28315 1.66698 8.71554C4.98988e-07 14.9306 0 27.9055 0 27.9055C0 27.9055 4.98988e-07 40.8804 1.66698 47.0955C2.58578 50.5279 5.28314 53.2252 8.71552 54.1438C14.9306 55.8109 39.8629 55.8109 39.8629 55.8109C39.8629 55.8109 64.7956 55.8109 71.0105 54.1438C74.4428 53.2252 77.1405 50.5279 78.0591 47.0955C79.7262 40.8804 79.7262 27.9055 79.7262 27.9055C79.7262 27.9055 79.7195 14.9306 78.0591 8.71554Z"
      fill="#FF0000" />
    <path d="M31.8828 39.8644L52.5954 27.9069L31.8828 15.9492V39.8644Z" fill="white" />
    <path
      d="M96.5602 36.2859L87.6084 3.95703H95.4183L98.5554 18.612C99.356 22.2216 99.9401 25.2996 100.321 27.846H100.55C100.813 26.0215 101.404 22.9632 102.316 18.6645L105.564 3.95703H113.374L104.311 36.2859V51.7941H96.5538V36.2859H96.5602Z"
      fill="black" />
    <path
      d="M115.724 50.7702C114.149 49.707 113.026 48.0531 112.357 45.8086C111.694 43.5642 111.359 40.5847 111.359 36.8569V31.7836C111.359 28.0231 111.74 24.9977 112.501 22.7204C113.263 20.4431 114.45 18.7761 116.065 17.7326C117.679 16.6891 119.799 16.1641 122.424 16.1641C125.01 16.1641 127.077 16.6957 128.639 17.7589C130.195 18.822 131.337 20.489 132.059 22.7467C132.78 25.0108 133.142 28.0231 133.142 31.7836V36.8569C133.142 40.5847 132.787 43.5773 132.085 45.8349C131.383 48.0991 130.241 49.7531 128.665 50.7965C127.091 51.8401 124.951 52.365 122.254 52.365C119.471 52.3714 117.299 51.8334 115.724 50.7702ZM124.557 45.2969C124.99 44.155 125.214 42.2976 125.214 39.7119V28.824C125.214 26.3169 124.997 24.4792 124.557 23.3242C124.117 22.1626 123.35 21.585 122.247 21.585C121.184 21.585 120.429 22.1626 119.996 23.3242C119.556 24.4858 119.34 26.3169 119.34 28.824V39.7119C119.34 42.2976 119.55 44.1614 119.97 45.2969C120.39 46.4387 121.144 47.0097 122.247 47.0097C123.35 47.0097 124.117 46.4387 124.557 45.2969Z"
      fill="black" />
    <path
      d="M158.546 51.8005H152.391L151.708 47.5215H151.537C149.864 50.7504 147.357 52.3647 144.01 52.3647C141.693 52.3647 139.98 51.6035 138.878 50.0876C137.775 48.5648 137.224 46.1892 137.224 42.9603V16.8464H145.093V42.5007C145.093 44.0628 145.263 45.1718 145.604 45.8348C145.946 46.4976 146.517 46.8322 147.317 46.8322C148 46.8322 148.656 46.6223 149.286 46.2024C149.916 45.7821 150.376 45.2505 150.684 44.6076V16.8398H158.546V51.8005Z"
      fill="black" />
    <path d="M179.923 10.2895H172.113V51.7998H164.414V10.2895H156.604V3.96289H179.923V10.2895Z"
      fill="black" />
    <path
      d="M198.902 51.8005H192.746L192.063 47.5215H191.893C190.219 50.7504 187.712 52.3647 184.365 52.3647C182.048 52.3647 180.336 51.6035 179.233 50.0876C178.131 48.5648 177.579 46.1892 177.579 42.9603V16.8464H185.448V42.5007C185.448 44.0628 185.619 45.1718 185.96 45.8348C186.301 46.4976 186.872 46.8322 187.673 46.8322C188.355 46.8322 189.012 46.6223 189.642 46.2024C190.272 45.7821 190.731 45.2505 191.04 44.6076V16.8398H198.902V51.8005Z"
      fill="black" />
    <path
      d="M224.944 22.4314C224.465 20.2263 223.697 18.6315 222.634 17.6405C221.571 16.6495 220.107 16.1573 218.243 16.1573C216.8 16.1573 215.448 16.5642 214.194 17.3845C212.941 18.2049 211.969 19.2746 211.287 20.6069H211.228V2.19141H203.647V51.7938H210.145L210.945 48.4862H211.116C211.726 49.6674 212.639 50.5927 213.853 51.282C215.067 51.9646 216.419 52.3059 217.902 52.3059C220.56 52.3059 222.522 51.0786 223.776 48.6304C225.029 46.1759 225.659 42.3498 225.659 37.139V31.6064C225.659 27.7014 225.417 24.6365 224.944 22.4314ZM217.731 36.6925C217.731 39.2389 217.626 41.2341 217.416 42.6779C217.206 44.1217 216.858 45.1523 216.36 45.7559C215.868 46.3662 215.198 46.6681 214.365 46.6681C213.715 46.6681 213.118 46.5172 212.566 46.2088C212.015 45.9069 211.569 45.4475 211.228 44.8437V25.004C211.49 24.0524 211.95 23.278 212.599 22.6677C213.242 22.0573 213.951 21.7554 214.706 21.7554C215.507 21.7554 216.123 22.0704 216.557 22.6939C216.996 23.3239 217.298 24.374 217.469 25.8572C217.64 27.3404 217.725 29.4471 217.725 32.1838V36.6925H217.731Z"
      fill="black" />
    <path
      d="M236.822 38.7082C236.822 40.9526 236.888 42.6328 237.019 43.7551C237.151 44.8772 237.426 45.6912 237.846 46.2097C238.266 46.7215 238.909 46.9774 239.782 46.9774C240.957 46.9774 241.771 46.5181 242.204 45.6058C242.644 44.6936 242.88 43.1711 242.92 41.0447L249.706 41.4448C249.745 41.7468 249.764 42.1668 249.764 42.6984C249.764 45.9273 248.878 48.3425 247.113 49.9373C245.348 51.5321 242.847 52.3327 239.618 52.3327C235.74 52.3327 233.023 51.1185 231.467 48.6838C229.905 46.249 229.131 42.4885 229.131 37.3955V31.292C229.131 26.0483 229.938 22.2156 231.553 19.8005C233.167 17.3853 235.93 16.1777 239.848 16.1777C242.545 16.1777 244.619 16.67 246.063 17.661C247.507 18.6519 248.524 20.1877 249.115 22.2812C249.706 24.3748 250.001 27.2625 250.001 30.9507V36.9362H236.822V38.7082ZM237.82 22.2353C237.42 22.7275 237.157 23.5348 237.019 24.657C236.888 25.7793 236.822 27.4791 236.822 29.7631V32.2701H242.578V29.7631C242.578 27.5184 242.5 25.8187 242.349 24.657C242.198 23.4954 241.922 22.6816 241.521 22.2025C241.121 21.73 240.504 21.4871 239.671 21.4871C238.831 21.4937 238.214 21.7431 237.82 22.2353Z"
      fill="black" />
  </g>
  <defs>
    <clipPath id="clip0_2519_62">
      <rect width="250" height="55.811" fill="white" />
    </clipPath>
  </defs>
</svg>
